<?xml version="1.0" encoding="utf-8"?>
<!-- Generator: Adobe Illustrator 24.3.0, SVG Export Plug-In . SVG Version: 6.00 Build 0)  -->
<svg version="1.1" id="Layer_1" xmlns="http://www.w3.org/2000/svg" xmlns:xlink="http://www.w3.org/1999/xlink" x="0px" y="0px"
	 viewBox="0 0 78 237" style="enable-background:new 0 0 78 237;" xml:space="preserve">
<style type="text/css">
	.st0{fill:none;stroke:#FFFFFF;stroke-miterlimit:10;}
	.st1{fill:none;stroke:#2E3192;stroke-miterlimit:10;}
	.st2{fill:#AA802D;}
	.st3{fill:#0C233F;}
	.st4{fill:#CCCCCC;}
	.st5{opacity:0.3;fill:#999999;}
	.st6{fill:#FFFFFF;stroke:#999999;stroke-miterlimit:10;}
	.st7{fill:#C4C5C6;}
	.st8{fill:#707372;}
	.st9{fill:#F2F2F2;}
	.st10{fill:#A5A5A7;}
	.st11{fill:#273777;}
	.st12{fill:#A9AAAC;}
	.st13{fill:#CCD533;}
	.st14{fill:#71B545;}
	.st15{fill:#24B3BA;}
	.st16{fill:#58B15A;}
	.st17{fill:#2684C6;}
	.st18{fill:#1E3A6D;}
	.st19{fill:#6F787F;}
	.st20{fill:#ECECEC;}
	.st21{fill:none;stroke:#F7931E;stroke-width:0.75;stroke-miterlimit:10;}
	.st22{opacity:0.9;fill:#0C233F;}
	.st23{fill:#FFFFFF;}
	.st24{fill-rule:evenodd;clip-rule:evenodd;fill:#CCCCCC;}
	.st25{fill:url(#SVGID_3_);}
	.st26{fill:url(#SVGID_4_);stroke:#FFFFFF;stroke-width:1.2769;stroke-miterlimit:10;}
	.st27{fill:url(#SVGID_5_);}
	.st28{fill:url(#SVGID_6_);}
	.st29{fill:url(#SVGID_7_);stroke:#FFFFFF;stroke-width:1.2769;stroke-miterlimit:10;}
	.st30{fill:url(#SVGID_8_);}
	.st31{fill:url(#SVGID_9_);}
	.st32{fill:url(#SVGID_10_);stroke:#FFFFFF;stroke-width:1.2769;stroke-miterlimit:10;}
	.st33{fill:url(#SVGID_11_);}
	.st34{fill:url(#SVGID_12_);}
	.st35{fill:url(#SVGID_13_);}
	.st36{fill:url(#SVGID_14_);stroke:#FFFFFF;stroke-width:1.2769;stroke-miterlimit:10;}
	.st37{fill:url(#SVGID_15_);}
	.st38{fill:url(#SVGID_16_);}
	.st39{fill:url(#SVGID_17_);stroke:#FFFFFF;stroke-width:1.2769;stroke-miterlimit:10;}
	.st40{fill:url(#SVGID_18_);}
	.st41{fill:url(#SVGID_19_);}
	.st42{fill:url(#SVGID_20_);}
	.st43{fill:url(#SVGID_21_);stroke:#FFFFFF;stroke-width:1.2769;stroke-miterlimit:10;}
	.st44{fill:url(#SVGID_22_);}
	.st45{fill:url(#SVGID_23_);}
	.st46{fill:url(#SVGID_24_);stroke:#FFFFFF;stroke-width:1.2769;stroke-miterlimit:10;}
	.st47{fill:url(#SVGID_25_);}
	.st48{fill:url(#SVGID_26_);}
	.st49{fill:url(#SVGID_27_);}
	.st50{fill:url(#SVGID_28_);stroke:#FFFFFF;stroke-width:1.2769;stroke-miterlimit:10;}
	.st51{fill:url(#SVGID_29_);}
	.st52{fill:url(#SVGID_30_);}
	.st53{fill:url(#SVGID_31_);stroke:#FFFFFF;stroke-width:1.2769;stroke-miterlimit:10;}
	.st54{fill:url(#SVGID_32_);}
	.st55{fill:url(#SVGID_33_);}
	.st56{fill:url(#SVGID_34_);}
	.st57{fill:url(#SVGID_35_);stroke:#FFFFFF;stroke-width:1.2769;stroke-miterlimit:10;}
	.st58{fill:url(#SVGID_36_);}
	.st59{fill:url(#SVGID_37_);}
	.st60{fill:url(#SVGID_38_);stroke:#FFFFFF;stroke-width:1.2769;stroke-miterlimit:10;}
	.st61{fill:url(#SVGID_39_);}
	.st62{fill:url(#SVGID_40_);}
	.st63{fill:url(#SVGID_41_);}
	.st64{fill:#FEFDFF;}
	.st65{fill:url(#SVGID_42_);}
	.st66{fill:url(#SVGID_43_);}
	.st67{fill:url(#SVGID_44_);}
	.st68{fill:url(#SVGID_45_);}
	.st69{fill:url(#SVGID_46_);}
	.st70{fill:url(#SVGID_47_);}
	.st71{fill:url(#SVGID_48_);}
	.st72{fill:url(#SVGID_49_);}
	.st73{fill:url(#SVGID_50_);}
</style>
<line class="st0" x1="2916" y1="-1686" x2="1057" y2="-1686"/>
<line class="st1" x1="2916" y1="-1069.5" x2="1057" y2="-1069.5"/>
<g>
	<rect x="2751" y="-1648" class="st2" width="12" height="88"/>
	<text transform="matrix(1 0 0 1 2487.6057 -1573.9879)" class="st3" style="font-family:'GEDinarTwo-Medium'; font-size:60px;">روطس يف</text>
</g>
<g>
	<rect x="2751" y="-1022" class="st2" width="12" height="88"/>
	<text transform="matrix(1 0 0 1 2289.9709 -947.9879)" class="st3" style="font-family:'GEDinarTwo-Medium'; font-size:60px;">ةيمومعلا ةيعمجلا</text>
</g>
<line class="st1" x1="2916" y1="-401.5" x2="1057" y2="-401.5"/>
<g>
	<rect x="2751" y="-354" class="st2" width="12" height="88"/>
	<text transform="matrix(1 0 0 1 2256.1292 -279.9879)" class="st3" style="font-family:'GEDinarTwo-Medium'; font-size:60px;">ةرادلا سلجم ءاضعأ</text>
</g>
<g>
	<path class="st1" d="M2192.9,878"/>
	<rect x="1026" y="745" class="st3" width="1920" height="388"/>
	<g>
		<g>
			<text transform="matrix(1 0 0 1 2562.3516 813.269)"><tspan x="0" y="0" class="st4" style="font-family:'GEDinarOne-Medium'; font-size:24px;">ةيدوعسلا ةيبرعلا ةكلمملا</tspan><tspan x="106.1" y="28.8" class="st4" style="font-family:'GEDinarOne-Medium'; font-size:24px;"> </tspan><tspan x="110" y="28.8" class="st4" style="font-family:'GEDinarOne-Medium'; font-size:24px;">ةشيب ةظفاحم</tspan></text>
		</g>
	</g>
	<g>
		<g>
			<text transform="matrix(1 0 0 1 2493.5562 1105.0986)" class="st4" style="font-family:'GeezaPro-Bold'; font-size:22px;">ةيبابشلا قبع ةيعمل ةظوفحم قوقلا عيمج</text>
		</g>
		<g>
			<text transform="matrix(1 0 0 1 2400.4507 1105.0986)" class="st4" style="font-family:'MyriadPro-Regular'; font-size:22px;">2021 </text>
		</g>
		<g>
			<g>
				<g>
					<path class="st4" d="M2384.1,1103.3c-0.4,0.2-1.3,0.4-2.4,0.4c-2.6,0-4.5-1.6-4.5-4.6c0-2.9,1.9-4.8,4.8-4.8
						c1.1,0,1.9,0.2,2.2,0.4l-0.3,1c-0.4-0.2-1.1-0.4-1.8-0.4c-2.1,0-3.6,1.4-3.6,3.8c0,2.2,1.3,3.7,3.5,3.7c0.7,0,1.4-0.1,1.9-0.4
						L2384.1,1103.3z"/>
				</g>
			</g>
			<g>
				<g>
					<path class="st4" d="M2380.6,1108c-5,0-9-4-9-9s4-9,9-9c5,0,9,4,9,9S2385.6,1108,2380.6,1108z M2380.6,1091c-4.4,0-8,3.6-8,8
						c0,4.4,3.6,8,8,8c4.4,0,8-3.6,8-8C2388.6,1094.6,2385,1091,2380.6,1091z"/>
				</g>
			</g>
		</g>
	</g>
	<g>
		<g>
			<text transform="matrix(1 0 0 1 2747.9575 880.983)"><tspan x="0" y="0" class="st9" style="font-family:'GEDinarOne-Medium'; font-size:16.9296px;">فتاه</tspan><tspan x="-11.8" y="30.5" class="st9" style="font-family:'GEDinarOne-Medium'; font-size:16.9296px;">سكاف</tspan><tspan x="0.7" y="60.9" class="st9" style="font-family:'GEDinarOne-Medium'; font-size:16.9296px;">لاوج</tspan><tspan x="-98.6" y="121.9" class="st9" style="font-family:'MyriadPro-Regular'; font-size:20.3155px;"> </tspan><tspan x="-94.3" y="121.9" class="st9" style="font-family:'GEDinarOne-Medium'; font-size:20.3155px;">ينورتكللا</tspan><tspan x="-15.7" y="121.9" class="st9" style="font-family:'MyriadPro-Regular'; font-size:20.3155px;"> </tspan><tspan x="-11.3" y="121.9" class="st9" style="font-family:'GEDinarOne-Medium'; font-size:20.3155px;">ديربلا</tspan><tspan x="-155.6" y="152.4" class="st9" style="font-family:'MyriadPro-Regular'; font-size:20.3155px;">abeq2020@gmail.com</tspan></text>
		</g>
	</g>
</g>
<g>
	<defs>
		<rect id="SVGID_1_" x="1026" y="-1849" width="1920" height="824"/>
	</defs>
	<clipPath id="SVGID_2_">
		<use xlink:href="#SVGID_1_"  style="overflow:visible;"/>
	</clipPath>
</g>
<rect x="1025.5" y="-1736.5" class="st3" width="1921" height="8"/>
<g>
	<rect x="1026" y="-1849" class="st3" width="1920" height="113"/>
	<g>
		<g>
			<text transform="matrix(1 0 0 1 2338.4805 -1776.1394)" class="st2" style="font-family:'GEDinarTwo-Medium'; font-size:26px;">نحن نم</text>
		</g>
		<g>
			<text transform="matrix(1 0 0 1 1950.8965 -1776.1394)" class="st2" style="font-family:'GEDinarTwo-Medium'; font-size:26px;">ةيئارجلا ةلدلاو تاسايسلا</text>
		</g>
		<g>
			<text transform="matrix(1 0 0 1 1736.3799 -1776.1394)" class="st2" style="font-family:'GEDinarTwo-Medium'; font-size:26px;">انتردابم</text>
		</g>
		<g>
			<path class="st5" d="M1136.7-1755.7h320.1c4.6,0,8.4-3.8,8.4-8.4v-28.2c0-4.6-3.8-8.4-8.4-8.4h-320.1c-4.6,0-8.4,3.8-8.4,8.4
				v28.2C1128.3-1759.5,1132.1-1755.7,1136.7-1755.7z"/>
			<g>
				<g>
					<path class="st6" d="M1455-1762H1135c-4.6,0-8.4-3.8-8.4-8.4v-28.2c0-4.6,3.8-8.4,8.4-8.4H1455c4.6,0,8.4,3.8,8.4,8.4v28.2
						C1463.4-1765.7,1459.6-1762,1455-1762z"/>
				</g>
				<g>
					<g>
						<path class="st7" d="M1435.6-1778.3c-2.1,0-4.3-0.8-5.9-2.4c-3.3-3.3-3.3-8.6,0-11.8c3.3-3.3,8.6-3.3,11.8,0l0,0
							c3.3,3.3,3.3,8.6,0,11.8C1439.9-1779.1,1437.7-1778.3,1435.6-1778.3z M1435.6-1793.3c-1.7,0-3.4,0.7-4.7,2
							c-2.6,2.6-2.6,6.8,0,9.4c2.6,2.6,6.8,2.6,9.4,0c2.6-2.6,2.6-6.8,0-9.4C1439-1792.7,1437.3-1793.3,1435.6-1793.3z"/>
					</g>
					<g>
						<path class="st7" d="M1447.5-1773c-0.4,0-0.9-0.2-1.2-0.5l-5.9-5.9c-0.7-0.7-0.7-1.7,0-2.4c0.7-0.7,1.7-0.7,2.4,0l5.9,5.9
							c0.7,0.7,0.7,1.7,0,2.4C1448.4-1773.2,1447.9-1773,1447.5-1773z"/>
					</g>
				</g>
				<g>
					<path class="st7" d="M1145.6-1779.4c-0.7-0.3-1.4-0.8-2.1-1.4c-0.2-0.1-0.2-0.3-0.2-0.5c0-0.2,0.1-0.3,0.2-0.4
						c0.1-0.1,0.3-0.2,0.4-0.2c0.2,0,0.3,0.1,0.4,0.2c1,1.1,2.3,1.7,3.8,1.7c0.9,0,1.7-0.2,2.3-0.7c0.6-0.4,0.9-1,0.9-1.7
						c0-0.6-0.2-1-0.5-1.4c-0.3-0.4-0.7-0.7-1.2-0.9c-0.5-0.2-1.1-0.5-1.9-0.7c-0.8-0.2-1.5-0.5-2.1-0.8c-0.6-0.3-1-0.7-1.4-1.2
						c-0.3-0.5-0.5-1.1-0.5-1.9c0-0.7,0.2-1.3,0.5-1.8c0.4-0.5,0.9-0.9,1.5-1.2c0.7-0.3,1.4-0.5,2.3-0.5c0.8,0,1.5,0.1,2.2,0.4
						c0.7,0.3,1.2,0.6,1.6,1.1c0.2,0.2,0.3,0.4,0.3,0.6c0,0.1-0.1,0.3-0.2,0.4c-0.1,0.1-0.3,0.2-0.4,0.2c-0.1,0-0.2,0-0.3-0.1
						c-0.3-0.4-0.8-0.7-1.4-1c-0.6-0.3-1.2-0.4-1.8-0.4c-0.9,0-1.7,0.2-2.3,0.6c-0.6,0.4-0.9,1-0.9,1.7c0,0.7,0.3,1.3,0.8,1.7
						c0.6,0.4,1.4,0.8,2.4,1.1c0.9,0.3,1.7,0.5,2.2,0.8c0.6,0.3,1.1,0.7,1.4,1.2c0.4,0.5,0.5,1.2,0.5,2.1c0,0.7-0.2,1.3-0.6,1.8
						c-0.4,0.5-0.9,1-1.6,1.3c-0.7,0.3-1.4,0.5-2.3,0.5C1147.2-1778.9,1146.4-1779.1,1145.6-1779.4z"/>
					<path class="st7" d="M1163.2-1784.2c-0.1,0.1-0.3,0.2-0.4,0.2h-7.3c0,0.8,0.2,1.5,0.5,2.1c0.3,0.6,0.8,1.1,1.4,1.4
						c0.6,0.4,1.3,0.5,2.1,0.5c0.6,0,1.2-0.1,1.7-0.4c0.5-0.3,0.9-0.6,1.2-1c0.1-0.1,0.3-0.2,0.4-0.2c0.1,0,0.2,0.1,0.3,0.2
						c0.1,0.1,0.2,0.2,0.2,0.3c0,0.1-0.1,0.3-0.2,0.4c-0.4,0.5-0.9,0.9-1.6,1.2c-0.6,0.3-1.3,0.5-2,0.5c-1,0-1.9-0.2-2.6-0.6
						c-0.8-0.4-1.4-1-1.8-1.8c-0.4-0.8-0.6-1.6-0.6-2.7c0-1.1,0.2-2,0.6-2.8c0.4-0.8,1-1.4,1.7-1.8c0.7-0.4,1.4-0.6,2.2-0.6
						c0.8,0,1.5,0.2,2.2,0.5c0.7,0.4,1.2,0.9,1.6,1.6c0.4,0.7,0.6,1.5,0.7,2.5C1163.3-1784.5,1163.3-1784.3,1163.2-1784.2z
						 M1156.8-1787.3c-0.6,0.5-1,1.3-1.2,2.2h6.6v-0.2c-0.1-0.6-0.3-1.1-0.6-1.5c-0.3-0.4-0.7-0.8-1.2-1c-0.5-0.2-1-0.3-1.5-0.3
						C1158.1-1788.1,1157.4-1787.8,1156.8-1787.3z"/>
					<path class="st7" d="M1174.2-1788.8c0.1,0.1,0.2,0.3,0.2,0.4v8.7c0,0.2-0.1,0.3-0.2,0.4c-0.1,0.1-0.2,0.2-0.4,0.2
						s-0.3-0.1-0.4-0.2c-0.1-0.1-0.2-0.2-0.2-0.4v-1.3c-0.3,0.6-0.8,1.1-1.4,1.5c-0.6,0.4-1.3,0.6-2.1,0.6c-0.9,0-1.6-0.2-2.3-0.7
						c-0.7-0.4-1.2-1.1-1.6-1.9c-0.4-0.8-0.6-1.7-0.6-2.6c0-1,0.2-1.9,0.6-2.6c0.4-0.8,0.9-1.4,1.6-1.8c0.7-0.4,1.4-0.7,2.3-0.7
						c0.8,0,1.5,0.2,2.1,0.6c0.6,0.4,1.1,0.9,1.4,1.5v-1.2c0-0.2,0.1-0.3,0.2-0.4c0.1-0.1,0.2-0.2,0.4-0.2
						S1174.1-1788.9,1174.2-1788.8z M1171.6-1780.6c0.5-0.4,1-0.8,1.3-1.5s0.5-1.3,0.5-2.1c0-0.7-0.2-1.4-0.5-2
						c-0.3-0.6-0.7-1.1-1.3-1.5c-0.5-0.4-1.1-0.5-1.8-0.5c-0.7,0-1.3,0.2-1.8,0.5c-0.5,0.3-1,0.8-1.3,1.4c-0.3,0.6-0.5,1.3-0.5,2.1
						c0,0.8,0.1,1.5,0.4,2.1c0.3,0.6,0.7,1.1,1.2,1.5c0.5,0.4,1.1,0.5,1.8,0.5C1170.5-1780,1171.1-1780.2,1171.6-1780.6z"/>
					<path class="st7" d="M1182.7-1789.1c0.2,0.1,0.3,0.3,0.3,0.5c0,0.2-0.1,0.3-0.2,0.4c-0.1,0.1-0.2,0.2-0.4,0.2
						c-0.1,0-0.2,0-0.4-0.1c-0.2-0.1-0.4-0.1-0.5-0.1c-0.5,0-0.9,0.2-1.4,0.5c-0.5,0.4-0.9,0.8-1.2,1.4c-0.3,0.6-0.5,1.2-0.5,1.8
						v4.8c0,0.2-0.1,0.3-0.2,0.4c-0.1,0.1-0.2,0.2-0.4,0.2c-0.2,0-0.3-0.1-0.4-0.2c-0.1-0.1-0.2-0.2-0.2-0.4v-8.6
						c0-0.2,0.1-0.3,0.2-0.4c0.1-0.1,0.2-0.2,0.4-0.2c0.2,0,0.3,0.1,0.4,0.2c0.1,0.1,0.2,0.2,0.2,0.4v1.7c0.3-0.7,0.7-1.3,1.3-1.8
						c0.6-0.5,1.3-0.7,2.1-0.7C1182.3-1789.2,1182.5-1789.2,1182.7-1789.1z"/>
					<path class="st7" d="M1190.4-1789c0.5,0.1,0.9,0.3,1.3,0.5c0.3,0.2,0.5,0.5,0.5,0.8c0,0.1,0,0.3-0.1,0.4
						c-0.1,0.1-0.2,0.2-0.4,0.2c-0.1,0-0.2,0-0.3-0.1c-0.1-0.1-0.2-0.1-0.3-0.2c-0.2-0.2-0.3-0.3-0.5-0.4c-0.2-0.1-0.4-0.2-0.8-0.2
						c-0.3-0.1-0.7-0.1-1-0.1c-0.7,0-1.4,0.2-1.9,0.5c-0.6,0.4-1,0.8-1.4,1.5c-0.3,0.6-0.5,1.3-0.5,2c0,0.8,0.2,1.5,0.5,2.1
						c0.3,0.6,0.8,1.1,1.3,1.5c0.6,0.4,1.2,0.5,2,0.5c0.5,0,0.8,0,1.1-0.1c0.3-0.1,0.5-0.2,0.8-0.3c0.1-0.1,0.2-0.2,0.5-0.3
						c0.1-0.1,0.2-0.2,0.3-0.2c0.1,0,0.2-0.1,0.3-0.1c0.2,0,0.3,0,0.4,0.1c0.1,0.1,0.1,0.2,0.1,0.4c0,0.2-0.2,0.5-0.5,0.7
						c-0.3,0.3-0.7,0.5-1.3,0.6c-0.5,0.2-1.1,0.3-1.8,0.3c-0.9,0-1.8-0.2-2.5-0.7c-0.7-0.4-1.3-1.1-1.7-1.8
						c-0.4-0.8-0.6-1.7-0.6-2.6c0-0.9,0.2-1.8,0.6-2.6c0.4-0.8,1-1.4,1.7-1.9c0.7-0.5,1.6-0.7,2.6-0.7
						C1189.3-1789.2,1189.9-1789.2,1190.4-1789z"/>
					<path class="st7" d="M1201.4-1788c0.6,0.7,0.8,1.7,0.8,2.8v5.5c0,0.2-0.1,0.3-0.2,0.4c-0.1,0.1-0.2,0.2-0.4,0.2
						c-0.2,0-0.3-0.1-0.4-0.2c-0.1-0.1-0.2-0.2-0.2-0.4v-5.5c0-0.8-0.2-1.5-0.6-2c-0.4-0.5-1-0.8-1.9-0.8c-0.5,0-1.1,0.1-1.5,0.4
						c-0.5,0.3-0.9,0.6-1.2,1c-0.3,0.4-0.4,0.9-0.4,1.4v5.5c0,0.2-0.1,0.3-0.2,0.4c-0.1,0.1-0.2,0.2-0.4,0.2c-0.2,0-0.3-0.1-0.4-0.2
						c-0.1-0.1-0.2-0.2-0.2-0.4v-13.1c0-0.2,0.1-0.3,0.2-0.4c0.1-0.1,0.2-0.2,0.4-0.2c0.2,0,0.3,0.1,0.4,0.2
						c0.1,0.1,0.2,0.2,0.2,0.4v5.7c0.3-0.6,0.8-1,1.4-1.4c0.6-0.4,1.2-0.5,1.9-0.5C1200-1789.1,1200.8-1788.7,1201.4-1788z"/>
					<path class="st7" d="M1204.9-1779.3c-0.1-0.1-0.2-0.3-0.2-0.6v-0.4c0-0.2,0.1-0.4,0.2-0.5c0.1-0.1,0.3-0.2,0.5-0.2h0.1
						c0.2,0,0.4,0.1,0.5,0.2c0.1,0.1,0.2,0.3,0.2,0.5v0.4c0,0.2-0.1,0.4-0.2,0.6c-0.1,0.1-0.3,0.2-0.5,0.2h-0.1
						C1205.2-1779.1,1205.1-1779.2,1204.9-1779.3z"/>
					<path class="st7" d="M1208.4-1779.3c-0.1-0.1-0.2-0.3-0.2-0.6v-0.4c0-0.2,0.1-0.4,0.2-0.5c0.1-0.1,0.3-0.2,0.5-0.2h0.1
						c0.2,0,0.4,0.1,0.5,0.2c0.1,0.1,0.2,0.3,0.2,0.5v0.4c0,0.2-0.1,0.4-0.2,0.6c-0.1,0.1-0.3,0.2-0.5,0.2h-0.1
						C1208.7-1779.1,1208.6-1779.2,1208.4-1779.3z"/>
					<path class="st7" d="M1211.9-1779.3c-0.1-0.1-0.2-0.3-0.2-0.6v-0.4c0-0.2,0.1-0.4,0.2-0.5c0.1-0.1,0.3-0.2,0.5-0.2h0.1
						c0.2,0,0.4,0.1,0.5,0.2c0.1,0.1,0.2,0.3,0.2,0.5v0.4c0,0.2-0.1,0.4-0.2,0.6c-0.1,0.1-0.3,0.2-0.5,0.2h-0.1
						C1212.2-1779.1,1212-1779.2,1211.9-1779.3z"/>
				</g>
			</g>
		</g>
	</g>
	<g>
		<g>
			<path class="st8" d="M2784-1762.6c-0.1,0-0.1-0.2,0-0.2l1.5-3.2c0.2-0.2,0.2-0.2,0.3-0.2c0.2,0,0.8,0.4,2,1.2s1.9,1.3,1.9,1.5
				c0,0.5-0.6,1.6-1.6,3.4c-0.2,0.2-0.2,0.3-0.4,0.2C2786.5-1760.9,2785.3-1761.8,2784-1762.6"/>
			<path class="st8" d="M2778.2-1816.2c-0.1,0-0.1-0.2,0-0.2l1.5-3.2c0.2-0.2,0.2-0.2,0.3-0.2c0.2,0,0.8,0.4,2,1.2
				c1.2,0.8,1.9,1.3,1.9,1.5c0,0.5-0.6,1.6-1.6,3.4c-0.2,0.2-0.2,0.3-0.4,0.2C2780.6-1814.6,2779.4-1815.4,2778.2-1816.2"/>
			<path class="st8" d="M2780.8-1810.9c-0.1-0.1,0-0.2,0-0.2l1.5-3.2c0.2-0.2,0.2-0.2,0.3-0.2c0.2,0,0.8,0.4,2,1.2s1.9,1.3,1.9,1.5
				c0,0.5-0.6,1.6-1.6,3.4c-0.2,0.2-0.2,0.3-0.4,0.2C2783.2-1809.3,2782-1810.1,2780.8-1810.9"/>
			<path class="st2" d="M2811.6-1785c-1.1-0.1-2.2,0.2-3.3,0.6c-11,4-17.3,15.9-17.2,16.1c0.1,0.1,4.6,0.9,7.5-0.4
				c6.2-2.8,9.4-8.7,9.2-8.9c-0.1-0.1-0.3,0-0.4,0.1c0,0-1.9,3.2-8.4,6.1c-1.8,0.8-3.7,0.9-5.5,0.8c3.3-4.1,6.4-7,9.8-9.1
				c2.5-1.6,4.7-2.4,6.7-2.6c0.4,0,0.7-0.1,1.1,0c0.1,0,0.3,0,0.5-0.3c0.2-0.3,0.3-1.5,0.3-2C2812-1784.8,2811.8-1785,2811.6-1785z"
				/>
			<path class="st9" d="M2768-1819.9c0,0-0.6,1.2-1.2,3.4c0.8,0.7,1.2,1.1,1.2,1.1c0,0,0,0,0,0c0,0,0,0,0,0l0,0
				c14.3,13.9,16.8,36.9,17.2,42.8c0.4,0.4,1,0.8,1.5,1.1C2786.9-1777.4,2786.2-1806,2768-1819.9z"/>
			<path class="st2" d="M2786.2-1770.7c-0.5-0.3-1.2-0.8-1.6-1.2c-3.5-3.2-15.5-17.7-16.4-41.3c-0.4-0.4-0.7-0.7-1.1-1.1l0,0
				c0,0,0,0,0,0c0,0,0,0,0,0c0,0-0.2-0.2-0.5-0.5c-0.4,2.4-0.7,5.6-0.2,9.4c2.8,20.1,15.8,33.4,17.3,34.4l-0.5-0.1
				c-8.4-0.8-16.4-4.5-22.4-10.6c-0.2-0.2-4.8-5.5-6.2-9.2c0,0,9-0.3,14.7,6c0.1,0.1,0.2,0,0.1-0.1c-0.9-1.3-2-2.5-3.1-3.5
				c-6-5.8-12.6-6.5-14.4-6.3c0,0,0.4,4.9,6.1,12.9c6.1,8.7,15.1,12,15.1,12c3.1,1.1,6.4,1.7,9.7,1.6c0.9,0,1.8-0.1,2.6-0.2l0.8-0.8
				c0.8,0.5,1.9,1,3.2,1.5c0.1,0,0.1,0,0.1-0.1c0-0.2,0.1-1.2,0.1-1.2C2788.4-1769.5,2787-1770.2,2786.2-1770.7z"/>
			<path class="st9" d="M2802.9-1801.5c0,0-0.1-1.8-0.4-1.9l-0.2-0.1l-0.2,0.1c-4.2,2.8-7.4,7.5-9.8,14.6c-1.6,4.7-2.8,9.8-3.4,15.7
				c-0.1,0.7-0.2,1.6-0.3,2.5c0.4,0.2,0.8,0.4,1.2,0.5c0.1-0.6,0.1-1.2,0.2-2c0.4-3.1,1-6.1,1.7-8.9c1.5-5.7,4.1-13.7,10.1-18.2
				c0.6-0.4,1.1-1.4,1.1-2.2L2802.9-1801.5z"/>
		</g>
		<g>
			<g>
				<path class="st9" d="M2610.2-1786.8c0.4,0,0.8-0.2,1.1-0.5c0.3-0.3,0.5-0.7,0.5-1.1s-0.2-0.8-0.5-1.1c-0.3-0.3-0.7-0.5-1.1-0.5
					s-0.8,0.2-1.1,0.5c-0.3,0.3-0.5,0.7-0.5,1.1c0,0.4,0.2,0.8,0.5,1.1C2609.4-1787,2609.7-1786.8,2610.2-1786.8z"/>
				<path class="st9" d="M2614.8-1786.8c0.4,0,0.8-0.2,1.1-0.5c0.3-0.3,0.5-0.7,0.5-1.1s-0.2-0.8-0.5-1.1c-0.3-0.3-0.7-0.5-1.1-0.5
					s-0.8,0.2-1.1,0.5c-0.3,0.3-0.5,0.7-0.5,1.1c0,0.4,0.2,0.8,0.5,1.1C2613.9-1787,2614.3-1786.8,2614.8-1786.8z"/>
				<path class="st9" d="M2618.5-1768.2c-0.4,0-0.8,0.2-1.1,0.5c-0.3,0.3-0.5,0.7-0.5,1.1c0,0.4,0.2,0.8,0.5,1.1
					c0.3,0.3,0.7,0.5,1.1,0.5c0.4,0,0.8-0.2,1.1-0.5c0.3-0.3,0.5-0.7,0.5-1.1s-0.2-0.8-0.5-1.1
					C2619.3-1768,2618.9-1768.2,2618.5-1768.2z"/>
				<path class="st9" d="M2623.1-1768.2c-0.4,0-0.8,0.2-1.1,0.5c-0.3,0.3-0.5,0.7-0.5,1.1c0,0.4,0.2,0.8,0.5,1.1
					c0.3,0.3,0.7,0.5,1.1,0.5c0.4,0,0.8-0.2,1.1-0.5c0.3-0.3,0.5-0.7,0.5-1.1s-0.2-0.8-0.5-1.1S2623.5-1768.2,2623.1-1768.2z"/>
				<path class="st9" d="M2631.9-1768.2c-0.4,0-0.8,0.2-1.1,0.5s-0.5,0.7-0.5,1.1s0.2,0.8,0.5,1.1c0.3,0.3,0.7,0.5,1.1,0.5
					s0.8-0.2,1.1-0.5c0.3-0.3,0.5-0.7,0.5-1.1c0-0.4-0.2-0.8-0.5-1.1C2632.8-1768,2632.4-1768.2,2631.9-1768.2z"/>
				<path class="st9" d="M2633.6-1784.1c-0.7,0.4-1,0.9-1,1.5v7.4c0,1.6-0.7,2.4-2.1,2.4h-1.4c-0.7,0-1.4-0.2-2-0.5
					c-0.6-0.3-1-0.7-1.3-1.2v-9.4h-0.1c-0.5,0-1,0.2-1.6,0.6c-0.7,0.4-1,0.9-1,1.5v5.8c0,0.5,0,0.8,0,1.1c0,0.3-0.1,0.6-0.2,1
					c-0.1,0.3-0.3,0.6-0.6,0.8c-0.3,0.2-0.6,0.3-1,0.3h-2.3c-0.7,0-1.2-0.1-1.6-0.4c-0.3-0.3-0.5-0.7-0.5-1.4v-9.3l-0.1,0
					c-0.5-0.1-1.3-0.1-2.5-0.1c-0.8,0-1.7,0.2-2.6,0.5c-0.9,0.3-1.8,0.8-2.7,1.3c-0.8,0.6-1.6,1.3-2.1,2.2c-0.6,0.9-0.9,1.8-0.9,2.8
					c0,0.5,0.1,0.9,0.2,1.4c0.1,0.4,0.3,0.9,0.6,1.4c0.3,0.5,0.8,0.9,1.4,1.2c0.6,0.3,1.4,0.4,2.3,0.4c0.6,0,1.3-0.2,2.1-0.5
					c0.7-0.3,1.2-0.5,1.5-0.8c0.1,1.1,0.4,2,1.1,2.6c0.7,0.6,1.7,1,3,1h3.5c2,0,3.3-0.8,3.8-2.5c0.5,0.6,1.1,1.2,1.8,1.7
					c0.8,0.5,1.7,0.8,2.6,0.8h1.9c1.2,0,2.1-0.4,2.7-1.2c0.6-0.8,0.9-1.9,0.9-3.2v-9.6h-0.1
					C2634.8-1784.7,2634.3-1784.5,2633.6-1784.1z M2614.1-1783v7.5c-0.3,0.2-0.7,0.4-1.2,0.6c-0.6,0.2-1,0.3-1.4,0.3
					c-0.9,0-1.6-0.3-2.1-0.8c-0.5-0.5-0.7-1.1-0.7-1.8c0-1.5,0.6-2.9,1.8-4C2611.7-1782.3,2612.9-1782.9,2614.1-1783z"/>
				<path class="st9" d="M2647.5-1768.2c-0.4,0-0.8,0.2-1.1,0.5s-0.5,0.7-0.5,1.1s0.2,0.8,0.5,1.1c0.3,0.3,0.7,0.5,1.1,0.5
					s0.8-0.2,1.1-0.5c0.3-0.3,0.5-0.7,0.5-1.1s-0.2-0.8-0.5-1.1S2647.9-1768.2,2647.5-1768.2z"/>
				<path class="st9" d="M2666.7-1791.2c0.4,0,0.8-0.2,1.1-0.4c0.3-0.3,0.4-0.7,0.4-1.1c0-0.4-0.1-0.8-0.4-1.1
					c-0.3-0.3-0.6-0.4-1.1-0.4c-0.4,0-0.8,0.2-1.1,0.4c-0.3,0.3-0.4,0.7-0.4,1.1c0,0.4,0.1,0.8,0.4,1.1
					C2666-1791.3,2666.3-1791.2,2666.7-1791.2z"/>
				<path class="st9" d="M2664.5-1787.4c0.4,0,0.8-0.2,1.1-0.5c0.3-0.3,0.5-0.7,0.5-1.1c0-0.4-0.2-0.8-0.5-1.1
					c-0.3-0.3-0.7-0.5-1.1-0.5s-0.8,0.2-1.1,0.5c-0.3,0.3-0.5,0.7-0.5,1.1s0.2,0.8,0.5,1.1C2663.6-1787.6,2664-1787.4,2664.5-1787.4
					z"/>
				<path class="st9" d="M2667.4-1789.1c0,0.4,0.2,0.8,0.5,1.1c0.3,0.3,0.7,0.5,1.1,0.5s0.8-0.2,1.1-0.5c0.3-0.3,0.5-0.7,0.5-1.1
					c0-0.4-0.2-0.8-0.5-1.1c-0.3-0.3-0.7-0.5-1.1-0.5s-0.8,0.2-1.1,0.5C2667.6-1789.9,2667.4-1789.5,2667.4-1789.1z"/>
				<path class="st9" d="M2683.7-1790.1c-0.7,0.4-1,0.9-1,1.5v13.4c0,1.6-0.7,2.4-2.1,2.4h-1.4c-0.7,0-1.4-0.2-2-0.5
					c-0.6-0.3-1-0.7-1.3-1.1c0.1-0.6,0.1-1.3,0.1-2.1v-8.2h-0.1c-0.5,0-1,0.2-1.7,0.6c-0.7,0.4-1,0.9-1,1.5v6.4
					c0,1.4-0.1,2.3-0.4,2.8c-0.3,0.4-0.8,0.7-1.7,0.7c-0.5,0-1-0.1-1.6-0.4c-0.6-0.2-1-0.6-1.4-1.1v-10h-0.1c-0.5,0-1,0.2-1.7,0.6
					c-0.7,0.4-1,0.9-1,1.5v6.3c0,0.4,0,0.7,0,0.9c0,0.2,0,0.5-0.1,0.8c-0.1,0.3-0.2,0.6-0.3,0.7c-0.1,0.2-0.3,0.3-0.5,0.4
					c-0.2,0.1-0.5,0.2-0.9,0.2c-1.5,0-2.6-0.6-3.3-1.7c0.1-0.4,0.1-1.1,0.1-2v-7.3h-0.1c-0.5,0-1,0.2-1.7,0.6c-0.7,0.4-1,0.9-1,1.5
					v5.5c0,1.4-0.1,2.3-0.4,2.8c-0.3,0.4-0.8,0.7-1.7,0.7h-1.1c-0.7,0-1.4-0.2-2-0.5c-0.6-0.3-1-0.7-1.3-1.2v-9.4h-0.1
					c-0.5,0-1,0.2-1.6,0.6c-0.7,0.4-1,0.9-1,1.5v5.8c0,0.5,0,0.8,0,1.1c0,0.3-0.1,0.6-0.2,1c-0.1,0.3-0.3,0.6-0.6,0.8
					c-0.3,0.2-0.6,0.3-1,0.3h-2.3c-1.4,0-2.1-0.8-2.1-2.4v-15.5h-0.1c-0.5,0-1,0.2-1.7,0.6c-0.7,0.4-1,0.9-1,1.5v13.5
					c0,1.3,0.3,2.4,0.9,3.2c0.6,0.8,1.5,1.2,2.7,1.2h4c2,0,3.3-0.8,3.8-2.5c0.5,0.6,1.1,1.2,1.8,1.7c0.8,0.5,1.7,0.8,2.6,0.8h1.1
					c1,0,1.9-0.3,2.5-0.8c0.5-0.5,0.9-1,1.1-1.7c1.3,1.6,2.9,2.4,4.8,2.4c0.9,0,1.6-0.3,2.2-0.8c0.5-0.4,0.8-1,1-1.6
					c0.5,0.7,1.2,1.2,1.9,1.6c0.8,0.5,1.7,0.7,2.6,0.7c1.7,0,2.8-0.8,3.4-2.3c0.5,0.6,1.1,1.1,1.8,1.6c0.8,0.5,1.7,0.7,2.5,0.7h1.9
					c1.2,0,2.1-0.4,2.7-1.2c0.6-0.8,0.9-1.9,0.9-3.2v-15.6h-0.1C2684.8-1790.7,2684.3-1790.5,2683.7-1790.1z"/>
				<path class="st9" d="M2690.3-1790.1c-0.7,0.4-1,0.9-1,1.5v18l0.1,0c0.8-0.1,1.5-0.5,1.9-1.2c0.5-0.7,0.7-1.6,0.7-2.8v-16h-0.1
					C2691.5-1790.7,2690.9-1790.5,2690.3-1790.1z"/>
				<path class="st9" d="M2705.5-1788.2c0.4,0,0.8-0.2,1.1-0.5c0.3-0.3,0.5-0.7,0.5-1.1s-0.2-0.8-0.5-1.1c-0.3-0.3-0.7-0.5-1.1-0.5
					c-0.4,0-0.8,0.2-1.1,0.5c-0.3,0.3-0.5,0.7-0.5,1.1s0.2,0.8,0.5,1.1C2704.7-1788.4,2705.1-1788.2,2705.5-1788.2z"/>
				<path class="st9" d="M2710.1-1788.2c0.4,0,0.8-0.2,1.1-0.5c0.3-0.3,0.5-0.7,0.5-1.1s-0.2-0.8-0.5-1.1c-0.3-0.3-0.7-0.5-1.1-0.5
					s-0.8,0.2-1.1,0.5c-0.3,0.3-0.5,0.7-0.5,1.1c0,0.4,0.2,0.8,0.5,1.1C2709.3-1788.4,2709.7-1788.2,2710.1-1788.2z"/>
				<path class="st9" d="M2720.1-1768.2c-0.4,0-0.8,0.2-1.1,0.5s-0.5,0.7-0.5,1.1s0.2,0.8,0.5,1.1c0.3,0.3,0.7,0.5,1.1,0.5
					c0.4,0,0.8-0.2,1.1-0.5c0.3-0.3,0.5-0.7,0.5-1.1s-0.2-0.8-0.5-1.1S2720.6-1768.2,2720.1-1768.2z"/>
				<path class="st9" d="M2740-1772c-0.5-0.5-1-0.7-1.6-0.7h-2.5c-1.4,0-2.4-0.5-3.1-1.5c-0.7-1-1.1-2.2-1.1-3.5
					c0-1.2,0.3-2.3,0.9-3.1c0.6-0.8,1.4-1.2,2.5-1.2c0.4,0,0.9,0.1,1.4,0.4c0.5,0.2,0.8,0.6,1.1,1.1l0,0.1l0.1,0
					c0.1,0,0.3,0.1,0.5,0.1c0.3,0,0.6-0.1,0.9-0.2c0.3-0.1,0.5-0.3,0.5-0.5l0,0l0,0c-0.1-0.4-0.6-0.8-1.5-1.3
					c-0.9-0.4-1.8-0.7-2.7-0.7c-1.9,0-3.4,0.6-4.5,1.7c-1.1,1.1-1.6,2.6-1.6,4.4c0,0.7,0.2,1.5,0.5,2.4c0.3,0.8,0.7,1.4,1.1,1.9
					h-3.9c-0.7,0-1.4-0.2-2-0.5c-0.6-0.3-1-0.7-1.3-1.2v-9.4h-0.1c-0.5,0-1,0.2-1.6,0.6c-0.7,0.4-1,0.9-1,1.5v5.8c0,0.5,0,0.8,0,1.1
					c0,0.3-0.1,0.6-0.2,1c-0.1,0.3-0.3,0.6-0.6,0.8c-0.3,0.2-0.6,0.3-1,0.3h-6.3c0.1-0.6,0.2-1.2,0.2-1.7v-9.5l-0.1,0
					c-0.8-0.2-1.7-0.3-2.7-0.3c-1,0-2,0.2-3,0.5c-1,0.3-2,0.8-2.8,1.4c-0.9,0.6-1.6,1.5-2.2,2.5c-0.6,1-0.8,2.2-0.8,3.5
					c0,1.6,0.5,3,1.6,4.1c1.1,1.1,2.5,1.6,4.4,1.6h2.5c-0.4,1-1.1,1.8-2.1,2.4c-1.1,0.6-2.3,0.8-3.5,0.8c-1.1,0-2.1-0.4-3-1.1
					c-0.8-0.7-1.3-1.8-1.3-3.2c0-0.3,0.1-0.5,0.1-0.6l0-0.1l0-0.1c-0.1-0.4-0.6-0.6-1.2-0.6c-0.1,0-0.3,0-0.3,0.1
					c-0.1,0.4-0.2,1-0.2,1.7c0,2,0.6,3.6,1.6,4.7c1.1,1.1,2.4,1.6,4,1.6c1.7,0,3.3-0.6,4.7-1.7c1.4-1.1,2.5-2.4,3.3-4.1h7.4
					c2,0,3.3-0.8,3.8-2.5c0.5,0.6,1.1,1.2,1.8,1.7c0.8,0.5,1.7,0.8,2.6,0.8h13.1v-0.1C2740.8-1771.1,2740.5-1771.5,2740-1772z
					 M2709.6-1783.1c0.2,0,0.4,0,0.5,0v10.3h-2.6c-1.1,0-1.9-0.4-2.5-1.1c-0.6-0.7-0.9-1.8-0.9-3.2c0-0.9,0.1-1.8,0.4-2.5
					c0.3-0.7,0.6-1.3,1-1.8c0.4-0.4,0.9-0.8,1.4-1.1c0.5-0.3,1-0.5,1.4-0.6C2708.8-1783.1,2709.3-1783.1,2709.6-1783.1z"/>
			</g>
		</g>
	</g>
	<g>
		<g>
			<rect x="1578.7" y="-1826.6" class="st10" width="1.3" height="1.3"/>
			<rect x="1604.8" y="-1811.1" class="st10" width="1.3" height="1.3"/>
			<path class="st10" d="M1620.1-1812.4c0.3-0.1,0.6-0.4,0.7-0.6c0.2-0.3,0.3-0.6,0.4-1c0.1-0.4,0.1-0.8,0.1-1.3v-8.8h-1.3v8.8
				c0,0.4,0,0.7-0.1,0.9c0,0.2-0.1,0.4-0.2,0.6c-0.1,0.2-0.2,0.3-0.4,0.3c-0.2,0.1-0.3,0.1-0.6,0.1c-0.1,0-0.2,0-0.3,0
				c-0.1,0-0.2,0-0.3-0.1l-0.3,1.2c0.3,0.1,0.7,0.1,1,0.1C1619.4-1812.2,1619.7-1812.3,1620.1-1812.4z"/>
			<path class="st10" d="M1615.7-1826.4h-1.7v-0.3c0-0.2,0-0.3,0.1-0.4c0.1-0.1,0.2-0.1,0.4-0.1h0.9v-0.9h-0.9
				c-0.5,0-0.9,0.1-1.1,0.4c-0.3,0.2-0.4,0.7-0.4,1.2v1h2.7V-1826.4z"/>
			<rect x="1602.3" y="-1811.1" class="st10" width="1.3" height="1.3"/>
			<rect x="1581.2" y="-1826.6" class="st10" width="1.3" height="1.3"/>
			<path class="st10" d="M1610.1-1816.6c0.5,0.3,1,0.6,1.7,0.8c0.6,0.2,1.3,0.2,2,0.2h0.3l0.4-0.9v1.2c0,0.7-0.2,1.1-0.6,1.4
				c-0.4,0.3-0.9,0.4-1.6,0.4c-0.4,0-0.7,0-1-0.1c-0.3-0.1-0.7-0.2-1.1-0.4l-0.4,1.2c0.5,0.2,0.9,0.3,1.3,0.4
				c0.4,0.1,0.7,0.1,1.1,0.1c1.2,0,2.1-0.3,2.7-0.9c0.6-0.6,0.8-1.4,0.8-2.3v-8.7h-2c-0.8,0-1.5,0.1-2.1,0.3
				c-0.6,0.2-1.2,0.5-1.6,0.9c-0.5,0.4-0.8,0.8-1.1,1.4c-0.3,0.5-0.4,1.1-0.4,1.7c0,0.7,0.1,1.4,0.4,1.9
				C1609.2-1817.4,1609.6-1817,1610.1-1816.6z M1610.1-1821.1c0.2-0.4,0.4-0.7,0.8-1c0.3-0.3,0.7-0.5,1.1-0.6
				c0.4-0.1,0.8-0.2,1.2-0.2v0h2l-0.7,0.4v5.6h-1.3c-0.5,0-0.9-0.1-1.3-0.2c-0.4-0.1-0.8-0.3-1.1-0.6c-0.3-0.3-0.6-0.6-0.7-0.9
				c-0.2-0.4-0.3-0.8-0.3-1.3C1609.8-1820.3,1609.9-1820.7,1610.1-1821.1z"/>
			<path class="st10" d="M1579.1-1812.4h2.6v-0.9c0,0,0.1,0.1,0.1,0.1c0.2,0.3,0.4,0.5,0.7,0.6c0.3,0.1,0.7,0.2,1.1,0.2h22.9v-11.8
				h-1.3v10.6h-1.3h-20.3c-0.2,0-0.4,0-0.6-0.1c-0.2-0.1-0.3-0.2-0.4-0.3c-0.1-0.2-0.2-0.4-0.2-0.6c0-0.2-0.1-0.5-0.1-0.9v-8.6h-3.4
				c-3.5,0-5.8,2.7-5.8,5.9v0C1573.3-1815.1,1575.6-1812.4,1579.1-1812.4z M1574.6-1818.3c0-2.6,1.9-4.7,4.5-4.7h2.9l-0.8,0.4v7.1
				c0,0.5,0,0.9,0.1,1.3c0,0.2,0.1,0.4,0.2,0.6l-2.4,0C1576.5-1813.6,1574.6-1815.7,1574.6-1818.3L1574.6-1818.3z"/>
			<polygon class="st10" points="1567,-1815.5 1567.5,-1814 1559.6,-1824.2 1558.3,-1824.2 1558.3,-1812.4 1559.6,-1812.4 
				1559.6,-1821.3 1558.9,-1823 1567.2,-1812.4 1568.3,-1812.4 1568.3,-1824.2 1567,-1824.2 			"/>
			<path class="st10" d="M1584.9-1793.6l7.2-6.9v-4.7h-19.3v5.4h9.9l3.7-2.4l-9.2,9.2l1,4h2.6c3.5,0,5.6,1.3,5.6,3.6v0.1
				c0,2.1-1.7,3.5-4,3.5c-2.9,0-4.9-1.2-6.9-3.4l-4.3,4.1c2.5,2.9,6,4.9,11.2,4.9c6.4,0,10.3-4,10.3-9.3v-0.1
				C1592.5-1790.9,1588.7-1793,1584.9-1793.6z"/>
			<path class="st10" d="M1550.2-1824.4c-3.6,0-6,2.8-6,6.1v0c0,3.2,2.4,6,6,6c3.6,0,6-2.8,6-6.1v0
				C1556.2-1821.6,1553.8-1824.4,1550.2-1824.4z M1554.8-1818.2c0,2.7-1.9,4.8-4.6,4.8s-4.6-2.2-4.6-4.9v0c0-2.7,1.9-4.8,4.6-4.8
				C1552.8-1823.1,1554.8-1821,1554.8-1818.2L1554.8-1818.2z"/>
			<path class="st10" d="M1609.4-1805.7c-8.8,0-15.2,6.6-15.2,14.8v0.1c0,8.1,6.3,14.7,15.2,14.7s15.2-6.6,15.2-14.8v-0.1
				C1624.6-1799.2,1618.2-1805.7,1609.4-1805.7z M1618-1790.9c0,4.9-3.5,8.9-8.6,8.9c-5.1,0-8.7-4.1-8.7-9v-0.1
				c0-4.9,3.5-8.9,8.6-8.9S1618-1795.9,1618-1790.9L1618-1790.9z"/>
			<rect x="1540.5" y="-1824.2" class="st10" width="1.3" height="11.8"/>
			<path class="st10" d="M1519.2-1780l1.2-0.9l6.2-4.8c5.1-3.9,7.5-6.3,7.5-11v-0.1c0-5.3-3.9-8.8-9.8-8.8c-5.1,0-7.8,2.1-10.7,5.9
				l4.4,3.5c2.1-2.6,3.6-3.8,5.8-3.8c2.2,0,3.8,1.3,3.8,3.7c0,2.4-1.4,3.9-4.9,6.8l-9.5,7.8v5h21.2v-5.4h-10.9L1519.2-1780z"/>
			<polygon class="st10" points="1519.3,-1812.3 1524.3,-1824.2 1522.9,-1824.2 1518.9,-1814.5 1519,-1813.2 1518.7,-1814 
				1515.2,-1822.4 1514.5,-1824.2 1513,-1824.2 1518.1,-1812.3 			"/>
			<rect x="1526.1" y="-1824.2" class="st10" width="1.3" height="11.8"/>
			<path class="st10" d="M1534.5-1818.9c-2.6-0.6-3.2-1.2-3.2-2.3v0c0-1.1,1-1.9,2.5-1.9c1.2,0,2.3,0.4,3.4,1.3l0.8-1
				c-1.2-1-2.4-1.4-4.1-1.4c-2.2,0-3.9,1.4-3.9,3.2v0c0,1.9,1.2,2.8,4,3.4c2.5,0.5,3.1,1.1,3.1,2.2v0c0,1.2-1,2-2.6,2
				c-1.6,0-2.8-0.6-4-1.7l-0.8,1c1.4,1.3,2.9,1.9,4.8,1.9c2.3,0,4-1.3,4-3.3v0C1538.3-1817.4,1537.1-1818.3,1534.5-1818.9z"/>
		</g>
		<polygon class="st11" points="1551.5,-1807.6 1553,-1806.2 1551.6,-1804.8 1550.2,-1806.2 		"/>
		<polygon class="st12" points="1554.9,-1806.2 1556.3,-1804.8 1557.7,-1806.2 1556.2,-1807.6 		"/>
		<polygon class="st13" points="1552.8,-1804.3 1553.9,-1803.3 1555,-1804.4 1553.9,-1805.5 		"/>
		<polygon class="st14" points="1557,-1803.7 1558.1,-1802.6 1559.2,-1803.8 1558,-1804.9 		"/>
		<polygon class="st13" points="1551,-1802.6 1552.1,-1801.5 1553.2,-1802.7 1552.1,-1803.8 		"/>
		<polygon class="st15" points="1554.8,-1802.5 1555.9,-1801.4 1557,-1802.5 1555.8,-1803.6 		"/>
		<polygon class="st14" points="1553.3,-1801.2 1554.1,-1800.4 1554.8,-1801.2 1554,-1802 		"/>
		<polygon class="st16" points="1556.3,-1800.6 1557.1,-1799.8 1557.8,-1800.6 1557,-1801.4 		"/>
		
			<rect x="1563" y="-1806.9" transform="matrix(0.9836 -0.1803 0.1803 0.9836 351.1673 252.4316)" class="st17" width="2.5" height="2.5"/>
		
			<rect x="1559.8" y="-1805.8" transform="matrix(0.9836 -0.1801 0.1801 0.9836 350.6035 251.6044)" class="st18" width="2" height="2"/>
		
			<rect x="1563.6" y="-1803" transform="matrix(0.9836 -0.1804 0.1804 0.9836 350.7248 252.6637)" class="st15" width="2" height="2"/>
		
			<rect x="1560.8" y="-1802.7" transform="matrix(0.9836 -0.1802 0.1802 0.9836 350.3085 251.9228)" class="st13" width="1.6" height="1.6"/>
		
			<rect x="1563.8" y="-1799.8" transform="matrix(0.9836 -0.1802 0.1802 0.9836 349.8322 252.5094)" class="st12" width="1.6" height="1.6"/>
		
			<rect x="1558.5" y="-1802.1" transform="matrix(0.9836 -0.1802 0.1802 0.9836 350.1583 251.518)" class="st15" width="1.6" height="1.6"/>
		
			<rect x="1561.3" y="-1800.1" transform="matrix(0.9836 -0.1802 0.1802 0.9836 349.8419 252.0537)" class="st14" width="1.6" height="1.6"/>
		
			<rect x="1559.3" y="-1799.9" transform="matrix(0.9836 -0.1803 0.1803 0.9836 350.0231 251.7806)" class="st12" width="1.1" height="1.1"/>
		
			<rect x="1561.4" y="-1797.6" transform="matrix(0.9837 -0.1798 0.1798 0.9837 348.6149 251.5761)" class="st16" width="1.1" height="1.1"/>
		<polygon class="st11" points="1570.1,-1798.6 1569,-1796.3 1571.3,-1795.3 1572.4,-1797.5 		"/>
		<polygon class="st15" points="1566.9,-1799.6 1566.1,-1797.8 1567.9,-1797 1568.7,-1798.8 		"/>
		<polygon class="st14" points="1568.4,-1795.2 1567.5,-1793.4 1569.3,-1792.5 1570.2,-1794.3 		"/>
		<polygon class="st13" points="1566,-1796.5 1565.4,-1795.1 1566.8,-1794.4 1567.4,-1795.9 		"/>
		<polygon class="st13" points="1566.7,-1792.4 1566.1,-1791 1567.5,-1790.3 1568.1,-1791.7 		"/>
		<polygon class="st17" points="1563.8,-1797.4 1563.1,-1796 1564.5,-1795.3 1565.2,-1796.7 		"/>
		<polygon class="st12" points="1564.9,-1794.1 1564.2,-1792.7 1565.6,-1792 1566.3,-1793.4 		"/>
		<polygon class="st14" points="1563.2,-1795.1 1562.7,-1794.1 1563.7,-1793.6 1564.2,-1794.6 		"/>
		
			<rect x="1563.3" y="-1791.9" transform="matrix(0.4297 -0.903 0.903 0.4297 2509.3201 390.4979)" class="st15" width="1.1" height="1.1"/>
		<polygon class="st17" points="1571.3,-1787.8 1569.1,-1786.6 1570.3,-1784.4 1572.5,-1785.6 		"/>
		<polygon class="st15" points="1569.3,-1790.5 1567.6,-1789.5 1568.6,-1787.8 1570.3,-1788.7 		"/>
		<polygon class="st15" points="1567.9,-1786 1566.2,-1785.1 1567.1,-1783.3 1568.9,-1784.3 		"/>
		<polygon class="st11" points="1566.8,-1788.5 1565.4,-1787.8 1566.2,-1786.4 1567.6,-1787.1 		"/>
		<polygon class="st16" points="1565,-1784.8 1563.6,-1784 1564.4,-1782.6 1565.7,-1783.4 		"/>
		<polygon class="st18" points="1565.5,-1790.5 1564.1,-1789.7 1564.9,-1788.4 1566.2,-1789.1 		"/>
		<polygon class="st13" points="1564.5,-1787.2 1563.1,-1786.5 1563.8,-1785.1 1565.2,-1785.9 		"/>
		<polygon class="st12" points="1563.7,-1789 1562.7,-1788.5 1563.2,-1787.5 1564.2,-1788.1 		"/>
		<polygon class="st15" points="1562.2,-1786.3 1561.2,-1785.8 1561.8,-1784.9 1562.7,-1785.4 		"/>
		
			<rect x="1563.4" y="-1778.5" transform="matrix(0.1226 -0.9925 0.9925 0.1226 3136.5193 -6.4707)" class="st14" width="2.5" height="2.5"/>
		
			<rect x="1563.9" y="-1781.8" transform="matrix(0.123 -0.9924 0.9924 0.123 3139.7356 -8.8591)" class="st18" width="2" height="2"/>
		
			<rect x="1560.1" y="-1779" transform="matrix(0.123 -0.9924 0.9924 0.123 3133.6421 -10.1349)" class="st15" width="2" height="2"/>
		
			<rect x="1561.1" y="-1781.7" transform="matrix(0.1227 -0.9924 0.9924 0.1227 3137.7361 -12.3629)" class="st14" width="1.6" height="1.6"/>
		
			<rect x="1557.4" y="-1779.7" transform="matrix(0.1227 -0.9924 0.9924 0.1227 3132.5469 -14.2848)" class="st12" width="1.6" height="1.6"/>
		
			<rect x="1561.2" y="-1784" transform="matrix(0.123 -0.9924 0.9924 0.123 3139.6223 -13.8618)" class="st12" width="1.6" height="1.6"/>
		
			<rect x="1558.4" y="-1782" transform="matrix(0.123 -0.9924 0.9924 0.123 3135.166 -14.795)" class="st14" width="1.6" height="1.6"/>
		
			<rect x="1559.3" y="-1783.9" transform="matrix(0.1228 -0.9924 0.9924 0.1228 3138.2034 -16.3028)" class="st12" width="1.1" height="1.1"/>
		
			<rect x="1556.6" y="-1782.6" transform="matrix(0.1227 -0.9924 0.9924 0.1227 3134.5996 -17.988)" class="st12" width="1.1" height="1.1"/>
		<polygon class="st13" points="1556.1,-1773.8 1554.3,-1775.5 1552.6,-1773.6 1554.4,-1771.9 		"/>
		<polygon class="st14" points="1555.8,-1808.7 1553.9,-1810.4 1552.2,-1808.6 1554.1,-1806.9 		"/>
		<polygon class="st15" points="1558.1,-1776.5 1556.6,-1777.9 1555.2,-1776.4 1556.7,-1775 		"/>
		<polygon class="st14" points="1553.4,-1776.4 1551.9,-1777.8 1550.5,-1776.3 1552,-1775 		"/>
		<polygon class="st17" points="1555.4,-1778.3 1554.2,-1779.3 1553.2,-1778.2 1554.3,-1777.1 		"/>
		<polygon class="st13" points="1551.2,-1778.8 1550.1,-1779.9 1549,-1778.7 1550.2,-1777.7 		"/>
		<polygon class="st13" points="1556.8,-1780.2 1555.7,-1781.2 1554.6,-1780.1 1555.8,-1779 		"/>
		<polygon class="st12" points="1553.4,-1780.1 1552.3,-1781.2 1551.2,-1780 1552.3,-1779 		"/>
		<polygon class="st18" points="1554.9,-1781.4 1554.1,-1782.2 1553.3,-1781.4 1554.1,-1780.6 		"/>
		<polygon class="st12" points="1551.9,-1782 1551.1,-1782.7 1550.3,-1781.9 1551.1,-1781.2 		"/>
		
			<rect x="1542.7" y="-1778.1" transform="matrix(0.9805 -0.1965 0.1965 0.9805 379.2592 268.7542)" class="st17" width="2.5" height="2.5"/>
		
			<rect x="1546.4" y="-1778.7" transform="matrix(0.9805 -0.1964 0.1964 0.9805 379.2571 269.2822)" class="st15" width="2" height="2"/>
		
			<rect x="1542.6" y="-1781.4" transform="matrix(0.9805 -0.1967 0.1967 0.9805 380.268 268.7893)" class="st14" width="2" height="2"/>
		
			<rect x="1545.8" y="-1781.3" transform="matrix(0.9805 -0.1964 0.1964 0.9805 379.819 269.0655)" class="st13" width="1.6" height="1.6"/>
		
			<rect x="1548.1" y="-1782" transform="matrix(0.9805 -0.1964 0.1964 0.9805 379.9937 269.5028)" class="st11" width="1.6" height="1.6"/>
		
			<rect x="1545.2" y="-1783.9" transform="matrix(0.9805 -0.1964 0.1964 0.9805 380.3242 268.9101)" class="st17" width="1.6" height="1.6"/>
		
			<rect x="1547.7" y="-1783.8" transform="matrix(0.9806 -0.1962 0.1962 0.9806 380.0208 269.1454)" class="st14" width="1.1" height="1.1"/>
		
			<rect x="1545.6" y="-1786" transform="matrix(0.9805 -0.1967 0.1967 0.9805 381.4184 269.2597)" class="st12" width="1.1" height="1.1"/>
		<polygon class="st15" points="1538,-1783.8 1539,-1786 1536.7,-1787.1 1535.7,-1784.8 		"/>
		<polygon class="st13" points="1541.2,-1782.8 1542,-1784.6 1540.2,-1785.4 1539.4,-1783.6 		"/>
		<polygon class="st17" points="1539.6,-1787.2 1540.5,-1789 1538.7,-1789.9 1537.8,-1788 		"/>
		
			<rect x="1540.9" y="-1787.7" transform="matrix(0.4149 -0.9098 0.9098 0.4149 2527.7756 357.225)" class="st15" width="1.6" height="1.6"/>
		<polygon class="st12" points="1543.9,-1782.3 1544.6,-1783.8 1543.2,-1784.4 1542.5,-1783 		"/>
		
			<rect x="1540.1" y="-1791.8" transform="matrix(0.4151 -0.9098 0.9098 0.4151 2530.7314 354.259)" class="st11" width="1.6" height="1.6"/>
		
			<rect x="1543.1" y="-1786.9" transform="matrix(0.4151 -0.9098 0.9098 0.4151 2528.0476 359.8823)" class="st16" width="1.6" height="1.6"/>
		
			<rect x="1542" y="-1790.1" transform="matrix(0.4154 -0.9096 0.9096 0.4154 2529.6211 357.2766)" class="st13" width="1.6" height="1.6"/>
		<polygon class="st18" points="1544.9,-1787.4 1545.3,-1788.4 1544.3,-1788.8 1543.9,-1787.8 		"/>
		<polygon class="st14" points="1544.4,-1790.4 1544.9,-1791.4 1543.9,-1791.8 1543.4,-1790.8 		"/>
		<polygon class="st15" points="1536.6,-1794.5 1538.8,-1795.8 1537.5,-1797.9 1535.3,-1796.7 		"/>
		<polygon class="st14" points="1538.6,-1791.9 1540.4,-1792.8 1539.4,-1794.6 1537.6,-1793.6 		"/>
		<polygon class="st18" points="1540,-1796.4 1541.7,-1797.3 1540.7,-1799.1 1539,-1798.1 		"/>
		<polygon class="st17" points="1541.1,-1793.9 1542.5,-1794.7 1541.7,-1796 1540.4,-1795.2 		"/>
		<polygon class="st14" points="1542.9,-1797.7 1544.2,-1798.4 1543.5,-1799.8 1542.1,-1799 		"/>
		<polygon class="st15" points="1542.5,-1791.9 1543.8,-1792.7 1543.1,-1794 1541.7,-1793.3 		"/>
		<polygon class="st13" points="1543.5,-1795.2 1544.8,-1796 1544,-1797.3 1542.7,-1796.6 		"/>
		<polygon class="st12" points="1544.3,-1793.4 1545.2,-1794 1544.7,-1794.9 1543.7,-1794.4 		"/>
		<polygon class="st14" points="1545.7,-1796.1 1546.7,-1796.7 1546.1,-1797.6 1545.2,-1797.1 		"/>
		
			<rect x="1541.9" y="-1806.4" transform="matrix(0.1063 -0.9943 0.9943 0.1063 3174.0886 -78.9144)" class="st14" width="2.5" height="2.5"/>
		
			<rect x="1541.9" y="-1802.6" transform="matrix(0.1064 -0.9943 0.9943 0.1064 3170.1526 -75.7208)" class="st12" width="2" height="2"/>
		
			<rect x="1545.7" y="-1805.5" transform="matrix(0.1064 -0.9943 0.9943 0.1064 3176.3333 -74.5863)" class="st15" width="2" height="2"/>
		
			<rect x="1545.1" y="-1802.4" transform="matrix(0.1065 -0.9943 0.9943 0.1065 3172.7263 -72.6729)" class="st13" width="1.6" height="1.6"/>
		
			<rect x="1548.8" y="-1804.4" transform="matrix(0.1061 -0.9944 0.9944 0.1061 3178.5659 -71.3862)" class="st17" width="1.6" height="1.6"/>
		
			<rect x="1545.1" y="-1800" transform="matrix(0.1065 -0.9943 0.9943 0.1065 3170.2439 -70.5361)" class="st15" width="1.6" height="1.6"/>
		
			<rect x="1547.8" y="-1802.1" transform="matrix(0.1065 -0.9943 0.9943 0.1065 3174.7632 -69.7054)" class="st14" width="1.6" height="1.6"/>
		
			<rect x="1547.4" y="-1799.7" transform="matrix(0.1064 -0.9943 0.9943 0.1064 3172.2456 -68.5858)" class="st18" width="1.1" height="1.1"/>
		
			<rect x="1550.1" y="-1801.1" transform="matrix(0.1058 -0.9944 0.9944 0.1058 3177.1108 -68.0888)" class="st12" width="1.1" height="1.1"/>
		<path class="st19" d="M1561.9-1789.6c-0.2-0.1-0.5-0.3-1-0.4c-0.7-0.2-1.6-0.4-2.7-0.2c-0.4,0.1-0.8,0.2-1.2,0.3c0,0-0.1,0-0.1,0
			c-0.2,0.1-0.4,0.2-0.6,0.3c-0.2,0.1-0.4,0.2-0.5,0.3c-0.4,0.2-0.8,0.5-1.2,0.8c-0.4-2.7-0.2-5.1-0.1-6.3c0,0,0,0,0,0
			c0.9,0.6,0.7,2.2,0.5,2.7c0,0,0,0,0,0c1.2-1.4,0.6-2.9,0.4-3.3c0,0,0,0,0,0c0.2,0.1,0.3,0.3,0.4,0.4c0.4,0.5,0.5,1,0.5,1.4
			c0,0.2,0,0.5,0,0.6c0,0,0,0.1,0,0.1c0,0,0,0,0,0c0,0,0,0,0,0c0.3-0.6,0.5-1.6,0-2.5c-0.1-0.2-0.3-0.5-0.5-0.7
			c-0.1-0.1-0.1-0.1-0.2-0.2c0,0,0,0,0,0c0.1,0,0.1,0,0.2,0.1c0.2,0.1,0.4,0.2,0.5,0.3c0.4,0.3,0.6,0.6,0.7,1
			c0.1,0.3,0.2,0.6,0.2,0.9c0,0,0,0,0,0c0.2-0.8,0.1-1.4-0.2-1.9c-0.2-0.3-0.5-0.6-0.7-0.7c-0.2-0.1-0.4-0.2-0.5-0.2
			c-0.1,0-0.2,0-0.3-0.1c0,0,0,0,0,0c0.1,0,0.2,0,0.3,0c0.2,0,0.4,0,0.5,0c0.3,0.1,0.6,0.2,0.7,0.3c0.3,0.2,0.4,0.4,0.5,0.5
			c0,0,0,0,0,0c0-0.4-0.2-0.8-0.5-1c-0.2-0.2-0.5-0.3-0.7-0.4c-0.2,0-0.4-0.1-0.5-0.1c-0.2,0-0.5,0-0.7,0.1c0,0,0,0,0,0
			c0.2-0.2,0.4-0.4,0.7-0.5c0.2-0.1,0.4-0.1,0.5-0.1c0.2,0,0.3,0,0.4,0.1c0,0,0,0,0,0c-0.1-0.2-0.3-0.3-0.4-0.4
			c-0.2-0.1-0.4-0.2-0.5-0.2c-0.5-0.1-1,0.1-1.3,0.6c0,0,0,0,0,0c-0.1-0.1-0.1-0.2-0.2-0.4c-0.1-0.3-0.2-0.6-0.3-1c0,0,0,0,0,0
			c-0.1,0.3-0.2,0.7-0.3,1c-0.1,0.1-0.1,0.2-0.2,0.4c0,0,0,0,0,0c-0.6-0.9-1.6-0.8-2.3-0.1c0,0,0,0,0,0c0.4-0.2,1.2-0.1,1.6,0.4
			c0,0,0,0,0,0c-0.6-0.3-1.6-0.1-2.1,0.5c-0.2,0.2-0.3,0.5-0.3,0.8c0,0,0,0,0,0c0-0.1,0.1-0.2,0.3-0.4c0.3-0.3,0.8-0.5,1.7-0.5
			c0,0,0,0,0,0c-0.4,0.1-1.4,0.5-1.7,1.4c-0.2,0.4-0.2,0.9,0,1.5c0,0,0,0,0,0c0,0,0,0,0,0c0-0.8,0.5-1.9,1.7-2.2c0,0,0,0,0,0
			c-1.3,1.2-1.2,2.6-0.8,3.4c0,0,0,0,0,0c-0.1-0.6-0.1-1.8,0.9-2.6c0,0,0,0,0,0c-0.2,0.4-0.8,1.9,0.4,3.3c0,0,0,0,0,0
			c-0.2-0.5-0.5-2.1,0.5-2.7c0,0,0,0,0,0c0.1,1.2,0.3,3.7-0.1,6.3c-0.8-0.6-1.6-1.1-2.3-1.4c-0.1,0-0.2-0.1-0.3-0.1
			c-0.8-0.3-1.6-0.3-2.2-0.3c-1,0-1.8,0.4-2.3,0.6c-0.1,0-0.2,0.1-0.2,0.1c0,0,0,0,0,0c0.1,0,0.1,0,0.2-0.1c0.8-0.2,1.6-0.3,2.3-0.2
			c0.8,0.1,1.5,0.3,2.2,0.6c1,0.4,1.8,1.1,2.6,1.7c-1.1,1-2.1,1.9-2.6,2.3c0,0-0.1,0-0.1,0c-0.1-0.2-0.4-0.3-0.6-0.2
			c-0.2,0.1-0.4,0.2-0.5,0.5c0,0.2,0,0.4,0.1,0.5c0.3,0.3,0.7,0.3,1.1,0.2c0.8-0.3,1.7-1.4,2.9-2.4c0.1-0.1,0.2-0.2,0.3-0.3
			c0.1,0.1,0.2,0.2,0.3,0.3c0.5,0.5,1,1,1.5,1.4c0.2,0.2,0.4,0.3,0.5,0.5c0.3,0.2,0.5,0.4,0.7,0.5c0.5,0.2,0.8,0.3,1.2,0
			c0,0,0,0,0.1,0c0.1-0.1,0.2-0.3,0.1-0.5c0-0.1-0.1-0.2-0.2-0.3c-0.1-0.1-0.2-0.1-0.3-0.2c-0.3-0.1-0.5,0.1-0.6,0.2
			c-0.1,0-0.2-0.1-0.3-0.2c-0.2-0.1-0.5-0.4-0.7-0.6c-0.2-0.1-0.3-0.3-0.5-0.5c-0.4-0.3-0.8-0.7-1.2-1.1c0.4-0.3,0.8-0.6,1.2-0.9
			c0.2-0.1,0.4-0.2,0.5-0.3c0.2-0.1,0.5-0.3,0.7-0.4c0.4-0.2,0.8-0.3,1.2-0.5c0.8-0.2,1.8-0.3,2.7-0.2
			C1561.2-1789.8,1561.5-1789.7,1561.9-1789.6C1561.9-1789.6,1561.9-1789.6,1561.9-1789.6"/>
		<g>
			<rect x="1518.8" y="-1762.5" class="st10" width="0.7" height="0.7"/>
			<path class="st10" d="M1568.4-1763.3v-4.9h-0.7v4.1h-2.7v-4.1h-0.7v4.1h-2.9v-4.1h-1.1c-0.4,0-0.9,0.1-1.2,0.2
				c-0.4,0.1-0.7,0.3-0.9,0.5c-0.3,0.2-0.5,0.5-0.6,0.8c-0.1,0.3-0.2,0.6-0.2,1c0,0.4,0.1,0.8,0.2,1.1c0.2,0.3,0.4,0.6,0.6,0.8
				c0.3,0.2,0.6,0.3,0.9,0.4c0.4,0.1,0.7,0.1,1.1,0.1H1568.4z M1559.3-1764.1c-0.2-0.1-0.4-0.2-0.6-0.3s-0.3-0.3-0.4-0.5
				c-0.1-0.2-0.2-0.5-0.2-0.7c0-0.3,0.1-0.5,0.2-0.7c0.1-0.2,0.3-0.4,0.4-0.5c0.2-0.2,0.4-0.3,0.6-0.3c0.2-0.1,0.5-0.1,0.7-0.1h0.7
				v3.4h-0.7C1559.7-1764,1559.5-1764.1,1559.3-1764.1z"/>
			<rect x="1553.1" y="-1769.7" class="st10" width="0.7" height="6.4"/>
			<rect x="1560.7" y="-1769.7" class="st10" width="0.7" height="0.7"/>
			<rect x="1567.7" y="-1762.5" class="st10" width="0.7" height="0.7"/>
			<rect x="1520.1" y="-1762.5" class="st10" width="0.7" height="0.7"/>
			<path class="st10" d="M1550.3-1764h-1.2c-0.4,0-0.7-0.1-1-0.2c-0.2-0.1-0.4-0.3-0.6-0.5c0-0.2,0.1-0.4,0.1-0.7v-2.3h-0.7v2.4
				c0,0.4-0.1,0.7-0.3,1c-0.2,0.2-0.6,0.4-1,0.4c-0.2,0-0.4,0-0.6-0.1c-0.2-0.1-0.3-0.2-0.4-0.3c-0.1-0.1-0.2-0.2-0.3-0.4
				c-0.1-0.2-0.1-0.3-0.1-0.5v-2.5h-0.7v2.5c0,0.2,0,0.4-0.1,0.6c-0.1,0.2-0.2,0.3-0.3,0.4s-0.2,0.2-0.4,0.2c-0.1,0-0.3,0.1-0.5,0.1
				h-1.4v-3.7h-0.7v3.7h-3.8l1.3-3c-0.2-0.2-0.4-0.3-0.6-0.5c-0.2-0.1-0.4-0.3-0.7-0.4c-0.2-0.1-0.5-0.2-0.7-0.3
				c-0.2-0.1-0.5-0.1-0.7-0.1c-0.2,0-0.5,0-0.7,0.1c-0.2,0.1-0.5,0.1-0.7,0.3c-0.2,0.1-0.5,0.2-0.7,0.4c-0.2,0.1-0.4,0.3-0.6,0.5
				l1.3,3h-2.5v-4.1h-1.1c-0.4,0-0.8,0.1-1.2,0.2c-0.4,0.1-0.7,0.3-0.9,0.5c-0.3,0.2-0.5,0.5-0.6,0.8c-0.1,0.3-0.2,0.6-0.2,1
				c0,0.4,0.1,0.8,0.2,1.1c0.2,0.3,0.4,0.5,0.6,0.7c0.3,0.2,0.6,0.3,0.9,0.4c0.4,0.1,0.7,0.1,1.1,0.1h0.4v0.2c0,0.4-0.1,0.6-0.3,0.8
				c-0.2,0.2-0.5,0.2-0.9,0.2c-0.2,0-0.4,0-0.6-0.1c-0.2,0-0.4-0.1-0.6-0.2l-0.2,0.7c0.3,0.1,0.5,0.2,0.7,0.2
				c0.2,0.1,0.4,0.1,0.6,0.1c0.7,0,1.2-0.2,1.5-0.5c0.3-0.3,0.5-0.8,0.5-1.3v-0.1h11.2c0.3,0,0.7-0.1,0.9-0.2
				c0.3-0.1,0.5-0.3,0.7-0.6c0.2,0.3,0.4,0.5,0.7,0.7c0.3,0.2,0.7,0.2,1.1,0.2c0.4,0,0.8-0.1,1.1-0.2c0.3-0.1,0.5-0.4,0.7-0.7
				c0.1,0.1,0.1,0.2,0.2,0.3s0.2,0.2,0.3,0.3c0.1,0.1,0.3,0.1,0.5,0.2c0.1,0,0.3,0.1,0.5,0.1v0h2.1v-6.4h-0.7V-1764z M1530.3-1764
				h-0.7c-0.3,0-0.5,0-0.8-0.1c-0.2-0.1-0.4-0.2-0.6-0.3c-0.2-0.1-0.3-0.3-0.4-0.5c-0.1-0.2-0.2-0.4-0.2-0.7c0-0.3,0.1-0.5,0.2-0.7
				c0.1-0.2,0.3-0.4,0.4-0.6c0.2-0.2,0.4-0.3,0.6-0.4c0.2-0.1,0.5-0.1,0.7-0.1h0.7V-1764z M1534.3-1764l-1.1-2.7
				c0.3-0.2,0.6-0.4,0.8-0.5c0.3-0.1,0.6-0.2,0.9-0.2c0.3,0,0.6,0.1,1,0.2c0.3,0.1,0.6,0.3,0.8,0.5l-1.1,2.7H1534.3z"/>
			<rect x="1516.4" y="-1769.7" class="st10" width="0.7" height="0.7"/>
			<rect x="1589" y="-1769.7" class="st10" width="0.7" height="0.7"/>
			<rect x="1582.6" y="-1769.7" class="st10" width="0.7" height="6.4"/>
			<rect x="1559.4" y="-1769.7" class="st10" width="0.7" height="0.7"/>
			<path class="st10" d="M1525.8-1766.1c0-0.3,0-0.5-0.1-0.8c-0.1-0.2-0.2-0.5-0.3-0.6c-0.2-0.2-0.4-0.4-0.6-0.5
				c-0.2-0.1-0.5-0.2-0.9-0.2h-0.5v0.7h0.6c0.2,0,0.3,0,0.5,0.1c0.2,0.1,0.3,0.2,0.4,0.3c0.1,0.1,0.2,0.3,0.2,0.4
				c0,0.1,0.1,0.3,0.1,0.5v2.1h-3.4v0.7h4.1V-1766.1z"/>
			<rect x="1620.6" y="-1769.7" class="st10" width="0.7" height="6.4"/>
			<rect x="1590.2" y="-1769.7" class="st10" width="0.7" height="0.7"/>
			<path class="st10" d="M1618.5-1769.7h-0.7v5.7h-2.5c0.1-0.3,0.2-0.7,0.2-1.1c0-0.4-0.1-0.7-0.2-1c-0.1-0.3-0.3-0.6-0.6-0.8
				c-0.2-0.2-0.5-0.4-0.8-0.6c-0.3-0.1-0.7-0.2-1-0.2c-0.4,0-0.7,0.1-1,0.2c-0.3,0.1-0.6,0.3-0.8,0.6c-0.2,0.2-0.4,0.5-0.5,0.8
				c-0.1,0.3-0.2,0.7-0.2,1c0,0.2,0,0.4,0.1,0.6c0,0.2,0.1,0.3,0.2,0.5h-2.2c0.1-0.3,0.2-0.7,0.2-1.1c0-0.4-0.1-0.7-0.2-1
				c-0.1-0.3-0.3-0.6-0.6-0.8c-0.2-0.2-0.5-0.4-0.8-0.6c-0.3-0.1-0.7-0.2-1-0.2c-0.4,0-0.7,0.1-1,0.2c-0.3,0.1-0.6,0.3-0.8,0.6
				c-0.2,0.2-0.4,0.5-0.5,0.8c-0.1,0.3-0.2,0.7-0.2,1c0,0.2,0,0.4,0.1,0.6c0,0.2,0.1,0.3,0.2,0.5h-2.3v-5.7h-0.7v5.7h-2.3v-1.1
				c0-0.3,0-0.5-0.1-0.8c-0.1-0.2-0.2-0.5-0.3-0.6c-0.2-0.2-0.4-0.4-0.6-0.5c-0.2-0.1-0.5-0.2-0.9-0.2h-3.2l1.4-2.6h-0.8l-1.4,2.6
				c0,0.2,0.1,0.3,0.1,0.4s0.1,0.2,0.2,0.3h3.7c0.2,0,0.4,0,0.6,0.1c0.2,0.1,0.3,0.2,0.4,0.3c0.1,0.1,0.2,0.3,0.2,0.4
				c0,0.2,0.1,0.3,0.1,0.5v1.1h-6.6v-4.1h-1.1c-0.4,0-0.9,0.1-1.2,0.2c-0.4,0.1-0.7,0.3-0.9,0.5c-0.3,0.2-0.5,0.5-0.6,0.8
				c-0.1,0.3-0.2,0.6-0.2,1c0,0.4,0.1,0.8,0.2,1.1c0.2,0.3,0.4,0.6,0.6,0.8c0.3,0.2,0.6,0.3,0.9,0.4c0.4,0.1,0.7,0.1,1.1,0.1h14.2
				c0.2,0.3,0.5,0.4,0.8,0.6c0.3,0.1,0.7,0.2,1,0.2c0.4,0,0.7-0.1,1.1-0.2c0.3-0.1,0.6-0.3,0.9-0.6h3.2c0.2,0.3,0.5,0.4,0.8,0.6
				c0.3,0.1,0.7,0.2,1,0.2c0.4,0,0.7-0.1,1.1-0.2c0.3-0.1,0.6-0.3,0.9-0.6h3.7V-1769.7z M1590.3-1764h-0.7c-0.3,0-0.5,0-0.8-0.1
				c-0.2-0.1-0.4-0.2-0.6-0.3c-0.2-0.1-0.3-0.3-0.4-0.5c-0.1-0.2-0.2-0.5-0.2-0.7c0-0.3,0.1-0.5,0.2-0.7c0.1-0.2,0.3-0.4,0.4-0.5
				c0.2-0.2,0.4-0.3,0.6-0.3c0.2-0.1,0.5-0.1,0.7-0.1h0.7V-1764z M1607.7-1764.3c-0.1,0.2-0.2,0.4-0.4,0.6c-0.2,0.2-0.4,0.3-0.6,0.4
				c-0.2,0.1-0.5,0.1-0.7,0.1c-0.3,0-0.5,0-0.7-0.1c-0.2-0.1-0.4-0.2-0.6-0.4c-0.2-0.2-0.3-0.4-0.4-0.6c-0.1-0.2-0.1-0.5-0.1-0.7
				c0-0.3,0-0.5,0.1-0.7c0.1-0.2,0.2-0.4,0.4-0.6c0.2-0.2,0.4-0.3,0.6-0.4c0.2-0.1,0.5-0.2,0.7-0.2c0.3,0,0.5,0,0.8,0.1
				c0.2,0.1,0.4,0.2,0.6,0.4c0.2,0.2,0.3,0.4,0.4,0.6c0.1,0.2,0.1,0.5,0.1,0.8C1607.9-1764.8,1607.8-1764.6,1607.7-1764.3z
				 M1614.7-1764.3c-0.1,0.2-0.2,0.4-0.4,0.6c-0.2,0.2-0.4,0.3-0.6,0.4c-0.2,0.1-0.5,0.1-0.7,0.1c-0.3,0-0.5,0-0.7-0.1
				c-0.2-0.1-0.4-0.2-0.6-0.4c-0.2-0.2-0.3-0.4-0.4-0.6c-0.1-0.2-0.1-0.5-0.1-0.7c0-0.3,0-0.5,0.1-0.7c0.1-0.2,0.2-0.4,0.4-0.6
				c0.2-0.2,0.4-0.3,0.6-0.4c0.2-0.1,0.5-0.2,0.7-0.2c0.3,0,0.5,0,0.8,0.1c0.2,0.1,0.4,0.2,0.6,0.4c0.2,0.2,0.3,0.4,0.4,0.6
				c0.1,0.2,0.1,0.5,0.1,0.8C1614.8-1764.8,1614.8-1764.6,1614.7-1764.3z"/>
			<path class="st10" d="M1514.9-1763.4c0.4,0.1,0.7,0.1,1.1,0.1h4.7v-4.9h-0.7v4.1h-2.9v-4.1h-1.1c-0.4,0-0.9,0.1-1.2,0.2
				c-0.4,0.1-0.7,0.3-0.9,0.5c-0.3,0.2-0.5,0.5-0.6,0.8c-0.1,0.3-0.2,0.6-0.2,1c0,0.4,0.1,0.8,0.2,1.1c0.2,0.3,0.4,0.6,0.6,0.8
				C1514.2-1763.7,1514.5-1763.5,1514.9-1763.4z M1513.8-1765.7c0-0.3,0.1-0.5,0.2-0.7c0.1-0.2,0.3-0.4,0.4-0.5
				c0.2-0.2,0.4-0.3,0.6-0.3c0.2-0.1,0.5-0.1,0.7-0.1h0.7v3.4h-0.7c-0.3,0-0.5,0-0.8-0.1c-0.2-0.1-0.4-0.2-0.6-0.3
				c-0.2-0.1-0.3-0.3-0.4-0.5S1513.8-1765.5,1513.8-1765.7z"/>
			<rect x="1565.1" y="-1762.5" class="st10" width="0.7" height="0.7"/>
			<rect x="1563.8" y="-1762.5" class="st10" width="0.7" height="0.7"/>
			<path class="st10" d="M1571.2-1762.4c0-0.2,0.1-0.5,0.1-0.8v-0.2h9.2v-6.4h-0.7v5.7h-3.1l1.3-3c-0.2-0.2-0.4-0.3-0.6-0.5
				c-0.2-0.1-0.4-0.3-0.7-0.4c-0.2-0.1-0.5-0.2-0.7-0.3c-0.2-0.1-0.5-0.1-0.7-0.1c-0.2,0-0.5,0-0.7,0.1c-0.2,0.1-0.5,0.1-0.7,0.3
				c-0.2,0.1-0.5,0.2-0.7,0.4c-0.2,0.1-0.4,0.3-0.6,0.5l1.3,3h-2.7v-4.1h-0.7v5c0,0.2,0,0.4,0,0.5c0,0.1-0.1,0.3-0.1,0.3
				s-0.1,0.1-0.2,0.2c-0.1,0-0.2,0.1-0.3,0.1c-0.1,0-0.1,0-0.2,0c0,0-0.1,0-0.2,0l-0.2,0.7c0.2,0.1,0.4,0.1,0.6,0.1
				c0.3,0,0.5,0,0.7-0.1c0.2-0.1,0.3-0.2,0.4-0.4C1571.1-1762,1571.2-1762.2,1571.2-1762.4z M1573.6-1766.8c0.3-0.2,0.6-0.4,0.8-0.5
				c0.3-0.1,0.6-0.2,0.9-0.2c0.3,0,0.6,0.1,1,0.2c0.3,0.1,0.6,0.3,0.8,0.5l-1.1,2.7h-1.3L1573.6-1766.8z"/>
			<rect x="1515.1" y="-1769.7" class="st10" width="0.7" height="0.7"/>
			<polygon class="st10" points="1518.2,-1758.6 1517.1,-1758.6 1514.6,-1756 1514.6,-1758.6 1513.7,-1758.6 1513.7,-1753.5 
				1514.6,-1753.5 1514.6,-1755 1515.4,-1755.8 1517.2,-1753.5 1518.3,-1753.5 1516.1,-1756.4 			"/>
			<rect x="1519.1" y="-1758.6" class="st10" width="0.9" height="5.1"/>
			<polygon class="st10" points="1525,-1755.1 1522.2,-1758.6 1521.4,-1758.6 1521.4,-1753.5 1522.3,-1753.5 1522.3,-1757.1 
				1525.1,-1753.5 1525.9,-1753.5 1525.9,-1758.6 1525,-1758.6 			"/>
			<path class="st10" d="M1529.6-1755.6h1.3v1c-0.3,0.2-0.8,0.4-1.2,0.4c-1,0-1.7-0.8-1.7-1.8v0c0-1,0.7-1.8,1.7-1.8
				c0.7,0,1,0.2,1.4,0.5l0.6-0.7c-0.5-0.4-1.1-0.7-2-0.7c-1.5,0-2.6,1.2-2.6,2.6v0c0,1.5,1.1,2.6,2.7,2.6c0.9,0,1.6-0.4,2.1-0.8
				v-2.1h-2.2V-1755.6z"/>
			<path class="st10" d="M1534.9-1758.6h-1.9v5.1h1.9c1.6,0,2.7-1.1,2.7-2.6v0C1537.6-1757.5,1536.5-1758.6,1534.9-1758.6z
				 M1536.7-1756c0,1-0.7,1.7-1.8,1.7h-1v-3.5h1C1536-1757.8,1536.7-1757,1536.7-1756L1536.7-1756z"/>
			<path class="st10" d="M1541.2-1758.7c-1.6,0-2.7,1.2-2.7,2.6v0c0,1.4,1.1,2.6,2.7,2.6c1.6,0,2.7-1.2,2.7-2.6v0
				C1543.9-1757.5,1542.8-1758.7,1541.2-1758.7z M1542.9-1756c0,1-0.7,1.8-1.7,1.8c-1,0-1.7-0.8-1.7-1.8v0c0-1,0.7-1.8,1.7-1.8
				C1542.2-1757.9,1542.9-1757,1542.9-1756L1542.9-1756z"/>
			<polygon class="st10" points="1547.5,-1756.2 1545.9,-1758.6 1545,-1758.6 1545,-1753.5 1545.9,-1753.5 1545.9,-1757.1 
				1547.5,-1754.7 1547.5,-1754.7 1549.1,-1757.2 1549.1,-1753.5 1550,-1753.5 1550,-1758.6 1549.1,-1758.6 			"/>
			<path class="st10" d="M1556-1758.7c-1.6,0-2.7,1.2-2.7,2.6v0c0,1.4,1.1,2.6,2.7,2.6c1.6,0,2.7-1.2,2.7-2.6v0
				C1558.7-1757.5,1557.6-1758.7,1556-1758.7z M1557.7-1756c0,1-0.7,1.8-1.7,1.8c-1,0-1.7-0.8-1.7-1.8v0c0-1,0.7-1.8,1.7-1.8
				C1557-1757.9,1557.7-1757,1557.7-1756L1557.7-1756z"/>
			<polygon class="st10" points="1559.8,-1753.5 1560.7,-1753.5 1560.7,-1755.6 1563.3,-1755.6 1563.3,-1756.4 1560.7,-1756.4 
				1560.7,-1757.8 1563.6,-1757.8 1563.6,-1758.6 1559.8,-1758.6 			"/>
			<path class="st10" d="M1568.8-1756.4c-1-0.2-1.2-0.4-1.2-0.8v0c0-0.3,0.3-0.6,0.8-0.6c0.5,0,0.9,0.2,1.4,0.5l0.5-0.7
				c-0.5-0.4-1.1-0.6-1.9-0.6c-1,0-1.8,0.6-1.8,1.5v0c0,0.9,0.6,1.3,1.7,1.5c1,0.2,1.2,0.4,1.2,0.8v0c0,0.4-0.4,0.6-0.9,0.6
				c-0.6,0-1.1-0.2-1.6-0.7l-0.5,0.6c0.6,0.5,1.4,0.8,2.1,0.8c1.1,0,1.8-0.6,1.8-1.5v0C1570.4-1755.8,1569.8-1756.2,1568.8-1756.4z"
				/>
			<path class="st10" d="M1573.2-1758.6l-2.3,5.2h0.9l0.5-1.2h2.4l0.5,1.2h1l-2.3-5.2H1573.2z M1572.7-1755.5l0.9-2l0.9,2H1572.7z"
				/>
			<path class="st10" d="M1580.3-1755.7c0,0.9-0.5,1.4-1.3,1.4c-0.8,0-1.3-0.5-1.3-1.5v-2.9h-0.9v2.9c0,1.5,0.8,2.3,2.2,2.3
				c1.3,0,2.2-0.8,2.2-2.3v-2.9h-0.9V-1755.7z"/>
			<path class="st10" d="M1584.4-1758.6h-1.9v5.1h1.9c1.6,0,2.7-1.1,2.7-2.6v0C1587.1-1757.5,1586-1758.6,1584.4-1758.6z
				 M1586.2-1756c0,1-0.7,1.7-1.8,1.7h-1v-3.5h1C1585.5-1757.8,1586.2-1757,1586.2-1756L1586.2-1756z"/>
			<rect x="1588.3" y="-1758.6" class="st10" width="0.9" height="5.1"/>
			<path class="st10" d="M1594.6-1758.6l-2.3,5.2h0.9l0.5-1.2h2.4l0.5,1.2h1l-2.3-5.2H1594.6z M1594.1-1755.5l0.9-2l0.9,2H1594.1z"
				/>
			<path class="st10" d="M1602.7-1757L1602.7-1757c0-0.5-0.2-0.8-0.4-1.1c-0.3-0.3-0.8-0.5-1.5-0.5h-2.3v5.1h0.9v-1.8h1.1h0l1.3,1.8
				h1.1l-1.4-1.9C1602.2-1755.6,1602.7-1756.1,1602.7-1757z M1599.4-1756.1v-1.7h1.3c0.7,0,1.1,0.3,1.1,0.8v0c0,0.5-0.4,0.9-1.1,0.9
				H1599.4z"/>
			<path class="st10" d="M1605.8-1758.6l-2.3,5.2h0.9l0.5-1.2h2.4l0.5,1.2h1l-2.3-5.2H1605.8z M1605.3-1755.5l0.9-2l0.9,2H1605.3z"
				/>
			<path class="st10" d="M1613-1756.1c0.4-0.2,0.7-0.5,0.7-1.1v0c0-0.3-0.1-0.6-0.3-0.8c-0.3-0.3-0.8-0.5-1.3-0.5h-2.3v5.1h2.4
				c1.1,0,1.9-0.5,1.9-1.4v0C1614-1755.6,1613.6-1755.9,1613-1756.1z M1610.6-1757.8h1.3c0.6,0,0.9,0.2,0.9,0.7v0
				c0,0.5-0.4,0.7-1,0.7h-1.2V-1757.8z M1613.1-1755c0,0.5-0.4,0.7-1,0.7h-1.5v-1.4h1.4C1612.7-1755.7,1613.1-1755.4,1613.1-1755
				L1613.1-1755z"/>
			<rect x="1615.1" y="-1758.6" class="st10" width="0.9" height="5.1"/>
			<path class="st10" d="M1619.9-1758.6h-0.8l-2.3,5.2h0.9l0.5-1.2h2.4l0.5,1.2h1L1619.9-1758.6z M1618.6-1755.5l0.9-2l0.9,2H1618.6
				z"/>
		</g>
	</g>
</g>
<rect x="1155.6" y="-1508" style="fill:none;" width="1649.7" height="420"/>
<text transform="matrix(1 0 0 1 1862.6367 -1478.0122)"><tspan x="0" y="0" style="fill:#606060; font-family:'GEDinarTwo-Medium'; font-size:36px;"> ماع تسسأت ةمركملا ةكم ةقطنمب ةيرسلا ةيمنتلل ةدوملا ةيعمج</tspan><tspan x="942.6" y="0" style="fill:#606060; font-family:'GEDinarTwo-Medium'; font-size:36px;"> </tspan><tspan x="-707" y="48" style="fill:#606060; font-family:'GEDinarTwo-Medium'; font-size:36px;">ءانب للخ نم ةرسلا رارقتسل ىعستو ةمادتسم ةيومنت تاردابم للخ نم ةرسلا ةيعوتو حلصإو داشرإو بيردتو ميلعت</tspan><tspan x="942.6" y="48" style="fill:#606060; font-family:'GEDinarTwo-Medium'; font-size:36px;"> </tspan><tspan x="-707" y="96" style="fill:#606060; font-family:'GEDinarTwo-Medium'; font-size:36px;">ةريفسو ةرسلا رارقتسا يف ةرثؤم نوكت نأ ىلع تايدحتلا ةهجاوم ىلع ةرداقلا ةكسامتملاو ةيعاولا رسلا نم ليج</tspan><tspan x="942.6" y="96" style="fill:#606060; font-family:'GEDinarTwo-Medium'; font-size:36px;"> </tspan><tspan x="-707" y="144" style="fill:#606060; font-family:'GEDinarTwo-Medium'; font-size:36px;">مارتحلا اهدوسي نيوبلا لاصفنا دعب ءانبلل ةنمآو ةيحص ةيرسأ ةئيب نيوكت ىلإ ةيعمجلا ىعست امك ،ةدوملا ةلاسرل</tspan><tspan x="942.6" y="144" style="fill:#606060; font-family:'GEDinarTwo-Medium'; font-size:36px;"> </tspan><tspan x="-707" y="192" style="fill:#606060; font-family:'GEDinarTwo-Medium'; font-size:36px;">قيقحت يف ةيجيتارتسلا لولحلا لضفأ حرط يف ماهسلاو ةرسلا اياضقل لولا عجرملا نوكت نل ىعست كلذك ، لدابتملا</tspan><tspan x="942.6" y="192" style="fill:#606060; font-family:'GEDinarTwo-Medium'; font-size:36px;"> </tspan><tspan x="-629.4" y="240" style="fill:#606060; font-family:'GEDinarTwo-Medium'; font-size:36px;"> ماع تسسأت ةيعمجلاو ،نيصتخملا نم تاءافكلا لضفأ ليهأتو ةرسلاب ةقلعتملا ينطولا لوحتلا جمانرب فادهأ</tspan><tspan x="942.6" y="240" style="fill:#606060; font-family:'GEDinarTwo-Medium'; font-size:36px;"> </tspan><tspan x="178.5" y="288" style="fill:#606060; font-family:'GEDinarTwo-Medium'; font-size:36px;"> نم رثكأ ةايح رييغت يف ةيعمجلا تدعاس اهئاشنإ ذنمو</tspan><tspan x="942.6" y="288" style="fill:#606060; font-family:'GEDinarTwo-Medium'; font-size:36px;"> </tspan><tspan x="854.6" y="336" style="fill:#606060; font-family:'GEDinarTwo-Medium'; font-size:36px;"> ماعلا</tspan></text>
<g>
	<path class="st20" d="M1591.8-764H2369c19.8,0,35.9-16.1,35.9-35.9v-41.2c0-19.8-16.1-35.9-35.9-35.9h-777.2
		c-19.8,0-35.9,16.1-35.9,35.9v41.2C1555.9-780.1,1572-764,1591.8-764z"/>
	<path class="st21" d="M1598.9-757h777.2c19.8,0,35.9-16.1,35.9-35.9v-41.2c0-19.8-16.1-35.9-35.9-35.9h-777.2
		c-19.8,0-35.9,16.1-35.9,35.9v41.2C1563-773.1,1579.1-757,1598.9-757z"/>
	<g>
		<text transform="matrix(1 0 0 1 1660.4569 -833.7441)"><tspan x="0" y="0" class="st3" style="font-family:'GEDinarTwo-Medium'; font-size:36px;">يناطحقلا لياعم نب لادبع /روتكدلا ذاتسلا</tspan><tspan x="634.1" y="0" class="st3" style="font-family:'GEDinarTwo-Medium'; font-size:36px;"> </tspan></text>
	</g>
	<g>
		<text transform="matrix(1 0 0 1 1672.8954 -786.1914)" class="st2" style="font-family:'GEDinarTwo-Medium'; font-size:33px;">ةشيب ةعماج يميداكأ ةيمومعلا ةيعمجلا سيئر</text>
	</g>
</g>
<g>
	<g>
		<path class="st20" d="M1591.9-623h777.2c19.8,0,35.9-16.1,35.9-35.9v-41.2c0-19.8-16.1-35.9-35.9-35.9h-777.2
			c-19.8,0-35.9,16.1-35.9,35.9v41.2C1556-639.1,1572.1-623,1591.9-623z"/>
		<g>
			<text transform="matrix(1 0 0 1 1660.5734 -692.7441)"><tspan x="0" y="0" class="st3" style="font-family:'GEDinarTwo-Medium'; font-size:36px;">يناطحقلا لياعم نب لادبع /روتكدلا ذاتسلا</tspan><tspan x="634.1" y="0" class="st3" style="font-family:'GEDinarTwo-Medium'; font-size:36px;"> </tspan></text>
		</g>
		<g>
			<text transform="matrix(1 0 0 1 1673.0118 -645.1914)" class="st2" style="font-family:'GEDinarTwo-Medium'; font-size:33px;">ةشيب ةعماج يميداكأ ةيمومعلا ةيعمجلا سيئر</text>
		</g>
	</g>
	<path class="st21" d="M1598.9-614h777.2c19.8,0,35.9-16.1,35.9-35.9v-41.2c0-19.8-16.1-35.9-35.9-35.9h-777.2
		c-19.8,0-35.9,16.1-35.9,35.9v41.2C1563-630.1,1579.1-614,1598.9-614z"/>
</g>
<g>
	<g>
		<path class="st20" d="M1591.9-482h777.2c19.8,0,35.9-16.1,35.9-35.9v-41.2c0-19.8-16.1-35.9-35.9-35.9h-777.2
			c-19.8,0-35.9,16.1-35.9,35.9v41.2C1556-498.1,1572.1-482,1591.9-482z"/>
		<g>
			<text transform="matrix(1 0 0 1 1660.5734 -551.7441)"><tspan x="0" y="0" class="st3" style="font-family:'GEDinarTwo-Medium'; font-size:36px;">يناطحقلا لياعم نب لادبع /روتكدلا ذاتسلا</tspan><tspan x="634.1" y="0" class="st3" style="font-family:'GEDinarTwo-Medium'; font-size:36px;"> </tspan></text>
		</g>
		<g>
			<text transform="matrix(1 0 0 1 1673.0118 -504.1914)" class="st2" style="font-family:'GEDinarTwo-Medium'; font-size:33px;">ةشيب ةعماج يميداكأ ةيمومعلا ةيعمجلا سيئر</text>
		</g>
	</g>
	<path class="st21" d="M1598.9-474h777.2c19.8,0,35.9-16.1,35.9-35.9v-41.2c0-19.8-16.1-35.9-35.9-35.9h-777.2
		c-19.8,0-35.9,16.1-35.9,35.9v41.2C1563-490.1,1579.1-474,1598.9-474z"/>
</g>
<g>
	<rect x="1027.2" y="630.2" class="st22" width="1920" height="114"/>
	<g>
		<path class="st2" d="M2763.2,724.2h-389c-6.6,0-12-5.4-12-12v-49c0-6.6,5.4-12,12-12h389c6.6,0,12,5.4,12,12v49
			C2775.2,718.8,2769.8,724.2,2763.2,724.2z"/>
		<g>
			<text transform="matrix(1 0 0 1 2505.095 697.9822)" class="st23" style="font-family:'Almarai-Regular'; font-size:42px;">انعم رمثتسا</text>
			<path class="st23" d="M2478.8,667.6c-4.9-2.1-10.8,0.8-14.6,3.9c-3.3,2.7-5.4,6.4-6.8,10.3c-3.7-7.3-11.6-13.7-19.4-8.4
				c-4.2,2.8-4.4,8-3.1,12.5c1.5,4.9,5,8.4,9.5,10.7c5.1,2.6,11.8,4.6,13.3,10.9c0,0.1,0.4,0.1,1-0.1c-0.3,0.6-0.7,1.3-0.9,2
				c-0.3,0.6,1.6-0.1,1.7-0.1c0.7-0.3,1.8-0.9,2.1-1.7c4.5-10.6,16.6-15.4,20.7-26.3C2483.8,676.8,2484,669.8,2478.8,667.6z
				 M2476.9,685.9c-2.5,4.3-6.2,7.6-9.8,11c-2.3,2.1-4.5,4.4-6.3,6.8c-1.8-4.5-6.8-6.7-11-8.6c-5.4-2.5-9.7-5.9-11.4-11.8
				c-0.7-2.5-1-5.6,0-8.1c0.3-0.8,0.5-1.3,1.3-1.6c0.7-0.3,1.6-0.1,2.3,0c1.4,0.2,2.7,0.8,3.9,1.5c4.8,2.9,8.1,8,9.4,13.4
				c0.2,0.7,3.6-1.3,3.8-2c1.2-5,2.6-10.4,6.3-14.3c3.2-3.4,9.7-4.7,12.6-0.1C2480.6,676.4,2479.2,682,2476.9,685.9z"/>
		</g>
	</g>
	<g>
		<g>
			<g>
				<path class="st4" d="M1181.7,704.2c-10.9,0-19.8-8.9-19.8-19.8c0-10.9,8.9-19.8,19.8-19.8c10.9,0,19.8,8.9,19.8,19.8
					C1201.5,695.3,1192.6,704.2,1181.7,704.2z M1181.7,666.7c-9.8,0-17.7,7.9-17.7,17.7c0,9.8,7.9,17.7,17.7,17.7
					c9.8,0,17.7-7.9,17.7-17.7C1199.4,674.7,1191.4,666.7,1181.7,666.7z"/>
			</g>
			<g>
				<g>
					<path class="st4" d="M1193.1,677.2c-0.7,0.3-1.5,0.5-2.3,0.7c0.4-0.1,0.9-0.7,1.2-1c0.3-0.4,0.6-0.9,0.8-1.4c0,0,0-0.1,0-0.1
						c-0.1,0-0.1,0-0.1,0c-0.9,0.5-1.8,0.8-2.8,1.1c-0.1,0-0.1,0-0.2-0.1c-0.1-0.1-0.2-0.2-0.2-0.2c-0.4-0.3-0.8-0.6-1.3-0.8
						c-0.7-0.3-1.4-0.4-2.1-0.3c-0.7,0-1.4,0.2-2,0.6c-0.6,0.3-1.1,0.8-1.6,1.3c-0.4,0.5-0.8,1.2-0.9,1.9c-0.2,0.7-0.1,1.3-0.1,2
						c0,0.1,0,0.1-0.1,0.1c-3.8-0.6-7-1.9-9.5-4.9c-0.1-0.1-0.2-0.1-0.3,0c-1.1,1.7-0.6,4.4,0.8,5.7c0.2,0.2,0.4,0.4,0.6,0.5
						c-0.1,0-1-0.1-1.8-0.5c-0.1-0.1-0.2,0-0.2,0.1c0,0.2,0,0.3,0,0.5c0.2,1.7,1.4,3.3,3,3.9c0.2,0.1,0.4,0.2,0.6,0.2
						c-0.4,0.1-0.7,0.1-1.8,0.1c-0.1,0-0.2,0-0.1,0.2c0.8,2.2,2.5,2.8,3.8,3.2c0.2,0,0.3,0,0.5,0.1c0,0,0,0,0,0
						c-0.4,0.6-1.9,1.1-2.6,1.4c-1.2,0.4-2.6,0.6-3.9,0.5c-0.2,0-0.3,0-0.3,0c-0.1,0,0,0.1,0.1,0.1c0.3,0.2,0.5,0.3,0.8,0.5
						c0.8,0.4,1.7,0.8,2.6,1.1c4.7,1.3,10,0.3,13.6-3.2c2.8-2.8,3.8-6.6,3.8-10.4c0-0.1,0.2-0.2,0.3-0.3c0.7-0.5,1.3-1.2,1.8-1.9
						C1193.2,677.4,1193.1,677.3,1193.1,677.2C1193.1,677.2,1193.1,677.2,1193.1,677.2C1193.1,677.1,1193.2,677.1,1193.1,677.2z"/>
				</g>
				<g>
					<path class="st24" d="M1176.9,693.8C1178.9,693.8,1177,693.8,1176.9,693.8C1177.2,693.8,1176.9,693.8,1176.9,693.8z"/>
				</g>
				<g>
					<path class="st24" d="M1176.9,693.8C1176.9,693.9,1176.5,693.8,1176.9,693.8C1176.9,693.8,1176.8,693.8,1176.9,693.8z"/>
				</g>
				<g>
					<path class="st24" d="M1177.7,693.9C1177.7,693.8,1178.1,693.9,1177.7,693.9C1177.7,693.8,1177.7,693.9,1177.7,693.9z"/>
				</g>
				<g>
					<path class="st24" d="M1185.8,674.9C1185.8,674.9,1185.8,674.9,1185.8,674.9C1185.8,674.9,1185.8,674.9,1185.8,674.9z"/>
				</g>
			</g>
		</g>
		<g>
			<g>
				<path class="st4" d="M1240.6,704.2c-10.9,0-19.8-8.9-19.8-19.8c0-10.9,8.9-19.8,19.8-19.8s19.8,8.9,19.8,19.8
					C1260.4,695.3,1251.5,704.2,1240.6,704.2z M1240.6,666.7c-9.8,0-17.7,7.9-17.7,17.7c0,9.8,7.9,17.7,17.7,17.7
					s17.7-7.9,17.7-17.7C1258.3,674.7,1250.3,666.7,1240.6,666.7z"/>
			</g>
			<g>
				<path class="st24" d="M1237.5,684.5V696c0,0.2,0.1,0.3,0.3,0.3h4.3c0.2,0,0.3-0.1,0.3-0.3v-11.7h3.1c0.2,0,0.3-0.1,0.3-0.3
					l0.3-3.5c0-0.2-0.1-0.3-0.3-0.3h-3.4v-2.5c0-0.6,0.5-1.1,1.1-1.1h2.4c0.2,0,0.3-0.1,0.3-0.3v-3.5c0-0.2-0.1-0.3-0.3-0.3h-4
					c-2.4,0-4.3,1.9-4.3,4.3v3.4h-2.1c-0.2,0-0.3,0.1-0.3,0.3v3.5c0,0.2,0.1,0.3,0.3,0.3h2.1V684.5z"/>
			</g>
		</g>
		<g>
			<g>
				<path class="st4" d="M1417.3,703.1c-10.9,0-19.8-8.9-19.8-19.8c0-10.9,8.9-19.8,19.8-19.8c10.9,0,19.8,8.9,19.8,19.8
					C1437.1,694.2,1428.3,703.1,1417.3,703.1z M1417.3,665.6c-9.8,0-17.7,7.9-17.7,17.7c0,9.8,7.9,17.7,17.7,17.7
					c9.8,0,17.7-7.9,17.7-17.7C1435,673.6,1427.1,665.6,1417.3,665.6z"/>
			</g>
			<g>
				<g>
					<path class="st24" d="M1418.3,670.4c-6.6,0-12,5.4-12,12c0,2.3,0.7,4.6,1.9,6.5l-1.8,4c-0.2,0.4-0.1,0.8,0.2,1.1
						c0.2,0.2,0.5,0.4,0.8,0.4c0.1,0,0.2,0,0.3,0l5-1.4c1.7,0.9,3.7,1.4,5.6,1.4c6.6,0,12-5.4,12-12
						C1430.2,675.8,1424.9,670.4,1418.3,670.4z M1418.3,692.3c-1.7,0-3.5-0.5-5-1.3c-0.2-0.1-0.3-0.1-0.5-0.1c-0.1,0-0.2,0-0.3,0
						l-3.3,0.9l1.1-2.5c0.2-0.3,0.1-0.7-0.1-1c-1.2-1.7-1.9-3.7-1.9-5.8c0-5.4,4.4-9.9,9.9-9.9c5.4,0,9.9,4.4,9.9,9.9
						S1423.7,692.3,1418.3,692.3z"/>
				</g>
				<g>
					<path class="st24" d="M1422.9,684.2c-0.5-0.3-1.2-0.6-1.7-0.4c-0.5,0.2-0.7,0.9-1,1.3c-0.2,0.2-0.3,0.2-0.6,0.1
						c-1.7-0.7-3-1.8-3.9-3.4c-0.2-0.2-0.1-0.4,0.1-0.7c0.3-0.3,0.6-0.7,0.7-1.2c0.1-0.4-0.1-1-0.3-1.4c-0.2-0.5-0.5-1.2-1-1.5
						c-0.5-0.3-1.1-0.1-1.5,0.2c-0.7,0.6-1.1,1.5-1.1,2.4c0,0.3,0,0.5,0.1,0.8c0.1,0.6,0.4,1.2,0.7,1.7c0.2,0.4,0.5,0.8,0.8,1.2
						c0.9,1.2,2,2.3,3.4,3.1c0.7,0.4,1.4,0.8,2.1,1c0.8,0.3,1.5,0.6,2.4,0.4c0.9-0.2,1.8-0.7,2.2-1.6c0.1-0.3,0.2-0.6,0.1-0.8
						C1424.1,684.8,1423.3,684.4,1422.9,684.2z"/>
				</g>
			</g>
		</g>
		<g>
			<g>
				<path class="st4" d="M1358.4,703.1c-10.9,0-19.8-8.9-19.8-19.8c0-10.9,8.9-19.8,19.8-19.8s19.8,8.9,19.8,19.8
					C1378.2,694.2,1369.3,703.1,1358.4,703.1z M1358.4,665.6c-9.8,0-17.7,7.9-17.7,17.7c0,9.8,7.9,17.7,17.7,17.7
					c9.8,0,17.7-7.9,17.7-17.7C1376.1,673.6,1368.2,665.6,1358.4,665.6z"/>
			</g>
			<g>
				<g>
					<path class="st4" d="M1345.5,690.2c0-0.1,0-0.3,0-0.4c0.2-0.2,0.3-0.4,0.6-0.4c2.1-0.4,3.6-1.8,4.6-3.6
						c0.9-1.5,0.8-1.8-0.9-2.4c-0.1,0-0.2-0.1-0.3-0.1c-0.4-0.1-0.7-0.3-1-0.6c-0.7-0.6-0.3-1.6,0.6-1.8c0.6-0.2,1.2,0.3,1.8,0.3
						c0.4,0.1,0.6-0.1,0.5-0.5c-0.1-1.1-0.1-2.3-0.1-3.4c0.1-2.2,1.2-3.9,3-4.9c2.7-1.6,5.5-1.6,8.1,0c1.7,1,2.8,2.5,3,4.5
						c0.2,1.3,0.1,2.6,0,3.9c0,0.6,0.1,0.7,0.6,0.5c0.7-0.2,1.3-0.5,2-0.2c0.4,0.2,0.7,0.5,0.7,1c0,0.3-0.2,0.6-0.4,0.7
						c-0.3,0.3-0.8,0.5-1.2,0.6c-0.3,0.1-0.6,0.2-0.9,0.4c-0.6,0.3-0.8,0.7-0.5,1.3c1,2.2,2.5,3.8,4.9,4.4c0.3,0.1,0.5,0.2,0.7,0.4
						c0,0.1,0,0.3,0,0.4c-0.2,0.5-0.6,0.7-1.1,0.9c-0.5,0.2-1,0.4-1.5,0.4c-0.7,0-1.1,0.4-1.2,1.1c-0.1,0.7-0.3,0.8-1,0.7
						c-0.2,0-0.3,0-0.5-0.1c-1.4-0.2-2.7-0.1-3.8,0.8c-0.2,0.2-0.5,0.3-0.7,0.5c-1.9,1.3-3.9,1.4-6,0.2c-0.6-0.3-1.1-0.7-1.6-1
						c-0.4-0.3-0.9-0.5-1.5-0.5c-0.8-0.1-1.7,0.1-2.5,0.2c-0.4,0-0.8-0.1-0.9-0.5c-0.1-1.1-0.7-1.3-1.6-1.4c-0.4,0-0.8-0.2-1.2-0.4
						C1346,690.9,1345.7,690.6,1345.5,690.2z"/>
				</g>
			</g>
		</g>
		<g>
			<g>
				<path class="st4" d="M1476.2,703.3c-10.9,0-19.8-8.9-19.8-19.8c0-10.9,8.9-19.8,19.8-19.8c10.9,0,19.8,8.9,19.8,19.8
					C1496.1,694.5,1487.2,703.3,1476.2,703.3z M1476.2,665.8c-9.8,0-17.7,7.9-17.7,17.7c0,9.8,7.9,17.7,17.7,17.7
					c9.8,0,17.7-7.9,17.7-17.7C1493.9,673.8,1486,665.8,1476.2,665.8z"/>
			</g>
			<g>
				<g>
					<path class="st4" d="M1488.1,680.5c0-2.8-2.3-5.1-5.1-5.1h-13.2c-2.8,0-5.1,2.3-5.1,5.1v6.2c0,2.8,2.3,5.1,5.1,5.1h13.2
						c2.8,0,5.1-2.3,5.1-5.1V680.5z M1479.8,683.9l-5.3,2.9c-0.2,0.1-0.4,0-0.4-0.3v-5.9c0-0.3,0.2-0.4,0.4-0.3l5.3,3
						C1480,683.5,1480,683.8,1479.8,683.9z"/>
				</g>
			</g>
		</g>
		<g>
			<path class="st4" d="M1299.5,704.5c-10.9,0-19.7-8.8-19.7-19.7c0-10.9,8.8-19.7,19.7-19.7c10.9,0,19.7,8.8,19.7,19.7
				C1319.2,695.6,1310.4,704.5,1299.5,704.5z M1299.5,667c-9.8,0-17.8,8-17.8,17.8c0,9.8,8,17.8,17.8,17.8c9.8,0,17.8-8,17.8-17.8
				C1317.3,674.9,1309.3,667,1299.5,667z M1306.1,676.8c-0.8,0-1.5,0.7-1.5,1.5c0,0.8,0.7,1.5,1.5,1.5c0.8,0,1.5-0.7,1.5-1.5
				C1307.6,677.4,1306.9,676.8,1306.1,676.8z M1299.7,678.7c-3.4,0-6.1,2.7-6.1,6.1c0,3.4,2.7,6.1,6.1,6.1c3.4,0,6.1-2.7,6.1-6.1
				C1305.8,681.4,1303,678.7,1299.7,678.7z M1299.7,688.7c-2.2,0-3.9-1.8-3.9-3.9s1.8-3.9,3.9-3.9c2.2,0,3.9,1.8,3.9,3.9
				S1301.8,688.7,1299.7,688.7z M1312,679.7c0-4.1-3.3-7.5-7.5-7.5h-9.9c-4.1,0-7.5,3.3-7.5,7.5v9.9c0,4.1,3.3,7.5,7.5,7.5h9.9
				c4.1,0,7.5-3.3,7.5-7.5V679.7z M1309.7,689.5c0,2.8-2.3,5.1-5.1,5.1h-9.9c-2.8,0-5.1-2.3-5.1-5.1v-9.9c0-2.8,2.3-5.1,5.1-5.1h9.9
				c2.8,0,5.1,2.3,5.1,5.1V689.5z"/>
		</g>
	</g>
</g>
<g>
	<g>
		
			<linearGradient id="SVGID_3_" gradientUnits="userSpaceOnUse" x1="1990.9573" y1="-2899.9385" x2="1997.7396" y2="-2899.9385" gradientTransform="matrix(-1 0 0 -1 3981.8545 -2881.1919)">
			<stop  offset="0" style="stop-color:#2E56A6"/>
			<stop  offset="1" style="stop-color:#0190C1"/>
		</linearGradient>
		<polygon class="st25" points="1984.1,5.6 1990.9,5.6 1990.9,31.8 1984.1,31.8 		"/>
		<g>
			
				<linearGradient id="SVGID_4_" gradientUnits="userSpaceOnUse" x1="1887.9309" y1="-2917.8596" x2="1900.0272" y2="-2945.0764" gradientTransform="matrix(-1 2.200000e-03 -2.200000e-03 -1 3875.46 -2943.9414)">
				<stop  offset="0" style="stop-color:#2E56A6"/>
				<stop  offset="1" style="stop-color:#0190C1"/>
			</linearGradient>
			<path class="st26" d="M1987.5,7.3c8.1,0,14.6-6.6,14.6-14.6c0-4.5-2.1-8.5-5.3-11.2l-2.3-1.6c-2.1-1.1-4.5-1.8-7-1.8
				c-8.1,0-14.6,6.6-14.6,14.6C1972.9,0.8,1979.5,7.3,1987.5,7.3z"/>
			<path class="st23" d="M1987.5,7.3c4.1,0,7.8-1.7,10.4-4.4c-2.6,2.6-6.2,4.2-10.2,4.2c-8.1,0-14.6-6.5-14.6-14.6
				c0-4,1.6-7.6,4.2-10.2c-2.7,2.7-4.4,6.3-4.3,10.4C1972.9,0.8,1979.5,7.3,1987.5,7.3z"/>
		</g>
		<g>
			
				<linearGradient id="SVGID_5_" gradientUnits="userSpaceOnUse" x1="1891.6152" y1="-2926.1497" x2="1896.828" y2="-2937.8782" gradientTransform="matrix(-1 2.200000e-03 -2.200000e-03 -1 3875.46 -2943.9414)">
				<stop  offset="0" style="stop-color:#FFFFFF"/>
				<stop  offset="1" style="stop-color:#C9C7C7"/>
			</linearGradient>
			<path class="st27" d="M1987.5-1.1c3.5,0,6.3-2.8,6.3-6.3c0-1.9-0.9-3.7-2.3-4.8l-1-0.7c-0.9-0.5-1.9-0.8-3-0.8
				c-3.5,0-6.3,2.8-6.3,6.3C1981.2-3.9,1984-1,1987.5-1.1z"/>
			<path class="st23" d="M1987.5-1.1c1.8,0,3.3-0.7,4.5-1.9C1990.9-1.8,1989.3-1.1,1987.5-1.1c-3.4-0.1-6.2-2.9-6.2-6.4
				c0-1.7,0.7-3.3,1.8-4.4c-1.2,1.1-1.9,2.7-1.9,4.5C1981.2-3.9,1984-1,1987.5-1.1z"/>
		</g>
	</g>
	<g>
		
			<linearGradient id="SVGID_6_" gradientUnits="userSpaceOnUse" x1="2232.1116" y1="0.7934" x2="2238.894" y2="0.7934" gradientTransform="matrix(1 0 0 1 -759.3352 50.124)">
			<stop  offset="0" style="stop-color:#2E56A6"/>
			<stop  offset="1" style="stop-color:#0190C1"/>
		</linearGradient>
		<rect x="1472.8" y="37.8" class="st28" width="6.8" height="26.2"/>
		<g>
			
				<linearGradient id="SVGID_7_" gradientUnits="userSpaceOnUse" x1="2122.7024" y1="-16.6112" x2="2134.7988" y2="-43.8279" gradientTransform="matrix(1 -2.200000e-03 2.200000e-03 1 -652.9407 112.8733)">
				<stop  offset="0" style="stop-color:#2E56A6"/>
				<stop  offset="1" style="stop-color:#0190C1"/>
			</linearGradient>
			<path class="st29" d="M1476.1,62.4c-8.1,0-14.6,6.6-14.6,14.6c0,4.5,2.1,8.5,5.3,11.2l2.3,1.6c2.1,1.1,4.5,1.8,7,1.8
				c8.1,0,14.6-6.6,14.6-14.6C1490.8,68.9,1484.2,62.4,1476.1,62.4z"/>
			<path class="st23" d="M1476.1,62.4c-4.1,0-7.8,1.7-10.4,4.4c2.6-2.6,6.2-4.2,10.2-4.2c8.1,0,14.6,6.5,14.6,14.6
				c0,4-1.6,7.6-4.2,10.2c2.7-2.7,4.4-6.3,4.3-10.4C1490.8,68.9,1484.2,62.4,1476.1,62.4z"/>
		</g>
		<g>
			
				<linearGradient id="SVGID_8_" gradientUnits="userSpaceOnUse" x1="2126.3867" y1="-24.9012" x2="2131.5994" y2="-36.6296" gradientTransform="matrix(1 -2.200000e-03 2.200000e-03 1 -652.9407 112.8733)">
				<stop  offset="0" style="stop-color:#FFFFFF"/>
				<stop  offset="1" style="stop-color:#C9C7C7"/>
			</linearGradient>
			<path class="st30" d="M1476.2,70.7c-3.5,0-6.3,2.8-6.3,6.3c0,1.9,0.9,3.7,2.3,4.8l1,0.7c0.9,0.5,1.9,0.8,3,0.8
				c3.5,0,6.3-2.8,6.3-6.3C1482.5,73.5,1479.6,70.7,1476.2,70.7z"/>
			<path class="st23" d="M1476.2,70.7c-1.8,0-3.3,0.7-4.5,1.9C1472.8,71.5,1474.4,70.8,1476.2,70.7c3.4,0.1,6.2,2.9,6.2,6.4
				c0,1.7-0.7,3.3-1.8,4.4c1.2-1.1,1.9-2.7,1.9-4.5C1482.5,73.5,1479.6,70.7,1476.2,70.7z"/>
		</g>
	</g>
	<g>
		
			<linearGradient id="SVGID_9_" gradientUnits="userSpaceOnUse" x1="3231.7766" y1="0.7934" x2="3238.5588" y2="0.7934" gradientTransform="matrix(1 0 0 1 -759.3352 50.124)">
			<stop  offset="0" style="stop-color:#2E56A6"/>
			<stop  offset="1" style="stop-color:#0190C1"/>
		</linearGradient>
		<rect x="2472.4" y="37.8" class="st31" width="6.8" height="26.2"/>
		<g>
			
				<linearGradient id="SVGID_10_" gradientUnits="userSpaceOnUse" x1="3122.3625" y1="-14.4119" x2="3134.4587" y2="-41.6287" gradientTransform="matrix(1 -2.200000e-03 2.200000e-03 1 -652.9407 112.8733)">
				<stop  offset="0" style="stop-color:#2E56A6"/>
				<stop  offset="1" style="stop-color:#0190C1"/>
			</linearGradient>
			<path class="st32" d="M2475.8,62.4c-8.1,0-14.6,6.6-14.6,14.6c0,4.5,2.1,8.5,5.3,11.2l2.3,1.6c2.1,1.1,4.5,1.8,7,1.8
				c8.1,0,14.6-6.6,14.6-14.6C2490.4,68.9,2483.9,62.4,2475.8,62.4z"/>
			<path class="st23" d="M2475.8,62.4c-4.1,0-7.8,1.7-10.4,4.4c2.6-2.6,6.2-4.2,10.2-4.2c8.1,0,14.6,6.5,14.6,14.6
				c0,4-1.6,7.6-4.2,10.2c2.7-2.7,4.4-6.3,4.3-10.4C2490.4,68.9,2483.9,62.4,2475.8,62.4z"/>
		</g>
		<g>
			
				<linearGradient id="SVGID_11_" gradientUnits="userSpaceOnUse" x1="3126.0469" y1="-22.702" x2="3131.2595" y2="-34.4304" gradientTransform="matrix(1 -2.200000e-03 2.200000e-03 1 -652.9407 112.8733)">
				<stop  offset="0" style="stop-color:#FFFFFF"/>
				<stop  offset="1" style="stop-color:#C9C7C7"/>
			</linearGradient>
			<path class="st33" d="M2475.8,70.7c-3.5,0-6.3,2.8-6.3,6.3c0,1.9,0.9,3.7,2.3,4.8l1,0.7c0.9,0.5,1.9,0.8,3,0.8
				c3.5,0,6.3-2.8,6.3-6.3C2482.1,73.5,2479.3,70.7,2475.8,70.7z"/>
			<path class="st23" d="M2475.8,70.7c-1.8,0-3.3,0.7-4.5,1.9C2472.5,71.5,2474,70.8,2475.8,70.7c3.4,0.1,6.2,2.9,6.2,6.4
				c0,1.7-0.7,3.3-1.8,4.4c1.2-1.1,1.9-2.7,1.9-4.5C2482.1,73.5,2479.3,70.7,2475.8,70.7z"/>
		</g>
	</g>
	<linearGradient id="SVGID_12_" gradientUnits="userSpaceOnUse" x1="1976.0001" y1="38.7318" x2="1976.0001" y2="31.8455">
		<stop  offset="0" style="stop-color:#2E56A6"/>
		<stop  offset="1" style="stop-color:#0190C1"/>
	</linearGradient>
	<path class="st34" d="M2477,38.7H1475c-1.2,0-2.2-1-2.2-2.2v-2.4c0-1.2,1-2.2,2.2-2.2h1002c1.2,0,2.2,1,2.2,2.2v2.4
		C2479.2,37.7,2478.2,38.7,2477,38.7z"/>
</g>
<g>
	<g>
		
			<linearGradient id="SVGID_13_" gradientUnits="userSpaceOnUse" x1="1138.9604" y1="-812.6359" x2="1145.7428" y2="-812.6359" gradientTransform="matrix(0 -1 1 0 3063.509 1293.755)">
			<stop  offset="0" style="stop-color:#FA4A09"/>
			<stop  offset="1" style="stop-color:#FF8517"/>
		</linearGradient>
		<polygon class="st35" points="2264,148 2264,154.8 2237.8,154.8 2237.8,148 		"/>
		<g>
			
				<linearGradient id="SVGID_14_" gradientUnits="userSpaceOnUse" x1="1031.3461" y1="-832.4415" x2="1043.4424" y2="-859.6582" gradientTransform="matrix(-2.200000e-03 -1 1 -2.200000e-03 3126.2583 1187.3605)">
				<stop  offset="0" style="stop-color:#FA4A09"/>
				<stop  offset="1" style="stop-color:#FF8517"/>
			</linearGradient>
			<path class="st36" d="M2262.4,151.4c0,8.1,6.6,14.6,14.6,14.6c4.5,0,8.5-2.1,11.2-5.3l1.6-2.3c1.1-2.1,1.8-4.5,1.8-7
				c0-8.1-6.6-14.6-14.6-14.6C2268.9,136.8,2262.3,143.4,2262.4,151.4z"/>
			<path class="st23" d="M2262.4,151.4c0,4.1,1.7,7.8,4.4,10.4c-2.6-2.6-4.2-6.2-4.2-10.2c0-8.1,6.5-14.6,14.6-14.6
				c4,0,7.6,1.6,10.2,4.2c-2.7-2.7-6.3-4.4-10.4-4.3C2268.9,136.8,2262.3,143.4,2262.4,151.4z"/>
		</g>
		<g>
			
				<linearGradient id="SVGID_15_" gradientUnits="userSpaceOnUse" x1="1035.0305" y1="-840.7314" x2="1040.2432" y2="-852.4599" gradientTransform="matrix(-2.200000e-03 -1 1 -2.200000e-03 3126.2583 1187.3605)">
				<stop  offset="0" style="stop-color:#FFFFFF"/>
				<stop  offset="1" style="stop-color:#C9C7C7"/>
			</linearGradient>
			<path class="st37" d="M2270.7,151.4c0,3.5,2.8,6.3,6.3,6.3c1.9,0,3.7-0.9,4.8-2.3l0.7-1c0.5-0.9,0.8-1.9,0.8-3
				c0-3.5-2.8-6.3-6.3-6.3C2273.5,145.1,2270.7,147.9,2270.7,151.4z"/>
			<path class="st23" d="M2270.7,151.4c0,1.8,0.7,3.3,1.9,4.5C2271.4,154.8,2270.8,153.2,2270.7,151.4c0.1-3.4,2.9-6.2,6.4-6.2
				c1.7,0,3.3,0.7,4.4,1.8c-1.1-1.2-2.7-1.9-4.5-1.9C2273.5,145.1,2270.7,147.9,2270.7,151.4z"/>
		</g>
	</g>
	<g>
		
			<linearGradient id="SVGID_16_" gradientUnits="userSpaceOnUse" x1="948.7565" y1="-812.6359" x2="955.5389" y2="-812.6359" gradientTransform="matrix(0 -1 1 0 3063.509 1293.755)">
			<stop  offset="0" style="stop-color:#FA4A09"/>
			<stop  offset="1" style="stop-color:#FF8517"/>
		</linearGradient>
		<polygon class="st38" points="2264,338.2 2264,345 2237.8,345 2237.8,338.2 		"/>
		<g>
			
				<linearGradient id="SVGID_17_" gradientUnits="userSpaceOnUse" x1="841.1431" y1="-832.8599" x2="853.2394" y2="-860.0766" gradientTransform="matrix(-2.200000e-03 -1 1 -2.200000e-03 3126.2583 1187.3605)">
				<stop  offset="0" style="stop-color:#FA4A09"/>
				<stop  offset="1" style="stop-color:#FF8517"/>
			</linearGradient>
			<path class="st39" d="M2262.4,341.6c0,8.1,6.6,14.6,14.6,14.6c4.5,0,8.5-2.1,11.2-5.3l1.6-2.3c1.1-2.1,1.8-4.5,1.8-7
				c0-8.1-6.6-14.6-14.6-14.6C2268.9,327,2262.3,333.6,2262.4,341.6z"/>
			<path class="st23" d="M2262.4,341.6c0,4.1,1.7,7.8,4.4,10.4c-2.6-2.6-4.2-6.2-4.2-10.2c0-8.1,6.5-14.6,14.6-14.6
				c4,0,7.6,1.6,10.2,4.2c-2.7-2.7-6.3-4.4-10.4-4.3C2268.9,327,2262.3,333.6,2262.4,341.6z"/>
		</g>
		<g>
			
				<linearGradient id="SVGID_18_" gradientUnits="userSpaceOnUse" x1="844.8275" y1="-841.1499" x2="850.0402" y2="-852.8784" gradientTransform="matrix(-2.200000e-03 -1 1 -2.200000e-03 3126.2583 1187.3605)">
				<stop  offset="0" style="stop-color:#FFFFFF"/>
				<stop  offset="1" style="stop-color:#C9C7C7"/>
			</linearGradient>
			<path class="st40" d="M2270.7,341.6c0,3.5,2.8,6.3,6.3,6.3c1.9,0,3.7-0.9,4.8-2.3l0.7-1c0.5-0.9,0.8-1.9,0.8-3
				c0-3.5-2.8-6.3-6.3-6.3C2273.5,335.3,2270.7,338.1,2270.7,341.6z"/>
			<path class="st23" d="M2270.7,341.6c0,1.8,0.7,3.3,1.9,4.5C2271.4,345,2270.8,343.4,2270.7,341.6c0.1-3.4,2.9-6.2,6.4-6.2
				c1.7,0,3.3,0.7,4.4,1.8c-1.1-1.2-2.7-1.9-4.5-1.9C2273.5,335.3,2270.7,338.1,2270.7,341.6z"/>
		</g>
	</g>
	
		<linearGradient id="SVGID_19_" gradientUnits="userSpaceOnUse" x1="3365.6135" y1="-1556.8339" x2="3365.6135" y2="-1563.7202" gradientTransform="matrix(0 1 -1 0 675.1234 -3119.1082)">
		<stop  offset="0" style="stop-color:#FA4A09"/>
		<stop  offset="1" style="stop-color:#FF8517"/>
	</linearGradient>
	<path class="st41" d="M2232,342.8V150.3c0-1.2,1-2.2,2.2-2.2h2.4c1.2,0,2.2,1,2.2,2.2v192.5c0,1.2-1,2.2-2.2,2.2h-2.4
		C2233,345,2232,344,2232,342.8z"/>
</g>
<g>
	<g>
		
			<linearGradient id="SVGID_20_" gradientUnits="userSpaceOnUse" x1="1266.9658" y1="-2841.4011" x2="1273.7482" y2="-2841.4011" gradientTransform="matrix(0 -1 1 0 3063.509 1293.755)">
			<stop  offset="0" style="stop-color:#FA4A09"/>
			<stop  offset="1" style="stop-color:#FF8517"/>
		</linearGradient>
		<polygon class="st42" points="235.2,20 235.2,26.8 209,26.8 209,20 		"/>
		<g>
			
				<linearGradient id="SVGID_21_" gradientUnits="userSpaceOnUse" x1="1163.814" y1="-2860.915" x2="1175.9103" y2="-2888.1318" gradientTransform="matrix(-2.200000e-03 -1 1 -2.200000e-03 3126.2583 1187.3605)">
				<stop  offset="0" style="stop-color:#FA4A09"/>
				<stop  offset="1" style="stop-color:#FF8517"/>
			</linearGradient>
			<path class="st43" d="M233.6,23.4c0,8.1,6.6,14.6,14.6,14.6c4.5,0,8.5-2.1,11.2-5.3l1.6-2.3c1.1-2.1,1.8-4.5,1.8-7
				c0-8.1-6.6-14.6-14.6-14.6C240.1,8.8,233.6,15.4,233.6,23.4z"/>
			<path class="st23" d="M233.6,23.4c0,4.1,1.7,7.8,4.4,10.4c-2.6-2.6-4.2-6.2-4.2-10.2c0-8.1,6.5-14.6,14.6-14.6
				c4,0,7.6,1.6,10.2,4.2c-2.7-2.7-6.3-4.4-10.4-4.3C240.1,8.8,233.6,15.4,233.6,23.4z"/>
		</g>
		<g>
			
				<linearGradient id="SVGID_22_" gradientUnits="userSpaceOnUse" x1="1167.4984" y1="-2869.2051" x2="1172.7112" y2="-2880.9336" gradientTransform="matrix(-2.200000e-03 -1 1 -2.200000e-03 3126.2583 1187.3605)">
				<stop  offset="0" style="stop-color:#FFFFFF"/>
				<stop  offset="1" style="stop-color:#C9C7C7"/>
			</linearGradient>
			<path class="st44" d="M241.9,23.4c0,3.5,2.8,6.3,6.3,6.3c1.9,0,3.7-0.9,4.8-2.3l0.7-1c0.5-0.9,0.8-1.9,0.8-3
				c0-3.5-2.8-6.3-6.3-6.3C244.7,17.1,241.9,19.9,241.9,23.4z"/>
			<path class="st23" d="M241.9,23.4c0,1.8,0.7,3.3,1.9,4.5C242.7,26.8,242,25.2,241.9,23.4c0.1-3.4,2.9-6.2,6.4-6.2
				c1.7,0,3.3,0.7,4.4,1.8c-1.1-1.2-2.7-1.9-4.5-1.9C244.7,17.1,241.9,19.9,241.9,23.4z"/>
		</g>
	</g>
	<g>
		
			<linearGradient id="SVGID_23_" gradientUnits="userSpaceOnUse" x1="1076.7618" y1="-2841.4011" x2="1083.5442" y2="-2841.4011" gradientTransform="matrix(0 -1 1 0 3063.509 1293.755)">
			<stop  offset="0" style="stop-color:#FA4A09"/>
			<stop  offset="1" style="stop-color:#FF8517"/>
		</linearGradient>
		<polygon class="st45" points="235.2,210.2 235.2,217 209,217 209,210.2 		"/>
		<g>
			
				<linearGradient id="SVGID_24_" gradientUnits="userSpaceOnUse" x1="973.611" y1="-2861.3335" x2="985.7074" y2="-2888.5503" gradientTransform="matrix(-2.200000e-03 -1 1 -2.200000e-03 3126.2583 1187.3605)">
				<stop  offset="0" style="stop-color:#FA4A09"/>
				<stop  offset="1" style="stop-color:#FF8517"/>
			</linearGradient>
			<path class="st46" d="M233.6,213.6c0,8.1,6.6,14.6,14.6,14.6c4.5,0,8.5-2.1,11.2-5.3l1.6-2.3c1.1-2.1,1.8-4.5,1.8-7
				c0-8.1-6.6-14.6-14.6-14.6C240.1,199,233.6,205.6,233.6,213.6z"/>
			<path class="st23" d="M233.6,213.6c0,4.1,1.7,7.8,4.4,10.4c-2.6-2.6-4.2-6.2-4.2-10.2c0-8.1,6.5-14.6,14.6-14.6
				c4,0,7.6,1.6,10.2,4.2c-2.7-2.7-6.3-4.4-10.4-4.3C240.1,199,233.6,205.6,233.6,213.6z"/>
		</g>
		<g>
			
				<linearGradient id="SVGID_25_" gradientUnits="userSpaceOnUse" x1="977.2955" y1="-2869.6235" x2="982.5081" y2="-2881.3521" gradientTransform="matrix(-2.200000e-03 -1 1 -2.200000e-03 3126.2583 1187.3605)">
				<stop  offset="0" style="stop-color:#FFFFFF"/>
				<stop  offset="1" style="stop-color:#C9C7C7"/>
			</linearGradient>
			<path class="st47" d="M241.9,213.6c0,3.5,2.8,6.3,6.3,6.3c1.9,0,3.7-0.9,4.8-2.3l0.7-1c0.5-0.9,0.8-1.9,0.8-3
				c0-3.5-2.8-6.3-6.3-6.3C244.7,207.3,241.9,210.1,241.9,213.6z"/>
			<path class="st23" d="M241.9,213.6c0,1.8,0.7,3.3,1.9,4.5C242.7,217,242,215.4,241.9,213.6c0.1-3.4,2.9-6.2,6.4-6.2
				c1.7,0,3.3,0.7,4.4,1.8c-1.1-1.2-2.7-1.9-4.5-1.9C244.7,207.3,241.9,210.1,241.9,213.6z"/>
		</g>
	</g>
	
		<linearGradient id="SVGID_26_" gradientUnits="userSpaceOnUse" x1="3237.6082" y1="471.9313" x2="3237.6082" y2="465.045" gradientTransform="matrix(0 1 -1 0 675.1234 -3119.1082)">
		<stop  offset="0" style="stop-color:#FA4A09"/>
		<stop  offset="1" style="stop-color:#FF8517"/>
	</linearGradient>
	<path class="st48" d="M203.2,214.8V22.2c0-1.2,1-2.2,2.2-2.2h2.4c1.2,0,2.2,1,2.2,2.2v192.5c0,1.2-1,2.2-2.2,2.2h-2.4
		C204.2,217,203.2,216,203.2,214.8z"/>
</g>
<g>
	<g>
		
			<linearGradient id="SVGID_27_" gradientUnits="userSpaceOnUse" x1="1138.9606" y1="-1512.5371" x2="1145.7429" y2="-1512.5371" gradientTransform="matrix(0 -1 -1 0 185.4619 1293.755)">
			<stop  offset="0" style="stop-color:#FA4A09"/>
			<stop  offset="1" style="stop-color:#FF8517"/>
		</linearGradient>
		<polygon class="st49" points="1684.9,148 1684.9,154.8 1711.1,154.8 1711.1,148 		"/>
		<g>
			
				<linearGradient id="SVGID_28_" gradientUnits="userSpaceOnUse" x1="1032.8859" y1="-1532.3394" x2="1044.9822" y2="-1559.556" gradientTransform="matrix(2.200000e-03 -1 -1 -2.200000e-03 122.7126 1187.3605)">
				<stop  offset="0" style="stop-color:#FA4A09"/>
				<stop  offset="1" style="stop-color:#FF8517"/>
			</linearGradient>
			<path class="st50" d="M1686.5,151.4c0,8.1-6.6,14.6-14.6,14.6c-4.5,0-8.5-2.1-11.2-5.3l-1.6-2.3c-1.1-2.1-1.8-4.5-1.8-7
				c0-8.1,6.6-14.6,14.6-14.6C1680,136.8,1686.5,143.4,1686.5,151.4z"/>
			<path class="st23" d="M1686.5,151.4c0,4.1-1.7,7.8-4.4,10.4c2.6-2.6,4.2-6.2,4.2-10.2c0-8.1-6.5-14.6-14.6-14.6
				c-4,0-7.6,1.6-10.2,4.2c2.7-2.7,6.3-4.4,10.4-4.3C1680,136.8,1686.5,143.4,1686.5,151.4z"/>
		</g>
		<g>
			
				<linearGradient id="SVGID_29_" gradientUnits="userSpaceOnUse" x1="1036.5703" y1="-1540.6293" x2="1041.783" y2="-1552.3578" gradientTransform="matrix(2.200000e-03 -1 -1 -2.200000e-03 122.7126 1187.3605)">
				<stop  offset="0" style="stop-color:#FFFFFF"/>
				<stop  offset="1" style="stop-color:#C9C7C7"/>
			</linearGradient>
			<path class="st51" d="M1678.2,151.4c0,3.5-2.8,6.3-6.3,6.3c-1.9,0-3.7-0.9-4.8-2.3l-0.7-1c-0.5-0.9-0.8-1.9-0.8-3
				c0-3.5,2.8-6.3,6.3-6.3C1675.4,145.1,1678.2,147.9,1678.2,151.4z"/>
			<path class="st23" d="M1678.2,151.4c0,1.8-0.7,3.3-1.9,4.5C1677.4,154.8,1678.1,153.2,1678.2,151.4c-0.1-3.4-2.9-6.2-6.4-6.2
				c-1.7,0-3.3,0.7-4.4,1.8c1.1-1.2,2.7-1.9,4.5-1.9C1675.4,145.1,1678.2,147.9,1678.2,151.4z"/>
		</g>
	</g>
	<g>
		
			<linearGradient id="SVGID_30_" gradientUnits="userSpaceOnUse" x1="948.7565" y1="-1512.5371" x2="955.5388" y2="-1512.5371" gradientTransform="matrix(0 -1 -1 0 185.4619 1293.755)">
			<stop  offset="0" style="stop-color:#FA4A09"/>
			<stop  offset="1" style="stop-color:#FF8517"/>
		</linearGradient>
		<polygon class="st52" points="1684.9,338.2 1684.9,345 1711.1,345 1711.1,338.2 		"/>
		<g>
			
				<linearGradient id="SVGID_31_" gradientUnits="userSpaceOnUse" x1="842.6829" y1="-1532.7578" x2="854.7792" y2="-1559.9745" gradientTransform="matrix(2.200000e-03 -1 -1 -2.200000e-03 122.7126 1187.3605)">
				<stop  offset="0" style="stop-color:#FA4A09"/>
				<stop  offset="1" style="stop-color:#FF8517"/>
			</linearGradient>
			<path class="st53" d="M1686.5,341.6c0,8.1-6.6,14.6-14.6,14.6c-4.5,0-8.5-2.1-11.2-5.3l-1.6-2.3c-1.1-2.1-1.8-4.5-1.8-7
				c0-8.1,6.6-14.6,14.6-14.6S1686.5,333.6,1686.5,341.6z"/>
			<path class="st23" d="M1686.5,341.6c0,4.1-1.7,7.8-4.4,10.4c2.6-2.6,4.2-6.2,4.2-10.2c0-8.1-6.5-14.6-14.6-14.6
				c-4,0-7.6,1.6-10.2,4.2c2.7-2.7,6.3-4.4,10.4-4.3C1680,327,1686.5,333.6,1686.5,341.6z"/>
		</g>
		<g>
			
				<linearGradient id="SVGID_32_" gradientUnits="userSpaceOnUse" x1="846.3672" y1="-1541.0477" x2="851.58" y2="-1552.7762" gradientTransform="matrix(2.200000e-03 -1 -1 -2.200000e-03 122.7126 1187.3605)">
				<stop  offset="0" style="stop-color:#FFFFFF"/>
				<stop  offset="1" style="stop-color:#C9C7C7"/>
			</linearGradient>
			<path class="st54" d="M1678.2,341.6c0,3.5-2.8,6.3-6.3,6.3c-1.9,0-3.7-0.9-4.8-2.3l-0.7-1c-0.5-0.9-0.8-1.9-0.8-3
				c0-3.5,2.8-6.3,6.3-6.3C1675.4,335.3,1678.2,338.1,1678.2,341.6z"/>
			<path class="st23" d="M1678.2,341.6c0,1.8-0.7,3.3-1.9,4.5C1677.4,345,1678.1,343.4,1678.2,341.6c-0.1-3.4-2.9-6.2-6.4-6.2
				c-1.7,0-3.3,0.7-4.4,1.8c1.1-1.2,2.7-1.9,4.5-1.9C1675.4,335.3,1678.2,338.1,1678.2,341.6z"/>
		</g>
	</g>
	
		<linearGradient id="SVGID_33_" gradientUnits="userSpaceOnUse" x1="3365.6135" y1="-856.9326" x2="3365.6135" y2="-863.8189" gradientTransform="matrix(0 1 1 0 2573.8477 -3119.1082)">
		<stop  offset="0" style="stop-color:#FA4A09"/>
		<stop  offset="1" style="stop-color:#FF8517"/>
	</linearGradient>
	<path class="st55" d="M1716.9,342.8V150.3c0-1.2-1-2.2-2.2-2.2h-2.4c-1.2,0-2.2,1-2.2,2.2v192.5c0,1.2,1,2.2,2.2,2.2h2.4
		C1715.9,345,1716.9,344,1716.9,342.8z"/>
</g>
<g>
	<g>
		
			<linearGradient id="SVGID_34_" gradientUnits="userSpaceOnUse" x1="1264.9658" y1="136.07" x2="1271.7482" y2="136.07" gradientTransform="matrix(0 -1 -1 0 185.4619 1293.755)">
			<stop  offset="0" style="stop-color:#FA4A09"/>
			<stop  offset="1" style="stop-color:#FF8517"/>
		</linearGradient>
		<polygon class="st56" points="36.3,22 36.3,28.8 62.5,28.8 62.5,22 		"/>
		<g>
			
				<linearGradient id="SVGID_35_" gradientUnits="userSpaceOnUse" x1="1155.2635" y1="116.5371" x2="1167.36" y2="89.3203" gradientTransform="matrix(2.200000e-03 -1 -1 -2.200000e-03 122.7126 1187.3605)">
				<stop  offset="0" style="stop-color:#FA4A09"/>
				<stop  offset="1" style="stop-color:#FF8517"/>
			</linearGradient>
			<path class="st57" d="M37.9,25.4c0,8.1-6.6,14.6-14.6,14.6c-4.5,0-8.5-2.1-11.2-5.3l-1.6-2.3c-1.1-2.1-1.8-4.5-1.8-7
				c0-8.1,6.6-14.6,14.6-14.6C31.4,10.8,37.9,17.4,37.9,25.4z"/>
			<path class="st23" d="M37.9,25.4c0,4.1-1.7,7.8-4.4,10.4c2.6-2.6,4.2-6.2,4.2-10.2c0-8.1-6.5-14.6-14.6-14.6
				c-4,0-7.6,1.6-10.2,4.2c2.7-2.7,6.3-4.4,10.4-4.3C31.4,10.8,37.9,17.4,37.9,25.4z"/>
		</g>
		<g>
			
				<linearGradient id="SVGID_36_" gradientUnits="userSpaceOnUse" x1="1158.9481" y1="108.2471" x2="1164.1608" y2="96.5186" gradientTransform="matrix(2.200000e-03 -1 -1 -2.200000e-03 122.7126 1187.3605)">
				<stop  offset="0" style="stop-color:#FFFFFF"/>
				<stop  offset="1" style="stop-color:#C9C7C7"/>
			</linearGradient>
			<path class="st58" d="M29.6,25.4c0,3.5-2.8,6.3-6.3,6.3c-1.9,0-3.7-0.9-4.8-2.3l-0.7-1c-0.5-0.9-0.8-1.9-0.8-3
				c0-3.5,2.8-6.3,6.3-6.3C26.8,19.1,29.6,21.9,29.6,25.4z"/>
			<path class="st23" d="M29.6,25.4c0,1.8-0.7,3.3-1.9,4.5C28.8,28.8,29.5,27.2,29.6,25.4c-0.1-3.4-2.9-6.2-6.4-6.2
				c-1.7,0-3.3,0.7-4.4,1.8c1.1-1.2,2.7-1.9,4.5-1.9C26.8,19.1,29.6,21.9,29.6,25.4z"/>
		</g>
	</g>
	<g>
		
			<linearGradient id="SVGID_37_" gradientUnits="userSpaceOnUse" x1="1074.7618" y1="136.07" x2="1081.5442" y2="136.07" gradientTransform="matrix(0 -1 -1 0 185.4619 1293.755)">
			<stop  offset="0" style="stop-color:#FA4A09"/>
			<stop  offset="1" style="stop-color:#FF8517"/>
		</linearGradient>
		<polygon class="st59" points="36.3,212.2 36.3,219 62.5,219 62.5,212.2 		"/>
		<g>
			
				<linearGradient id="SVGID_38_" gradientUnits="userSpaceOnUse" x1="965.0606" y1="116.1186" x2="977.157" y2="88.9019" gradientTransform="matrix(2.200000e-03 -1 -1 -2.200000e-03 122.7126 1187.3605)">
				<stop  offset="0" style="stop-color:#FA4A09"/>
				<stop  offset="1" style="stop-color:#FF8517"/>
			</linearGradient>
			<path class="st60" d="M37.9,215.6c0,8.1-6.6,14.6-14.6,14.6c-4.5,0-8.5-2.1-11.2-5.3l-1.6-2.3c-1.1-2.1-1.8-4.5-1.8-7
				c0-8.1,6.6-14.6,14.6-14.6S37.9,207.6,37.9,215.6z"/>
			<path class="st23" d="M37.9,215.6c0,4.1-1.7,7.8-4.4,10.4c2.6-2.6,4.2-6.2,4.2-10.2c0-8.1-6.5-14.6-14.6-14.6
				c-4,0-7.6,1.6-10.2,4.2c2.7-2.7,6.3-4.4,10.4-4.3C31.4,201,37.9,207.6,37.9,215.6z"/>
		</g>
		<g>
			
				<linearGradient id="SVGID_39_" gradientUnits="userSpaceOnUse" x1="968.7451" y1="107.8286" x2="973.9577" y2="96.1001" gradientTransform="matrix(2.200000e-03 -1 -1 -2.200000e-03 122.7126 1187.3605)">
				<stop  offset="0" style="stop-color:#FFFFFF"/>
				<stop  offset="1" style="stop-color:#C9C7C7"/>
			</linearGradient>
			<path class="st61" d="M29.6,215.6c0,3.5-2.8,6.3-6.3,6.3c-1.9,0-3.7-0.9-4.8-2.3l-0.7-1c-0.5-0.9-0.8-1.9-0.8-3
				c0-3.5,2.8-6.3,6.3-6.3C26.8,209.3,29.6,212.1,29.6,215.6z"/>
			<path class="st23" d="M29.6,215.6c0,1.8-0.7,3.3-1.9,4.5C28.8,219,29.5,217.4,29.6,215.6c-0.1-3.4-2.9-6.2-6.4-6.2
				c-1.7,0-3.3,0.7-4.4,1.8c1.1-1.2,2.7-1.9,4.5-1.9C26.8,209.3,29.6,212.1,29.6,215.6z"/>
		</g>
	</g>
	
		<linearGradient id="SVGID_40_" gradientUnits="userSpaceOnUse" x1="3239.6082" y1="-2505.5398" x2="3239.6082" y2="-2512.426" gradientTransform="matrix(0 1 1 0 2573.8477 -3119.1082)">
		<stop  offset="0" style="stop-color:#FA4A09"/>
		<stop  offset="1" style="stop-color:#FF8517"/>
	</linearGradient>
	<path class="st62" d="M68.3,216.8V24.2c0-1.2-1-2.2-2.2-2.2h-2.4c-1.2,0-2.2,1-2.2,2.2v192.5c0,1.2,1,2.2,2.2,2.2h2.4
		C67.3,219,68.3,218,68.3,216.8z"/>
</g>
<linearGradient id="SVGID_41_" gradientUnits="userSpaceOnUse" x1="1810.6846" y1="-75.3957" x2="2161.6543" y2="-75.3957">
	<stop  offset="0" style="stop-color:#2E56A6"/>
	<stop  offset="1" style="stop-color:#0190C1"/>
</linearGradient>
<path class="st63" d="M2148.5-24.8h-324.7c-7.2,0-13.1-5.9-13.1-13.3v-74.7c0-7.3,5.9-13.3,13.1-13.3h324.7
	c7.2,0,13.1,5.9,13.1,13.3v74.7C2161.7-30.7,2155.8-24.8,2148.5-24.8z"/>
<path class="st64" d="M2151.1-36.5H1824c-7.3,0-13.3-5.9-13.3-13.3v-74.7c0-7.3,5.9-13.3,13.3-13.3h327.1c7.3,0,13.3,5.9,13.3,13.3
	v74.7C2164.3-42.5,2158.4-36.5,2151.1-36.5z"/>
<linearGradient id="SVGID_42_" gradientUnits="userSpaceOnUse" x1="1877.8163" y1="24.7428" x2="2095.5918" y2="-193.0329">
	<stop  offset="0" style="stop-color:#FFFFFF"/>
	<stop  offset="1" style="stop-color:#C9C7C7"/>
</linearGradient>
<path class="st65" d="M2148.4-33.5h-323.3c-7.3,0-13.3-6-13.3-13.3v-74.6c0-7.3,6-13.3,13.3-13.3h323.3c7.3,0,13.3,6,13.3,13.3v74.6
	C2161.7-39.5,2155.7-33.5,2148.4-33.5z"/>
<linearGradient id="SVGID_43_" gradientUnits="userSpaceOnUse" x1="1299.3462" y1="157.3296" x2="1650.3157" y2="157.3296">
	<stop  offset="0" style="stop-color:#008488"/>
	<stop  offset="1" style="stop-color:#24D195"/>
</linearGradient>
<path class="st66" d="M1637.2,207.9h-324.7c-7.2,0-13.1-5.9-13.1-13.3V120c0-7.3,5.9-13.3,13.1-13.3h324.7c7.2,0,13.1,5.9,13.1,13.3
	v74.7C1650.3,202,1644.4,207.9,1637.2,207.9z"/>
<path class="st64" d="M1639.7,196.2h-327.1c-7.3,0-13.3-5.9-13.3-13.3v-74.7c0-7.3,5.9-13.3,13.3-13.3h327.1
	c7.3,0,13.3,5.9,13.3,13.3v74.7C1653,190.2,1647,196.2,1639.7,196.2z"/>
<linearGradient id="SVGID_44_" gradientUnits="userSpaceOnUse" x1="1366.4778" y1="257.468" x2="1584.2534" y2="39.6924">
	<stop  offset="0" style="stop-color:#FFFFFF"/>
	<stop  offset="1" style="stop-color:#C9C7C7"/>
</linearGradient>
<path class="st67" d="M1637,199.2h-323.3c-7.3,0-13.3-6-13.3-13.3v-74.6c0-7.3,6-13.3,13.3-13.3H1637c7.3,0,13.3,6,13.3,13.3v74.6
	C1650.3,193.2,1644.4,199.2,1637,199.2z"/>
<linearGradient id="SVGID_45_" gradientUnits="userSpaceOnUse" x1="1299.3462" y1="341.6072" x2="1650.3157" y2="341.6072">
	<stop  offset="0" style="stop-color:#008488"/>
	<stop  offset="1" style="stop-color:#00CBE1"/>
</linearGradient>
<path class="st68" d="M1637.2,392.2h-324.7c-7.2,0-13.1-5.9-13.1-13.3v-74.7c0-7.3,5.9-13.3,13.1-13.3h324.7
	c7.2,0,13.1,5.9,13.1,13.3v74.7C1650.3,386.3,1644.4,392.2,1637.2,392.2z"/>
<path class="st64" d="M1639.7,380.5h-327.1c-7.3,0-13.3-5.9-13.3-13.3v-74.7c0-7.3,5.9-13.3,13.3-13.3h327.1
	c7.3,0,13.3,5.9,13.3,13.3v74.7C1653,374.5,1647,380.5,1639.7,380.5z"/>
<linearGradient id="SVGID_46_" gradientUnits="userSpaceOnUse" x1="1366.4778" y1="441.7457" x2="1584.2534" y2="223.97">
	<stop  offset="0" style="stop-color:#FFFFFF"/>
	<stop  offset="1" style="stop-color:#C9C7C7"/>
</linearGradient>
<path class="st69" d="M1637,383.5h-323.3c-7.3,0-13.3-6-13.3-13.3v-74.6c0-7.3,6-13.3,13.3-13.3H1637c7.3,0,13.3,6,13.3,13.3v74.6
	C1650.3,377.5,1644.4,383.5,1637,383.5z"/>
<linearGradient id="SVGID_47_" gradientUnits="userSpaceOnUse" x1="2867.2869" y1="-168.332" x2="2946.21" y2="-270.7935">
	<stop  offset="1.118836e-07" style="stop-color:#F59009"/>
	<stop  offset="1" style="stop-color:#F4DB2C"/>
</linearGradient>
<path class="st70" d="M2636.9,392.2h-324.7c-7.2,0-13.1-5.9-13.1-13.3v-74.7c0-7.3,5.9-13.3,13.1-13.3h324.7
	c7.2,0,13.1,5.9,13.1,13.3v74.7C2650,386.3,2644.1,392.2,2636.9,392.2z"/>
<path class="st64" d="M2639.4,380.5h-327.1c-7.3,0-13.3-5.9-13.3-13.3v-74.7c0-7.3,5.9-13.3,13.3-13.3h327.1
	c7.3,0,13.3,5.9,13.3,13.3v74.7C2652.7,374.5,2646.7,380.5,2639.4,380.5z"/>
<linearGradient id="SVGID_48_" gradientUnits="userSpaceOnUse" x1="2366.1428" y1="441.7457" x2="2583.9185" y2="223.97">
	<stop  offset="0" style="stop-color:#FFFFFF"/>
	<stop  offset="1" style="stop-color:#C9C7C7"/>
</linearGradient>
<path class="st71" d="M2636.7,383.5h-323.3c-7.3,0-13.3-6-13.3-13.3v-74.6c0-7.3,6-13.3,13.3-13.3h323.3c7.3,0,13.3,6,13.3,13.3
	v74.6C2650,377.5,2644,383.5,2636.7,383.5z"/>
<linearGradient id="SVGID_49_" gradientUnits="userSpaceOnUse" x1="2299.0112" y1="157.3296" x2="2649.9807" y2="157.3296">
	<stop  offset="0" style="stop-color:#FA4A09"/>
	<stop  offset="1" style="stop-color:#FF8517"/>
</linearGradient>
<path class="st72" d="M2636.9,207.9h-324.7c-7.2,0-13.1-5.9-13.1-13.3V120c0-7.3,5.9-13.3,13.1-13.3h324.7c7.2,0,13.1,5.9,13.1,13.3
	v74.7C2650,202,2644.1,207.9,2636.9,207.9z"/>
<path class="st64" d="M2639.4,196.2h-327.1c-7.3,0-13.3-5.9-13.3-13.3v-74.7c0-7.3,5.9-13.3,13.3-13.3h327.1
	c7.3,0,13.3,5.9,13.3,13.3v74.7C2652.7,190.2,2646.7,196.2,2639.4,196.2z"/>
<linearGradient id="SVGID_50_" gradientUnits="userSpaceOnUse" x1="2366.1428" y1="257.468" x2="2583.9185" y2="39.6924">
	<stop  offset="0" style="stop-color:#FFFFFF"/>
	<stop  offset="1" style="stop-color:#C9C7C7"/>
</linearGradient>
<path class="st73" d="M2636.7,199.2h-323.3c-7.3,0-13.3-6-13.3-13.3v-74.6c0-7.3,6-13.3,13.3-13.3h323.3c7.3,0,13.3,6,13.3,13.3
	v74.6C2650,193.2,2644,199.2,2636.7,199.2z"/>
<g>
	<text transform="matrix(1 0 0 1 1897.6348 -99.5596)" class="st2" style="font-family:'GEDinarTwo-Medium'; font-size:23.4834px;">ةرادلا سلجم سيئر</text>
	<g>
		<text transform="matrix(1 0 0 1 1846.001 -58.6953)" class="st3" style="font-family:'GEDinarTwo-Medium'; font-size:24.788px;">يناطحقلا لياعم نب لادبع</text>
	</g>
</g>
<g>
	<text transform="matrix(1 0 0 1 1353.0244 172.9551)" class="st3" style="font-family:'GEDinarTwo-Medium'; font-size:24.788px;">يرسودلا لادبع نب دمحم</text>
</g>
<g>
	<text transform="matrix(1 0 0 1 1404.1353 130.748)" class="st2" style="font-family:'GEDinarTwo-Medium'; font-size:23.4834px;">يلاملا فرشملا</text>
</g>
<g>
	<text transform="matrix(1 0 0 1 2364.8628 177.9551)" class="st3" style="font-family:'GEDinarTwo-Medium'; font-size:24.788px;">ينرقلا لادبع نب دعس</text>
</g>
<g>
	<text transform="matrix(1 0 0 1 2366.2437 133.748)" class="st2" style="font-family:'GEDinarTwo-Medium'; font-size:23.4834px;">ةرادلا سلجم سيئر بئان</text>
</g>
<g>
	<text transform="matrix(1 0 0 1 1336.9038 357.2236)" class="st3" style="font-family:'GEDinarTwo-Medium'; font-size:24.788px;">يواعملا رصان نب نمحرلادبع</text>
</g>
<g>
	<text transform="matrix(1 0 0 1 1388.8198 313.0166)" class="st2" style="font-family:'GEDinarTwo-Medium'; font-size:23.4834px;">ةرادلا سلجم وضع</text>
</g>
<g>
	<text transform="matrix(1 0 0 1 2368.1626 360.2236)" class="st3" style="font-family:'GEDinarTwo-Medium'; font-size:24.788px;">يدماغلا دعس نب دماح</text>
</g>
<g>
	<text transform="matrix(1 0 0 1 2390.3462 316.0166)" class="st2" style="font-family:'GEDinarTwo-Medium'; font-size:23.4834px;">ةرادلا سلجم وضع</text>
</g>
<image style="overflow:visible;" width="1186" height="474" xlink:href="9C732483.jpg"  transform="matrix(0.6118 0 0 0.6118 1200 794)">
</image>
</svg>
