<?xml version="1.0" encoding="utf-8"?>
<!-- Generator: Adobe Illustrator 24.3.0, SVG Export Plug-In . SVG Version: 6.00 Build 0)  -->
<svg version="1.1" id="Layer_1" xmlns="http://www.w3.org/2000/svg" xmlns:xlink="http://www.w3.org/1999/xlink" x="0px" y="0px"
	 viewBox="0 0 409 47" style="enable-background:new 0 0 409 47;" xml:space="preserve">
<style type="text/css">
	.st0{fill:none;stroke:#FFFFFF;stroke-miterlimit:10;}
	.st1{fill:none;stroke:#2E3192;stroke-miterlimit:10;}
	.st2{fill:#AA802D;}
	.st3{fill:#0C233F;}
	.st4{fill:#CCCCCC;}
	.st5{opacity:0.3;fill:#999999;}
	.st6{fill:#FFFFFF;stroke:#999999;stroke-miterlimit:10;}
	.st7{fill:#C4C5C6;}
	.st8{fill:#707372;}
	.st9{fill:#F2F2F2;}
	.st10{fill:#A5A5A7;}
	.st11{fill:#273777;}
	.st12{fill:#A9AAAC;}
	.st13{fill:#CCD533;}
	.st14{fill:#71B545;}
	.st15{fill:#24B3BA;}
	.st16{fill:#58B15A;}
	.st17{fill:#2684C6;}
	.st18{fill:#1E3A6D;}
	.st19{fill:#6F787F;}
	.st20{fill:#ECECEC;}
	.st21{fill:none;stroke:#F7931E;stroke-width:0.75;stroke-miterlimit:10;}
	.st22{opacity:0.9;fill:#0C233F;}
	.st23{fill:#FFFFFF;}
	.st24{fill-rule:evenodd;clip-rule:evenodd;fill:#CCCCCC;}
	.st25{fill:url(#SVGID_3_);}
	.st26{fill:url(#SVGID_4_);stroke:#FFFFFF;stroke-width:1.2769;stroke-miterlimit:10;}
	.st27{fill:url(#SVGID_5_);}
	.st28{fill:url(#SVGID_6_);}
	.st29{fill:url(#SVGID_7_);stroke:#FFFFFF;stroke-width:1.2769;stroke-miterlimit:10;}
	.st30{fill:url(#SVGID_8_);}
	.st31{fill:url(#SVGID_9_);}
	.st32{fill:url(#SVGID_10_);stroke:#FFFFFF;stroke-width:1.2769;stroke-miterlimit:10;}
	.st33{fill:url(#SVGID_11_);}
	.st34{fill:url(#SVGID_12_);}
	.st35{fill:url(#SVGID_13_);}
	.st36{fill:url(#SVGID_14_);stroke:#FFFFFF;stroke-width:1.2769;stroke-miterlimit:10;}
	.st37{fill:url(#SVGID_15_);}
	.st38{fill:url(#SVGID_16_);}
	.st39{fill:url(#SVGID_17_);stroke:#FFFFFF;stroke-width:1.2769;stroke-miterlimit:10;}
	.st40{fill:url(#SVGID_18_);}
	.st41{fill:url(#SVGID_19_);}
	.st42{fill:url(#SVGID_20_);}
	.st43{fill:url(#SVGID_21_);stroke:#FFFFFF;stroke-width:1.2769;stroke-miterlimit:10;}
	.st44{fill:url(#SVGID_22_);}
	.st45{fill:url(#SVGID_23_);}
	.st46{fill:url(#SVGID_24_);stroke:#FFFFFF;stroke-width:1.2769;stroke-miterlimit:10;}
	.st47{fill:url(#SVGID_25_);}
	.st48{fill:url(#SVGID_26_);}
	.st49{fill:url(#SVGID_27_);}
	.st50{fill:#FEFDFF;}
	.st51{fill:url(#SVGID_28_);}
	.st52{fill:url(#SVGID_29_);}
	.st53{fill:url(#SVGID_30_);}
	.st54{fill:url(#SVGID_31_);}
	.st55{fill:url(#SVGID_32_);}
	.st56{fill:url(#SVGID_33_);}
	.st57{fill:url(#SVGID_34_);}
	.st58{fill:url(#SVGID_35_);}
	.st59{fill:url(#SVGID_36_);}
</style>
<line class="st0" x1="-789" y1="-1857" x2="-2648" y2="-1857"/>
<line class="st1" x1="-789" y1="-1240.5" x2="-2648" y2="-1240.5"/>
<g>
	<rect x="-954" y="-1819" class="st2" width="12" height="88"/>
	<text transform="matrix(1 0 0 1 -1217.3943 -1744.9879)" class="st3" style="font-family:'GEDinarTwo-Medium'; font-size:60px;">روطس يف</text>
</g>
<g>
	<rect x="-954" y="-1193" class="st2" width="12" height="88"/>
	<text transform="matrix(1 0 0 1 -1415.0291 -1118.9879)" class="st3" style="font-family:'GEDinarTwo-Medium'; font-size:60px;">ةيمومعلا ةيعمجلا</text>
</g>
<line class="st1" x1="-789" y1="-572.5" x2="-2648" y2="-572.5"/>
<g>
	<rect x="-954" y="-525" class="st2" width="12" height="88"/>
	<text transform="matrix(1 0 0 1 -1448.8708 -450.9879)" class="st3" style="font-family:'GEDinarTwo-Medium'; font-size:60px;">ةرادلا سلجم ءاضعأ</text>
</g>
<g>
	<path class="st1" d="M-1512.1,707"/>
	<rect x="-2679" y="574" class="st3" width="1920" height="388"/>
	<g>
		<g>
			<text transform="matrix(1 0 0 1 -1142.6484 642.269)"><tspan x="0" y="0" class="st4" style="font-family:'GEDinarOne-Medium'; font-size:24px;">ةيدوعسلا ةيبرعلا ةكلمملا</tspan><tspan x="106.1" y="28.8" class="st4" style="font-family:'GEDinarOne-Medium'; font-size:24px;"> </tspan><tspan x="110" y="28.8" class="st4" style="font-family:'GEDinarOne-Medium'; font-size:24px;">ةشيب ةظفاحم</tspan></text>
		</g>
	</g>
	<g>
		<g>
			<text transform="matrix(1 0 0 1 -1211.4437 934.0986)" class="st4" style="font-family:'GeezaPro-Bold'; font-size:22px;">ةيبابشلا قبع ةيعمل ةظوفحم قوقلا عيمج</text>
		</g>
		<g>
			<text transform="matrix(1 0 0 1 -1304.5492 934.0986)" class="st4" style="font-family:'MyriadPro-Regular'; font-size:22px;">2021 </text>
		</g>
		<g>
			<g>
				<g>
					<path class="st4" d="M-1320.9,932.3c-0.4,0.2-1.3,0.4-2.4,0.4c-2.6,0-4.5-1.6-4.5-4.6c0-2.9,1.9-4.8,4.8-4.8
						c1.1,0,1.9,0.2,2.2,0.4l-0.3,1c-0.4-0.2-1.1-0.4-1.8-0.4c-2.1,0-3.6,1.4-3.6,3.8c0,2.2,1.3,3.7,3.5,3.7c0.7,0,1.4-0.1,1.9-0.4
						L-1320.9,932.3z"/>
				</g>
			</g>
			<g>
				<g>
					<path class="st4" d="M-1324.4,937c-5,0-9-4-9-9c0-5,4-9,9-9c5,0,9,4,9,9C-1315.4,933-1319.4,937-1324.4,937z M-1324.4,920
						c-4.4,0-8,3.6-8,8s3.6,8,8,8c4.4,0,8-3.6,8-8S-1320,920-1324.4,920z"/>
				</g>
			</g>
		</g>
	</g>
	<g>
		<g>
			<text transform="matrix(1 0 0 1 -957.0425 709.983)"><tspan x="0" y="0" class="st9" style="font-family:'GEDinarOne-Medium'; font-size:16.9296px;">فتاه</tspan><tspan x="-11.8" y="30.5" class="st9" style="font-family:'GEDinarOne-Medium'; font-size:16.9296px;">سكاف</tspan><tspan x="0.7" y="60.9" class="st9" style="font-family:'GEDinarOne-Medium'; font-size:16.9296px;">لاوج</tspan><tspan x="-98.6" y="121.9" class="st9" style="font-family:'MyriadPro-Regular'; font-size:20.3155px;"> </tspan><tspan x="-94.3" y="121.9" class="st9" style="font-family:'GEDinarOne-Medium'; font-size:20.3155px;">ينورتكللا</tspan><tspan x="-15.7" y="121.9" class="st9" style="font-family:'MyriadPro-Regular'; font-size:20.3155px;"> </tspan><tspan x="-11.3" y="121.9" class="st9" style="font-family:'GEDinarOne-Medium'; font-size:20.3155px;">ديربلا</tspan><tspan x="-155.6" y="152.4" class="st9" style="font-family:'MyriadPro-Regular'; font-size:20.3155px;">abeq2020@gmail.com</tspan></text>
		</g>
	</g>
</g>
<g>
	<defs>
		<rect id="SVGID_1_" x="-2679" y="-2020" width="1920" height="824"/>
	</defs>
	<clipPath id="SVGID_2_">
		<use xlink:href="#SVGID_1_"  style="overflow:visible;"/>
	</clipPath>
</g>
<rect x="-2679.5" y="-1907.5" class="st3" width="1921" height="8"/>
<g>
	<rect x="-2679" y="-2020" class="st3" width="1920" height="113"/>
	<g>
		<g>
			<text transform="matrix(1 0 0 1 -1366.5195 -1947.1394)" class="st2" style="font-family:'GEDinarTwo-Medium'; font-size:26px;">نحن نم</text>
		</g>
		<g>
			<text transform="matrix(1 0 0 1 -1754.1035 -1947.1394)" class="st2" style="font-family:'GEDinarTwo-Medium'; font-size:26px;">ةيئارجلا ةلدلاو تاسايسلا</text>
		</g>
		<g>
			<text transform="matrix(1 0 0 1 -1968.6201 -1947.1394)" class="st2" style="font-family:'GEDinarTwo-Medium'; font-size:26px;">انتردابم</text>
		</g>
		<g>
			<path class="st5" d="M-2568.3-1926.7h320.1c4.6,0,8.4-3.8,8.4-8.4v-28.2c0-4.6-3.8-8.4-8.4-8.4h-320.1c-4.6,0-8.4,3.8-8.4,8.4
				v28.2C-2576.7-1930.5-2572.9-1926.7-2568.3-1926.7z"/>
			<g>
				<g>
					<path class="st6" d="M-2250-1933H-2570c-4.6,0-8.4-3.8-8.4-8.4v-28.2c0-4.6,3.8-8.4,8.4-8.4h320.1c4.6,0,8.4,3.8,8.4,8.4v28.2
						C-2241.6-1936.7-2245.4-1933-2250-1933z"/>
				</g>
				<g>
					<g>
						<path class="st7" d="M-2269.4-1949.3c-2.1,0-4.3-0.8-5.9-2.4c-3.3-3.3-3.3-8.6,0-11.8c3.3-3.3,8.6-3.3,11.8,0l0,0
							c3.3,3.3,3.3,8.6,0,11.8C-2265.1-1950.1-2267.3-1949.3-2269.4-1949.3z M-2269.4-1964.3c-1.7,0-3.4,0.7-4.7,2
							c-2.6,2.6-2.6,6.8,0,9.4c2.6,2.6,6.8,2.6,9.4,0c2.6-2.6,2.6-6.8,0-9.4C-2266-1963.7-2267.7-1964.3-2269.4-1964.3z"/>
					</g>
					<g>
						<path class="st7" d="M-2257.5-1944c-0.4,0-0.9-0.2-1.2-0.5l-5.9-5.9c-0.7-0.7-0.7-1.7,0-2.4c0.7-0.7,1.7-0.7,2.4,0l5.9,5.9
							c0.7,0.7,0.7,1.7,0,2.4C-2256.6-1944.2-2257.1-1944-2257.5-1944z"/>
					</g>
				</g>
				<g>
					<path class="st7" d="M-2559.4-1950.4c-0.7-0.3-1.4-0.8-2.1-1.4c-0.2-0.1-0.2-0.3-0.2-0.5c0-0.2,0.1-0.3,0.2-0.4
						c0.1-0.1,0.3-0.2,0.4-0.2s0.3,0.1,0.4,0.2c1,1.1,2.3,1.7,3.8,1.7c0.9,0,1.7-0.2,2.3-0.7c0.6-0.4,0.9-1,0.9-1.7
						c0-0.6-0.2-1-0.5-1.4c-0.3-0.4-0.7-0.7-1.2-0.9c-0.5-0.2-1.1-0.5-1.9-0.7c-0.8-0.2-1.5-0.5-2.1-0.8c-0.6-0.3-1-0.7-1.4-1.2
						c-0.3-0.5-0.5-1.1-0.5-1.9c0-0.7,0.2-1.3,0.6-1.8c0.4-0.5,0.9-0.9,1.5-1.2c0.7-0.3,1.4-0.5,2.3-0.5c0.8,0,1.5,0.1,2.2,0.4
						c0.7,0.3,1.2,0.6,1.6,1.1c0.2,0.2,0.3,0.4,0.3,0.6c0,0.1-0.1,0.3-0.2,0.4c-0.1,0.1-0.3,0.2-0.4,0.2c-0.1,0-0.2,0-0.3-0.1
						c-0.3-0.4-0.8-0.7-1.4-1c-0.6-0.3-1.2-0.4-1.8-0.4c-0.9,0-1.7,0.2-2.3,0.6c-0.6,0.4-0.9,1-0.9,1.7c0,0.7,0.3,1.3,0.8,1.7
						c0.6,0.4,1.4,0.8,2.4,1.1c0.9,0.3,1.7,0.5,2.2,0.8c0.6,0.3,1.1,0.7,1.4,1.2c0.4,0.5,0.5,1.2,0.5,2.1c0,0.7-0.2,1.3-0.6,1.8
						c-0.4,0.5-0.9,1-1.6,1.3c-0.7,0.3-1.4,0.5-2.3,0.5C-2557.8-1949.9-2558.6-1950.1-2559.4-1950.4z"/>
					<path class="st7" d="M-2541.8-1955.2c-0.1,0.1-0.3,0.2-0.4,0.2h-7.3c0,0.8,0.2,1.5,0.5,2.1c0.3,0.6,0.8,1.1,1.4,1.4
						c0.6,0.4,1.3,0.5,2.1,0.5c0.6,0,1.2-0.1,1.7-0.4c0.5-0.3,0.9-0.6,1.2-1c0.1-0.1,0.3-0.2,0.4-0.2c0.1,0,0.2,0.1,0.3,0.2
						c0.1,0.1,0.2,0.2,0.2,0.3c0,0.1-0.1,0.3-0.2,0.4c-0.4,0.5-0.9,0.9-1.6,1.2s-1.3,0.5-2,0.5c-1,0-1.9-0.2-2.6-0.6
						c-0.8-0.4-1.4-1-1.8-1.8c-0.4-0.8-0.6-1.6-0.6-2.7c0-1.1,0.2-2,0.6-2.8c0.4-0.8,1-1.4,1.7-1.8c0.7-0.4,1.4-0.6,2.2-0.6
						c0.8,0,1.5,0.2,2.2,0.5c0.7,0.4,1.2,0.9,1.6,1.6c0.4,0.7,0.6,1.5,0.7,2.5C-2541.7-1955.5-2541.7-1955.3-2541.8-1955.2z
						 M-2548.2-1958.3c-0.6,0.5-1,1.3-1.2,2.2h6.6v-0.2c-0.1-0.6-0.3-1.1-0.6-1.5c-0.3-0.4-0.7-0.8-1.2-1c-0.5-0.2-1-0.3-1.5-0.3
						C-2546.9-1959.1-2547.6-1958.8-2548.2-1958.3z"/>
					<path class="st7" d="M-2530.8-1959.8c0.1,0.1,0.2,0.3,0.2,0.4v8.7c0,0.2-0.1,0.3-0.2,0.4c-0.1,0.1-0.2,0.2-0.4,0.2
						c-0.2,0-0.3-0.1-0.4-0.2c-0.1-0.1-0.2-0.2-0.2-0.4v-1.3c-0.3,0.6-0.8,1.1-1.4,1.5c-0.6,0.4-1.3,0.6-2.1,0.6
						c-0.9,0-1.6-0.2-2.3-0.7c-0.7-0.4-1.2-1.1-1.6-1.9c-0.4-0.8-0.6-1.7-0.6-2.6c0-1,0.2-1.9,0.6-2.6c0.4-0.8,0.9-1.4,1.6-1.8
						c0.7-0.4,1.4-0.7,2.3-0.7c0.8,0,1.5,0.2,2.1,0.6c0.6,0.4,1.1,0.9,1.4,1.5v-1.2c0-0.2,0.1-0.3,0.2-0.4c0.1-0.1,0.2-0.2,0.4-0.2
						C-2531-1960-2530.9-1959.9-2530.8-1959.8z M-2533.4-1951.6c0.5-0.4,1-0.8,1.3-1.5s0.5-1.3,0.5-2.1c0-0.7-0.2-1.4-0.5-2
						c-0.3-0.6-0.7-1.1-1.3-1.5c-0.5-0.4-1.1-0.5-1.8-0.5c-0.7,0-1.3,0.2-1.8,0.5c-0.5,0.3-1,0.8-1.3,1.4c-0.3,0.6-0.5,1.3-0.5,2.1
						c0,0.8,0.1,1.5,0.4,2.1s0.7,1.1,1.2,1.5c0.5,0.4,1.1,0.5,1.8,0.5C-2534.5-1951-2533.9-1951.2-2533.4-1951.6z"/>
					<path class="st7" d="M-2522.3-1960.1c0.2,0.1,0.3,0.3,0.3,0.5c0,0.2-0.1,0.3-0.2,0.4c-0.1,0.1-0.2,0.2-0.4,0.2
						c-0.1,0-0.2,0-0.4-0.1c-0.2-0.1-0.4-0.1-0.5-0.1c-0.5,0-0.9,0.2-1.4,0.5c-0.5,0.4-0.9,0.8-1.2,1.4c-0.3,0.6-0.5,1.2-0.5,1.8
						v4.8c0,0.2-0.1,0.3-0.2,0.4c-0.1,0.1-0.2,0.2-0.4,0.2c-0.2,0-0.3-0.1-0.4-0.2c-0.1-0.1-0.2-0.2-0.2-0.4v-8.6
						c0-0.2,0.1-0.3,0.2-0.4c0.1-0.1,0.2-0.2,0.4-0.2c0.2,0,0.3,0.1,0.4,0.2c0.1,0.1,0.2,0.2,0.2,0.4v1.7c0.3-0.7,0.7-1.3,1.3-1.8
						c0.6-0.5,1.3-0.7,2.1-0.7C-2522.7-1960.2-2522.5-1960.2-2522.3-1960.1z"/>
					<path class="st7" d="M-2514.6-1960c0.5,0.1,0.9,0.3,1.3,0.5c0.3,0.2,0.5,0.5,0.5,0.8c0,0.1,0,0.3-0.1,0.4
						c-0.1,0.1-0.2,0.2-0.4,0.2c-0.1,0-0.2,0-0.3-0.1c-0.1-0.1-0.2-0.1-0.3-0.2c-0.2-0.2-0.3-0.3-0.5-0.4c-0.2-0.1-0.4-0.2-0.8-0.2
						c-0.3-0.1-0.7-0.1-1-0.1c-0.7,0-1.4,0.2-1.9,0.5c-0.6,0.4-1,0.8-1.4,1.5c-0.3,0.6-0.5,1.3-0.5,2c0,0.8,0.2,1.5,0.5,2.1
						c0.3,0.6,0.8,1.1,1.3,1.5c0.6,0.4,1.2,0.5,2,0.5c0.5,0,0.8,0,1.1-0.1c0.3-0.1,0.5-0.2,0.8-0.3c0.1-0.1,0.2-0.2,0.5-0.3
						c0.1-0.1,0.2-0.2,0.3-0.2c0.1,0,0.2-0.1,0.3-0.1c0.2,0,0.3,0,0.4,0.1c0.1,0.1,0.1,0.2,0.1,0.4c0,0.2-0.2,0.5-0.5,0.7
						c-0.3,0.3-0.7,0.5-1.3,0.6c-0.5,0.2-1.1,0.3-1.8,0.3c-0.9,0-1.8-0.2-2.5-0.7c-0.7-0.4-1.3-1.1-1.7-1.8
						c-0.4-0.8-0.6-1.7-0.6-2.6c0-0.9,0.2-1.8,0.6-2.6c0.4-0.8,1-1.4,1.7-1.9c0.7-0.5,1.6-0.7,2.6-0.7
						C-2515.7-1960.2-2515.1-1960.2-2514.6-1960z"/>
					<path class="st7" d="M-2503.6-1959c0.6,0.7,0.8,1.7,0.8,2.8v5.5c0,0.2-0.1,0.3-0.2,0.4c-0.1,0.1-0.2,0.2-0.4,0.2
						c-0.2,0-0.3-0.1-0.4-0.2c-0.1-0.1-0.2-0.2-0.2-0.4v-5.5c0-0.8-0.2-1.5-0.6-2c-0.4-0.5-1-0.8-1.9-0.8c-0.5,0-1.1,0.1-1.5,0.4
						c-0.5,0.3-0.9,0.6-1.2,1c-0.3,0.4-0.4,0.9-0.4,1.4v5.5c0,0.2-0.1,0.3-0.2,0.4c-0.1,0.1-0.2,0.2-0.4,0.2s-0.3-0.1-0.4-0.2
						c-0.1-0.1-0.2-0.2-0.2-0.4v-13.1c0-0.2,0.1-0.3,0.2-0.4c0.1-0.1,0.2-0.2,0.4-0.2s0.3,0.1,0.4,0.2c0.1,0.1,0.2,0.2,0.2,0.4v5.7
						c0.3-0.6,0.8-1,1.4-1.4c0.6-0.4,1.2-0.5,1.9-0.5C-2505-1960.1-2504.2-1959.7-2503.6-1959z"/>
					<path class="st7" d="M-2500.1-1950.3c-0.1-0.1-0.2-0.3-0.2-0.6v-0.4c0-0.2,0.1-0.4,0.2-0.5c0.1-0.1,0.3-0.2,0.5-0.2h0.1
						c0.2,0,0.4,0.1,0.5,0.2c0.1,0.1,0.2,0.3,0.2,0.5v0.4c0,0.2-0.1,0.4-0.2,0.6c-0.1,0.1-0.3,0.2-0.5,0.2h-0.1
						C-2499.8-1950.1-2499.9-1950.2-2500.1-1950.3z"/>
					<path class="st7" d="M-2496.6-1950.3c-0.1-0.1-0.2-0.3-0.2-0.6v-0.4c0-0.2,0.1-0.4,0.2-0.5c0.1-0.1,0.3-0.2,0.5-0.2h0.1
						c0.2,0,0.4,0.1,0.5,0.2c0.1,0.1,0.2,0.3,0.2,0.5v0.4c0,0.2-0.1,0.4-0.2,0.6c-0.1,0.1-0.3,0.2-0.5,0.2h-0.1
						C-2496.3-1950.1-2496.4-1950.2-2496.6-1950.3z"/>
					<path class="st7" d="M-2493.1-1950.3c-0.1-0.1-0.2-0.3-0.2-0.6v-0.4c0-0.2,0.1-0.4,0.2-0.5c0.1-0.1,0.3-0.2,0.5-0.2h0.1
						c0.2,0,0.4,0.1,0.5,0.2c0.1,0.1,0.2,0.3,0.2,0.5v0.4c0,0.2-0.1,0.4-0.2,0.6c-0.1,0.1-0.3,0.2-0.5,0.2h-0.1
						C-2492.8-1950.1-2493-1950.2-2493.1-1950.3z"/>
				</g>
			</g>
		</g>
	</g>
	<g>
		<g>
			<path class="st8" d="M-921-1933.6c-0.1,0-0.1-0.2,0-0.2l1.5-3.2c0.2-0.2,0.2-0.2,0.3-0.2c0.2,0,0.8,0.4,2,1.2s1.9,1.3,1.9,1.5
				c0,0.5-0.6,1.6-1.6,3.4c-0.2,0.2-0.2,0.3-0.4,0.2C-918.5-1931.9-919.7-1932.8-921-1933.6"/>
			<path class="st8" d="M-926.8-1987.2c-0.1,0-0.1-0.2,0-0.2l1.5-3.2c0.2-0.2,0.2-0.2,0.3-0.2c0.2,0,0.8,0.4,2,1.2
				c1.2,0.8,1.9,1.3,1.9,1.5c0,0.5-0.6,1.6-1.6,3.4c-0.2,0.2-0.2,0.3-0.4,0.2C-924.4-1985.6-925.6-1986.4-926.8-1987.2"/>
			<path class="st8" d="M-924.2-1981.9c-0.1-0.1,0-0.2,0-0.2l1.5-3.2c0.2-0.2,0.2-0.2,0.3-0.2c0.2,0,0.8,0.4,2,1.2
				c1.2,0.8,1.9,1.3,1.9,1.5c0,0.5-0.6,1.6-1.6,3.4c-0.2,0.2-0.2,0.3-0.4,0.2C-921.8-1980.3-923-1981.1-924.2-1981.9"/>
			<path class="st2" d="M-893.4-1956c-1.1-0.1-2.2,0.2-3.3,0.6c-11,4-17.3,15.9-17.2,16.1c0.1,0.1,4.6,0.9,7.5-0.4
				c6.2-2.8,9.4-8.7,9.2-8.9c-0.1-0.1-0.3,0-0.4,0.1c0,0-1.9,3.2-8.4,6.1c-1.8,0.8-3.7,0.9-5.5,0.8c3.3-4.1,6.4-7,9.8-9.1
				c2.5-1.6,4.7-2.4,6.7-2.6c0.4,0,0.7-0.1,1.1,0c0.1,0,0.3,0,0.5-0.3c0.2-0.3,0.3-1.5,0.3-2C-893-1955.8-893.2-1956-893.4-1956z"/>
			<path class="st9" d="M-937-1990.9c0,0-0.6,1.2-1.2,3.4c0.8,0.7,1.2,1.1,1.2,1.1c0,0,0,0,0,0c0,0,0,0,0,0l0,0
				c14.3,13.9,16.8,36.9,17.2,42.8c0.4,0.4,1,0.8,1.5,1.1C-918.1-1948.4-918.8-1977-937-1990.9z"/>
			<path class="st2" d="M-918.8-1941.7c-0.5-0.3-1.2-0.8-1.6-1.2c-3.5-3.2-15.5-17.7-16.4-41.3c-0.4-0.4-0.7-0.7-1.1-1.1l0,0
				c0,0,0,0,0,0c0,0,0,0,0,0c0,0-0.2-0.2-0.5-0.5c-0.4,2.4-0.7,5.6-0.2,9.4c2.8,20.1,15.8,33.4,17.3,34.4l-0.5-0.1
				c-8.4-0.8-16.4-4.5-22.4-10.6c-0.2-0.2-4.8-5.5-6.2-9.2c0,0,9-0.3,14.7,6c0.1,0.1,0.2,0,0.1-0.1c-0.9-1.3-2-2.5-3.1-3.5
				c-6-5.8-12.6-6.5-14.4-6.3c0,0,0.4,4.9,6.1,12.9c6.1,8.7,15.1,12,15.1,12c3.1,1.1,6.4,1.7,9.7,1.6c0.9,0,1.8-0.1,2.6-0.2l0.8-0.8
				c0.8,0.5,1.9,1,3.2,1.5c0.1,0,0.1,0,0.1-0.1c0-0.2,0.1-1.2,0.1-1.2C-916.6-1940.5-918-1941.2-918.8-1941.7z"/>
			<path class="st9" d="M-902.1-1972.5c0,0-0.1-1.8-0.4-1.9l-0.2-0.1l-0.2,0.1c-4.2,2.8-7.4,7.5-9.8,14.6c-1.6,4.7-2.8,9.8-3.4,15.7
				c-0.1,0.7-0.2,1.6-0.3,2.5c0.4,0.2,0.8,0.4,1.2,0.5c0.1-0.6,0.1-1.2,0.2-2c0.4-3.1,1-6.1,1.7-8.9c1.5-5.7,4.1-13.7,10.1-18.2
				c0.6-0.4,1.1-1.4,1.1-2.2L-902.1-1972.5z"/>
		</g>
		<g>
			<g>
				<path class="st9" d="M-1094.8-1957.8c0.4,0,0.8-0.2,1.1-0.5c0.3-0.3,0.5-0.7,0.5-1.1s-0.2-0.8-0.5-1.1c-0.3-0.3-0.7-0.5-1.1-0.5
					s-0.8,0.2-1.1,0.5c-0.3,0.3-0.5,0.7-0.5,1.1c0,0.4,0.2,0.8,0.5,1.1C-1095.6-1958-1095.3-1957.8-1094.8-1957.8z"/>
				<path class="st9" d="M-1090.2-1957.8c0.4,0,0.8-0.2,1.1-0.5c0.3-0.3,0.5-0.7,0.5-1.1s-0.2-0.8-0.5-1.1c-0.3-0.3-0.7-0.5-1.1-0.5
					c-0.4,0-0.8,0.2-1.1,0.5c-0.3,0.3-0.5,0.7-0.5,1.1c0,0.4,0.2,0.8,0.5,1.1C-1091.1-1958-1090.7-1957.8-1090.2-1957.8z"/>
				<path class="st9" d="M-1086.5-1939.2c-0.4,0-0.8,0.2-1.1,0.5c-0.3,0.3-0.5,0.7-0.5,1.1c0,0.4,0.2,0.8,0.5,1.1
					c0.3,0.3,0.7,0.5,1.1,0.5c0.4,0,0.8-0.2,1.1-0.5c0.3-0.3,0.5-0.7,0.5-1.1s-0.2-0.8-0.5-1.1
					C-1085.7-1939-1086.1-1939.2-1086.5-1939.2z"/>
				<path class="st9" d="M-1081.9-1939.2c-0.4,0-0.8,0.2-1.1,0.5c-0.3,0.3-0.5,0.7-0.5,1.1c0,0.4,0.2,0.8,0.5,1.1
					c0.3,0.3,0.7,0.5,1.1,0.5s0.8-0.2,1.1-0.5c0.3-0.3,0.5-0.7,0.5-1.1s-0.2-0.8-0.5-1.1C-1081.1-1939-1081.5-1939.2-1081.9-1939.2z
					"/>
				<path class="st9" d="M-1073.1-1939.2c-0.4,0-0.8,0.2-1.1,0.5c-0.3,0.3-0.5,0.7-0.5,1.1s0.2,0.8,0.5,1.1c0.3,0.3,0.7,0.5,1.1,0.5
					c0.4,0,0.8-0.2,1.1-0.5c0.3-0.3,0.5-0.7,0.5-1.1c0-0.4-0.2-0.8-0.5-1.1C-1072.2-1939-1072.6-1939.2-1073.1-1939.2z"/>
				<path class="st9" d="M-1071.4-1955.1c-0.7,0.4-1,0.9-1,1.5v7.4c0,1.6-0.7,2.4-2.1,2.4h-1.4c-0.7,0-1.4-0.2-2-0.5
					c-0.6-0.3-1-0.7-1.3-1.2v-9.4h-0.1c-0.5,0-1,0.2-1.6,0.6c-0.7,0.4-1,0.9-1,1.5v5.8c0,0.5,0,0.8,0,1.1c0,0.3-0.1,0.6-0.2,1
					c-0.1,0.3-0.3,0.6-0.6,0.8c-0.3,0.2-0.6,0.3-1,0.3h-2.3c-0.7,0-1.2-0.1-1.6-0.4c-0.3-0.3-0.5-0.7-0.5-1.4v-9.3l-0.1,0
					c-0.5-0.1-1.3-0.1-2.5-0.1c-0.8,0-1.7,0.2-2.6,0.5c-0.9,0.3-1.8,0.8-2.7,1.3c-0.8,0.6-1.6,1.3-2.1,2.2c-0.6,0.9-0.9,1.8-0.9,2.8
					c0,0.5,0.1,0.9,0.2,1.4c0.1,0.4,0.3,0.9,0.6,1.4c0.3,0.5,0.8,0.9,1.4,1.2c0.6,0.3,1.4,0.4,2.3,0.4c0.6,0,1.3-0.2,2.1-0.5
					c0.7-0.3,1.2-0.5,1.5-0.8c0.1,1.1,0.4,2,1.1,2.6c0.7,0.6,1.7,1,3,1h3.5c2,0,3.3-0.8,3.8-2.5c0.5,0.6,1.1,1.2,1.8,1.7
					c0.8,0.5,1.7,0.8,2.6,0.8h1.9c1.2,0,2.1-0.4,2.7-1.2c0.6-0.8,0.9-1.9,0.9-3.2v-9.6h-0.1
					C-1070.2-1955.7-1070.7-1955.5-1071.4-1955.1z M-1090.9-1954v7.5c-0.3,0.2-0.7,0.4-1.2,0.6c-0.6,0.2-1,0.3-1.4,0.3
					c-0.9,0-1.6-0.3-2.1-0.8c-0.5-0.5-0.7-1.1-0.7-1.8c0-1.5,0.6-2.9,1.8-4C-1093.3-1953.3-1092.1-1953.9-1090.9-1954z"/>
				<path class="st9" d="M-1057.5-1939.2c-0.4,0-0.8,0.2-1.1,0.5c-0.3,0.3-0.5,0.7-0.5,1.1s0.2,0.8,0.5,1.1c0.3,0.3,0.7,0.5,1.1,0.5
					c0.4,0,0.8-0.2,1.1-0.5c0.3-0.3,0.5-0.7,0.5-1.1s-0.2-0.8-0.5-1.1C-1056.7-1939-1057.1-1939.2-1057.5-1939.2z"/>
				<path class="st9" d="M-1038.3-1962.2c0.4,0,0.8-0.2,1.1-0.4c0.3-0.3,0.4-0.7,0.4-1.1c0-0.4-0.1-0.8-0.4-1.1
					c-0.3-0.3-0.6-0.4-1.1-0.4s-0.8,0.2-1.1,0.4c-0.3,0.3-0.4,0.7-0.4,1.1c0,0.4,0.1,0.8,0.4,1.1
					C-1039-1962.3-1038.7-1962.2-1038.3-1962.2z"/>
				<path class="st9" d="M-1040.5-1958.4c0.4,0,0.8-0.2,1.1-0.5c0.3-0.3,0.5-0.7,0.5-1.1c0-0.4-0.2-0.8-0.5-1.1
					c-0.3-0.3-0.7-0.5-1.1-0.5c-0.4,0-0.8,0.2-1.1,0.5c-0.3,0.3-0.5,0.7-0.5,1.1s0.2,0.8,0.5,1.1
					C-1041.4-1958.6-1041-1958.4-1040.5-1958.4z"/>
				<path class="st9" d="M-1037.6-1960.1c0,0.4,0.2,0.8,0.5,1.1c0.3,0.3,0.7,0.5,1.1,0.5c0.4,0,0.8-0.2,1.1-0.5
					c0.3-0.3,0.5-0.7,0.5-1.1c0-0.4-0.2-0.8-0.5-1.1c-0.3-0.3-0.7-0.5-1.1-0.5c-0.4,0-0.8,0.2-1.1,0.5
					C-1037.4-1960.9-1037.6-1960.5-1037.6-1960.1z"/>
				<path class="st9" d="M-1021.3-1961.1c-0.7,0.4-1,0.9-1,1.5v13.4c0,1.6-0.7,2.4-2.1,2.4h-1.4c-0.7,0-1.4-0.2-2-0.5
					c-0.6-0.3-1-0.7-1.3-1.1c0.1-0.6,0.1-1.3,0.1-2.1v-8.2h-0.1c-0.5,0-1,0.2-1.7,0.6c-0.7,0.4-1,0.9-1,1.5v6.4
					c0,1.4-0.1,2.3-0.4,2.8c-0.3,0.4-0.8,0.7-1.7,0.7c-0.5,0-1-0.1-1.6-0.4c-0.6-0.2-1-0.6-1.4-1.1v-10h-0.1c-0.5,0-1,0.2-1.7,0.6
					c-0.7,0.4-1,0.9-1,1.5v6.3c0,0.4,0,0.7,0,0.9c0,0.2,0,0.5-0.1,0.8c-0.1,0.3-0.2,0.6-0.3,0.7c-0.1,0.2-0.3,0.3-0.5,0.4
					c-0.2,0.1-0.5,0.2-0.9,0.2c-1.5,0-2.6-0.6-3.3-1.7c0.1-0.4,0.1-1.1,0.1-2v-7.3h-0.1c-0.5,0-1,0.2-1.7,0.6c-0.7,0.4-1,0.9-1,1.5
					v5.5c0,1.4-0.1,2.3-0.4,2.8c-0.3,0.4-0.8,0.7-1.7,0.7h-1.1c-0.7,0-1.4-0.2-2-0.5c-0.6-0.3-1-0.7-1.3-1.2v-9.4h-0.1
					c-0.5,0-1,0.2-1.6,0.6c-0.7,0.4-1,0.9-1,1.5v5.8c0,0.5,0,0.8,0,1.1c0,0.3-0.1,0.6-0.2,1c-0.1,0.3-0.3,0.6-0.6,0.8
					c-0.3,0.2-0.6,0.3-1,0.3h-2.3c-1.4,0-2.1-0.8-2.1-2.4v-15.5h-0.1c-0.5,0-1,0.2-1.7,0.6c-0.7,0.4-1,0.9-1,1.5v13.5
					c0,1.3,0.3,2.4,0.9,3.2c0.6,0.8,1.5,1.2,2.7,1.2h4c2,0,3.3-0.8,3.8-2.5c0.5,0.6,1.1,1.2,1.8,1.7c0.8,0.5,1.7,0.8,2.6,0.8h1.1
					c1,0,1.9-0.3,2.5-0.8c0.5-0.5,0.9-1,1.1-1.7c1.3,1.6,2.9,2.4,4.8,2.4c0.9,0,1.6-0.3,2.2-0.8c0.5-0.4,0.8-1,1-1.6
					c0.5,0.7,1.2,1.2,1.9,1.6c0.8,0.5,1.7,0.7,2.6,0.7c1.7,0,2.8-0.8,3.4-2.3c0.5,0.6,1.1,1.1,1.8,1.6c0.8,0.5,1.7,0.7,2.5,0.7h1.9
					c1.2,0,2.1-0.4,2.7-1.2c0.6-0.8,0.9-1.9,0.9-3.2v-15.6h-0.1C-1020.2-1961.7-1020.7-1961.5-1021.3-1961.1z"/>
				<path class="st9" d="M-1014.7-1961.1c-0.7,0.4-1,0.9-1,1.5v18l0.1,0c0.8-0.1,1.5-0.5,1.9-1.2c0.5-0.7,0.7-1.6,0.7-2.8v-16h-0.1
					C-1013.5-1961.7-1014.1-1961.5-1014.7-1961.1z"/>
				<path class="st9" d="M-999.5-1959.2c0.4,0,0.8-0.2,1.1-0.5c0.3-0.3,0.5-0.7,0.5-1.1s-0.2-0.8-0.5-1.1c-0.3-0.3-0.7-0.5-1.1-0.5
					c-0.4,0-0.8,0.2-1.1,0.5c-0.3,0.3-0.5,0.7-0.5,1.1s0.2,0.8,0.5,1.1C-1000.3-1959.4-999.9-1959.2-999.5-1959.2z"/>
				<path class="st9" d="M-994.9-1959.2c0.4,0,0.8-0.2,1.1-0.5c0.3-0.3,0.5-0.7,0.5-1.1s-0.2-0.8-0.5-1.1c-0.3-0.3-0.7-0.5-1.1-0.5
					c-0.4,0-0.8,0.2-1.1,0.5c-0.3,0.3-0.5,0.7-0.5,1.1c0,0.4,0.2,0.8,0.5,1.1C-995.7-1959.4-995.3-1959.2-994.9-1959.2z"/>
				<path class="st9" d="M-984.9-1939.2c-0.4,0-0.8,0.2-1.1,0.5c-0.3,0.3-0.5,0.7-0.5,1.1s0.2,0.8,0.5,1.1c0.3,0.3,0.7,0.5,1.1,0.5
					c0.4,0,0.8-0.2,1.1-0.5c0.3-0.3,0.5-0.7,0.5-1.1s-0.2-0.8-0.5-1.1C-984.1-1939-984.4-1939.2-984.9-1939.2z"/>
				<path class="st9" d="M-965-1943c-0.5-0.5-1-0.7-1.6-0.7h-2.5c-1.4,0-2.4-0.5-3.1-1.5c-0.7-1-1.1-2.2-1.1-3.5
					c0-1.2,0.3-2.3,0.9-3.1c0.6-0.8,1.4-1.2,2.5-1.2c0.4,0,0.9,0.1,1.4,0.4c0.5,0.2,0.8,0.6,1.1,1.1l0,0.1l0.1,0
					c0.1,0,0.3,0.1,0.5,0.1c0.3,0,0.6-0.1,0.9-0.2c0.3-0.1,0.5-0.3,0.5-0.5l0,0l0,0c-0.1-0.4-0.6-0.8-1.5-1.3
					c-0.9-0.4-1.8-0.7-2.7-0.7c-1.9,0-3.4,0.6-4.5,1.7c-1.1,1.1-1.6,2.6-1.6,4.4c0,0.7,0.2,1.5,0.5,2.4c0.3,0.8,0.7,1.4,1.1,1.9
					h-3.9c-0.7,0-1.4-0.2-2-0.5c-0.6-0.3-1-0.7-1.3-1.2v-9.4h-0.1c-0.5,0-1,0.2-1.6,0.6c-0.7,0.4-1,0.9-1,1.5v5.8c0,0.5,0,0.8,0,1.1
					c0,0.3-0.1,0.6-0.2,1c-0.1,0.3-0.3,0.6-0.6,0.8c-0.3,0.2-0.6,0.3-1,0.3h-6.3c0.1-0.6,0.2-1.2,0.2-1.7v-9.5l-0.1,0
					c-0.8-0.2-1.7-0.3-2.7-0.3c-1,0-2,0.2-3,0.5c-1,0.3-2,0.8-2.8,1.4c-0.9,0.6-1.6,1.5-2.2,2.5c-0.6,1-0.8,2.2-0.8,3.5
					c0,1.6,0.5,3,1.6,4.1c1.1,1.1,2.5,1.6,4.4,1.6h2.5c-0.4,1-1.1,1.8-2.1,2.4c-1.1,0.6-2.3,0.8-3.5,0.8c-1.1,0-2.1-0.4-3-1.1
					c-0.8-0.7-1.3-1.8-1.3-3.2c0-0.3,0.1-0.5,0.1-0.6l0-0.1l0-0.1c-0.1-0.4-0.6-0.6-1.2-0.6c-0.1,0-0.3,0-0.3,0.1
					c-0.1,0.4-0.2,1-0.2,1.7c0,2,0.6,3.6,1.6,4.7c1.1,1.1,2.5,1.6,4,1.6c1.7,0,3.3-0.6,4.7-1.7c1.4-1.1,2.5-2.4,3.3-4.1h7.4
					c2,0,3.3-0.8,3.8-2.5c0.5,0.6,1.1,1.2,1.8,1.7c0.8,0.5,1.7,0.8,2.6,0.8h13.1v-0.1C-964.2-1942.1-964.5-1942.5-965-1943z
					 M-995.4-1954.1c0.2,0,0.4,0,0.5,0v10.3h-2.6c-1.1,0-1.9-0.4-2.5-1.1c-0.6-0.7-0.9-1.8-0.9-3.2c0-0.9,0.1-1.8,0.4-2.5
					c0.3-0.7,0.6-1.3,1-1.8c0.4-0.4,0.9-0.8,1.4-1.1c0.5-0.3,1-0.5,1.4-0.6C-996.2-1954.1-995.7-1954.1-995.4-1954.1z"/>
			</g>
		</g>
	</g>
	<g>
		<g>
			<rect x="-2126.3" y="-1997.6" class="st10" width="1.3" height="1.3"/>
			<rect x="-2100.2" y="-1982.1" class="st10" width="1.3" height="1.3"/>
			<path class="st10" d="M-2084.9-1983.4c0.3-0.1,0.6-0.4,0.7-0.6c0.2-0.3,0.3-0.6,0.4-1c0.1-0.4,0.1-0.8,0.1-1.3v-8.8h-1.3v8.8
				c0,0.4,0,0.7-0.1,0.9c0,0.2-0.1,0.4-0.2,0.6c-0.1,0.2-0.2,0.3-0.4,0.3c-0.2,0.1-0.3,0.1-0.6,0.1c-0.1,0-0.2,0-0.3,0
				c-0.1,0-0.2,0-0.3-0.1l-0.3,1.2c0.3,0.1,0.7,0.1,1,0.1C-2085.6-1983.2-2085.3-1983.3-2084.9-1983.4z"/>
			<path class="st10" d="M-2089.3-1997.4h-1.7v-0.3c0-0.2,0-0.3,0.1-0.4c0.1-0.1,0.2-0.1,0.4-0.1h0.9v-0.9h-0.9
				c-0.5,0-0.9,0.1-1.1,0.4c-0.3,0.2-0.4,0.7-0.4,1.2v1h2.7V-1997.4z"/>
			<rect x="-2102.7" y="-1982.1" class="st10" width="1.3" height="1.3"/>
			<rect x="-2123.8" y="-1997.6" class="st10" width="1.3" height="1.3"/>
			<path class="st10" d="M-2094.9-1987.6c0.5,0.3,1,0.6,1.7,0.8c0.6,0.2,1.3,0.2,2,0.2h0.3l0.4-0.9v1.2c0,0.7-0.2,1.1-0.6,1.4
				c-0.4,0.3-0.9,0.4-1.6,0.4c-0.4,0-0.7,0-1-0.1c-0.3-0.1-0.7-0.2-1.1-0.4l-0.4,1.2c0.5,0.2,0.9,0.3,1.3,0.4
				c0.4,0.1,0.7,0.1,1.1,0.1c1.2,0,2.1-0.3,2.7-0.9c0.6-0.6,0.8-1.4,0.8-2.3v-8.7h-2c-0.8,0-1.5,0.1-2.1,0.3
				c-0.6,0.2-1.2,0.5-1.6,0.9c-0.5,0.4-0.8,0.8-1.1,1.4c-0.3,0.5-0.4,1.1-0.4,1.7c0,0.7,0.1,1.4,0.4,1.9
				C-2095.8-1988.4-2095.4-1988-2094.9-1987.6z M-2094.9-1992.1c0.2-0.4,0.4-0.7,0.8-1c0.3-0.3,0.7-0.5,1.1-0.6
				c0.4-0.1,0.8-0.2,1.2-0.2v0h2l-0.7,0.4v5.6h-1.3c-0.5,0-0.9-0.1-1.3-0.2c-0.4-0.1-0.8-0.3-1.1-0.6c-0.3-0.3-0.6-0.6-0.7-0.9
				c-0.2-0.4-0.3-0.8-0.3-1.3C-2095.2-1991.3-2095.1-1991.7-2094.9-1992.1z"/>
			<path class="st10" d="M-2125.9-1983.4h2.6v-0.9c0,0,0.1,0.1,0.1,0.1c0.2,0.3,0.4,0.5,0.7,0.6c0.3,0.1,0.7,0.2,1.1,0.2h22.9v-11.8
				h-1.3v10.6h-1.3h-20.3c-0.2,0-0.4,0-0.6-0.1c-0.2-0.1-0.3-0.2-0.4-0.3c-0.1-0.2-0.2-0.4-0.2-0.6c0-0.2-0.1-0.5-0.1-0.9v-8.6h-3.4
				c-3.5,0-5.8,2.7-5.8,5.9v0C-2131.7-1986.1-2129.4-1983.4-2125.9-1983.4z M-2130.4-1989.3c0-2.6,1.9-4.7,4.5-4.7h2.9l-0.8,0.4v7.1
				c0,0.5,0,0.9,0.1,1.3c0,0.2,0.1,0.4,0.2,0.6l-2.4,0C-2128.5-1984.6-2130.4-1986.7-2130.4-1989.3L-2130.4-1989.3z"/>
			<polygon class="st10" points="-2138,-1986.5 -2137.5,-1985 -2145.4,-1995.2 -2146.7,-1995.2 -2146.7,-1983.4 -2145.4,-1983.4 
				-2145.4,-1992.3 -2146.1,-1994 -2137.8,-1983.4 -2136.7,-1983.4 -2136.7,-1995.2 -2138,-1995.2 			"/>
			<path class="st10" d="M-2120.1-1964.6l7.2-6.9v-4.7h-19.3v5.4h9.9l3.7-2.4l-9.2,9.2l1,4h2.6c3.5,0,5.6,1.3,5.6,3.6v0.1
				c0,2.1-1.7,3.5-4,3.5c-2.9,0-4.9-1.2-6.9-3.4l-4.3,4.1c2.5,2.9,6,4.9,11.2,4.9c6.4,0,10.3-4,10.3-9.3v-0.1
				C-2112.5-1961.9-2116.3-1964-2120.1-1964.6z"/>
			<path class="st10" d="M-2154.8-1995.4c-3.6,0-6,2.8-6,6.1v0c0,3.2,2.4,6,6,6s6-2.8,6-6.1v0
				C-2148.8-1992.6-2151.2-1995.4-2154.8-1995.4z M-2150.2-1989.2c0,2.7-1.9,4.8-4.6,4.8s-4.6-2.2-4.6-4.9v0c0-2.7,1.9-4.8,4.6-4.8
				C-2152.2-1994.1-2150.2-1992-2150.2-1989.2L-2150.2-1989.2z"/>
			<path class="st10" d="M-2095.6-1976.7c-8.8,0-15.2,6.6-15.2,14.8v0.1c0,8.1,6.3,14.7,15.2,14.7s15.2-6.6,15.2-14.8v-0.1
				C-2080.4-1970.2-2086.8-1976.7-2095.6-1976.7z M-2087-1961.9c0,4.9-3.5,8.9-8.6,8.9c-5.1,0-8.7-4.1-8.7-9v-0.1
				c0-4.9,3.5-8.9,8.6-8.9S-2087-1966.9-2087-1961.9L-2087-1961.9z"/>
			<rect x="-2164.5" y="-1995.2" class="st10" width="1.3" height="11.8"/>
			<path class="st10" d="M-2185.8-1951l1.2-0.9l6.2-4.8c5.1-3.9,7.5-6.3,7.5-11v-0.1c0-5.3-3.9-8.8-9.8-8.8c-5.1,0-7.8,2.1-10.7,5.9
				l4.4,3.5c2.1-2.6,3.6-3.8,5.8-3.8c2.2,0,3.8,1.3,3.8,3.7c0,2.4-1.4,3.9-4.9,6.8l-9.5,7.8v5h21.2v-5.4h-10.9L-2185.8-1951z"/>
			<polygon class="st10" points="-2185.7,-1983.3 -2180.7,-1995.2 -2182.1,-1995.2 -2186.1,-1985.5 -2186,-1984.2 -2186.3,-1985 
				-2189.8,-1993.4 -2190.5,-1995.2 -2192,-1995.2 -2186.9,-1983.3 			"/>
			<rect x="-2178.9" y="-1995.2" class="st10" width="1.3" height="11.8"/>
			<path class="st10" d="M-2170.5-1989.9c-2.6-0.6-3.2-1.2-3.2-2.3v0c0-1.1,1-1.9,2.5-1.9c1.2,0,2.3,0.4,3.4,1.3l0.8-1
				c-1.2-1-2.4-1.4-4.1-1.4c-2.2,0-3.9,1.4-3.9,3.2v0c0,1.9,1.2,2.8,4,3.4c2.5,0.5,3.1,1.1,3.1,2.2v0c0,1.2-1,2-2.6,2
				c-1.6,0-2.8-0.6-4-1.7l-0.8,1c1.4,1.3,2.9,1.9,4.8,1.9c2.3,0,4-1.3,4-3.3v0C-2166.7-1988.4-2167.9-1989.3-2170.5-1989.9z"/>
		</g>
		<polygon class="st11" points="-2153.5,-1978.6 -2152,-1977.2 -2153.4,-1975.8 -2154.8,-1977.2 		"/>
		<polygon class="st12" points="-2150.1,-1977.2 -2148.7,-1975.8 -2147.3,-1977.2 -2148.8,-1978.6 		"/>
		<polygon class="st13" points="-2152.2,-1975.3 -2151.1,-1974.3 -2150,-1975.4 -2151.1,-1976.5 		"/>
		<polygon class="st14" points="-2148,-1974.7 -2146.9,-1973.6 -2145.8,-1974.8 -2147,-1975.9 		"/>
		<polygon class="st13" points="-2154,-1973.6 -2152.9,-1972.5 -2151.8,-1973.7 -2152.9,-1974.8 		"/>
		<polygon class="st15" points="-2150.2,-1973.5 -2149.1,-1972.4 -2148,-1973.5 -2149.2,-1974.6 		"/>
		<polygon class="st14" points="-2151.7,-1972.2 -2150.9,-1971.4 -2150.2,-1972.2 -2151,-1973 		"/>
		<polygon class="st16" points="-2148.7,-1971.6 -2147.9,-1970.8 -2147.2,-1971.6 -2148,-1972.4 		"/>
		
			<rect x="-2142" y="-1977.9" transform="matrix(0.9836 -0.1803 0.1803 0.9836 321.2852 -418.3428)" class="st17" width="2.5" height="2.5"/>
		
			<rect x="-2145.2" y="-1976.8" transform="matrix(0.9836 -0.1801 0.1801 0.9836 320.8081 -418.5321)" class="st18" width="2" height="2"/>
		
			<rect x="-2141.4" y="-1974" transform="matrix(0.9836 -0.1804 0.1804 0.9836 320.7947 -418.4633)" class="st15" width="2" height="2"/>
		
			<rect x="-2144.2" y="-1973.7" transform="matrix(0.9836 -0.1802 0.1802 0.9836 320.4631 -418.5817)" class="st13" width="1.6" height="1.6"/>
		
			<rect x="-2141.2" y="-1970.8" transform="matrix(0.9836 -0.1802 0.1802 0.9836 319.9868 -417.9951)" class="st12" width="1.6" height="1.6"/>
		
			<rect x="-2146.5" y="-1973.1" transform="matrix(0.9836 -0.1802 0.1802 0.9836 320.3129 -418.9865)" class="st15" width="1.6" height="1.6"/>
		
			<rect x="-2143.7" y="-1971.1" transform="matrix(0.9836 -0.1802 0.1802 0.9836 319.9965 -418.4508)" class="st14" width="1.6" height="1.6"/>
		
			<rect x="-2145.7" y="-1970.9" transform="matrix(0.9836 -0.1803 0.1803 0.9836 320.1246 -419.1139)" class="st12" width="1.1" height="1.1"/>
		
			<rect x="-2143.6" y="-1968.6" transform="matrix(0.9837 -0.1798 0.1798 0.9837 318.9697 -417.4532)" class="st16" width="1.1" height="1.1"/>
		<polygon class="st11" points="-2134.9,-1969.6 -2136,-1967.3 -2133.7,-1966.3 -2132.6,-1968.5 		"/>
		<polygon class="st15" points="-2138.1,-1970.6 -2138.9,-1968.8 -2137.1,-1968 -2136.3,-1969.8 		"/>
		<polygon class="st14" points="-2136.6,-1966.2 -2137.5,-1964.4 -2135.7,-1963.5 -2134.8,-1965.3 		"/>
		<polygon class="st13" points="-2139,-1967.5 -2139.6,-1966.1 -2138.2,-1965.4 -2137.6,-1966.9 		"/>
		<polygon class="st13" points="-2138.3,-1963.4 -2138.9,-1962 -2137.5,-1961.3 -2136.9,-1962.7 		"/>
		<polygon class="st17" points="-2141.2,-1968.4 -2141.9,-1967 -2140.5,-1966.3 -2139.8,-1967.7 		"/>
		<polygon class="st12" points="-2140.1,-1965.1 -2140.8,-1963.7 -2139.4,-1963 -2138.7,-1964.4 		"/>
		<polygon class="st14" points="-2141.8,-1966.1 -2142.3,-1965.1 -2141.3,-1964.6 -2140.8,-1965.6 		"/>
		
			<rect x="-2141.7" y="-1962.9" transform="matrix(0.4297 -0.903 0.903 0.4297 550.8503 -3052.489)" class="st15" width="1.1" height="1.1"/>
		<polygon class="st17" points="-2133.7,-1958.8 -2135.9,-1957.6 -2134.7,-1955.4 -2132.5,-1956.6 		"/>
		<polygon class="st15" points="-2135.7,-1961.5 -2137.4,-1960.5 -2136.4,-1958.8 -2134.7,-1959.7 		"/>
		<polygon class="st15" points="-2137.1,-1957 -2138.8,-1956.1 -2137.9,-1954.3 -2136.1,-1955.3 		"/>
		<polygon class="st11" points="-2138.2,-1959.5 -2139.6,-1958.8 -2138.8,-1957.4 -2137.4,-1958.1 		"/>
		<polygon class="st16" points="-2140,-1955.8 -2141.4,-1955 -2140.6,-1953.6 -2139.3,-1954.4 		"/>
		<polygon class="st18" points="-2139.5,-1961.5 -2140.9,-1960.7 -2140.1,-1959.4 -2138.8,-1960.1 		"/>
		<polygon class="st13" points="-2140.5,-1958.2 -2141.9,-1957.5 -2141.2,-1956.1 -2139.8,-1956.9 		"/>
		<polygon class="st12" points="-2141.3,-1960 -2142.3,-1959.5 -2141.8,-1958.5 -2140.8,-1959.1 		"/>
		<polygon class="st15" points="-2142.8,-1957.3 -2143.8,-1956.8 -2143.2,-1955.9 -2142.3,-1956.4 		"/>
		
			<rect x="-2141.6" y="-1949.5" transform="matrix(0.1226 -0.9925 0.9925 0.1226 55.6436 -3833.5251)" class="st14" width="2.5" height="2.5"/>
		
			<rect x="-2141.1" y="-1952.8" transform="matrix(0.123 -0.9924 0.9924 0.123 60.0183 -3835.7158)" class="st18" width="2" height="2"/>
		
			<rect x="-2144.9" y="-1950" transform="matrix(0.123 -0.9924 0.9924 0.123 53.9247 -3836.9915)" class="st15" width="2" height="2"/>
		
			<rect x="-2143.9" y="-1952.7" transform="matrix(0.1227 -0.9924 0.9924 0.1227 56.8724 -3839.4155)" class="st14" width="1.6" height="1.6"/>
		
			<rect x="-2147.6" y="-1950.7" transform="matrix(0.1227 -0.9924 0.9924 0.1227 51.683 -3841.3374)" class="st12" width="1.6" height="1.6"/>
		
			<rect x="-2143.8" y="-1955" transform="matrix(0.123 -0.9924 0.9924 0.123 59.9101 -3840.7175)" class="st12" width="1.6" height="1.6"/>
		
			<rect x="-2146.6" y="-1953" transform="matrix(0.123 -0.9924 0.9924 0.123 55.4538 -3841.6506)" class="st14" width="1.6" height="1.6"/>
		
			<rect x="-2145.7" y="-1954.9" transform="matrix(0.1228 -0.9924 0.9924 0.1228 57.774 -3843.2812)" class="st12" width="1.1" height="1.1"/>
		
			<rect x="-2148.4" y="-1953.6" transform="matrix(0.1227 -0.9924 0.9924 0.1227 53.9391 -3845.0059)" class="st12" width="1.1" height="1.1"/>
		<polygon class="st13" points="-2148.9,-1944.8 -2150.7,-1946.5 -2152.4,-1944.6 -2150.6,-1942.9 		"/>
		<polygon class="st14" points="-2149.2,-1979.7 -2151.1,-1981.4 -2152.8,-1979.6 -2150.9,-1977.9 		"/>
		<polygon class="st15" points="-2146.9,-1947.5 -2148.4,-1948.9 -2149.8,-1947.4 -2148.3,-1946 		"/>
		<polygon class="st14" points="-2151.6,-1947.4 -2153.1,-1948.8 -2154.5,-1947.3 -2153,-1946 		"/>
		<polygon class="st17" points="-2149.6,-1949.3 -2150.8,-1950.3 -2151.8,-1949.2 -2150.7,-1948.1 		"/>
		<polygon class="st13" points="-2153.8,-1949.8 -2154.9,-1950.9 -2156,-1949.7 -2154.8,-1948.7 		"/>
		<polygon class="st13" points="-2148.2,-1951.2 -2149.3,-1952.2 -2150.4,-1951.1 -2149.2,-1950 		"/>
		<polygon class="st12" points="-2151.6,-1951.1 -2152.7,-1952.2 -2153.8,-1951 -2152.7,-1950 		"/>
		<polygon class="st18" points="-2150.1,-1952.4 -2150.9,-1953.2 -2151.7,-1952.4 -2150.9,-1951.6 		"/>
		<polygon class="st12" points="-2153.1,-1953 -2153.9,-1953.7 -2154.7,-1952.9 -2153.9,-1952.2 		"/>
		
			<rect x="-2162.3" y="-1949.1" transform="matrix(0.9805 -0.1965 0.1965 0.9805 340.6237 -462.6364)" class="st17" width="2.5" height="2.5"/>
		
			<rect x="-2158.6" y="-1949.7" transform="matrix(0.9805 -0.1964 0.1964 0.9805 340.6884 -461.6708)" class="st15" width="2" height="2"/>
		
			<rect x="-2162.4" y="-1952.4" transform="matrix(0.9805 -0.1967 0.1967 0.9805 341.5464 -463.1639)" class="st14" width="2" height="2"/>
		
			<rect x="-2159.2" y="-1952.3" transform="matrix(0.9805 -0.1964 0.1964 0.9805 341.2445 -461.9251)" class="st13" width="1.6" height="1.6"/>
		
			<rect x="-2156.9" y="-1953" transform="matrix(0.9805 -0.1964 0.1964 0.9805 341.4193 -461.4878)" class="st11" width="1.6" height="1.6"/>
		
			<rect x="-2159.8" y="-1954.9" transform="matrix(0.9805 -0.1964 0.1964 0.9805 341.7498 -462.0805)" class="st17" width="1.6" height="1.6"/>
		
			<rect x="-2157.3" y="-1954.8" transform="matrix(0.9806 -0.1962 0.1962 0.9806 341.5429 -461.2128)" class="st14" width="1.1" height="1.1"/>
		
			<rect x="-2159.4" y="-1957" transform="matrix(0.9805 -0.1967 0.1967 0.9805 342.6657 -462.897)" class="st12" width="1.1" height="1.1"/>
		<polygon class="st15" points="-2167,-1954.8 -2166,-1957 -2168.3,-1958.1 -2169.3,-1955.8 		"/>
		<polygon class="st13" points="-2163.8,-1953.8 -2163,-1955.6 -2164.8,-1956.4 -2165.6,-1954.6 		"/>
		<polygon class="st17" points="-2165.4,-1958.2 -2164.5,-1960 -2166.3,-1960.9 -2167.2,-1959 		"/>
		
			<rect x="-2164.1" y="-1958.7" transform="matrix(0.4149 -0.9098 0.9098 0.4149 515.728 -3113.802)" class="st15" width="1.6" height="1.6"/>
		<polygon class="st12" points="-2161.1,-1953.3 -2160.4,-1954.8 -2161.8,-1955.4 -2162.5,-1954 		"/>
		
			<rect x="-2164.9" y="-1962.8" transform="matrix(0.4151 -0.9098 0.9098 0.4151 519.1656 -3116.5208)" class="st11" width="1.6" height="1.6"/>
		
			<rect x="-2161.9" y="-1957.9" transform="matrix(0.4151 -0.9098 0.9098 0.4151 516.4818 -3110.8975)" class="st16" width="1.6" height="1.6"/>
		
			<rect x="-2163" y="-1961.1" transform="matrix(0.4154 -0.9096 0.9096 0.4154 519.1443 -3112.9441)" class="st13" width="1.6" height="1.6"/>
		<polygon class="st18" points="-2160.1,-1958.4 -2159.7,-1959.4 -2160.7,-1959.8 -2161.1,-1958.8 		"/>
		<polygon class="st14" points="-2160.6,-1961.4 -2160.1,-1962.4 -2161.1,-1962.8 -2161.6,-1961.8 		"/>
		<polygon class="st15" points="-2168.4,-1965.5 -2166.2,-1966.8 -2167.5,-1968.9 -2169.7,-1967.7 		"/>
		<polygon class="st14" points="-2166.4,-1962.9 -2164.6,-1963.8 -2165.6,-1965.6 -2167.4,-1964.6 		"/>
		<polygon class="st18" points="-2165,-1967.4 -2163.3,-1968.3 -2164.3,-1970.1 -2166,-1969.1 		"/>
		<polygon class="st17" points="-2163.9,-1964.9 -2162.5,-1965.7 -2163.3,-1967 -2164.6,-1966.2 		"/>
		<polygon class="st14" points="-2162.1,-1968.7 -2160.8,-1969.4 -2161.5,-1970.8 -2162.9,-1970 		"/>
		<polygon class="st15" points="-2162.5,-1962.9 -2161.2,-1963.7 -2161.9,-1965 -2163.3,-1964.3 		"/>
		<polygon class="st13" points="-2161.5,-1966.2 -2160.2,-1967 -2161,-1968.3 -2162.3,-1967.6 		"/>
		<polygon class="st12" points="-2160.7,-1964.4 -2159.8,-1965 -2160.3,-1965.9 -2161.3,-1965.4 		"/>
		<polygon class="st14" points="-2159.3,-1967.1 -2158.3,-1967.7 -2158.9,-1968.6 -2159.8,-1968.1 		"/>
		
			<rect x="-2163.1" y="-1977.4" transform="matrix(0.1063 -0.9943 0.9943 0.1063 32.9333 -3915.7493)" class="st14" width="2.5" height="2.5"/>
		
			<rect x="-2163.1" y="-1973.6" transform="matrix(0.1064 -0.9943 0.9943 0.1064 29.4164 -3912.4912)" class="st12" width="2" height="2"/>
		
			<rect x="-2159.3" y="-1976.5" transform="matrix(0.1064 -0.9943 0.9943 0.1064 35.5971 -3911.3567)" class="st15" width="2" height="2"/>
		
			<rect x="-2159.9" y="-1973.4" transform="matrix(0.1065 -0.9943 0.9943 0.1065 32.1576 -3909.4175)" class="st13" width="1.6" height="1.6"/>
		
			<rect x="-2156.2" y="-1975.4" transform="matrix(0.1061 -0.9944 0.9944 0.1061 36.8201 -3908.3118)" class="st17" width="1.6" height="1.6"/>
		
			<rect x="-2159.9" y="-1971" transform="matrix(0.1065 -0.9943 0.9943 0.1065 29.8165 -3907.2588)" class="st15" width="1.6" height="1.6"/>
		
			<rect x="-2157.2" y="-1973.1" transform="matrix(0.1065 -0.9943 0.9943 0.1065 34.3382 -3906.4277)" class="st14" width="1.6" height="1.6"/>
		
			<rect x="-2157.6" y="-1970.7" transform="matrix(0.1064 -0.9943 0.9943 0.1064 31.4658 -3905.363)" class="st18" width="1.1" height="1.1"/>
		
			<rect x="-2154.9" y="-1972.1" transform="matrix(0.1058 -0.9944 0.9944 0.1058 34.0536 -3905.2156)" class="st12" width="1.1" height="1.1"/>
		<path class="st19" d="M-2143.1-1960.6c-0.2-0.1-0.5-0.3-1-0.4c-0.7-0.2-1.6-0.4-2.7-0.2c-0.4,0.1-0.8,0.2-1.2,0.3c0,0-0.1,0-0.1,0
			c-0.2,0.1-0.4,0.2-0.6,0.3c-0.2,0.1-0.4,0.2-0.5,0.3c-0.4,0.2-0.8,0.5-1.2,0.8c-0.4-2.7-0.2-5.1-0.1-6.3c0,0,0,0,0,0
			c0.9,0.6,0.7,2.2,0.5,2.7c0,0,0,0,0,0c1.2-1.4,0.6-2.9,0.4-3.3c0,0,0,0,0,0c0.2,0.1,0.3,0.3,0.4,0.4c0.4,0.5,0.5,1,0.5,1.4
			c0,0.2,0,0.5,0,0.6c0,0,0,0.1,0,0.1c0,0,0,0,0,0c0,0,0,0,0,0c0.3-0.6,0.5-1.6,0-2.5c-0.1-0.2-0.3-0.5-0.5-0.7
			c-0.1-0.1-0.1-0.1-0.2-0.2c0,0,0,0,0,0c0.1,0,0.1,0,0.2,0.1c0.2,0.1,0.4,0.2,0.5,0.3c0.4,0.3,0.6,0.6,0.7,1
			c0.1,0.3,0.2,0.6,0.2,0.9c0,0,0,0,0,0c0.2-0.8,0.1-1.4-0.2-1.9c-0.2-0.3-0.5-0.6-0.7-0.7c-0.2-0.1-0.4-0.2-0.5-0.2
			c-0.1,0-0.2,0-0.3-0.1c0,0,0,0,0,0c0.1,0,0.2,0,0.3,0c0.2,0,0.4,0,0.5,0c0.3,0.1,0.6,0.2,0.7,0.3c0.3,0.2,0.4,0.4,0.5,0.5
			c0,0,0,0,0,0c0-0.4-0.2-0.8-0.5-1c-0.2-0.2-0.5-0.3-0.7-0.4c-0.2,0-0.4-0.1-0.5-0.1c-0.2,0-0.5,0-0.7,0.1c0,0,0,0,0,0
			c0.2-0.2,0.4-0.4,0.7-0.5c0.2-0.1,0.4-0.1,0.5-0.1c0.2,0,0.3,0,0.4,0.1c0,0,0,0,0,0c-0.1-0.2-0.3-0.3-0.4-0.4
			c-0.2-0.1-0.4-0.2-0.5-0.2c-0.5-0.1-1,0.1-1.3,0.6c0,0,0,0,0,0c-0.1-0.1-0.1-0.2-0.2-0.4c-0.1-0.3-0.2-0.6-0.3-1c0,0,0,0,0,0
			c-0.1,0.3-0.2,0.7-0.3,1c-0.1,0.1-0.1,0.2-0.2,0.4c0,0,0,0,0,0c-0.6-0.9-1.6-0.8-2.3-0.1c0,0,0,0,0,0c0.4-0.2,1.2-0.1,1.6,0.4
			c0,0,0,0,0,0c-0.6-0.3-1.6-0.1-2.1,0.5c-0.2,0.2-0.3,0.5-0.3,0.8c0,0,0,0,0,0c0-0.1,0.1-0.2,0.3-0.4c0.3-0.3,0.8-0.5,1.7-0.5
			c0,0,0,0,0,0c-0.4,0.1-1.4,0.5-1.7,1.4c-0.2,0.4-0.2,0.9,0,1.5c0,0,0,0,0,0c0,0,0,0,0,0c0-0.8,0.5-1.9,1.7-2.2c0,0,0,0,0,0
			c-1.3,1.2-1.2,2.6-0.8,3.4c0,0,0,0,0,0c-0.1-0.6-0.1-1.8,0.9-2.6c0,0,0,0,0,0c-0.2,0.4-0.8,1.9,0.4,3.3c0,0,0,0,0,0
			c-0.2-0.5-0.5-2.1,0.5-2.7c0,0,0,0,0,0c0.1,1.2,0.3,3.7-0.1,6.3c-0.8-0.6-1.6-1.1-2.3-1.4c-0.1,0-0.2-0.1-0.3-0.1
			c-0.8-0.3-1.6-0.3-2.2-0.3c-1,0-1.8,0.4-2.3,0.6c-0.1,0-0.2,0.1-0.2,0.1c0,0,0,0,0,0c0.1,0,0.1,0,0.2-0.1c0.8-0.2,1.6-0.3,2.3-0.2
			c0.8,0.1,1.5,0.3,2.2,0.6c1,0.4,1.8,1.1,2.6,1.7c-1.1,1-2.1,1.9-2.6,2.3c0,0-0.1,0-0.1,0c-0.1-0.2-0.4-0.3-0.6-0.2
			c-0.2,0.1-0.4,0.2-0.5,0.5c0,0.2,0,0.4,0.1,0.5c0.3,0.3,0.7,0.3,1.1,0.2c0.8-0.3,1.7-1.4,2.9-2.4c0.1-0.1,0.2-0.2,0.3-0.3
			c0.1,0.1,0.2,0.2,0.3,0.3c0.5,0.5,1,1,1.5,1.4c0.2,0.2,0.4,0.3,0.5,0.5c0.3,0.2,0.5,0.4,0.7,0.5c0.5,0.2,0.8,0.3,1.2,0
			c0,0,0,0,0.1,0c0.1-0.1,0.2-0.3,0.1-0.5c0-0.1-0.1-0.2-0.2-0.3c-0.1-0.1-0.2-0.1-0.3-0.2c-0.3-0.1-0.5,0.1-0.6,0.2
			c-0.1,0-0.2-0.1-0.3-0.2c-0.2-0.1-0.5-0.4-0.7-0.6c-0.2-0.1-0.3-0.3-0.5-0.5c-0.4-0.3-0.8-0.7-1.2-1.1c0.4-0.3,0.8-0.6,1.2-0.9
			c0.2-0.1,0.4-0.2,0.5-0.3c0.2-0.1,0.5-0.3,0.7-0.4c0.4-0.2,0.8-0.3,1.2-0.5c0.8-0.2,1.8-0.3,2.7-0.2
			C-2143.8-1960.8-2143.5-1960.7-2143.1-1960.6C-2143.1-1960.6-2143.1-1960.6-2143.1-1960.6"/>
		<g>
			<rect x="-2186.2" y="-1933.5" class="st10" width="0.7" height="0.7"/>
			<path class="st10" d="M-2136.6-1934.3v-4.9h-0.7v4.1h-2.7v-4.1h-0.7v4.1h-2.9v-4.1h-1.1c-0.4,0-0.9,0.1-1.2,0.2
				c-0.4,0.1-0.7,0.3-0.9,0.5c-0.3,0.2-0.5,0.5-0.6,0.8c-0.1,0.3-0.2,0.6-0.2,1c0,0.4,0.1,0.8,0.2,1.1c0.2,0.3,0.4,0.6,0.6,0.8
				c0.3,0.2,0.6,0.3,0.9,0.4c0.4,0.1,0.7,0.1,1.1,0.1H-2136.6z M-2145.7-1935.1c-0.2-0.1-0.4-0.2-0.6-0.3s-0.3-0.3-0.4-0.5
				s-0.2-0.5-0.2-0.7c0-0.3,0.1-0.5,0.2-0.7c0.1-0.2,0.3-0.4,0.4-0.5c0.2-0.2,0.4-0.3,0.6-0.3c0.2-0.1,0.5-0.1,0.7-0.1h0.7v3.4h-0.7
				C-2145.3-1935-2145.5-1935.1-2145.7-1935.1z"/>
			<rect x="-2151.9" y="-1940.7" class="st10" width="0.7" height="6.4"/>
			<rect x="-2144.3" y="-1940.7" class="st10" width="0.7" height="0.7"/>
			<rect x="-2137.3" y="-1933.5" class="st10" width="0.7" height="0.7"/>
			<rect x="-2184.9" y="-1933.5" class="st10" width="0.7" height="0.7"/>
			<path class="st10" d="M-2154.7-1935h-1.2c-0.4,0-0.7-0.1-1-0.2c-0.2-0.1-0.4-0.3-0.6-0.5c0-0.2,0.1-0.4,0.1-0.7v-2.3h-0.7v2.4
				c0,0.4-0.1,0.7-0.3,1c-0.2,0.2-0.6,0.4-1,0.4c-0.2,0-0.4,0-0.6-0.1c-0.2-0.1-0.3-0.2-0.4-0.3c-0.1-0.1-0.2-0.2-0.3-0.4
				c-0.1-0.2-0.1-0.3-0.1-0.5v-2.5h-0.7v2.5c0,0.2,0,0.4-0.1,0.6c-0.1,0.2-0.2,0.3-0.3,0.4s-0.2,0.2-0.4,0.2c-0.1,0-0.3,0.1-0.5,0.1
				h-1.4v-3.7h-0.7v3.7h-3.8l1.3-3c-0.2-0.2-0.4-0.3-0.6-0.5c-0.2-0.1-0.4-0.3-0.7-0.4c-0.2-0.1-0.5-0.2-0.7-0.3
				c-0.2-0.1-0.5-0.1-0.7-0.1c-0.2,0-0.5,0-0.7,0.1c-0.2,0.1-0.5,0.1-0.7,0.3c-0.2,0.1-0.5,0.2-0.7,0.4c-0.2,0.1-0.4,0.3-0.6,0.5
				l1.3,3h-2.5v-4.1h-1.1c-0.4,0-0.8,0.1-1.2,0.2c-0.4,0.1-0.7,0.3-0.9,0.5c-0.3,0.2-0.5,0.5-0.6,0.8c-0.1,0.3-0.2,0.6-0.2,1
				c0,0.4,0.1,0.8,0.2,1.1c0.2,0.3,0.4,0.5,0.6,0.7c0.3,0.2,0.6,0.3,0.9,0.4c0.4,0.1,0.7,0.1,1.1,0.1h0.4v0.2c0,0.4-0.1,0.6-0.3,0.8
				s-0.5,0.2-0.9,0.2c-0.2,0-0.4,0-0.6-0.1c-0.2,0-0.4-0.1-0.6-0.2l-0.2,0.7c0.3,0.1,0.5,0.2,0.7,0.2c0.2,0.1,0.4,0.1,0.6,0.1
				c0.7,0,1.2-0.2,1.5-0.5c0.3-0.3,0.5-0.8,0.5-1.3v-0.1h11.2c0.3,0,0.7-0.1,0.9-0.2c0.3-0.1,0.5-0.3,0.7-0.6
				c0.2,0.3,0.4,0.5,0.7,0.7c0.3,0.2,0.7,0.2,1.1,0.2c0.4,0,0.8-0.1,1.1-0.2c0.3-0.1,0.5-0.4,0.7-0.7c0.1,0.1,0.1,0.2,0.2,0.3
				c0.1,0.1,0.2,0.2,0.3,0.3c0.1,0.1,0.3,0.1,0.5,0.2c0.1,0,0.3,0.1,0.5,0.1v0h2.1v-6.4h-0.7V-1935z M-2174.7-1935h-0.7
				c-0.3,0-0.5,0-0.8-0.1c-0.2-0.1-0.4-0.2-0.6-0.3c-0.2-0.1-0.3-0.3-0.4-0.5c-0.1-0.2-0.2-0.4-0.2-0.7c0-0.3,0.1-0.5,0.2-0.7
				c0.1-0.2,0.3-0.4,0.4-0.6c0.2-0.2,0.4-0.3,0.6-0.4c0.2-0.1,0.5-0.1,0.7-0.1h0.7V-1935z M-2170.7-1935l-1.1-2.7
				c0.3-0.2,0.6-0.4,0.8-0.5c0.3-0.1,0.6-0.2,0.9-0.2c0.3,0,0.6,0.1,1,0.2c0.3,0.1,0.6,0.3,0.8,0.5l-1.1,2.7H-2170.7z"/>
			<rect x="-2188.6" y="-1940.7" class="st10" width="0.7" height="0.7"/>
			<rect x="-2116" y="-1940.7" class="st10" width="0.7" height="0.7"/>
			<rect x="-2122.4" y="-1940.7" class="st10" width="0.7" height="6.4"/>
			<rect x="-2145.6" y="-1940.7" class="st10" width="0.7" height="0.7"/>
			<path class="st10" d="M-2179.2-1937.1c0-0.3,0-0.5-0.1-0.8c-0.1-0.2-0.2-0.5-0.3-0.6c-0.2-0.2-0.4-0.4-0.6-0.5
				c-0.2-0.1-0.5-0.2-0.9-0.2h-0.5v0.7h0.6c0.2,0,0.3,0,0.5,0.1c0.2,0.1,0.3,0.2,0.4,0.3c0.1,0.1,0.2,0.3,0.2,0.4
				c0,0.1,0.1,0.3,0.1,0.5v2.1h-3.4v0.7h4.1V-1937.1z"/>
			<rect x="-2084.4" y="-1940.7" class="st10" width="0.7" height="6.4"/>
			<rect x="-2114.8" y="-1940.7" class="st10" width="0.7" height="0.7"/>
			<path class="st10" d="M-2086.5-1940.7h-0.7v5.7h-2.5c0.1-0.3,0.2-0.7,0.2-1.1c0-0.4-0.1-0.7-0.2-1c-0.1-0.3-0.3-0.6-0.6-0.8
				c-0.2-0.2-0.5-0.4-0.8-0.6c-0.3-0.1-0.7-0.2-1-0.2c-0.4,0-0.7,0.1-1,0.2c-0.3,0.1-0.6,0.3-0.8,0.6c-0.2,0.2-0.4,0.5-0.5,0.8
				c-0.1,0.3-0.2,0.7-0.2,1c0,0.2,0,0.4,0.1,0.6c0,0.2,0.1,0.3,0.2,0.5h-2.2c0.1-0.3,0.2-0.7,0.2-1.1c0-0.4-0.1-0.7-0.2-1
				c-0.1-0.3-0.3-0.6-0.6-0.8c-0.2-0.2-0.5-0.4-0.8-0.6c-0.3-0.1-0.7-0.2-1-0.2c-0.4,0-0.7,0.1-1,0.2c-0.3,0.1-0.6,0.3-0.8,0.6
				c-0.2,0.2-0.4,0.5-0.5,0.8c-0.1,0.3-0.2,0.7-0.2,1c0,0.2,0,0.4,0.1,0.6c0,0.2,0.1,0.3,0.2,0.5h-2.3v-5.7h-0.7v5.7h-2.3v-1.1
				c0-0.3,0-0.5-0.1-0.8c-0.1-0.2-0.2-0.5-0.3-0.6c-0.2-0.2-0.4-0.4-0.6-0.5c-0.2-0.1-0.5-0.2-0.9-0.2h-3.2l1.4-2.6h-0.8l-1.4,2.6
				c0,0.2,0.1,0.3,0.1,0.4c0.1,0.1,0.1,0.2,0.2,0.3h3.7c0.2,0,0.4,0,0.6,0.1c0.2,0.1,0.3,0.2,0.4,0.3c0.1,0.1,0.2,0.3,0.2,0.4
				c0,0.2,0.1,0.3,0.1,0.5v1.1h-6.6v-4.1h-1.1c-0.4,0-0.9,0.1-1.2,0.2c-0.4,0.1-0.7,0.3-0.9,0.5c-0.3,0.2-0.5,0.5-0.6,0.8
				c-0.1,0.3-0.2,0.6-0.2,1c0,0.4,0.1,0.8,0.2,1.1c0.2,0.3,0.4,0.6,0.6,0.8c0.3,0.2,0.6,0.3,0.9,0.4c0.4,0.1,0.7,0.1,1.1,0.1h14.2
				c0.2,0.3,0.5,0.4,0.8,0.6c0.3,0.1,0.7,0.2,1,0.2c0.4,0,0.7-0.1,1.1-0.2c0.3-0.1,0.6-0.3,0.9-0.6h3.2c0.2,0.3,0.5,0.4,0.8,0.6
				c0.3,0.1,0.7,0.2,1,0.2c0.4,0,0.7-0.1,1.1-0.2c0.3-0.1,0.6-0.3,0.9-0.6h3.7V-1940.7z M-2114.7-1935h-0.7c-0.3,0-0.5,0-0.8-0.1
				c-0.2-0.1-0.4-0.2-0.6-0.3s-0.3-0.3-0.4-0.5c-0.1-0.2-0.2-0.5-0.2-0.7c0-0.3,0.1-0.5,0.2-0.7c0.1-0.2,0.3-0.4,0.4-0.5
				c0.2-0.2,0.4-0.3,0.6-0.3c0.2-0.1,0.5-0.1,0.7-0.1h0.7V-1935z M-2097.3-1935.3c-0.1,0.2-0.2,0.4-0.4,0.6
				c-0.2,0.2-0.4,0.3-0.6,0.4c-0.2,0.1-0.5,0.1-0.7,0.1c-0.3,0-0.5,0-0.7-0.1c-0.2-0.1-0.4-0.2-0.6-0.4c-0.2-0.2-0.3-0.4-0.4-0.6
				c-0.1-0.2-0.1-0.5-0.1-0.7c0-0.3,0-0.5,0.1-0.7c0.1-0.2,0.2-0.4,0.4-0.6c0.2-0.2,0.4-0.3,0.6-0.4c0.2-0.1,0.5-0.2,0.7-0.2
				c0.3,0,0.5,0,0.8,0.1c0.2,0.1,0.4,0.2,0.6,0.4c0.2,0.2,0.3,0.4,0.4,0.6c0.1,0.2,0.1,0.5,0.1,0.8
				C-2097.1-1935.8-2097.2-1935.6-2097.3-1935.3z M-2090.3-1935.3c-0.1,0.2-0.2,0.4-0.4,0.6c-0.2,0.2-0.4,0.3-0.6,0.4
				c-0.2,0.1-0.5,0.1-0.7,0.1c-0.3,0-0.5,0-0.7-0.1c-0.2-0.1-0.4-0.2-0.6-0.4c-0.2-0.2-0.3-0.4-0.4-0.6c-0.1-0.2-0.1-0.5-0.1-0.7
				c0-0.3,0-0.5,0.1-0.7s0.2-0.4,0.4-0.6c0.2-0.2,0.4-0.3,0.6-0.4c0.2-0.1,0.5-0.2,0.7-0.2c0.3,0,0.5,0,0.8,0.1
				c0.2,0.1,0.4,0.2,0.6,0.4c0.2,0.2,0.3,0.4,0.4,0.6c0.1,0.2,0.1,0.5,0.1,0.8C-2090.2-1935.8-2090.2-1935.6-2090.3-1935.3z"/>
			<path class="st10" d="M-2190.1-1934.4c0.4,0.1,0.7,0.1,1.1,0.1h4.7v-4.9h-0.7v4.1h-2.9v-4.1h-1.1c-0.4,0-0.9,0.1-1.2,0.2
				c-0.4,0.1-0.7,0.3-0.9,0.5c-0.3,0.2-0.5,0.5-0.6,0.8c-0.1,0.3-0.2,0.6-0.2,1c0,0.4,0.1,0.8,0.2,1.1c0.2,0.3,0.4,0.6,0.6,0.8
				C-2190.8-1934.7-2190.5-1934.5-2190.1-1934.4z M-2191.2-1936.7c0-0.3,0.1-0.5,0.2-0.7c0.1-0.2,0.3-0.4,0.4-0.5
				c0.2-0.2,0.4-0.3,0.6-0.3c0.2-0.1,0.5-0.1,0.7-0.1h0.7v3.4h-0.7c-0.3,0-0.5,0-0.8-0.1c-0.2-0.1-0.4-0.2-0.6-0.3
				c-0.2-0.1-0.3-0.3-0.4-0.5C-2191.2-1936.2-2191.2-1936.5-2191.2-1936.7z"/>
			<rect x="-2139.9" y="-1933.5" class="st10" width="0.7" height="0.7"/>
			<rect x="-2141.2" y="-1933.5" class="st10" width="0.7" height="0.7"/>
			<path class="st10" d="M-2133.8-1933.4c0-0.2,0.1-0.5,0.1-0.8v-0.2h9.2v-6.4h-0.7v5.7h-3.1l1.3-3c-0.2-0.2-0.4-0.3-0.6-0.5
				c-0.2-0.1-0.4-0.3-0.7-0.4c-0.2-0.1-0.5-0.2-0.7-0.3c-0.2-0.1-0.5-0.1-0.7-0.1c-0.2,0-0.5,0-0.7,0.1c-0.2,0.1-0.5,0.1-0.7,0.3
				c-0.2,0.1-0.5,0.2-0.7,0.4c-0.2,0.1-0.4,0.3-0.6,0.5l1.3,3h-2.7v-4.1h-0.7v5c0,0.2,0,0.4,0,0.5c0,0.1-0.1,0.3-0.1,0.3
				c-0.1,0.1-0.1,0.1-0.2,0.2c-0.1,0-0.2,0.1-0.3,0.1c-0.1,0-0.1,0-0.2,0c0,0-0.1,0-0.2,0l-0.2,0.7c0.2,0.1,0.4,0.1,0.6,0.1
				c0.3,0,0.5,0,0.7-0.1c0.2-0.1,0.3-0.2,0.4-0.4C-2133.9-1933-2133.8-1933.2-2133.8-1933.4z M-2131.4-1937.8
				c0.3-0.2,0.6-0.4,0.8-0.5c0.3-0.1,0.6-0.2,0.9-0.2c0.3,0,0.6,0.1,1,0.2c0.3,0.1,0.6,0.3,0.8,0.5l-1.1,2.7h-1.3L-2131.4-1937.8z"
				/>
			<rect x="-2189.9" y="-1940.7" class="st10" width="0.7" height="0.7"/>
			<polygon class="st10" points="-2186.8,-1929.6 -2187.9,-1929.6 -2190.4,-1927 -2190.4,-1929.6 -2191.3,-1929.6 -2191.3,-1924.5 
				-2190.4,-1924.5 -2190.4,-1926 -2189.6,-1926.8 -2187.8,-1924.5 -2186.7,-1924.5 -2188.9,-1927.4 			"/>
			<rect x="-2185.9" y="-1929.6" class="st10" width="0.9" height="5.1"/>
			<polygon class="st10" points="-2180,-1926.1 -2182.8,-1929.6 -2183.6,-1929.6 -2183.6,-1924.5 -2182.7,-1924.5 -2182.7,-1928.1 
				-2179.9,-1924.5 -2179.1,-1924.5 -2179.1,-1929.6 -2180,-1929.6 			"/>
			<path class="st10" d="M-2175.4-1926.6h1.3v1c-0.3,0.2-0.8,0.4-1.2,0.4c-1,0-1.7-0.8-1.7-1.8v0c0-1,0.7-1.8,1.7-1.8
				c0.7,0,1,0.2,1.4,0.5l0.6-0.7c-0.5-0.4-1.1-0.7-2-0.7c-1.5,0-2.6,1.2-2.6,2.6v0c0,1.5,1.1,2.6,2.7,2.6c0.9,0,1.6-0.4,2.1-0.8
				v-2.1h-2.2V-1926.6z"/>
			<path class="st10" d="M-2170.1-1929.6h-1.9v5.1h1.9c1.6,0,2.7-1.1,2.7-2.6v0C-2167.4-1928.5-2168.5-1929.6-2170.1-1929.6z
				 M-2168.3-1927c0,1-0.7,1.7-1.8,1.7h-1v-3.5h1C-2169-1928.8-2168.3-1928-2168.3-1927L-2168.3-1927z"/>
			<path class="st10" d="M-2163.8-1929.7c-1.6,0-2.7,1.2-2.7,2.6v0c0,1.4,1.1,2.6,2.7,2.6c1.6,0,2.7-1.2,2.7-2.6v0
				C-2161.1-1928.5-2162.2-1929.7-2163.8-1929.7z M-2162.1-1927c0,1-0.7,1.8-1.7,1.8c-1,0-1.7-0.8-1.7-1.8v0c0-1,0.7-1.8,1.7-1.8
				C-2162.8-1928.9-2162.1-1928-2162.1-1927L-2162.1-1927z"/>
			<polygon class="st10" points="-2157.5,-1927.2 -2159.1,-1929.6 -2160,-1929.6 -2160,-1924.5 -2159.1,-1924.5 -2159.1,-1928.1 
				-2157.5,-1925.7 -2157.5,-1925.7 -2155.9,-1928.2 -2155.9,-1924.5 -2155,-1924.5 -2155,-1929.6 -2155.9,-1929.6 			"/>
			<path class="st10" d="M-2149-1929.7c-1.6,0-2.7,1.2-2.7,2.6v0c0,1.4,1.1,2.6,2.7,2.6c1.6,0,2.7-1.2,2.7-2.6v0
				C-2146.3-1928.5-2147.4-1929.7-2149-1929.7z M-2147.3-1927c0,1-0.7,1.8-1.7,1.8c-1,0-1.7-0.8-1.7-1.8v0c0-1,0.7-1.8,1.7-1.8
				C-2148-1928.9-2147.3-1928-2147.3-1927L-2147.3-1927z"/>
			<polygon class="st10" points="-2145.2,-1924.5 -2144.3,-1924.5 -2144.3,-1926.6 -2141.7,-1926.6 -2141.7,-1927.4 
				-2144.3,-1927.4 -2144.3,-1928.8 -2141.4,-1928.8 -2141.4,-1929.6 -2145.2,-1929.6 			"/>
			<path class="st10" d="M-2136.2-1927.4c-1-0.2-1.2-0.4-1.2-0.8v0c0-0.3,0.3-0.6,0.8-0.6c0.5,0,0.9,0.2,1.4,0.5l0.5-0.7
				c-0.5-0.4-1.1-0.6-1.9-0.6c-1,0-1.8,0.6-1.8,1.5v0c0,0.9,0.6,1.3,1.7,1.5c1,0.2,1.2,0.4,1.2,0.8v0c0,0.4-0.4,0.6-0.9,0.6
				c-0.6,0-1.1-0.2-1.6-0.7l-0.5,0.6c0.6,0.5,1.4,0.8,2.1,0.8c1.1,0,1.8-0.6,1.8-1.5v0C-2134.6-1926.8-2135.2-1927.2-2136.2-1927.4z
				"/>
			<path class="st10" d="M-2131.8-1929.6l-2.3,5.2h0.9l0.5-1.2h2.4l0.5,1.2h1l-2.3-5.2H-2131.8z M-2132.3-1926.5l0.9-2l0.9,2
				H-2132.3z"/>
			<path class="st10" d="M-2124.7-1926.7c0,0.9-0.5,1.4-1.3,1.4c-0.8,0-1.3-0.5-1.3-1.5v-2.9h-0.9v2.9c0,1.5,0.8,2.3,2.2,2.3
				c1.3,0,2.2-0.8,2.2-2.3v-2.9h-0.9V-1926.7z"/>
			<path class="st10" d="M-2120.6-1929.6h-1.9v5.1h1.9c1.6,0,2.7-1.1,2.7-2.6v0C-2117.9-1928.5-2119-1929.6-2120.6-1929.6z
				 M-2118.8-1927c0,1-0.7,1.7-1.8,1.7h-1v-3.5h1C-2119.5-1928.8-2118.8-1928-2118.8-1927L-2118.8-1927z"/>
			<rect x="-2116.7" y="-1929.6" class="st10" width="0.9" height="5.1"/>
			<path class="st10" d="M-2110.4-1929.6l-2.3,5.2h0.9l0.5-1.2h2.4l0.5,1.2h1l-2.3-5.2H-2110.4z M-2110.9-1926.5l0.9-2l0.9,2
				H-2110.9z"/>
			<path class="st10" d="M-2102.3-1928L-2102.3-1928c0-0.5-0.2-0.8-0.4-1.1c-0.3-0.3-0.8-0.5-1.5-0.5h-2.3v5.1h0.9v-1.8h1.1h0
				l1.3,1.8h1.1l-1.4-1.9C-2102.8-1926.6-2102.3-1927.1-2102.3-1928z M-2105.6-1927.1v-1.7h1.3c0.7,0,1.1,0.3,1.1,0.8v0
				c0,0.5-0.4,0.9-1.1,0.9H-2105.6z"/>
			<path class="st10" d="M-2099.2-1929.6l-2.3,5.2h0.9l0.5-1.2h2.4l0.5,1.2h1l-2.3-5.2H-2099.2z M-2099.7-1926.5l0.9-2l0.9,2
				H-2099.7z"/>
			<path class="st10" d="M-2092-1927.1c0.4-0.2,0.7-0.5,0.7-1.1v0c0-0.3-0.1-0.6-0.3-0.8c-0.3-0.3-0.8-0.5-1.3-0.5h-2.3v5.1h2.4
				c1.1,0,1.9-0.5,1.9-1.4v0C-2091-1926.6-2091.4-1926.9-2092-1927.1z M-2094.4-1928.8h1.3c0.6,0,0.9,0.2,0.9,0.7v0
				c0,0.5-0.4,0.7-1,0.7h-1.2V-1928.8z M-2091.9-1926c0,0.5-0.4,0.7-1,0.7h-1.5v-1.4h1.4C-2092.3-1926.7-2091.9-1926.4-2091.9-1926
				L-2091.9-1926z"/>
			<rect x="-2089.9" y="-1929.6" class="st10" width="0.9" height="5.1"/>
			<path class="st10" d="M-2085.1-1929.6h-0.8l-2.3,5.2h0.9l0.5-1.2h2.4l0.5,1.2h1L-2085.1-1929.6z M-2086.4-1926.5l0.9-2l0.9,2
				H-2086.4z"/>
		</g>
	</g>
</g>
<rect x="-2549.4" y="-1679" style="fill:none;" width="1649.7" height="420"/>
<text transform="matrix(1 0 0 1 -1842.3633 -1649.0122)"><tspan x="0" y="0" style="fill:#606060; font-family:'GEDinarTwo-Medium'; font-size:36px;"> ماع تسسأت ةمركملا ةكم ةقطنمب ةيرسلا ةيمنتلل ةدوملا ةيعمج</tspan><tspan x="942.6" y="0" style="fill:#606060; font-family:'GEDinarTwo-Medium'; font-size:36px;"> </tspan><tspan x="-707" y="48" style="fill:#606060; font-family:'GEDinarTwo-Medium'; font-size:36px;">ءانب للخ نم ةرسلا رارقتسل ىعستو ةمادتسم ةيومنت تاردابم للخ نم ةرسلا ةيعوتو حلصإو داشرإو بيردتو ميلعت</tspan><tspan x="942.6" y="48" style="fill:#606060; font-family:'GEDinarTwo-Medium'; font-size:36px;"> </tspan><tspan x="-707" y="96" style="fill:#606060; font-family:'GEDinarTwo-Medium'; font-size:36px;">ةريفسو ةرسلا رارقتسا يف ةرثؤم نوكت نأ ىلع تايدحتلا ةهجاوم ىلع ةرداقلا ةكسامتملاو ةيعاولا رسلا نم ليج</tspan><tspan x="942.6" y="96" style="fill:#606060; font-family:'GEDinarTwo-Medium'; font-size:36px;"> </tspan><tspan x="-707" y="144" style="fill:#606060; font-family:'GEDinarTwo-Medium'; font-size:36px;">مارتحلا اهدوسي نيوبلا لاصفنا دعب ءانبلل ةنمآو ةيحص ةيرسأ ةئيب نيوكت ىلإ ةيعمجلا ىعست امك ،ةدوملا ةلاسرل</tspan><tspan x="942.6" y="144" style="fill:#606060; font-family:'GEDinarTwo-Medium'; font-size:36px;"> </tspan><tspan x="-707" y="192" style="fill:#606060; font-family:'GEDinarTwo-Medium'; font-size:36px;">قيقحت يف ةيجيتارتسلا لولحلا لضفأ حرط يف ماهسلاو ةرسلا اياضقل لولا عجرملا نوكت نل ىعست كلذك ، لدابتملا</tspan><tspan x="942.6" y="192" style="fill:#606060; font-family:'GEDinarTwo-Medium'; font-size:36px;"> </tspan><tspan x="-629.4" y="240" style="fill:#606060; font-family:'GEDinarTwo-Medium'; font-size:36px;"> ماع تسسأت ةيعمجلاو ،نيصتخملا نم تاءافكلا لضفأ ليهأتو ةرسلاب ةقلعتملا ينطولا لوحتلا جمانرب فادهأ</tspan><tspan x="942.6" y="240" style="fill:#606060; font-family:'GEDinarTwo-Medium'; font-size:36px;"> </tspan><tspan x="178.5" y="288" style="fill:#606060; font-family:'GEDinarTwo-Medium'; font-size:36px;"> نم رثكأ ةايح رييغت يف ةيعمجلا تدعاس اهئاشنإ ذنمو</tspan><tspan x="942.6" y="288" style="fill:#606060; font-family:'GEDinarTwo-Medium'; font-size:36px;"> </tspan><tspan x="854.6" y="336" style="fill:#606060; font-family:'GEDinarTwo-Medium'; font-size:36px;"> ماعلا</tspan></text>
<g>
	<path class="st20" d="M-2113.2-935h777.2c19.8,0,35.9-16.1,35.9-35.9v-41.2c0-19.8-16.1-35.9-35.9-35.9h-777.2
		c-19.8,0-35.9,16.1-35.9,35.9v41.2C-2149.1-951.1-2133-935-2113.2-935z"/>
	<path class="st21" d="M-2106.1-928h777.2c19.8,0,35.9-16.1,35.9-35.9v-41.2c0-19.8-16.1-35.9-35.9-35.9h-777.2
		c-19.8,0-35.9,16.1-35.9,35.9v41.2C-2142-944.1-2125.9-928-2106.1-928z"/>
	<g>
		<text transform="matrix(1 0 0 1 -2044.5431 -1004.7441)"><tspan x="0" y="0" class="st3" style="font-family:'GEDinarTwo-Medium'; font-size:36px;">يناطحقلا لياعم نب لادبع /روتكدلا ذاتسلا</tspan><tspan x="634.1" y="0" class="st3" style="font-family:'GEDinarTwo-Medium'; font-size:36px;"> </tspan></text>
	</g>
	<g>
		<text transform="matrix(1 0 0 1 -2032.1046 -957.1914)" class="st2" style="font-family:'GEDinarTwo-Medium'; font-size:33px;">ةشيب ةعماج يميداكأ ةيمومعلا ةيعمجلا سيئر</text>
	</g>
</g>
<g>
	<g>
		<path class="st20" d="M-2113.1-794h777.2c19.8,0,35.9-16.1,35.9-35.9v-41.2c0-19.8-16.1-35.9-35.9-35.9h-777.2
			c-19.8,0-35.9,16.1-35.9,35.9v41.2C-2149-810.1-2132.9-794-2113.1-794z"/>
		<g>
			<text transform="matrix(1 0 0 1 -2044.4266 -863.7441)"><tspan x="0" y="0" class="st3" style="font-family:'GEDinarTwo-Medium'; font-size:36px;">يناطحقلا لياعم نب لادبع /روتكدلا ذاتسلا</tspan><tspan x="634.1" y="0" class="st3" style="font-family:'GEDinarTwo-Medium'; font-size:36px;"> </tspan></text>
		</g>
		<g>
			<text transform="matrix(1 0 0 1 -2031.9882 -816.1914)" class="st2" style="font-family:'GEDinarTwo-Medium'; font-size:33px;">ةشيب ةعماج يميداكأ ةيمومعلا ةيعمجلا سيئر</text>
		</g>
	</g>
	<path class="st21" d="M-2106.1-785h777.2c19.8,0,35.9-16.1,35.9-35.9v-41.2c0-19.8-16.1-35.9-35.9-35.9h-777.2
		c-19.8,0-35.9,16.1-35.9,35.9v41.2C-2142-801.1-2125.9-785-2106.1-785z"/>
</g>
<g>
	<g>
		<path class="st20" d="M-2113.1-653h777.2c19.8,0,35.9-16.1,35.9-35.9v-41.2c0-19.8-16.1-35.9-35.9-35.9h-777.2
			c-19.8,0-35.9,16.1-35.9,35.9v41.2C-2149-669.1-2132.9-653-2113.1-653z"/>
		<g>
			<text transform="matrix(1 0 0 1 -2044.4266 -722.7441)"><tspan x="0" y="0" class="st3" style="font-family:'GEDinarTwo-Medium'; font-size:36px;">يناطحقلا لياعم نب لادبع /روتكدلا ذاتسلا</tspan><tspan x="634.1" y="0" class="st3" style="font-family:'GEDinarTwo-Medium'; font-size:36px;"> </tspan></text>
		</g>
		<g>
			<text transform="matrix(1 0 0 1 -2031.9882 -675.1914)" class="st2" style="font-family:'GEDinarTwo-Medium'; font-size:33px;">ةشيب ةعماج يميداكأ ةيمومعلا ةيعمجلا سيئر</text>
		</g>
	</g>
	<path class="st21" d="M-2106.1-645h777.2c19.8,0,35.9-16.1,35.9-35.9v-41.2c0-19.8-16.1-35.9-35.9-35.9h-777.2
		c-19.8,0-35.9,16.1-35.9,35.9v41.2C-2142-661.1-2125.9-645-2106.1-645z"/>
</g>
<g>
	<rect x="-2677.8" y="459.2" class="st22" width="1920" height="114"/>
	<g>
		<path class="st2" d="M-941.8,553.2h-389c-6.6,0-12-5.4-12-12v-49c0-6.6,5.4-12,12-12h389c6.6,0,12,5.4,12,12v49
			C-929.8,547.8-935.2,553.2-941.8,553.2z"/>
		<g>
			<text transform="matrix(1 0 0 1 -1199.905 526.9822)" class="st23" style="font-family:'Almarai-Regular'; font-size:42px;">انعم رمثتسا</text>
			<path class="st23" d="M-1226.2,496.6c-4.9-2.1-10.8,0.8-14.6,3.9c-3.3,2.7-5.4,6.4-6.8,10.3c-3.7-7.3-11.6-13.7-19.4-8.4
				c-4.2,2.8-4.4,8-3.1,12.5c1.5,4.9,5,8.4,9.5,10.7c5.1,2.6,11.8,4.6,13.3,10.9c0,0.1,0.4,0.1,1-0.1c-0.3,0.6-0.7,1.3-0.9,2
				c-0.3,0.6,1.6-0.1,1.7-0.1c0.7-0.3,1.8-0.9,2.1-1.7c4.5-10.6,16.6-15.4,20.7-26.3C-1221.2,505.8-1221,498.8-1226.2,496.6z
				 M-1228.1,514.9c-2.5,4.3-6.2,7.6-9.8,11c-2.3,2.1-4.5,4.4-6.3,6.8c-1.8-4.5-6.8-6.7-11-8.6c-5.4-2.5-9.7-5.9-11.4-11.8
				c-0.7-2.5-1-5.6,0-8.1c0.3-0.8,0.5-1.3,1.3-1.6c0.7-0.3,1.6-0.1,2.3,0c1.4,0.2,2.7,0.8,3.9,1.5c4.8,2.9,8.1,8,9.4,13.4
				c0.2,0.7,3.6-1.3,3.8-2c1.2-5,2.6-10.4,6.3-14.3c3.2-3.4,9.7-4.7,12.6-0.1C-1224.4,505.4-1225.8,511-1228.1,514.9z"/>
		</g>
	</g>
	<g>
		<g>
			<g>
				<path class="st4" d="M-2523.3,533.2c-10.9,0-19.8-8.9-19.8-19.8c0-10.9,8.9-19.8,19.8-19.8c10.9,0,19.8,8.9,19.8,19.8
					C-2503.5,524.3-2512.4,533.2-2523.3,533.2z M-2523.3,495.7c-9.8,0-17.7,7.9-17.7,17.7c0,9.8,7.9,17.7,17.7,17.7
					s17.7-7.9,17.7-17.7C-2505.6,503.7-2513.6,495.7-2523.3,495.7z"/>
			</g>
			<g>
				<g>
					<path class="st4" d="M-2511.9,506.2c-0.7,0.3-1.5,0.5-2.3,0.7c0.4-0.1,0.9-0.7,1.2-1c0.3-0.4,0.6-0.9,0.8-1.4c0,0,0-0.1,0-0.1
						c-0.1,0-0.1,0-0.1,0c-0.9,0.5-1.8,0.8-2.8,1.1c-0.1,0-0.1,0-0.2-0.1c-0.1-0.1-0.2-0.2-0.2-0.2c-0.4-0.3-0.8-0.6-1.3-0.8
						c-0.6-0.3-1.4-0.4-2.1-0.3c-0.7,0-1.4,0.2-2,0.6c-0.6,0.3-1.1,0.8-1.6,1.3c-0.4,0.5-0.8,1.2-0.9,1.9c-0.2,0.7-0.1,1.3-0.1,2
						c0,0.1,0,0.1-0.1,0.1c-3.8-0.6-7-1.9-9.5-4.9c-0.1-0.1-0.2-0.1-0.3,0c-1.1,1.7-0.6,4.4,0.8,5.7c0.2,0.2,0.4,0.4,0.6,0.5
						c-0.1,0-1-0.1-1.8-0.5c-0.1-0.1-0.2,0-0.2,0.1c0,0.2,0,0.3,0,0.5c0.2,1.7,1.4,3.3,3,3.9c0.2,0.1,0.4,0.2,0.6,0.2
						c-0.4,0.1-0.7,0.1-1.8,0.1c-0.1,0-0.2,0-0.1,0.2c0.8,2.2,2.5,2.8,3.8,3.2c0.2,0,0.3,0,0.5,0.1c0,0,0,0,0,0
						c-0.4,0.6-1.9,1.1-2.6,1.4c-1.2,0.4-2.6,0.6-3.9,0.5c-0.2,0-0.3,0-0.3,0c-0.1,0,0,0.1,0.1,0.1c0.3,0.2,0.5,0.3,0.8,0.5
						c0.8,0.4,1.7,0.8,2.6,1.1c4.7,1.3,10,0.3,13.6-3.2c2.8-2.8,3.8-6.6,3.8-10.4c0-0.1,0.2-0.2,0.3-0.3c0.7-0.5,1.3-1.2,1.8-1.9
						C-2511.8,506.4-2511.9,506.3-2511.9,506.2C-2511.9,506.2-2511.9,506.2-2511.9,506.2C-2511.9,506.1-2511.8,506.1-2511.9,506.2z"
						/>
				</g>
				<g>
					<path class="st24" d="M-2528.1,522.8C-2526.1,522.8-2528,522.8-2528.1,522.8C-2527.8,522.8-2528.1,522.8-2528.1,522.8z"/>
				</g>
				<g>
					<path class="st24" d="M-2528.1,522.8C-2528.1,522.9-2528.5,522.8-2528.1,522.8C-2528.1,522.8-2528.2,522.8-2528.1,522.8z"/>
				</g>
				<g>
					<path class="st24" d="M-2527.3,522.9C-2527.3,522.8-2526.9,522.9-2527.3,522.9C-2527.3,522.8-2527.3,522.9-2527.3,522.9z"/>
				</g>
				<g>
					<path class="st24" d="M-2519.2,503.9C-2519.2,503.9-2519.2,503.9-2519.2,503.9C-2519.2,503.9-2519.2,503.9-2519.2,503.9z"/>
				</g>
			</g>
		</g>
		<g>
			<g>
				<path class="st4" d="M-2464.4,533.2c-10.9,0-19.8-8.9-19.8-19.8c0-10.9,8.9-19.8,19.8-19.8s19.8,8.9,19.8,19.8
					C-2444.6,524.3-2453.5,533.2-2464.4,533.2z M-2464.4,495.7c-9.8,0-17.7,7.9-17.7,17.7c0,9.8,7.9,17.7,17.7,17.7
					s17.7-7.9,17.7-17.7C-2446.7,503.7-2454.7,495.7-2464.4,495.7z"/>
			</g>
			<g>
				<path class="st24" d="M-2467.5,513.5V525c0,0.2,0.1,0.3,0.3,0.3h4.3c0.2,0,0.3-0.1,0.3-0.3v-11.7h3.1c0.2,0,0.3-0.1,0.3-0.3
					l0.3-3.5c0-0.2-0.1-0.3-0.3-0.3h-3.4v-2.5c0-0.6,0.5-1.1,1.1-1.1h2.4c0.2,0,0.3-0.1,0.3-0.3v-3.5c0-0.2-0.1-0.3-0.3-0.3h-4
					c-2.4,0-4.3,1.9-4.3,4.3v3.4h-2.1c-0.2,0-0.3,0.1-0.3,0.3v3.5c0,0.2,0.1,0.3,0.3,0.3h2.1V513.5z"/>
			</g>
		</g>
		<g>
			<g>
				<path class="st4" d="M-2287.7,532.1c-10.9,0-19.8-8.9-19.8-19.8c0-10.9,8.9-19.8,19.8-19.8c10.9,0,19.8,8.9,19.8,19.8
					C-2267.9,523.2-2276.7,532.1-2287.7,532.1z M-2287.7,494.6c-9.8,0-17.7,7.9-17.7,17.7c0,9.8,7.9,17.7,17.7,17.7
					c9.8,0,17.7-7.9,17.7-17.7C-2270,502.6-2277.9,494.6-2287.7,494.6z"/>
			</g>
			<g>
				<g>
					<path class="st24" d="M-2286.7,499.4c-6.6,0-12,5.4-12,12c0,2.3,0.7,4.6,1.9,6.5l-1.8,4c-0.2,0.4-0.1,0.8,0.2,1.1
						c0.2,0.2,0.5,0.4,0.8,0.4c0.1,0,0.2,0,0.3,0l5-1.4c1.7,0.9,3.7,1.4,5.6,1.4c6.6,0,12-5.4,12-12
						C-2274.8,504.8-2280.1,499.4-2286.7,499.4z M-2286.7,521.3c-1.7,0-3.5-0.5-5-1.3c-0.2-0.1-0.3-0.1-0.5-0.1c-0.1,0-0.2,0-0.3,0
						l-3.3,0.9l1.1-2.5c0.2-0.3,0.1-0.7-0.1-1c-1.2-1.7-1.9-3.7-1.9-5.8c0-5.4,4.4-9.9,9.9-9.9s9.9,4.4,9.9,9.9
						S-2281.3,521.3-2286.7,521.3z"/>
				</g>
				<g>
					<path class="st24" d="M-2282.1,513.2c-0.5-0.3-1.2-0.6-1.7-0.4c-0.5,0.2-0.7,0.9-1,1.3c-0.2,0.2-0.3,0.2-0.6,0.1
						c-1.7-0.7-3-1.8-3.9-3.4c-0.2-0.2-0.1-0.4,0.1-0.7c0.3-0.3,0.6-0.7,0.7-1.2c0.1-0.4-0.1-1-0.3-1.4c-0.2-0.5-0.5-1.2-1-1.5
						c-0.5-0.3-1.1-0.1-1.5,0.2c-0.7,0.6-1.1,1.5-1.1,2.4c0,0.3,0,0.5,0.1,0.8c0.1,0.6,0.4,1.2,0.7,1.7c0.2,0.4,0.5,0.8,0.8,1.2
						c0.9,1.2,2,2.3,3.4,3.1c0.7,0.4,1.4,0.8,2.1,1c0.8,0.3,1.5,0.6,2.4,0.4c0.9-0.2,1.8-0.7,2.2-1.6c0.1-0.3,0.2-0.6,0.1-0.8
						C-2280.9,513.8-2281.7,513.4-2282.1,513.2z"/>
				</g>
			</g>
		</g>
		<g>
			<g>
				<path class="st4" d="M-2346.6,532.1c-10.9,0-19.8-8.9-19.8-19.8c0-10.9,8.9-19.8,19.8-19.8c10.9,0,19.8,8.9,19.8,19.8
					C-2326.8,523.2-2335.7,532.1-2346.6,532.1z M-2346.6,494.6c-9.8,0-17.7,7.9-17.7,17.7c0,9.8,7.9,17.7,17.7,17.7
					s17.7-7.9,17.7-17.7C-2328.9,502.6-2336.8,494.6-2346.6,494.6z"/>
			</g>
			<g>
				<g>
					<path class="st4" d="M-2359.5,519.2c0-0.1,0-0.3,0-0.4c0.2-0.2,0.3-0.4,0.6-0.4c2.1-0.4,3.6-1.8,4.6-3.6
						c0.9-1.5,0.8-1.8-0.9-2.4c-0.1,0-0.2-0.1-0.3-0.1c-0.4-0.1-0.7-0.3-1-0.6c-0.7-0.6-0.3-1.6,0.6-1.8c0.6-0.2,1.2,0.3,1.8,0.3
						c0.4,0.1,0.6-0.1,0.5-0.5c-0.1-1.1-0.1-2.3-0.1-3.4c0.1-2.2,1.2-3.9,3-4.9c2.7-1.6,5.5-1.6,8.1,0c1.7,1,2.8,2.5,3,4.5
						c0.2,1.3,0.1,2.6,0,3.9c0,0.6,0.1,0.7,0.6,0.5c0.7-0.2,1.3-0.5,2-0.2c0.4,0.2,0.7,0.5,0.7,1c0,0.3-0.2,0.6-0.4,0.7
						c-0.3,0.3-0.8,0.5-1.2,0.6c-0.3,0.1-0.6,0.2-0.9,0.4c-0.6,0.3-0.8,0.7-0.5,1.3c1,2.2,2.5,3.8,4.9,4.4c0.3,0.1,0.5,0.2,0.7,0.4
						c0,0.1,0,0.3,0,0.4c-0.2,0.5-0.6,0.7-1.1,0.9c-0.5,0.2-1,0.4-1.5,0.4c-0.7,0-1.1,0.4-1.2,1.1c-0.1,0.7-0.3,0.8-1,0.7
						c-0.2,0-0.3,0-0.5-0.1c-1.4-0.2-2.7-0.1-3.8,0.8c-0.2,0.2-0.5,0.3-0.7,0.5c-1.9,1.3-3.9,1.4-6,0.2c-0.6-0.3-1.1-0.7-1.6-1
						c-0.4-0.3-0.9-0.5-1.5-0.5c-0.8-0.1-1.7,0.1-2.5,0.2c-0.4,0-0.8-0.1-0.9-0.5c-0.1-1.1-0.7-1.3-1.6-1.4c-0.4,0-0.8-0.2-1.2-0.4
						C-2359,519.9-2359.3,519.6-2359.5,519.2z"/>
				</g>
			</g>
		</g>
		<g>
			<g>
				<path class="st4" d="M-2228.8,532.3c-10.9,0-19.8-8.9-19.8-19.8c0-10.9,8.9-19.8,19.8-19.8c10.9,0,19.8,8.9,19.8,19.8
					C-2208.9,523.5-2217.8,532.3-2228.8,532.3z M-2228.8,494.8c-9.8,0-17.7,7.9-17.7,17.7c0,9.8,7.9,17.7,17.7,17.7
					c9.8,0,17.7-7.9,17.7-17.7C-2211.1,502.8-2219,494.8-2228.8,494.8z"/>
			</g>
			<g>
				<g>
					<path class="st4" d="M-2216.9,509.5c0-2.8-2.3-5.1-5.1-5.1h-13.2c-2.8,0-5.1,2.3-5.1,5.1v6.2c0,2.8,2.3,5.1,5.1,5.1h13.2
						c2.8,0,5.1-2.3,5.1-5.1V509.5z M-2225.2,512.9l-5.3,2.9c-0.2,0.1-0.4,0-0.4-0.3v-5.9c0-0.3,0.2-0.4,0.4-0.3l5.3,3
						C-2225,512.5-2225,512.8-2225.2,512.9z"/>
				</g>
			</g>
		</g>
		<g>
			<path class="st4" d="M-2405.5,533.5c-10.9,0-19.7-8.8-19.7-19.7c0-10.9,8.8-19.7,19.7-19.7c10.9,0,19.7,8.8,19.7,19.7
				C-2385.8,524.6-2394.6,533.5-2405.5,533.5z M-2405.5,496c-9.8,0-17.8,8-17.8,17.8c0,9.8,8,17.8,17.8,17.8c9.8,0,17.8-8,17.8-17.8
				C-2387.7,503.9-2395.7,496-2405.5,496z M-2398.9,505.8c-0.8,0-1.5,0.7-1.5,1.5c0,0.8,0.7,1.5,1.5,1.5c0.8,0,1.5-0.7,1.5-1.5
				C-2397.4,506.4-2398.1,505.8-2398.9,505.8z M-2405.3,507.7c-3.4,0-6.1,2.7-6.1,6.1c0,3.4,2.7,6.1,6.1,6.1s6.1-2.7,6.1-6.1
				C-2399.2,510.4-2402,507.7-2405.3,507.7z M-2405.3,517.7c-2.2,0-3.9-1.8-3.9-3.9s1.8-3.9,3.9-3.9c2.2,0,3.9,1.8,3.9,3.9
				S-2403.2,517.7-2405.3,517.7z M-2393,508.7c0-4.1-3.3-7.5-7.5-7.5h-9.9c-4.1,0-7.5,3.3-7.5,7.5v9.9c0,4.1,3.3,7.5,7.5,7.5h9.9
				c4.1,0,7.5-3.3,7.5-7.5V508.7z M-2395.3,518.5c0,2.8-2.3,5.1-5.1,5.1h-9.9c-2.8,0-5.1-2.3-5.1-5.1v-9.9c0-2.8,2.3-5.1,5.1-5.1
				h9.9c2.8,0,5.1,2.3,5.1,5.1V518.5z"/>
		</g>
	</g>
</g>
<g>
	<g>
		
			<linearGradient id="SVGID_3_" gradientUnits="userSpaceOnUse" x1="-3638.437" y1="-3240.4385" x2="-3635.8003" y2="-3240.4385" gradientTransform="matrix(-1 0 0 -1 -3428.1455 -3223.1919)">
			<stop  offset="0" style="stop-color:#2E56A6"/>
			<stop  offset="1" style="stop-color:#0190C1"/>
		</linearGradient>
		<polygon class="st25" points="207.7,12.2 210.3,12.2 210.3,22.3 207.7,22.3 		"/>
		<g>
			
				<linearGradient id="SVGID_4_" gradientUnits="userSpaceOnUse" x1="-3739.1616" y1="-3287.4497" x2="-3734.459" y2="-3298.0308" gradientTransform="matrix(-1 2.200000e-03 -2.200000e-03 -1 -3534.9163 -3277.7903)">
				<stop  offset="0" style="stop-color:#2E56A6"/>
				<stop  offset="1" style="stop-color:#0190C1"/>
			</linearGradient>
			<path class="st26" d="M209,12.8c3.1,0,5.7-2.6,5.7-5.7c0-1.8-0.8-3.3-2.1-4.4l-0.9-0.6c-0.8-0.4-1.7-0.7-2.7-0.7
				c-3.1,0-5.7,2.6-5.7,5.7S205.8,12.8,209,12.8z"/>
			<path class="st23" d="M209,12.8c1.6,0,3-0.7,4-1.7C212,12.1,210.6,12.7,209,12.8c-3.1-0.1-5.6-2.6-5.6-5.7c0-1.6,0.6-3,1.6-4
				c-1,1-1.7,2.5-1.7,4.1C203.3,10.3,205.8,12.8,209,12.8z"/>
		</g>
		<g>
			
				<linearGradient id="SVGID_5_" gradientUnits="userSpaceOnUse" x1="-3737.7292" y1="-3290.6726" x2="-3735.7026" y2="-3295.2322" gradientTransform="matrix(-1 2.200000e-03 -2.200000e-03 -1 -3534.9163 -3277.7903)">
				<stop  offset="0" style="stop-color:#FFFFFF"/>
				<stop  offset="1" style="stop-color:#C9C7C7"/>
			</linearGradient>
			<path class="st27" d="M209,9.5c1.4,0,2.4-1.1,2.4-2.5c0-0.8-0.3-1.4-0.9-1.9L210.1,5c-0.3-0.2-0.7-0.3-1.2-0.3
				c-1.4,0-2.4,1.1-2.4,2.5C206.5,8.5,207.6,9.6,209,9.5z"/>
			<path class="st23" d="M209,9.5c0.7,0,1.3-0.3,1.7-0.7C210.3,9.2,209.7,9.5,209,9.5c-1.3,0-2.4-1.1-2.4-2.5c0-0.7,0.3-1.3,0.7-1.7
				c-0.5,0.4-0.7,1.1-0.7,1.7C206.5,8.5,207.6,9.6,209,9.5z"/>
		</g>
	</g>
	<g>
		
			<linearGradient id="SVGID_6_" gradientUnits="userSpaceOnUse" x1="768.1953" y1="-20.3704" x2="770.8321" y2="-20.3704" gradientTransform="matrix(1 0 0 1 -759.3352 50.124)">
			<stop  offset="0" style="stop-color:#2E56A6"/>
			<stop  offset="1" style="stop-color:#0190C1"/>
		</linearGradient>
		<rect x="8.9" y="24.7" class="st28" width="2.6" height="10.2"/>
		<g>
			
				<linearGradient id="SVGID_7_" gradientUnits="userSpaceOnUse" x1="660.3653" y1="-57.7027" x2="665.0681" y2="-68.2838" gradientTransform="matrix(1 -2.200000e-03 2.200000e-03 1 -652.5645 104.7223)">
				<stop  offset="0" style="stop-color:#2E56A6"/>
				<stop  offset="1" style="stop-color:#0190C1"/>
			</linearGradient>
			<path class="st29" d="M10.2,34.2c-3.1,0-5.7,2.6-5.7,5.7c0,1.8,0.8,3.3,2.1,4.4l0.9,0.6c0.8,0.4,1.7,0.7,2.7,0.7
				c3.1,0,5.7-2.6,5.7-5.7S13.3,34.2,10.2,34.2z"/>
			<path class="st23" d="M10.2,34.2c-1.6,0-3,0.7-4,1.7C7.1,34.9,8.5,34.3,10.2,34.2c3.1,0.1,5.6,2.6,5.6,5.7c0,1.6-0.6,3-1.6,4
				c1-1,1.7-2.5,1.7-4.1C15.9,36.7,13.3,34.2,10.2,34.2z"/>
		</g>
		<g>
			
				<linearGradient id="SVGID_8_" gradientUnits="userSpaceOnUse" x1="661.7977" y1="-60.9256" x2="663.8243" y2="-65.4853" gradientTransform="matrix(1 -2.200000e-03 2.200000e-03 1 -652.5645 104.7223)">
				<stop  offset="0" style="stop-color:#FFFFFF"/>
				<stop  offset="1" style="stop-color:#C9C7C7"/>
			</linearGradient>
			<path class="st30" d="M10.2,37.5c-1.4,0-2.4,1.1-2.4,2.5c0,0.8,0.3,1.4,0.9,1.9L9,42c0.3,0.2,0.7,0.3,1.2,0.3
				c1.4,0,2.4-1.1,2.4-2.5C12.6,38.5,11.5,37.4,10.2,37.5z"/>
			<path class="st23" d="M10.2,37.5c-0.7,0-1.3,0.3-1.7,0.7C8.9,37.8,9.5,37.5,10.2,37.5c1.3,0,2.4,1.1,2.4,2.5
				c0,0.7-0.3,1.3-0.7,1.7c0.5-0.4,0.7-1.1,0.7-1.7C12.6,38.5,11.5,37.4,10.2,37.5z"/>
		</g>
	</g>
	<g>
		
			<linearGradient id="SVGID_9_" gradientUnits="userSpaceOnUse" x1="1156.8383" y1="-20.3704" x2="1159.4751" y2="-20.3704" gradientTransform="matrix(1 0 0 1 -759.3352 50.124)">
			<stop  offset="0" style="stop-color:#2E56A6"/>
			<stop  offset="1" style="stop-color:#0190C1"/>
		</linearGradient>
		<rect x="397.5" y="24.7" class="st31" width="2.6" height="10.2"/>
		<g>
			
				<linearGradient id="SVGID_10_" gradientUnits="userSpaceOnUse" x1="1049.0063" y1="-56.8476" x2="1053.7091" y2="-67.4288" gradientTransform="matrix(1 -2.200000e-03 2.200000e-03 1 -652.5645 104.7223)">
				<stop  offset="0" style="stop-color:#2E56A6"/>
				<stop  offset="1" style="stop-color:#0190C1"/>
			</linearGradient>
			<path class="st32" d="M398.8,34.2c-3.1,0-5.7,2.6-5.7,5.7c0,1.8,0.8,3.3,2.1,4.4l0.9,0.6c0.8,0.4,1.7,0.7,2.7,0.7
				c3.1,0,5.7-2.6,5.7-5.7S401.9,34.2,398.8,34.2z"/>
			<path class="st23" d="M398.8,34.2c-1.6,0-3,0.7-4,1.7C395.8,34.9,397.2,34.3,398.8,34.2c3.1,0.1,5.6,2.6,5.6,5.7
				c0,1.6-0.6,3-1.6,4c1-1,1.7-2.5,1.7-4.1C404.5,36.7,401.9,34.2,398.8,34.2z"/>
		</g>
		<g>
			
				<linearGradient id="SVGID_11_" gradientUnits="userSpaceOnUse" x1="1050.4388" y1="-60.0706" x2="1052.4653" y2="-64.6303" gradientTransform="matrix(1 -2.200000e-03 2.200000e-03 1 -652.5645 104.7223)">
				<stop  offset="0" style="stop-color:#FFFFFF"/>
				<stop  offset="1" style="stop-color:#C9C7C7"/>
			</linearGradient>
			<path class="st33" d="M398.8,37.5c-1.4,0-2.4,1.1-2.4,2.5c0,0.8,0.3,1.4,0.9,1.9l0.4,0.3c0.3,0.2,0.7,0.3,1.2,0.3
				c1.4,0,2.4-1.1,2.4-2.5C401.3,38.5,400.2,37.4,398.8,37.5z"/>
			<path class="st23" d="M398.8,37.5c-0.7,0-1.3,0.3-1.7,0.7C397.5,37.8,398.1,37.5,398.8,37.5c1.3,0,2.4,1.1,2.4,2.5
				c0,0.7-0.3,1.3-0.7,1.7c0.5-0.4,0.7-1.1,0.7-1.7C401.3,38.5,400.2,37.4,398.8,37.5z"/>
		</g>
	</g>
	<linearGradient id="SVGID_12_" gradientUnits="userSpaceOnUse" x1="204.5" y1="25.0162" x2="204.5" y2="22.3389">
		<stop  offset="0" style="stop-color:#2E56A6"/>
		<stop  offset="1" style="stop-color:#0190C1"/>
	</linearGradient>
	<path class="st34" d="M398.8,25H10.2c-0.7,0-1.3-0.6-1.3-1.3v0c0-0.7,0.6-1.3,1.3-1.3h388.6c0.7,0,1.3,0.6,1.3,1.3v0
		C400.1,24.4,399.5,25,398.8,25z"/>
</g>
<g>
	<g>
		
			<linearGradient id="SVGID_13_" gradientUnits="userSpaceOnUse" x1="-2566.0396" y1="-983.6359" x2="-2559.2571" y2="-983.6359" gradientTransform="matrix(0 -1 1 0 -470.4909 -2582.2451)">
			<stop  offset="0" style="stop-color:#FA4A09"/>
			<stop  offset="1" style="stop-color:#FF8517"/>
		</linearGradient>
		<polygon class="st35" points="-1441,-23 -1441,-16.2 -1467.2,-16.2 -1467.2,-23 		"/>
		<g>
			
				<linearGradient id="SVGID_14_" gradientUnits="userSpaceOnUse" x1="-2673.6541" y1="-1003.4415" x2="-2661.5576" y2="-1030.6582" gradientTransform="matrix(-2.200000e-03 -1 1 -2.200000e-03 -415.8926 -2689.0156)">
				<stop  offset="0" style="stop-color:#FA4A09"/>
				<stop  offset="1" style="stop-color:#FF8517"/>
			</linearGradient>
			<path class="st36" d="M-1442.6-19.6c0,8.1,6.6,14.6,14.6,14.6c4.5,0,8.5-2.1,11.2-5.3l1.6-2.3c1.1-2.1,1.8-4.5,1.8-7
				c0-8.1-6.6-14.6-14.6-14.6C-1436.1-34.2-1442.7-27.6-1442.6-19.6z"/>
			<path class="st23" d="M-1442.6-19.6c0,4.1,1.7,7.8,4.4,10.4c-2.6-2.6-4.2-6.2-4.2-10.2c0-8.1,6.5-14.6,14.6-14.6
				c4,0,7.6,1.6,10.2,4.2c-2.7-2.7-6.3-4.4-10.4-4.3C-1436.1-34.2-1442.7-27.6-1442.6-19.6z"/>
		</g>
		<g>
			
				<linearGradient id="SVGID_15_" gradientUnits="userSpaceOnUse" x1="-2669.9695" y1="-1011.7314" x2="-2664.7568" y2="-1023.4599" gradientTransform="matrix(-2.200000e-03 -1 1 -2.200000e-03 -415.8926 -2689.0156)">
				<stop  offset="0" style="stop-color:#FFFFFF"/>
				<stop  offset="1" style="stop-color:#C9C7C7"/>
			</linearGradient>
			<path class="st37" d="M-1434.3-19.6c0,3.5,2.8,6.3,6.3,6.3c1.9,0,3.7-0.9,4.8-2.3l0.7-1c0.5-0.9,0.8-1.9,0.8-3
				c0-3.5-2.8-6.3-6.3-6.3C-1431.5-25.9-1434.3-23.1-1434.3-19.6z"/>
			<path class="st23" d="M-1434.3-19.6c0,1.8,0.7,3.3,1.9,4.5C-1433.6-16.2-1434.2-17.8-1434.3-19.6c0.1-3.4,2.9-6.2,6.4-6.2
				c1.7,0,3.3,0.7,4.4,1.8c-1.1-1.2-2.7-1.9-4.5-1.9C-1431.5-25.9-1434.3-23.1-1434.3-19.6z"/>
		</g>
	</g>
	<g>
		
			<linearGradient id="SVGID_16_" gradientUnits="userSpaceOnUse" x1="-2756.2434" y1="-983.6359" x2="-2749.4612" y2="-983.6359" gradientTransform="matrix(0 -1 1 0 -470.4909 -2582.2451)">
			<stop  offset="0" style="stop-color:#FA4A09"/>
			<stop  offset="1" style="stop-color:#FF8517"/>
		</linearGradient>
		<polygon class="st38" points="-1441,167.2 -1441,174 -1467.2,174 -1467.2,167.2 		"/>
		<g>
			
				<linearGradient id="SVGID_17_" gradientUnits="userSpaceOnUse" x1="-2863.8569" y1="-1003.8599" x2="-2851.7605" y2="-1031.0767" gradientTransform="matrix(-2.200000e-03 -1 1 -2.200000e-03 -415.8926 -2689.0156)">
				<stop  offset="0" style="stop-color:#FA4A09"/>
				<stop  offset="1" style="stop-color:#FF8517"/>
			</linearGradient>
			<path class="st39" d="M-1442.6,170.6c0,8.1,6.6,14.6,14.6,14.6c4.5,0,8.5-2.1,11.2-5.3l1.6-2.3c1.1-2.1,1.8-4.5,1.8-7
				c0-8.1-6.6-14.6-14.6-14.6C-1436.1,156-1442.7,162.6-1442.6,170.6z"/>
			<path class="st23" d="M-1442.6,170.6c0,4.1,1.7,7.8,4.4,10.4c-2.6-2.6-4.2-6.2-4.2-10.2c0-8.1,6.5-14.6,14.6-14.6
				c4,0,7.6,1.6,10.2,4.2c-2.7-2.7-6.3-4.4-10.4-4.3C-1436.1,156-1442.7,162.6-1442.6,170.6z"/>
		</g>
		<g>
			
				<linearGradient id="SVGID_18_" gradientUnits="userSpaceOnUse" x1="-2860.1724" y1="-1012.1499" x2="-2854.9597" y2="-1023.8784" gradientTransform="matrix(-2.200000e-03 -1 1 -2.200000e-03 -415.8926 -2689.0156)">
				<stop  offset="0" style="stop-color:#FFFFFF"/>
				<stop  offset="1" style="stop-color:#C9C7C7"/>
			</linearGradient>
			<path class="st40" d="M-1434.3,170.6c0,3.5,2.8,6.3,6.3,6.3c1.9,0,3.7-0.9,4.8-2.3l0.7-1c0.5-0.9,0.8-1.9,0.8-3
				c0-3.5-2.8-6.3-6.3-6.3C-1431.5,164.3-1434.3,167.1-1434.3,170.6z"/>
			<path class="st23" d="M-1434.3,170.6c0,1.8,0.7,3.3,1.9,4.5C-1433.6,174-1434.2,172.4-1434.3,170.6c0.1-3.4,2.9-6.2,6.4-6.2
				c1.7,0,3.3,0.7,4.4,1.8c-1.1-1.2-2.7-1.9-4.5-1.9C-1431.5,164.3-1434.3,167.1-1434.3,170.6z"/>
		</g>
	</g>
	
		<linearGradient id="SVGID_19_" gradientUnits="userSpaceOnUse" x1="-339.3866" y1="-1727.8339" x2="-339.3866" y2="-1734.7202" gradientTransform="matrix(0 1 -1 0 -3200.8767 414.8919)">
		<stop  offset="0" style="stop-color:#FA4A09"/>
		<stop  offset="1" style="stop-color:#FF8517"/>
	</linearGradient>
	<path class="st41" d="M-1473,171.8V-20.7c0-1.2,1-2.2,2.2-2.2h2.4c1.2,0,2.2,1,2.2,2.2v192.5c0,1.2-1,2.2-2.2,2.2h-2.4
		C-1472,174-1473,173-1473,171.8z"/>
</g>
<g>
	<g>
		
			<linearGradient id="SVGID_20_" gradientUnits="userSpaceOnUse" x1="-2566.0396" y1="-1683.5371" x2="-2559.2571" y2="-1683.5371" gradientTransform="matrix(0 -1 -1 0 -3690.5381 -2582.2451)">
			<stop  offset="0" style="stop-color:#FA4A09"/>
			<stop  offset="1" style="stop-color:#FF8517"/>
		</linearGradient>
		<polygon class="st42" points="-2020.1,-23 -2020.1,-16.2 -1993.9,-16.2 -1993.9,-23 		"/>
		<g>
			
				<linearGradient id="SVGID_21_" gradientUnits="userSpaceOnUse" x1="-2672.1143" y1="-1703.3394" x2="-2660.0178" y2="-1730.556" gradientTransform="matrix(2.200000e-03 -1 -1 -2.200000e-03 -3745.1365 -2689.0156)">
				<stop  offset="0" style="stop-color:#FA4A09"/>
				<stop  offset="1" style="stop-color:#FF8517"/>
			</linearGradient>
			<path class="st43" d="M-2018.5-19.6c0,8.1-6.6,14.6-14.6,14.6c-4.5,0-8.5-2.1-11.2-5.3l-1.6-2.3c-1.1-2.1-1.8-4.5-1.8-7
				c0-8.1,6.6-14.6,14.6-14.6C-2025-34.2-2018.5-27.6-2018.5-19.6z"/>
			<path class="st23" d="M-2018.5-19.6c0,4.1-1.7,7.8-4.4,10.4c2.6-2.6,4.2-6.2,4.2-10.2c0-8.1-6.5-14.6-14.6-14.6
				c-4,0-7.6,1.6-10.2,4.2c2.7-2.7,6.3-4.4,10.4-4.3C-2025-34.2-2018.5-27.6-2018.5-19.6z"/>
		</g>
		<g>
			
				<linearGradient id="SVGID_22_" gradientUnits="userSpaceOnUse" x1="-2668.4297" y1="-1711.6293" x2="-2663.217" y2="-1723.3578" gradientTransform="matrix(2.200000e-03 -1 -1 -2.200000e-03 -3745.1365 -2689.0156)">
				<stop  offset="0" style="stop-color:#FFFFFF"/>
				<stop  offset="1" style="stop-color:#C9C7C7"/>
			</linearGradient>
			<path class="st44" d="M-2026.8-19.6c0,3.5-2.8,6.3-6.3,6.3c-1.9,0-3.7-0.9-4.8-2.3l-0.7-1c-0.5-0.9-0.8-1.9-0.8-3
				c0-3.5,2.8-6.3,6.3-6.3C-2029.6-25.9-2026.8-23.1-2026.8-19.6z"/>
			<path class="st23" d="M-2026.8-19.6c0,1.8-0.7,3.3-1.9,4.5C-2027.6-16.2-2026.9-17.8-2026.8-19.6c-0.1-3.4-2.9-6.2-6.4-6.2
				c-1.7,0-3.3,0.7-4.4,1.8c1.1-1.2,2.7-1.9,4.5-1.9C-2029.6-25.9-2026.8-23.1-2026.8-19.6z"/>
		</g>
	</g>
	<g>
		
			<linearGradient id="SVGID_23_" gradientUnits="userSpaceOnUse" x1="-2756.2434" y1="-1683.5371" x2="-2749.4612" y2="-1683.5371" gradientTransform="matrix(0 -1 -1 0 -3690.5381 -2582.2451)">
			<stop  offset="0" style="stop-color:#FA4A09"/>
			<stop  offset="1" style="stop-color:#FF8517"/>
		</linearGradient>
		<polygon class="st45" points="-2020.1,167.2 -2020.1,174 -1993.9,174 -1993.9,167.2 		"/>
		<g>
			
				<linearGradient id="SVGID_24_" gradientUnits="userSpaceOnUse" x1="-2862.3171" y1="-1703.7578" x2="-2850.2209" y2="-1730.9745" gradientTransform="matrix(2.200000e-03 -1 -1 -2.200000e-03 -3745.1365 -2689.0156)">
				<stop  offset="0" style="stop-color:#FA4A09"/>
				<stop  offset="1" style="stop-color:#FF8517"/>
			</linearGradient>
			<path class="st46" d="M-2018.5,170.6c0,8.1-6.6,14.6-14.6,14.6c-4.5,0-8.5-2.1-11.2-5.3l-1.6-2.3c-1.1-2.1-1.8-4.5-1.8-7
				c0-8.1,6.6-14.6,14.6-14.6C-2025,156-2018.5,162.6-2018.5,170.6z"/>
			<path class="st23" d="M-2018.5,170.6c0,4.1-1.7,7.8-4.4,10.4c2.6-2.6,4.2-6.2,4.2-10.2c0-8.1-6.5-14.6-14.6-14.6
				c-4,0-7.6,1.6-10.2,4.2c2.7-2.7,6.3-4.4,10.4-4.3C-2025,156-2018.5,162.6-2018.5,170.6z"/>
		</g>
		<g>
			
				<linearGradient id="SVGID_25_" gradientUnits="userSpaceOnUse" x1="-2858.6328" y1="-1712.0477" x2="-2853.4202" y2="-1723.7762" gradientTransform="matrix(2.200000e-03 -1 -1 -2.200000e-03 -3745.1365 -2689.0156)">
				<stop  offset="0" style="stop-color:#FFFFFF"/>
				<stop  offset="1" style="stop-color:#C9C7C7"/>
			</linearGradient>
			<path class="st47" d="M-2026.8,170.6c0,3.5-2.8,6.3-6.3,6.3c-1.9,0-3.7-0.9-4.8-2.3l-0.7-1c-0.5-0.9-0.8-1.9-0.8-3
				c0-3.5,2.8-6.3,6.3-6.3C-2029.6,164.3-2026.8,167.1-2026.8,170.6z"/>
			<path class="st23" d="M-2026.8,170.6c0,1.8-0.7,3.3-1.9,4.5C-2027.6,174-2026.9,172.4-2026.8,170.6c-0.1-3.4-2.9-6.2-6.4-6.2
				c-1.7,0-3.3,0.7-4.4,1.8c1.1-1.2,2.7-1.9,4.5-1.9C-2029.6,164.3-2026.8,167.1-2026.8,170.6z"/>
		</g>
	</g>
	
		<linearGradient id="SVGID_26_" gradientUnits="userSpaceOnUse" x1="-339.3866" y1="-1027.9326" x2="-339.3866" y2="-1034.8188" gradientTransform="matrix(0 1 1 0 -960.1524 414.8919)">
		<stop  offset="0" style="stop-color:#FA4A09"/>
		<stop  offset="1" style="stop-color:#FF8517"/>
	</linearGradient>
	<path class="st48" d="M-1988.1,171.8V-20.7c0-1.2-1-2.2-2.2-2.2h-2.4c-1.2,0-2.2,1-2.2,2.2v192.5c0,1.2,1,2.2,2.2,2.2h2.4
		C-1989.1,174-1988.1,173-1988.1,171.8z"/>
</g>
<g>
	<g>
		<linearGradient id="SVGID_27_" gradientUnits="userSpaceOnUse" x1="-1894.3154" y1="-246.3956" x2="-1543.3458" y2="-246.3956">
			<stop  offset="0" style="stop-color:#2E56A6"/>
			<stop  offset="1" style="stop-color:#0190C1"/>
		</linearGradient>
		<path class="st49" d="M-1556.5-195.8h-324.7c-7.2,0-13.1-5.9-13.1-13.3v-74.7c0-7.3,5.9-13.3,13.1-13.3h324.7
			c7.2,0,13.1,5.9,13.1,13.3v74.7C-1543.3-201.7-1549.2-195.8-1556.5-195.8z"/>
		<path class="st50" d="M-1553.9-207.5H-1881c-7.3,0-13.3-5.9-13.3-13.3v-74.7c0-7.3,5.9-13.3,13.3-13.3h327.1
			c7.3,0,13.3,5.9,13.3,13.3v74.7C-1540.7-213.5-1546.6-207.5-1553.9-207.5z"/>
		<linearGradient id="SVGID_28_" gradientUnits="userSpaceOnUse" x1="-1827.1837" y1="-146.2572" x2="-1609.4081" y2="-364.0329">
			<stop  offset="0" style="stop-color:#FFFFFF"/>
			<stop  offset="1" style="stop-color:#C9C7C7"/>
		</linearGradient>
		<path class="st51" d="M-1556.6-204.5h-323.3c-7.3,0-13.3-6-13.3-13.3v-74.6c0-7.3,6-13.3,13.3-13.3h323.3c7.3,0,13.3,6,13.3,13.3
			v74.6C-1543.3-210.5-1549.3-204.5-1556.6-204.5z"/>
	</g>
	<g>
		<linearGradient id="SVGID_29_" gradientUnits="userSpaceOnUse" x1="-2405.6538" y1="-13.6704" x2="-2054.6843" y2="-13.6704">
			<stop  offset="0" style="stop-color:#008488"/>
			<stop  offset="1" style="stop-color:#24D195"/>
		</linearGradient>
		<path class="st52" d="M-2067.8,36.9h-324.7c-7.2,0-13.1-5.9-13.1-13.3V-51c0-7.3,5.9-13.3,13.1-13.3h324.7
			c7.2,0,13.1,5.9,13.1,13.3v74.7C-2054.7,31-2060.6,36.9-2067.8,36.9z"/>
		<path class="st50" d="M-2065.3,25.2h-327.1c-7.3,0-13.3-5.9-13.3-13.3v-74.7c0-7.3,5.9-13.3,13.3-13.3h327.1
			c7.3,0,13.3,5.9,13.3,13.3v74.7C-2052,19.2-2058,25.2-2065.3,25.2z"/>
		<linearGradient id="SVGID_30_" gradientUnits="userSpaceOnUse" x1="-2338.5222" y1="86.468" x2="-2120.7466" y2="-131.3076">
			<stop  offset="0" style="stop-color:#FFFFFF"/>
			<stop  offset="1" style="stop-color:#C9C7C7"/>
		</linearGradient>
		<path class="st53" d="M-2068,28.2h-323.3c-7.3,0-13.3-6-13.3-13.3v-74.6c0-7.3,6-13.3,13.3-13.3h323.3c7.3,0,13.3,6,13.3,13.3
			v74.6C-2054.7,22.2-2060.6,28.2-2068,28.2z"/>
	</g>
	<g>
		<linearGradient id="SVGID_31_" gradientUnits="userSpaceOnUse" x1="-2405.6538" y1="170.6073" x2="-2054.6843" y2="170.6073">
			<stop  offset="0" style="stop-color:#008488"/>
			<stop  offset="1" style="stop-color:#00CBE1"/>
		</linearGradient>
		<path class="st54" d="M-2067.8,221.2h-324.7c-7.2,0-13.1-5.9-13.1-13.3v-74.7c0-7.3,5.9-13.3,13.1-13.3h324.7
			c7.2,0,13.1,5.9,13.1,13.3v74.7C-2054.7,215.3-2060.6,221.2-2067.8,221.2z"/>
		<path class="st50" d="M-2065.3,209.5h-327.1c-7.3,0-13.3-5.9-13.3-13.3v-74.7c0-7.3,5.9-13.3,13.3-13.3h327.1
			c7.3,0,13.3,5.9,13.3,13.3v74.7C-2052,203.5-2058,209.5-2065.3,209.5z"/>
		<linearGradient id="SVGID_32_" gradientUnits="userSpaceOnUse" x1="-2338.5222" y1="270.7457" x2="-2120.7466" y2="52.97">
			<stop  offset="0" style="stop-color:#FFFFFF"/>
			<stop  offset="1" style="stop-color:#C9C7C7"/>
		</linearGradient>
		<path class="st55" d="M-2068,212.5h-323.3c-7.3,0-13.3-6-13.3-13.3v-74.6c0-7.3,6-13.3,13.3-13.3h323.3c7.3,0,13.3,6,13.3,13.3
			v74.6C-2054.7,206.5-2060.6,212.5-2068,212.5z"/>
	</g>
	<g>
		<linearGradient id="SVGID_33_" gradientUnits="userSpaceOnUse" x1="-1405.9889" y1="170.6073" x2="-1055.0193" y2="170.6073">
			<stop  offset="0" style="stop-color:#F59009"/>
			<stop  offset="1" style="stop-color:#F4DB2C"/>
		</linearGradient>
		<path class="st56" d="M-1068.1,221.2h-324.7c-7.2,0-13.1-5.9-13.1-13.3v-74.7c0-7.3,5.9-13.3,13.1-13.3h324.7
			c7.2,0,13.1,5.9,13.1,13.3v74.7C-1055,215.3-1060.9,221.2-1068.1,221.2z"/>
		<path class="st50" d="M-1065.6,209.5h-327.1c-7.3,0-13.3-5.9-13.3-13.3v-74.7c0-7.3,5.9-13.3,13.3-13.3h327.1
			c7.3,0,13.3,5.9,13.3,13.3v74.7C-1052.3,203.5-1058.3,209.5-1065.6,209.5z"/>
		<linearGradient id="SVGID_34_" gradientUnits="userSpaceOnUse" x1="-1338.8573" y1="270.7457" x2="-1121.0815" y2="52.97">
			<stop  offset="0" style="stop-color:#FFFFFF"/>
			<stop  offset="1" style="stop-color:#C9C7C7"/>
		</linearGradient>
		<path class="st57" d="M-1068.3,212.5h-323.3c-7.3,0-13.3-6-13.3-13.3v-74.6c0-7.3,6-13.3,13.3-13.3h323.3c7.3,0,13.3,6,13.3,13.3
			v74.6C-1055,206.5-1061,212.5-1068.3,212.5z"/>
	</g>
	<g>
		<linearGradient id="SVGID_35_" gradientUnits="userSpaceOnUse" x1="-1405.9889" y1="-13.6704" x2="-1055.0193" y2="-13.6704">
			<stop  offset="0" style="stop-color:#FA4A09"/>
			<stop  offset="1" style="stop-color:#FF8517"/>
		</linearGradient>
		<path class="st58" d="M-1068.1,36.9h-324.7c-7.2,0-13.1-5.9-13.1-13.3V-51c0-7.3,5.9-13.3,13.1-13.3h324.7
			c7.2,0,13.1,5.9,13.1,13.3v74.7C-1055,31-1060.9,36.9-1068.1,36.9z"/>
		<path class="st50" d="M-1065.6,25.2h-327.1c-7.3,0-13.3-5.9-13.3-13.3v-74.7c0-7.3,5.9-13.3,13.3-13.3h327.1
			c7.3,0,13.3,5.9,13.3,13.3v74.7C-1052.3,19.2-1058.3,25.2-1065.6,25.2z"/>
		<linearGradient id="SVGID_36_" gradientUnits="userSpaceOnUse" x1="-1338.8573" y1="86.468" x2="-1121.0815" y2="-131.3076">
			<stop  offset="0" style="stop-color:#FFFFFF"/>
			<stop  offset="1" style="stop-color:#C9C7C7"/>
		</linearGradient>
		<path class="st59" d="M-1068.3,28.2h-323.3c-7.3,0-13.3-6-13.3-13.3v-74.6c0-7.3,6-13.3,13.3-13.3h323.3c7.3,0,13.3,6,13.3,13.3
			v74.6C-1055,22.2-1061,28.2-1068.3,28.2z"/>
	</g>
</g>
<g>
	
		<text transform="matrix(1 0 0 1 -1807.3652 -270.5596)" class="st2" style="font-family:'GEDinarTwo-Medium'; font-size:23.4834px;">ةرادلا سلجم سيئر</text>
	<g>
		
			<text transform="matrix(1 0 0 1 -1858.999 -229.6953)" class="st3" style="font-family:'GEDinarTwo-Medium'; font-size:24.788px;">يناطحقلا لياعم نب لادبع</text>
	</g>
</g>
<g>
	<text transform="matrix(1 0 0 1 -2351.9756 1.9551)" class="st3" style="font-family:'GEDinarTwo-Medium'; font-size:24.788px;">يرسودلا لادبع نب دمحم</text>
</g>
<g>
	<text transform="matrix(1 0 0 1 -2300.8647 -40.252)" class="st2" style="font-family:'GEDinarTwo-Medium'; font-size:23.4834px;">يلاملا فرشملا</text>
</g>
<g>
	<text transform="matrix(1 0 0 1 -1340.1372 6.9551)" class="st3" style="font-family:'GEDinarTwo-Medium'; font-size:24.788px;">ينرقلا لادبع نب دعس</text>
</g>
<g>
	<text transform="matrix(1 0 0 1 -1338.7563 -37.252)" class="st2" style="font-family:'GEDinarTwo-Medium'; font-size:23.4834px;">ةرادلا سلجم سيئر بئان</text>
</g>
<g>
	<text transform="matrix(1 0 0 1 -2368.0962 186.2236)" class="st3" style="font-family:'GEDinarTwo-Medium'; font-size:24.788px;">يواعملا رصان نب نمحرلادبع</text>
</g>
<g>
	
		<text transform="matrix(1 0 0 1 -2316.1802 142.0166)" class="st2" style="font-family:'GEDinarTwo-Medium'; font-size:23.4834px;">ةرادلا سلجم وضع</text>
</g>
<g>
	<text transform="matrix(1 0 0 1 -1336.8374 189.2236)" class="st3" style="font-family:'GEDinarTwo-Medium'; font-size:24.788px;">يدماغلا دعس نب دماح</text>
</g>
<g>
	
		<text transform="matrix(1 0 0 1 -1314.6538 145.0166)" class="st2" style="font-family:'GEDinarTwo-Medium'; font-size:23.4834px;">ةرادلا سلجم وضع</text>
</g>
<image style="overflow:visible;" width="1186" height="474" xlink:href="E264D03B.jpg"  transform="matrix(0.6118 0 0 0.6118 -2505 623)">
</image>
</svg>
