<?xml version="1.0" encoding="utf-8"?>
<!-- Generator: Adobe Illustrator 24.3.0, SVG Export Plug-In . SVG Version: 6.00 Build 0)  -->
<svg version="1.1" id="Layer_1" xmlns="http://www.w3.org/2000/svg" xmlns:xlink="http://www.w3.org/1999/xlink" x="0px" y="0px"
	 viewBox="0 0 783.7 324" style="enable-background:new 0 0 783.7 324;" xml:space="preserve">
<style type="text/css">
	.st0{opacity:0.8;}
	.st1{fill:#F2F2F2;}
</style>
<g class="st0">
	<g>
		<path class="st1" d="M659.2,259.5c-0.3,0-0.3-0.6,0-0.9l5.2-11.4c0.6-0.6,0.9-0.9,1.2-0.9c0.6,0,2.9,1.5,7.3,4.4
			c4.4,2.9,6.7,4.6,6.7,5.2c0,1.7-2.1,5.8-5.8,12c-0.6,0.9-0.9,1.2-1.5,0.9C668,265.3,663.5,262.4,659.2,259.5"/>
		<path class="st1" d="M638.5,68.3c-0.3,0-0.3-0.6,0-0.9l5.2-11.4c0.6-0.6,0.9-0.9,1.2-0.9c0.6,0,2.9,1.5,7.3,4.4
			c4.4,2.9,6.7,4.6,6.7,5.2c0,1.7-2.1,5.8-5.8,12c-0.6,0.9-0.9,1.2-1.5,0.9C647.2,74.1,642.9,71.2,638.5,68.3"/>
		<path class="st1" d="M647.6,87.3c-0.3-0.3,0-0.9,0-0.9l5.2-11.4c0.6-0.6,0.9-0.9,1.2-0.9c0.6,0,2.9,1.5,7.3,4.4
			c4.4,2.9,6.7,4.6,6.7,5.2c0,1.7-2.1,5.8-5.8,12c-0.6,0.9-0.9,1.2-1.5,0.9C656.5,93.1,652,90.2,647.6,87.3"/>
		<path class="st1" d="M757.5,179.6c-3.8-0.2-7.9,0.7-11.6,2c-39.1,14.2-61.6,56.8-61.2,57.4c0.2,0.3,16.6,3.1,26.7-1.5
			c22-9.9,33.3-31.1,32.8-31.5c-0.3-0.3-0.9-0.2-1.4,0.5c0,0-6.6,11.3-29.7,21.7c-6.4,2.9-13.2,3.3-19.5,2.7
			c11.8-14.5,22.9-24.9,34.8-32.4c8.8-5.6,16.6-8.6,23.9-9.4c1.3-0.1,2.6-0.2,3.7-0.1c0.5,0.1,1.2,0,1.7-0.9c0.8-1,1-5.2,1-7.3
			C758.7,180.2,758.2,179.6,757.5,179.6z"/>
		<path class="st1" d="M602.3,55.2c0,0-2.2,4.4-4.2,12.2c2.9,2.6,4.4,4.1,4.4,4.1l0,0l0,0l0,0c50.9,49.6,59.9,131.6,61.3,152.4
			c1.4,1.3,3.7,2.8,5.3,3.8C669.5,206.7,666.8,104.8,602.3,55.2z"/>
		<path class="st1" d="M667,230.5c-1.7-1-4.3-2.8-5.8-4.2c-12.4-11.5-55.4-63.2-58.5-147.2c-1.3-1.3-2.6-2.7-3.8-3.9l0,0l0,0l0,0
			c0,0-0.7-0.7-1.9-1.9c-1.5,8.7-2.4,20-0.6,33.3c10.1,71.7,56.2,118.8,61.7,122.3l-1.9-0.2c-30-3-58.3-16-79.7-37.8
			c-0.7-0.7-17.1-19.6-22.1-32.6c0,0,32.2-0.9,52.4,21.5c0.3,0.3,0.8-0.1,0.6-0.6c-3.4-4.6-7.2-8.9-10.9-12.5
			c-21.3-20.7-45-23.2-51.5-22.4c0,0,1.4,17.4,21.6,46c21.8,30.9,53.9,42.9,53.9,42.7c11,4.1,22.8,5.9,34.6,5.7
			c3.1-0.1,6.4-0.2,9.4-0.8l2.8-2.9c3,1.6,6.9,3.6,11.5,5.5c0.2,0.1,0.3,0,0.3-0.2c0.1-0.8,0.3-4.3,0.3-4.3
			C674.7,234.8,669.9,232.2,667,230.5z"/>
		<path class="st1" d="M726.4,121c0-0.1-0.2-6.3-1.5-7l-0.6-0.3l-0.6,0.3c-15.1,10.1-26.3,26.6-35.1,52
			c-5.8,16.7-9.8,35.1-12.3,56.1c-0.3,2.7-0.7,5.7-0.9,8.8c1.4,0.7,2.8,1.3,4.3,1.9c0.2-2.1,0.5-4.3,0.8-7.2
			c1.4-10.9,3.4-21.6,6-31.7c5.2-20.3,14.6-48.9,36-64.7c2.1-1.5,3.8-5,3.7-7.7L726.4,121z"/>
	</g>
	<g>
		<g>
			<path class="st1" d="M39.9,173.2c1.6,0,2.9-0.6,4.1-1.7s1.7-2.6,1.7-4.1s-0.6-2.9-1.7-4.1s-2.6-1.7-4.1-1.7
				c-1.6,0-2.9,0.6-4.1,1.7s-1.7,2.6-1.7,4.1c0,1.6,0.6,2.9,1.7,4.1S38.4,173.2,39.9,173.2z"/>
			<path class="st1" d="M56.3,173.2c1.6,0,2.9-0.6,4.1-1.7s1.7-2.6,1.7-4.1s-0.6-2.9-1.7-4.1s-2.6-1.7-4.1-1.7
				c-1.6,0-2.9,0.6-4.1,1.7s-1.7,2.6-1.7,4.1c0,1.6,0.6,2.9,1.7,4.1S54.7,173.2,56.3,173.2z"/>
			<path class="st1" d="M69.5,239.6c-1.6,0-2.9,0.6-4.1,1.7c-1.2,1.2-1.7,2.6-1.7,4.1c0,1.6,0.6,2.9,1.7,4.1
				c1.2,1.2,2.6,1.7,4.1,1.7c1.6,0,2.9-0.6,4.1-1.7c1.2-1.2,1.7-2.6,1.7-4.1s-0.6-2.9-1.7-4.1C72.5,240.1,71.1,239.6,69.5,239.6z"/>
			<path class="st1" d="M85.9,239.6c-1.6,0-2.9,0.6-4.1,1.7c-1.2,1.2-1.7,2.6-1.7,4.1c0,1.6,0.6,2.9,1.7,4.1
				c1.2,1.2,2.6,1.7,4.1,1.7s2.9-0.6,4.1-1.7c1.2-1.2,1.7-2.6,1.7-4.1s-0.6-2.9-1.7-4.1C88.8,240.1,87.4,239.6,85.9,239.6z"/>
			<path class="st1" d="M117.4,239.6c-1.6,0-2.9,0.6-4.1,1.7c-1.2,1.2-1.7,2.6-1.7,4.1s0.6,2.9,1.7,4.1c1.2,1.2,2.6,1.7,4.1,1.7
				c1.6,0,2.9-0.6,4.1-1.7s1.7-2.6,1.7-4.1c0-1.6-0.6-2.9-1.7-4.1C120.4,240.1,119,239.6,117.4,239.6z"/>
			<path class="st1" d="M123.4,182.9c-2.3,1.5-3.5,3.3-3.5,5.3v26.3c0,5.8-2.4,8.7-7.3,8.7h-5c-2.6,0-4.9-0.6-7.1-1.7
				c-2.1-1.2-3.6-2.6-4.6-4.3v-33.3h-0.5c-1.6,0-3.5,0.7-5.8,2.2c-2.3,1.5-3.5,3.3-3.5,5.3V212c0,1.6,0,3-0.1,4.1
				c-0.1,1-0.3,2.2-0.8,3.5c-0.5,1.2-1,2.1-2.1,2.7c-0.9,0.6-2.2,0.9-3.7,0.9h-8.2c-2.6,0-4.4-0.5-5.7-1.4c-1.2-0.9-1.7-2.6-1.7-4.9
				v-33.3l-0.3-0.1c-1.6-0.3-4.6-0.6-8.8-0.6c-2.8,0-5.9,0.6-9.3,1.7c-3.4,1.2-6.5,2.8-9.5,4.8c-3,2-5.6,4.6-7.7,7.8
				s-3.1,6.5-3.1,10.1c0,1.6,0.2,3.3,0.7,4.9c0.5,1.6,1.2,3.3,2.2,4.9c1,1.7,2.8,3.1,5,4.2c2.2,1,5,1.5,8,1.5c2.1,0,4.6-0.6,7.6-1.7
				c2.4-0.9,4.2-1.9,5.3-2.9c0.2,3.9,1.5,7,3.8,9.2c2.6,2.3,6.2,3.5,10.5,3.5h12.4c7.2,0,11.7-2.9,13.6-8.8c1.7,2.2,3.9,4.2,6.6,5.9
				c3,1.9,6.2,2.9,9.4,2.9h6.7c4.2,0,7.3-1.5,9.5-4.4c2.1-2.9,3.1-6.7,3.1-11.5v-34.2h-0.1C127.7,180.7,125.7,181.4,123.4,182.9z
				 M53.9,186.8v26.6c-1,0.7-2.4,1.4-4.4,2.2c-2.1,0.8-3.7,1.2-5,1.2c-3.3,0-5.8-0.9-7.4-2.9c-1.6-1.9-2.4-4.1-2.4-6.5
				c0-5.3,2.2-10.2,6.5-14.4C45.3,189.1,49.6,186.9,53.9,186.8z"/>
			<path class="st1" d="M172.7,239.6c-1.6,0-2.9,0.6-4.1,1.7c-1.2,1.2-1.7,2.6-1.7,4.1s0.6,2.9,1.7,4.1c1.2,1.2,2.6,1.7,4.1,1.7
				s2.9-0.6,4.1-1.7c1.2-1.2,1.7-2.6,1.7-4.1s-0.6-2.9-1.7-4.1C175.7,240.1,174.3,239.6,172.7,239.6z"/>
			<path class="st1" d="M241.4,157.7c1.5,0,2.8-0.6,3.8-1.6c1-1,1.5-2.3,1.5-3.7s-0.5-2.7-1.5-3.7c-1-1-2.3-1.6-3.8-1.6
				s-2.8,0.6-3.8,1.6s-1.5,2.3-1.5,3.7s0.5,2.7,1.5,3.7C238.6,157.2,239.9,157.7,241.4,157.7z"/>
			<path class="st1" d="M233.3,170.9c1.6,0,2.9-0.6,4.1-1.7c1.2-1.2,1.7-2.6,1.7-4.1c0-1.6-0.6-2.9-1.7-4.1
				c-1.2-1.2-2.6-1.7-4.1-1.7s-2.9,0.6-4.1,1.7c-1.2,1.2-1.7,2.6-1.7,4.1s0.6,2.9,1.7,4.1C230.4,170.3,231.8,170.9,233.3,170.9z"/>
			<path class="st1" d="M243.9,165.1c0,1.6,0.6,2.9,1.7,4.1c1.2,1.2,2.6,1.7,4.1,1.7c1.6,0,2.9-0.6,4.1-1.7c1.2-1.2,1.7-2.6,1.7-4.1
				c0-1.6-0.6-2.9-1.7-4.1c-1.2-1.2-2.6-1.7-4.1-1.7c-1.6,0-2.9,0.6-4.1,1.7C244.4,162.2,243.9,163.6,243.9,165.1z"/>
			<path class="st1" d="M301.7,161.4c-2.3,1.5-3.5,3.3-3.5,5.3v47.7c0,5.8-2.4,8.7-7.3,8.7h-5c-2.6,0-4.9-0.6-7-1.7
				c-2.1-1.2-3.6-2.4-4.6-4.1c0.2-2.2,0.3-4.8,0.3-7.4v-29.2h-0.5c-1.6,0-3.7,0.7-5.9,2.2c-2.3,1.5-3.6,3.3-3.6,5.3V211
				c0,5-0.5,8.2-1.4,9.9c-0.9,1.5-2.9,2.3-6,2.3c-1.6,0-3.6-0.5-5.7-1.4c-2-0.9-3.7-2.2-5-4.1v-35.5h-0.5c-1.6,0-3.7,0.7-5.9,2.2
				c-2.3,1.5-3.6,3.3-3.6,5.3V212c0,1.4,0,2.4,0,3.3c0,0.8-0.1,1.7-0.5,2.9c-0.2,1.2-0.6,2-1,2.7c-0.5,0.6-1,1.2-2,1.6
				c-0.8,0.5-1.9,0.7-3.1,0.7c-5.2,0-9.2-2-11.8-6c0.2-1.5,0.3-3.9,0.3-7.3v-26H218c-1.6,0-3.7,0.7-5.9,2.2
				c-2.3,1.5-3.6,3.3-3.6,5.3v19.5c0,5-0.5,8.2-1.4,9.9c-0.9,1.5-2.9,2.3-6,2.3h-3.8c-2.6,0-4.9-0.6-7.1-1.7
				c-2.1-1.2-3.6-2.6-4.6-4.3v-33.3H185c-1.6,0-3.5,0.7-5.8,2.2c-2.3,1.5-3.5,3.3-3.5,5.3v20.7c0,1.6,0,3-0.1,4.1
				c-0.1,1-0.3,2.2-0.8,3.5c-0.5,1.2-1,2.1-2.1,2.7c-0.9,0.6-2.2,0.9-3.7,0.9h-8.1c-4.9,0-7.3-2.8-7.3-8.7v-55.2H153
				c-1.6,0-3.6,0.7-5.9,2.2c-2.4,1.5-3.6,3.3-3.6,5.3v48.2c0,4.8,1,8.6,3.1,11.5c2.1,2.9,5.3,4.4,9.5,4.4h14.2
				c7.2,0,11.7-2.9,13.6-8.8c1.7,2.2,3.9,4.2,6.6,5.9c3,1.9,6.2,2.9,9.4,2.9h3.8c3.7,0,6.7-0.9,8.8-2.8c1.9-1.6,3.3-3.6,3.9-5.9
				c4.6,5.8,10.3,8.7,17,8.7c3.1,0,5.8-0.9,8-2.8c1.9-1.6,3-3.5,3.5-5.6c1.9,2.4,4.2,4.4,6.9,5.8c3,1.6,6,2.6,9.2,2.6
				c6,0,10.1-2.8,12.1-8.1c1.7,2.1,3.9,3.9,6.6,5.6c2.9,1.7,5.9,2.7,8.9,2.7h6.7c4.2,0,7.3-1.5,9.5-4.4c2.1-2.9,3.1-6.7,3.1-11.5
				v-55.8h-0.5C305.9,159.2,304,159.9,301.7,161.4z"/>
			<path class="st1" d="M325.2,161.5c-2.3,1.5-3.6,3.3-3.6,5.3v64l0.6-0.1c2.9-0.3,5.2-1.9,7-4.3c1.6-2.4,2.6-5.8,2.6-10.1v-57h-0.5
				C329.5,159.3,327.5,160,325.2,161.5z"/>
			<path class="st1" d="M379.6,168.1c1.6,0,2.9-0.6,4.1-1.7c1.2-1.2,1.7-2.6,1.7-4.1c0-1.6-0.6-2.9-1.7-4.1
				c-1.2-1.2-2.6-1.7-4.1-1.7c-1.6,0-2.9,0.6-4.1,1.7c-1.2,1.2-1.7,2.6-1.7,4.1c0,1.6,0.6,2.9,1.7,4.1
				C376.6,167.5,378,168.1,379.6,168.1z"/>
			<path class="st1" d="M395.9,168.1c1.6,0,2.9-0.6,4.1-1.7s1.7-2.6,1.7-4.1c0-1.6-0.6-2.9-1.7-4.1c-1.2-1.2-2.6-1.7-4.1-1.7
				c-1.6,0-2.9,0.6-4.1,1.7c-1.2,1.2-1.7,2.6-1.7,4.1c0,1.6,0.6,2.9,1.7,4.1C393,167.5,394.4,168.1,395.9,168.1z"/>
			<path class="st1" d="M431.6,239.6c-1.6,0-2.9,0.6-4.1,1.7s-1.7,2.6-1.7,4.1s0.6,2.9,1.7,4.1s2.6,1.7,4.1,1.7
				c1.6,0,2.9-0.6,4.1-1.7c1.2-1.2,1.7-2.6,1.7-4.1s-0.6-2.9-1.7-4.1C434.5,240.1,433.1,239.6,431.6,239.6z"/>
			<path class="st1" d="M502.4,225.7c-1.7-1.7-3.6-2.7-5.7-2.7H488c-4.8,0-8.6-1.9-11.2-5.5c-2.7-3.7-3.9-7.9-3.9-12.4
				c0-4.4,1.2-8.1,3.3-11c2.2-2.9,5.1-4.3,8.8-4.3c1.5,0,3.1,0.5,5,1.3c1.7,0.8,3,2.1,3.8,3.8l0.1,0.2l0.2,0.1
				c0.5,0.1,1,0.2,1.7,0.2c1.2,0,2.2-0.2,3.3-0.7c1.2-0.5,1.7-1,2-1.7V193v-0.1c-0.3-1.4-2.1-2.9-5.5-4.5c-3.3-1.6-6.5-2.4-9.8-2.4
				c-6.7,0-12.1,2-15.9,6c-3.8,3.9-5.8,9.3-5.8,15.8c0,2.6,0.6,5.5,1.7,8.6c1,2.8,2.3,5,4.1,6.9h-13.8c-2.6,0-4.9-0.6-7.1-1.7
				c-2.1-1.2-3.6-2.6-4.6-4.3v-33.3H444c-1.6,0-3.5,0.7-5.8,2.2c-2.3,1.5-3.5,3.3-3.5,5.3V212c0,1.6,0,3-0.1,4.1
				c-0.1,1-0.3,2.2-0.8,3.5c-0.5,1.2-1,2.1-2.1,2.7c-0.9,0.6-2.2,0.9-3.7,0.9h-22.4c0.5-2.2,0.6-4.2,0.6-5.9v-33.9l-0.3-0.1
				c-2.8-0.8-5.9-1.2-9.6-1.2c-3.5,0-7,0.6-10.6,1.7c-3.6,1.2-7,2.9-10.1,5.1c-3.1,2.2-5.7,5.1-7.7,8.8c-2,3.7-3,7.9-3,12.3
				c0,5.8,1.9,10.8,5.7,14.6c3.7,3.9,9.1,5.9,15.7,5.9h8.8c-1.4,3.7-3.9,6.5-7.6,8.5c-3.8,2-8,3-12.4,3c-4.1,0-7.6-1.4-10.6-3.9
				c-3-2.7-4.5-6.4-4.5-11.3c0-1,0.2-1.7,0.6-2.2l0.1-0.2l-0.1-0.2c-0.5-1.5-2-2.3-4.4-2.3c-0.5,0-1.2,0-1.2,0.5
				c-0.5,1.5-0.6,3.6-0.6,6.2c0,7.2,2,12.8,5.8,16.7c3.8,3.8,8.7,5.8,14.4,5.8c5.9,0,11.6-2,16.7-5.9c5.1-3.8,8.9-8.7,11.6-14.5H429
				c7.2,0,11.7-2.9,13.6-8.8c1.7,2.2,3.9,4.2,6.6,5.9c3,1.9,6.2,2.9,9.4,2.9h46.5v-0.5C505.1,229,504.3,227.6,502.4,225.7z
				 M394.2,186.2c0.8,0,1.4,0,2,0.1v36.8h-9.1c-3.8,0-6.9-1.3-9.1-3.8c-2.2-2.6-3.4-6.3-3.4-11.3c0-3.3,0.5-6.3,1.5-8.9
				c0.9-2.7,2.2-4.8,3.6-6.4c1.5-1.6,3.1-2.9,5-3.9c1.9-1,3.6-1.7,5.1-2.1C391.4,186.4,392.9,186.2,394.2,186.2z"/>
		</g>
	</g>
</g>
</svg>
