<?xml version="1.0" encoding="utf-8"?>
<!-- Generator: Adobe Illustrator 24.3.0, SVG Export Plug-In . SVG Version: 6.00 Build 0)  -->
<svg version="1.1" id="Layer_1" xmlns="http://www.w3.org/2000/svg" xmlns:xlink="http://www.w3.org/1999/xlink" x="0px" y="0px"
	 viewBox="0 0 716 273" style="enable-background:new 0 0 716 273;" xml:space="preserve">
<style type="text/css">
	.st0{opacity:0.8;}
	.st1{fill:#F2F2F2;}
</style>
<g class="st0">
	<g>
		<path class="st1" d="M588.2,220.4c-0.3,0-0.3-0.5,0-0.8l4.5-9.8c0.5-0.5,0.8-0.8,1-0.8c0.5,0,2.5,1.3,6.3,3.8
			c3.8,2.5,5.8,4,5.8,4.5c0,1.5-1.8,5-5,10.3c-0.5,0.8-0.8,1-1.3,0.8C595.7,225.4,591.9,222.9,588.2,220.4"/>
		<path class="st1" d="M570.3,55.8c-0.3,0-0.3-0.5,0-0.8l4.5-9.8c0.5-0.5,0.8-0.8,1-0.8c0.5,0,2.5,1.3,6.3,3.8
			c3.8,2.5,5.8,4,5.8,4.5c0,1.5-1.8,5-5,10.3c-0.5,0.8-0.8,1-1.3,0.8C577.8,60.8,574.1,58.3,570.3,55.8"/>
		<path class="st1" d="M578.2,72.1c-0.3-0.3,0-0.8,0-0.8l4.5-9.8c0.5-0.5,0.8-0.8,1-0.8c0.5,0,2.5,1.3,6.3,3.8
			c3.8,2.5,5.8,4,5.8,4.5c0,1.5-1.8,5-5,10.3c-0.5,0.8-0.8,1-1.3,0.8C585.8,77.1,582,74.6,578.2,72.1"/>
		<path class="st1" d="M672.8,151.6c-3.3-0.2-6.8,0.6-10,1.7c-33.7,12.2-53,48.9-52.7,49.4c0.2,0.3,14.3,2.7,23-1.3
			c18.9-8.5,28.7-26.8,28.2-27.1c-0.3-0.3-0.8-0.2-1.2,0.4c0,0-5.7,9.7-25.6,18.7c-5.5,2.5-11.4,2.8-16.8,2.3
			c10.2-12.5,19.7-21.4,30-27.9c7.6-4.8,14.3-7.4,20.6-8.1c1.1-0.1,2.2-0.2,3.2-0.1c0.4,0.1,1,0,1.5-0.8c0.7-0.9,0.9-4.5,0.9-6.3
			C673.8,152.1,673.4,151.6,672.8,151.6z"/>
		<path class="st1" d="M539.2,44.5c0,0-1.9,3.8-3.6,10.5c2.5,2.2,3.8,3.5,3.8,3.5c0,0,0,0,0,0c0,0,0,0,0,0l0,0
			c43.8,42.7,51.6,113.3,52.8,131.2c1.2,1.1,3.2,2.4,4.6,3.3C597,174.9,594.7,87.2,539.2,44.5z"/>
		<path class="st1" d="M594.9,195.4c-1.5-0.9-3.7-2.4-5-3.6c-10.7-9.9-47.7-54.4-50.4-126.7c-1.1-1.1-2.2-2.3-3.3-3.4l0,0
			c0,0,0,0,0,0c0,0,0,0,0,0c0,0-0.6-0.6-1.6-1.6c-1.3,7.5-2.1,17.2-0.5,28.7c8.7,61.7,48.4,102.3,53.1,105.3l-1.6-0.2
			c-25.8-2.6-50.2-13.8-68.6-32.5c-0.6-0.6-14.7-16.9-19-28.1c0,0,27.7-0.8,45.1,18.5c0.3,0.3,0.7-0.1,0.5-0.5
			c-2.9-4-6.2-7.7-9.4-10.8c-18.3-17.8-38.7-20-44.3-19.3c0,0,1.2,15,18.6,39.6c18.8,26.6,46.4,36.9,46.4,36.8
			c9.5,3.5,19.6,5.1,29.8,4.9c2.7-0.1,5.5-0.2,8.1-0.7l2.4-2.5c2.6,1.4,5.9,3.1,9.9,4.7c0.2,0.1,0.3,0,0.3-0.2
			c0.1-0.7,0.3-3.7,0.3-3.7C601.5,199.1,597.4,196.9,594.9,195.4z"/>
		<path class="st1" d="M646,101.1c0-0.1-0.2-5.4-1.3-6l-0.5-0.3l-0.5,0.3c-13,8.7-22.6,22.9-30.2,44.8c-5,14.4-8.4,30.2-10.6,48.3
			c-0.3,2.3-0.6,4.9-0.8,7.6c1.2,0.6,2.4,1.1,3.7,1.6c0.2-1.8,0.4-3.7,0.7-6.2c1.2-9.4,2.9-18.6,5.2-27.3
			c4.5-17.5,12.6-42.1,31-55.7c1.8-1.3,3.3-4.3,3.2-6.6L646,101.1z"/>
	</g>
	<g>
		<g>
			<path class="st1" d="M55,146.1c1.4,0,2.5-0.5,3.5-1.5c1-1,1.5-2.2,1.5-3.5s-0.5-2.5-1.5-3.5c-1-1-2.2-1.5-3.5-1.5
				c-1.4,0-2.5,0.5-3.5,1.5c-1,1-1.5,2.2-1.5,3.5c0,1.4,0.5,2.5,1.5,3.5C52.5,145.6,53.7,146.1,55,146.1z"/>
			<path class="st1" d="M69.1,146.1c1.4,0,2.5-0.5,3.5-1.5c1-1,1.5-2.2,1.5-3.5s-0.5-2.5-1.5-3.5c-1-1-2.2-1.5-3.5-1.5
				c-1.4,0-2.5,0.5-3.5,1.5c-1,1-1.5,2.2-1.5,3.5c0,1.4,0.5,2.5,1.5,3.5C66.6,145.6,67.8,146.1,69.1,146.1z"/>
			<path class="st1" d="M80.5,203.2c-1.4,0-2.5,0.5-3.5,1.5c-1,1-1.5,2.2-1.5,3.5c0,1.4,0.5,2.5,1.5,3.5c1,1,2.2,1.5,3.5,1.5
				c1.4,0,2.5-0.5,3.5-1.5c1-1,1.5-2.2,1.5-3.5s-0.5-2.5-1.5-3.5C83.1,203.7,81.9,203.2,80.5,203.2z"/>
			<path class="st1" d="M94.6,203.2c-1.4,0-2.5,0.5-3.5,1.5c-1,1-1.5,2.2-1.5,3.5c0,1.4,0.5,2.5,1.5,3.5c1,1,2.2,1.5,3.5,1.5
				s2.5-0.5,3.5-1.5c1-1,1.5-2.2,1.5-3.5s-0.5-2.5-1.5-3.5C97.1,203.7,95.9,203.2,94.6,203.2z"/>
			<path class="st1" d="M121.7,203.2c-1.4,0-2.5,0.5-3.5,1.5c-1,1-1.5,2.2-1.5,3.5s0.5,2.5,1.5,3.5c1,1,2.2,1.5,3.5,1.5
				c1.4,0,2.5-0.5,3.5-1.5c1-1,1.5-2.2,1.5-3.5c0-1.4-0.5-2.5-1.5-3.5C124.3,203.7,123.1,203.2,121.7,203.2z"/>
			<path class="st1" d="M126.9,154.4c-2,1.3-3,2.8-3,4.6v22.6c0,5-2.1,7.5-6.3,7.5h-4.3c-2.2,0-4.2-0.5-6.1-1.5
				c-1.8-1-3.1-2.2-4-3.7v-28.7h-0.4c-1.4,0-3,0.6-5,1.9c-2,1.3-3,2.8-3,4.6v17.8c0,1.4,0,2.6-0.1,3.5c-0.1,0.9-0.3,1.9-0.7,3
				c-0.4,1-0.9,1.8-1.8,2.3c-0.8,0.5-1.9,0.8-3.2,0.8h-7.1c-2.2,0-3.8-0.4-4.9-1.2c-1-0.8-1.5-2.2-1.5-4.2V155l-0.3-0.1
				c-1.4-0.3-4-0.5-7.6-0.5c-2.4,0-5.1,0.5-8,1.5c-2.9,1-5.6,2.4-8.2,4.1c-2.6,1.7-4.8,4-6.6,6.7c-1.8,2.7-2.7,5.6-2.7,8.7
				c0,1.4,0.2,2.8,0.6,4.2c0.4,1.4,1,2.8,1.9,4.2c0.9,1.5,2.4,2.7,4.3,3.6c1.9,0.9,4.3,1.3,6.9,1.3c1.8,0,4-0.5,6.5-1.5
				c2.1-0.8,3.6-1.6,4.6-2.5c0.2,3.4,1.3,6,3.3,7.9c2.2,2,5.3,3,9,3h10.7c6.2,0,10.1-2.5,11.7-7.6c1.5,1.9,3.4,3.6,5.7,5.1
				c2.6,1.6,5.3,2.5,8.1,2.5h5.8c3.6,0,6.3-1.3,8.2-3.8c1.8-2.5,2.7-5.8,2.7-9.9v-29.4H132C130.6,152.5,128.9,153.1,126.9,154.4z
				 M67.1,157.8v22.9c-0.9,0.6-2.1,1.2-3.8,1.9c-1.8,0.7-3.2,1-4.3,1c-2.8,0-5-0.8-6.4-2.5c-1.4-1.6-2.1-3.5-2.1-5.6
				c0-4.6,1.9-8.8,5.6-12.4C59.7,159.8,63.4,157.9,67.1,157.8z"/>
			<path class="st1" d="M169.3,203.2c-1.4,0-2.5,0.5-3.5,1.5c-1,1-1.5,2.2-1.5,3.5s0.5,2.5,1.5,3.5c1,1,2.2,1.5,3.5,1.5
				s2.5-0.5,3.5-1.5c1-1,1.5-2.2,1.5-3.5s-0.5-2.5-1.5-3.5C171.9,203.7,170.7,203.2,169.3,203.2z"/>
			<path class="st1" d="M228.5,132.7c1.3,0,2.4-0.5,3.3-1.4c0.9-0.9,1.3-2,1.3-3.2c0-1.2-0.4-2.3-1.3-3.2c-0.9-0.9-2-1.4-3.3-1.4
				c-1.3,0-2.4,0.5-3.3,1.4c-0.9,0.9-1.3,2-1.3,3.2c0,1.2,0.4,2.3,1.3,3.2C226.1,132.3,227.2,132.7,228.5,132.7z"/>
			<path class="st1" d="M221.5,144.1c1.4,0,2.5-0.5,3.5-1.5c1-1,1.5-2.2,1.5-3.5c0-1.4-0.5-2.5-1.5-3.5c-1-1-2.2-1.5-3.5-1.5
				s-2.5,0.5-3.5,1.5c-1,1-1.5,2.2-1.5,3.5s0.5,2.5,1.5,3.5C219,143.6,220.2,144.1,221.5,144.1z"/>
			<path class="st1" d="M230.6,139.1c0,1.4,0.5,2.5,1.5,3.5c1,1,2.2,1.5,3.5,1.5c1.4,0,2.5-0.5,3.5-1.5c1-1,1.5-2.2,1.5-3.5
				c0-1.4-0.5-2.5-1.5-3.5c-1-1-2.2-1.5-3.5-1.5c-1.4,0-2.5,0.5-3.5,1.5C231.1,136.6,230.6,137.8,230.6,139.1z"/>
			<path class="st1" d="M280.4,135.9c-2,1.3-3,2.8-3,4.6v41.1c0,5-2.1,7.5-6.3,7.5h-4.3c-2.2,0-4.2-0.5-6-1.5c-1.8-1-3.1-2.1-4-3.5
				c0.2-1.9,0.3-4.1,0.3-6.4v-25.1h-0.4c-1.4,0-3.2,0.6-5.1,1.9c-2,1.3-3.1,2.8-3.1,4.6v19.5c0,4.3-0.4,7.1-1.2,8.5
				c-0.8,1.3-2.5,2-5.2,2c-1.4,0-3.1-0.4-4.9-1.2c-1.7-0.8-3.2-1.9-4.3-3.5v-30.6h-0.4c-1.4,0-3.2,0.6-5.1,1.9
				c-2,1.3-3.1,2.8-3.1,4.6v19.2c0,1.2,0,2.1,0,2.8c0,0.7-0.1,1.5-0.4,2.5c-0.2,1-0.5,1.7-0.9,2.3c-0.4,0.5-0.9,1-1.7,1.4
				c-0.7,0.4-1.6,0.6-2.7,0.6c-4.5,0-7.9-1.7-10.2-5.2c0.2-1.3,0.3-3.4,0.3-6.3v-22.4h-0.4c-1.4,0-3.2,0.6-5.1,1.9
				c-2,1.3-3.1,2.8-3.1,4.6v16.8c0,4.3-0.4,7.1-1.2,8.5c-0.8,1.3-2.5,2-5.2,2h-3.3c-2.2,0-4.2-0.5-6.1-1.5c-1.8-1-3.1-2.2-4-3.7
				v-28.7h-0.4c-1.4,0-3,0.6-5,1.9c-2,1.3-3,2.8-3,4.6v17.8c0,1.4,0,2.6-0.1,3.5c-0.1,0.9-0.3,1.9-0.7,3c-0.4,1-0.9,1.8-1.8,2.3
				c-0.8,0.5-1.9,0.8-3.2,0.8h-7c-4.2,0-6.3-2.4-6.3-7.5v-47.5h-0.4c-1.4,0-3.1,0.6-5.1,1.9c-2.1,1.3-3.1,2.8-3.1,4.6V182
				c0,4.1,0.9,7.4,2.7,9.9c1.8,2.5,4.6,3.8,8.2,3.8h12.2c6.2,0,10.1-2.5,11.7-7.6c1.5,1.9,3.4,3.6,5.7,5.1c2.6,1.6,5.3,2.5,8.1,2.5
				h3.3c3.2,0,5.8-0.8,7.6-2.4c1.6-1.4,2.8-3.1,3.4-5.1c4,5,8.9,7.5,14.6,7.5c2.7,0,5-0.8,6.9-2.4c1.6-1.4,2.6-3,3-4.8
				c1.6,2.1,3.6,3.8,5.9,5c2.6,1.4,5.2,2.2,7.9,2.2c5.2,0,8.7-2.4,10.4-7c1.5,1.8,3.4,3.4,5.7,4.8c2.5,1.5,5.1,2.3,7.7,2.3h5.8
				c3.6,0,6.3-1.3,8.2-3.8c1.8-2.5,2.7-5.8,2.7-9.9v-48h-0.4C284,134,282.4,134.6,280.4,135.9z"/>
			<path class="st1" d="M300.6,136c-2,1.3-3.1,2.8-3.1,4.6v55.1l0.5-0.1c2.5-0.3,4.5-1.6,6-3.7c1.4-2.1,2.2-5,2.2-8.7v-49.1h-0.4
				C304.3,134.1,302.6,134.7,300.6,136z"/>
			<path class="st1" d="M347.5,141.7c1.4,0,2.5-0.5,3.5-1.5c1-1,1.5-2.2,1.5-3.5c0-1.4-0.5-2.5-1.5-3.5c-1-1-2.2-1.5-3.5-1.5
				c-1.4,0-2.5,0.5-3.5,1.5c-1,1-1.5,2.2-1.5,3.5c0,1.4,0.5,2.5,1.5,3.5C344.9,141.2,346.1,141.7,347.5,141.7z"/>
			<path class="st1" d="M361.5,141.7c1.4,0,2.5-0.5,3.5-1.5c1-1,1.5-2.2,1.5-3.5c0-1.4-0.5-2.5-1.5-3.5c-1-1-2.2-1.5-3.5-1.5
				c-1.4,0-2.5,0.5-3.5,1.5c-1,1-1.5,2.2-1.5,3.5c0,1.4,0.5,2.5,1.5,3.5C359,141.2,360.2,141.7,361.5,141.7z"/>
			<path class="st1" d="M392.2,203.2c-1.4,0-2.5,0.5-3.5,1.5c-1,1-1.5,2.2-1.5,3.5s0.5,2.5,1.5,3.5c1,1,2.2,1.5,3.5,1.5
				c1.4,0,2.5-0.5,3.5-1.5c1-1,1.5-2.2,1.5-3.5s-0.5-2.5-1.5-3.5C394.7,203.7,393.5,203.2,392.2,203.2z"/>
			<path class="st1" d="M453.2,191.3c-1.5-1.5-3.1-2.3-4.9-2.3h-7.5c-4.1,0-7.4-1.6-9.6-4.7c-2.3-3.2-3.4-6.8-3.4-10.7
				c0-3.8,1-7,2.8-9.5c1.9-2.5,4.4-3.7,7.6-3.7c1.3,0,2.7,0.4,4.3,1.1c1.5,0.7,2.6,1.8,3.3,3.3l0.1,0.2l0.2,0.1
				c0.4,0.1,0.9,0.2,1.5,0.2c1,0,1.9-0.2,2.8-0.6c1-0.4,1.5-0.9,1.7-1.5l0-0.1l0-0.1c-0.3-1.2-1.8-2.5-4.7-3.9
				c-2.8-1.4-5.6-2.1-8.4-2.1c-5.8,0-10.4,1.7-13.7,5.2c-3.3,3.4-5,8-5,13.6c0,2.2,0.5,4.7,1.5,7.4c0.9,2.4,2,4.3,3.5,5.9h-11.9
				c-2.2,0-4.2-0.5-6.1-1.5c-1.8-1-3.1-2.2-4-3.7v-28.7h-0.4c-1.4,0-3,0.6-5,1.9c-2,1.3-3,2.8-3,4.6v17.8c0,1.4,0,2.6-0.1,3.5
				c-0.1,0.9-0.3,1.9-0.7,3c-0.4,1-0.9,1.8-1.8,2.3c-0.8,0.5-1.9,0.8-3.2,0.8h-19.3c0.4-1.9,0.5-3.6,0.5-5.1v-29.2l-0.3-0.1
				c-2.4-0.7-5.1-1-8.3-1c-3,0-6,0.5-9.1,1.5c-3.1,1-6,2.5-8.7,4.4c-2.7,1.9-4.9,4.4-6.6,7.6c-1.7,3.2-2.6,6.8-2.6,10.6
				c0,5,1.6,9.3,4.9,12.6c3.2,3.4,7.8,5.1,13.5,5.1h7.6c-1.2,3.2-3.4,5.6-6.5,7.3c-3.3,1.7-6.9,2.6-10.7,2.6c-3.5,0-6.5-1.2-9.1-3.4
				c-2.6-2.3-3.9-5.5-3.9-9.7c0-0.9,0.2-1.5,0.5-1.9l0.1-0.2l-0.1-0.2c-0.4-1.3-1.7-2-3.8-2c-0.4,0-1,0-1,0.4
				c-0.4,1.3-0.5,3.1-0.5,5.3c0,6.2,1.7,11,5,14.4c3.3,3.3,7.5,5,12.4,5c5.1,0,10-1.7,14.4-5.1c4.4-3.3,7.7-7.5,10-12.5H390
				c6.2,0,10.1-2.5,11.7-7.6c1.5,1.9,3.4,3.6,5.7,5.1c2.6,1.6,5.3,2.5,8.1,2.5h40v-0.4C455.5,194.1,454.8,192.9,453.2,191.3z
				 M360,157.3c0.7,0,1.2,0,1.7,0.1v31.7h-7.8c-3.3,0-5.9-1.1-7.8-3.3c-1.9-2.2-2.9-5.4-2.9-9.7c0-2.8,0.4-5.4,1.3-7.7
				c0.8-2.3,1.9-4.1,3.1-5.5c1.3-1.4,2.7-2.5,4.3-3.4c1.6-0.9,3.1-1.5,4.4-1.8C357.6,157.4,358.9,157.3,360,157.3z"/>
		</g>
	</g>
</g>
</svg>
