<?xml version="1.0" encoding="utf-8"?>
<!-- Generator: Adobe Illustrator 24.3.0, SVG Export Plug-In . SVG Version: 6.00 Build 0)  -->
<svg version="1.1" id="Layer_1" xmlns="http://www.w3.org/2000/svg" xmlns:xlink="http://www.w3.org/1999/xlink" x="0px" y="0px"
	 viewBox="0 0 1920 450" style="enable-background:new 0 0 1920 450;" xml:space="preserve">
<style type="text/css">
	.st0{fill:#F2F2F2;}
	.st1{clip-path:url(#SVGID_2_);}
	.st2{fill:#E1E1E1;}
	.st3{fill:#E6E6E6;}
	.st4{fill:#DCDCDC;}
	.st5{fill:#EBEBEB;}
	.st6{fill:#F5F5F5;}
	.st7{fill:#F0F0F0;}
	.st8{fill:#FAFAFA;}
	.st9{opacity:0.2;}
	.st10{opacity:0.39;fill:#231F20;}
	.st11{opacity:0.26;fill:#231F20;}
	.st12{opacity:0.89;fill:#231F20;}
	.st13{opacity:0.87;fill:#231F20;}
	.st14{opacity:0.83;fill:#231F20;}
	.st15{fill:#231F20;}
	.st16{opacity:0.52;fill:#231F20;}
	.st17{opacity:0.4;fill:#231F20;}
	.st18{opacity:0.29;fill:#231F20;}
	.st19{opacity:0.96;fill:#231F20;}
	.st20{opacity:0.59;fill:#231F20;}
	.st21{opacity:0.93;fill:#231F20;}
	.st22{opacity:0.67;fill:#231F20;}
	.st23{opacity:0.51;fill:#231F20;}
	.st24{opacity:0.85;fill:#231F20;}
	.st25{opacity:0.88;fill:#231F20;}
	.st26{opacity:0.46;fill:#231F20;}
	.st27{opacity:0.99;fill:#231F20;}
	.st28{opacity:0.6;fill:#231F20;}
	.st29{opacity:0.71;fill:#231F20;}
	.st30{opacity:0.56;fill:#231F20;}
	.st31{opacity:0.38;fill:#231F20;}
	.st32{opacity:0.66;fill:#231F20;}
	.st33{opacity:0.69;fill:#231F20;}
	.st34{opacity:0.33;fill:#231F20;}
	.st35{opacity:0.86;fill:#231F20;}
	.st36{opacity:0.98;fill:#231F20;}
	.st37{opacity:0.34;fill:#231F20;}
	.st38{opacity:0.81;fill:#231F20;}
	.st39{opacity:0.57;fill:#231F20;}
	.st40{opacity:0.55;fill:#231F20;}
	.st41{opacity:0.82;fill:#231F20;}
	.st42{opacity:0.24;fill:#231F20;}
	.st43{opacity:0.79;fill:#231F20;}
	.st44{opacity:0.44;fill:#231F20;}
	.st45{opacity:0.75;fill:#231F20;}
	.st46{opacity:0.9;fill:#231F20;}
	.st47{opacity:0.68;fill:#231F20;}
	.st48{opacity:0.21;fill:#231F20;}
	.st49{opacity:0.23;fill:#231F20;}
	.st50{opacity:0.25;fill:#231F20;}
	.st51{opacity:0.53;fill:#231F20;}
	.st52{opacity:0.65;fill:#231F20;}
	.st53{opacity:0.2;fill:#231F20;}
	.st54{opacity:0.5;fill:#231F20;}
	.st55{opacity:0.74;fill:#231F20;}
	.st56{opacity:0.64;fill:#231F20;}
	.st57{opacity:0.97;fill:#231F20;}
	.st58{opacity:0.77;fill:#231F20;}
	.st59{opacity:0.91;fill:#231F20;}
	.st60{opacity:0.7;fill:#231F20;}
	.st61{opacity:0.27;fill:#231F20;}
	.st62{opacity:0.61;fill:#231F20;}
	.st63{opacity:0.8;fill:#231F20;}
	.st64{opacity:0.92;fill:#231F20;}
	.st65{opacity:0.42;fill:#231F20;}
	.st66{opacity:0.36;fill:#231F20;}
	.st67{opacity:0.73;fill:#231F20;}
	.st68{opacity:0.28;fill:#231F20;}
	.st69{opacity:0.3;fill:#231F20;}
	.st70{opacity:0.47;fill:#231F20;}
	.st71{opacity:0.41;fill:#231F20;}
	.st72{opacity:0.76;fill:#231F20;}
	.st73{opacity:0.49;fill:#231F20;}
	.st74{opacity:0.72;fill:#231F20;}
	.st75{opacity:0.48;fill:#231F20;}
	.st76{opacity:0.95;fill:#231F20;}
	.st77{opacity:0.63;fill:#231F20;}
	.st78{opacity:0.22;fill:#231F20;}
	.st79{opacity:0.54;fill:#231F20;}
	.st80{opacity:0.78;fill:#231F20;}
	.st81{opacity:0.43;fill:#231F20;}
	.st82{opacity:0.37;fill:#231F20;}
	.st83{opacity:0.58;fill:#231F20;}
	.st84{opacity:0.31;fill:#231F20;}
	.st85{opacity:0.45;fill:#231F20;}
	.st86{opacity:0.35;fill:#231F20;}
	.st87{opacity:0.62;fill:#231F20;}
	.st88{opacity:0.94;fill:#231F20;}
	.st89{fill:url(#SVGID_3_);}
	.st90{fill:none;stroke:#AA802D;stroke-width:2;stroke-miterlimit:10;}
</style>
<rect x="-1" y="0.5" class="st0" width="1920" height="450"/>
<g>
	<defs>
		<rect id="SVGID_1_" y="-370.5" width="1920" height="821"/>
	</defs>
	<clipPath id="SVGID_2_">
		<use xlink:href="#SVGID_1_"  style="overflow:visible;"/>
	</clipPath>
	<g class="st1">
		<g>
			<polygon class="st2" points="1928.1,143.3 1941.7,139.5 1923.7,135.9 1910.1,139.5 			"/>
			<polygon class="st2" points="1914.1,147.2 1928.1,143.3 1910.1,139.5 1896,143.3 			"/>
			<polygon class="st3" points="1899.6,151.2 1914.1,147.2 1896,143.3 1881.5,147.2 			"/>
			<polygon class="st2" points="1884.7,155.4 1899.6,151.2 1881.5,147.2 1866.4,151.2 			"/>
			<polygon class="st4" points="1869.2,159.7 1884.7,155.4 1866.4,151.2 1850.9,155.4 			"/>
			<polygon class="st5" points="1853.1,164.1 1869.2,159.7 1850.9,155.4 1834.8,159.7 			"/>
			<polygon class="st3" points="1836.4,168.8 1853.1,164.1 1834.8,159.7 1818.1,164.1 			"/>
			<polygon class="st2" points="1819.2,173.6 1836.4,168.8 1818.1,164.1 1800.8,168.8 			"/>
			<polygon class="st2" points="1801.3,178.6 1819.2,173.6 1800.8,168.8 1782.9,173.6 			"/>
			<polygon class="st6" points="1782.7,183.7 1801.3,178.6 1782.9,173.6 1764.3,178.6 			"/>
			<polygon class="st6" points="1763.3,189.1 1782.7,183.7 1764.3,178.6 1745,183.7 			"/>
			<polygon class="st7" points="1743.2,194.7 1763.3,189.1 1745,183.7 1724.9,189.1 			"/>
			<polygon class="st7" points="1722.3,200.5 1743.2,194.7 1724.9,189.1 1704,194.7 			"/>
			<polygon class="st5" points="1700.5,206.6 1722.3,200.5 1704,194.7 1682.3,200.5 			"/>
			<polygon class="st6" points="1677.8,212.9 1700.5,206.6 1682.3,200.5 1659.7,206.6 			"/>
			<polygon class="st6" points="1654.1,219.5 1677.8,212.9 1659.7,206.6 1636.1,212.9 			"/>
			<polygon class="st5" points="1629.3,226.4 1654.1,219.5 1636.1,212.9 1611.4,219.5 			"/>
			<polygon class="st5" points="1603.4,233.6 1629.3,226.4 1611.4,219.5 1585.7,226.4 			"/>
			<polygon class="st3" points="1576.3,241.2 1603.4,233.6 1585.7,226.4 1558.8,233.6 			"/>
			<polygon class="st5" points="1547.9,249.1 1576.3,241.2 1558.8,233.6 1530.7,241.2 			"/>
			<polygon class="st6" points="1518.1,257.4 1547.9,249.1 1530.7,241.2 1501.2,249.1 			"/>
			<polygon class="st5" points="1486.8,266.1 1518.1,257.4 1501.2,249.1 1470.3,257.4 			"/>
			<polygon class="st7" points="1453.9,275.2 1486.8,266.1 1470.3,257.4 1437.8,266.1 			"/>
			<polygon class="st4" points="1419.3,284.9 1453.9,275.2 1437.8,266.1 1403.6,275.2 			"/>
			<polygon class="st6" points="1382.8,295 1419.3,284.9 1403.6,275.2 1367.7,284.9 			"/>
			<polygon class="st4" points="1344.3,305.7 1382.8,295 1367.7,284.9 1329.8,295 			"/>
			<polygon class="st5" points="1303.5,317.1 1344.3,305.7 1329.8,295 1289.8,305.7 			"/>
			<polygon class="st6" points="1260.4,329.1 1303.5,317.1 1289.8,305.7 1247.5,317.1 			"/>
			<polygon class="st7" points="1214.7,341.8 1260.4,329.1 1247.5,317.1 1202.7,329.1 			"/>
			<polygon class="st8" points="1166,355.3 1214.7,341.8 1202.7,329.1 1155.2,341.8 			"/>
			<polygon class="st6" points="1114.3,369.7 1166,355.3 1155.2,341.8 1104.7,355.3 			"/>
			<polygon class="st7" points="1059.1,385.1 1114.3,369.7 1104.7,355.3 1051,369.7 			"/>
			<polygon class="st6" points="1000,401.5 1059.1,385.1 1051,369.7 993.7,385.1 			"/>
			<polygon class="st3" points="936.8,419.1 1000,401.5 993.7,385.1 932.4,401.5 			"/>
			<polygon class="st3" points="868.8,438 936.8,419.1 932.4,401.5 866.7,419.1 			"/>
			<polygon class="st2" points="795.6,458.4 868.8,438 866.7,419.1 796.1,438 			"/>
			<polygon class="st2" points="716.6,480.4 795.6,458.4 796.1,438 720.2,458.4 			"/>
			<polygon class="st5" points="1932.8,151.2 1946.8,147.2 1928.1,143.3 1914.1,147.2 			"/>
			<polygon class="st7" points="1918.4,155.4 1932.8,151.2 1914.1,147.2 1899.6,151.2 			"/>
			<polygon class="st8" points="1903.5,159.7 1918.4,155.4 1899.6,151.2 1884.7,155.4 			"/>
			<polygon class="st4" points="1888.1,164.1 1903.5,159.7 1884.7,155.4 1869.2,159.7 			"/>
			<polygon class="st3" points="1872.1,168.8 1888.1,164.1 1869.2,159.7 1853.1,164.1 			"/>
			<polygon class="st3" points="1855.5,173.6 1872.1,168.8 1853.1,164.1 1836.4,168.8 			"/>
			<polygon class="st5" points="1838.3,178.6 1855.5,173.6 1836.4,168.8 1819.2,173.6 			"/>
			<polygon class="st2" points="1820.4,183.7 1838.3,178.6 1819.2,173.6 1801.3,178.6 			"/>
			<polygon class="st2" points="1801.8,189.1 1820.4,183.7 1801.3,178.6 1782.7,183.7 			"/>
			<polygon class="st6" points="1782.4,194.7 1801.8,189.1 1782.7,183.7 1763.3,189.1 			"/>
			<polygon class="st6" points="1762.3,200.5 1782.4,194.7 1763.3,189.1 1743.2,194.7 			"/>
			<polygon class="st8" points="1741.3,206.6 1762.3,200.5 1743.2,194.7 1722.3,200.5 			"/>
			<polygon class="st6" points="1719.5,212.9 1741.3,206.6 1722.3,200.5 1700.5,206.6 			"/>
			<polygon class="st8" points="1696.7,219.5 1719.5,212.9 1700.5,206.6 1677.8,212.9 			"/>
			<polygon class="st2" points="1672.8,226.4 1696.7,219.5 1677.8,212.9 1654.1,219.5 			"/>
			<polygon class="st3" points="1647.9,233.6 1672.8,226.4 1654.1,219.5 1629.3,226.4 			"/>
			<polygon class="st4" points="1621.9,241.2 1647.9,233.6 1629.3,226.4 1603.4,233.6 			"/>
			<polygon class="st6" points="1594.5,249.1 1621.9,241.2 1603.4,233.6 1576.3,241.2 			"/>
			<polygon class="st7" points="1565.9,257.4 1594.5,249.1 1576.3,241.2 1547.9,249.1 			"/>
			<polygon class="st8" points="1535.8,266.1 1565.9,257.4 1547.9,249.1 1518.1,257.4 			"/>
			<polygon class="st8" points="1504.2,275.2 1535.8,266.1 1518.1,257.4 1486.8,266.1 			"/>
			<polygon class="st5" points="1470.9,284.9 1504.2,275.2 1486.8,266.1 1453.9,275.2 			"/>
			<polygon class="st5" points="1435.8,295 1470.9,284.9 1453.9,275.2 1419.3,284.9 			"/>
			<polygon class="st4" points="1398.7,305.7 1435.8,295 1419.3,284.9 1382.8,295 			"/>
			<polygon class="st5" points="1359.6,317.1 1398.7,305.7 1382.8,295 1344.3,305.7 			"/>
			<polygon class="st6" points="1318.1,329.1 1359.6,317.1 1344.3,305.7 1303.5,317.1 			"/>
			<polygon class="st8" points="1274.1,341.8 1318.1,329.1 1303.5,317.1 1260.4,329.1 			"/>
			<polygon class="st5" points="1227.3,355.3 1274.1,341.8 1260.4,329.1 1214.7,341.8 			"/>
			<polygon class="st7" points="1177.6,369.7 1227.3,355.3 1214.7,341.8 1166,355.3 			"/>
			<polygon class="st8" points="1124.4,385.1 1177.6,369.7 1166,355.3 1114.3,369.7 			"/>
			<polygon class="st6" points="1067.7,401.5 1124.4,385.1 1114.3,369.7 1059.1,385.1 			"/>
			<polygon class="st3" points="1006.8,419.1 1067.7,401.5 1059.1,385.1 1000,401.5 			"/>
			<polygon class="st6" points="941.5,438 1006.8,419.1 1000,401.5 936.8,419.1 			"/>
			<polygon class="st7" points="871.1,458.4 941.5,438 936.8,419.1 868.8,438 			"/>
			<polygon class="st6" points="795,480.4 871.1,458.4 868.8,438 795.6,458.4 			"/>
			<polygon class="st6" points="1937.9,159.7 1952.2,155.4 1932.8,151.2 1918.4,155.4 			"/>
			<polygon class="st7" points="1923.1,164.1 1937.9,159.7 1918.4,155.4 1903.5,159.7 			"/>
			<polygon class="st4" points="1907.7,168.8 1923.1,164.1 1903.5,159.7 1888.1,164.1 			"/>
			<polygon class="st2" points="1891.8,173.6 1907.7,168.8 1888.1,164.1 1872.1,168.8 			"/>
			<polygon class="st7" points="1875.2,178.6 1891.8,173.6 1872.1,168.8 1855.5,173.6 			"/>
			<polygon class="st6" points="1858.1,183.7 1875.2,178.6 1855.5,173.6 1838.3,178.6 			"/>
			<polygon class="st7" points="1840.2,189.1 1858.1,183.7 1838.3,178.6 1820.4,183.7 			"/>
			<polygon class="st6" points="1821.6,194.7 1840.2,189.1 1820.4,183.7 1801.8,189.1 			"/>
			<polygon class="st5" points="1802.3,200.5 1821.6,194.7 1801.8,189.1 1782.4,194.7 			"/>
			<polygon class="st2" points="1782.2,206.6 1802.3,200.5 1782.4,194.7 1762.3,200.5 			"/>
			<polygon class="st7" points="1761.2,212.9 1782.2,206.6 1762.3,200.5 1741.3,206.6 			"/>
			<polygon class="st8" points="1739.3,219.5 1761.2,212.9 1741.3,206.6 1719.5,212.9 			"/>
			<polygon class="st6" points="1716.4,226.4 1739.3,219.5 1719.5,212.9 1696.7,219.5 			"/>
			<polygon class="st3" points="1692.5,233.6 1716.4,226.4 1696.7,219.5 1672.8,226.4 			"/>
			<polygon class="st4" points="1667.5,241.2 1692.5,233.6 1672.8,226.4 1647.9,233.6 			"/>
			<polygon class="st7" points="1641.2,249.1 1667.5,241.2 1647.9,233.6 1621.9,241.2 			"/>
			<polygon class="st4" points="1613.7,257.4 1641.2,249.1 1621.9,241.2 1594.5,249.1 			"/>
			<polygon class="st5" points="1584.8,266.1 1613.7,257.4 1594.5,249.1 1565.9,257.4 			"/>
			<polygon class="st3" points="1554.5,275.2 1584.8,266.1 1565.9,257.4 1535.8,266.1 			"/>
			<polygon class="st5" points="1522.5,284.9 1554.5,275.2 1535.8,266.1 1504.2,275.2 			"/>
			<polygon class="st6" points="1488.8,295 1522.5,284.9 1504.2,275.2 1470.9,284.9 			"/>
			<polygon class="st7" points="1453.2,305.7 1488.8,295 1470.9,284.9 1435.8,295 			"/>
			<polygon class="st7" points="1415.6,317.1 1453.2,305.7 1435.8,295 1398.7,305.7 			"/>
			<polygon class="st6" points="1375.8,329.1 1415.6,317.1 1398.7,305.7 1359.6,317.1 			"/>
			<polygon class="st8" points="1333.5,341.8 1375.8,329.1 1359.6,317.1 1318.1,329.1 			"/>
			<polygon class="st3" points="1288.6,355.3 1333.5,341.8 1318.1,329.1 1274.1,341.8 			"/>
			<polygon class="st3" points="1240.8,369.7 1288.6,355.3 1274.1,341.8 1227.3,355.3 			"/>
			<polygon class="st7" points="1189.8,385.1 1240.8,369.7 1227.3,355.3 1177.6,369.7 			"/>
			<polygon class="st7" points="1135.3,401.5 1189.8,385.1 1177.6,369.7 1124.4,385.1 			"/>
			<polygon class="st2" points="1076.9,419.1 1135.3,401.5 1124.4,385.1 1067.7,401.5 			"/>
			<polygon class="st6" points="1014.1,438 1076.9,419.1 1067.7,401.5 1006.8,419.1 			"/>
			<polygon class="st5" points="946.6,458.4 1014.1,438 1006.8,419.1 941.5,438 			"/>
			<polygon class="st3" points="873.5,480.4 946.6,458.4 941.5,438 871.1,458.4 			"/>
			<polygon class="st2" points="1928.1,173.6 1943.4,168.8 1923.1,164.1 1907.7,168.8 			"/>
			<polygon class="st4" points="1912.2,178.6 1928.1,173.6 1907.7,168.8 1891.8,173.6 			"/>
			<polygon class="st8" points="1895.7,183.7 1912.2,178.6 1891.8,173.6 1875.2,178.6 			"/>
			<polygon class="st5" points="1878.6,189.1 1895.7,183.7 1875.2,178.6 1858.1,183.7 			"/>
			<polygon class="st2" points="1860.8,194.7 1878.6,189.1 1858.1,183.7 1840.2,189.1 			"/>
			<polygon class="st5" points="1842.3,200.5 1860.8,194.7 1840.2,189.1 1821.6,194.7 			"/>
			<polygon class="st5" points="1823,206.6 1842.3,200.5 1821.6,194.7 1802.3,200.5 			"/>
			<polygon class="st8" points="1802.9,212.9 1823,206.6 1802.3,200.5 1782.2,206.6 			"/>
			<polygon class="st2" points="1781.9,219.5 1802.9,212.9 1782.2,206.6 1761.2,212.9 			"/>
			<polygon class="st4" points="1760,226.4 1781.9,219.5 1761.2,212.9 1739.3,219.5 			"/>
			<polygon class="st2" points="1737,233.6 1760,226.4 1739.3,219.5 1716.4,226.4 			"/>
			<polygon class="st3" points="1713,241.2 1737,233.6 1716.4,226.4 1692.5,233.6 			"/>
			<polygon class="st4" points="1687.9,249.1 1713,241.2 1692.5,233.6 1667.5,241.2 			"/>
			<polygon class="st3" points="1661.5,257.4 1687.9,249.1 1667.5,241.2 1641.2,249.1 			"/>
			<polygon class="st6" points="1633.8,266.1 1661.5,257.4 1641.2,249.1 1613.7,257.4 			"/>
			<polygon class="st3" points="1604.7,275.2 1633.8,266.1 1613.7,257.4 1584.8,266.1 			"/>
			<polygon class="st8" points="1574.1,284.9 1604.7,275.2 1584.8,266.1 1554.5,275.2 			"/>
			<polygon class="st7" points="1541.8,295 1574.1,284.9 1554.5,275.2 1522.5,284.9 			"/>
			<polygon class="st8" points="1507.7,305.7 1541.8,295 1522.5,284.9 1488.8,295 			"/>
			<polygon class="st5" points="1471.6,317.1 1507.7,305.7 1488.8,295 1453.2,305.7 			"/>
			<polygon class="st4" points="1433.4,329.1 1471.6,317.1 1453.2,305.7 1415.6,317.1 			"/>
			<polygon class="st8" points="1392.9,341.8 1433.4,329.1 1415.6,317.1 1375.8,329.1 			"/>
			<polygon class="st5" points="1349.9,355.3 1392.9,341.8 1375.8,329.1 1333.5,341.8 			"/>
			<polygon class="st7" points="1304.1,369.7 1349.9,355.3 1333.5,341.8 1288.6,355.3 			"/>
			<polygon class="st7" points="1255.2,385.1 1304.1,369.7 1288.6,355.3 1240.8,369.7 			"/>
			<polygon class="st4" points="1203,401.5 1255.2,385.1 1240.8,369.7 1189.8,385.1 			"/>
			<polygon class="st8" points="1147,419.1 1203,401.5 1189.8,385.1 1135.3,401.5 			"/>
			<polygon class="st3" points="1086.8,438 1147,419.1 1135.3,401.5 1076.9,419.1 			"/>
			<polygon class="st5" points="1022,458.4 1086.8,438 1076.9,419.1 1014.1,438 			"/>
			<polygon class="st5" points="952,480.4 1022,458.4 1014.1,438 946.6,458.4 			"/>
			<polygon class="st5" points="1933.4,183.7 1949.2,178.6 1928.1,173.6 1912.2,178.6 			"/>
			<polygon class="st2" points="1917.1,189.1 1933.4,183.7 1912.2,178.6 1895.7,183.7 			"/>
			<polygon class="st3" points="1900,194.7 1917.1,189.1 1895.7,183.7 1878.6,189.1 			"/>
			<polygon class="st5" points="1882.3,200.5 1900,194.7 1878.6,189.1 1860.8,194.7 			"/>
			<polygon class="st6" points="1863.9,206.6 1882.3,200.5 1860.8,194.7 1842.3,200.5 			"/>
			<polygon class="st6" points="1844.6,212.9 1863.9,206.6 1842.3,200.5 1823,206.6 			"/>
			<polygon class="st2" points="1824.5,219.5 1844.6,212.9 1823,206.6 1802.9,212.9 			"/>
			<polygon class="st6" points="1803.5,226.4 1824.5,219.5 1802.9,212.9 1781.9,219.5 			"/>
			<polygon class="st8" points="1781.6,233.6 1803.5,226.4 1781.9,219.5 1760,226.4 			"/>
			<polygon class="st2" points="1758.6,241.2 1781.6,233.6 1760,226.4 1737,233.6 			"/>
			<polygon class="st7" points="1734.6,249.1 1758.6,241.2 1737,233.6 1713,241.2 			"/>
			<polygon class="st2" points="1709.4,257.4 1734.6,249.1 1713,241.2 1687.9,249.1 			"/>
			<polygon class="st5" points="1682.9,266.1 1709.4,257.4 1687.9,249.1 1661.5,257.4 			"/>
			<polygon class="st4" points="1655,275.2 1682.9,266.1 1661.5,257.4 1633.8,266.1 			"/>
			<polygon class="st4" points="1625.7,284.9 1655,275.2 1633.8,266.1 1604.7,275.2 			"/>
			<polygon class="st3" points="1594.8,295 1625.7,284.9 1604.7,275.2 1574.1,284.9 			"/>
			<polygon class="st7" points="1562.2,305.7 1594.8,295 1574.1,284.9 1541.8,295 			"/>
			<polygon class="st6" points="1527.7,317.1 1562.2,305.7 1541.8,295 1507.7,305.7 			"/>
			<polygon class="st7" points="1491.1,329.1 1527.7,317.1 1507.7,305.7 1471.6,317.1 			"/>
			<polygon class="st5" points="1452.4,341.8 1491.1,329.1 1471.6,317.1 1433.4,329.1 			"/>
			<polygon class="st2" points="1411.2,355.3 1452.4,341.8 1433.4,329.1 1392.9,341.8 			"/>
			<polygon class="st5" points="1367.4,369.7 1411.2,355.3 1392.9,341.8 1349.9,355.3 			"/>
			<polygon class="st5" points="1320.6,385.1 1367.4,369.7 1349.9,355.3 1304.1,369.7 			"/>
			<polygon class="st6" points="1270.6,401.5 1320.6,385.1 1304.1,369.7 1255.2,385.1 			"/>
			<polygon class="st2" points="1217,419.1 1270.6,401.5 1255.2,385.1 1203,401.5 			"/>
			<polygon class="st3" points="1159.5,438 1217,419.1 1203,401.5 1147,419.1 			"/>
			<polygon class="st8" points="1097.5,458.4 1159.5,438 1147,419.1 1086.8,438 			"/>
			<polygon class="st6" points="1030.5,480.4 1097.5,458.4 1086.8,438 1022,458.4 			"/>
			<polygon class="st7" points="1922.3,200.5 1939.2,194.7 1917.1,189.1 1900,194.7 			"/>
			<polygon class="st3" points="1904.7,206.6 1922.3,200.5 1900,194.7 1882.3,200.5 			"/>
			<polygon class="st3" points="1886.3,212.9 1904.7,206.6 1882.3,200.5 1863.9,206.6 			"/>
			<polygon class="st2" points="1867.1,219.5 1886.3,212.9 1863.9,206.6 1844.6,212.9 			"/>
			<polygon class="st2" points="1847.1,226.4 1867.1,219.5 1844.6,212.9 1824.5,219.5 			"/>
			<polygon class="st5" points="1826.1,233.6 1847.1,226.4 1824.5,219.5 1803.5,226.4 			"/>
			<polygon class="st8" points="1804.2,241.2 1826.1,233.6 1803.5,226.4 1781.6,233.6 			"/>
			<polygon class="st5" points="1781.3,249.1 1804.2,241.2 1781.6,233.6 1758.6,241.2 			"/>
			<polygon class="st7" points="1757.2,257.4 1781.3,249.1 1758.6,241.2 1734.6,249.1 			"/>
			<polygon class="st5" points="1731.9,266.1 1757.2,257.4 1734.6,249.1 1709.4,257.4 			"/>
			<polygon class="st7" points="1705.3,275.2 1731.9,266.1 1709.4,257.4 1682.9,266.1 			"/>
			<polygon class="st3" points="1677.3,284.9 1705.3,275.2 1682.9,266.1 1655,275.2 			"/>
			<polygon class="st8" points="1647.8,295 1677.3,284.9 1655,275.2 1625.7,284.9 			"/>
			<polygon class="st8" points="1616.6,305.7 1647.8,295 1625.7,284.9 1594.8,295 			"/>
			<polygon class="st5" points="1583.7,317.1 1616.6,305.7 1594.8,295 1562.2,305.7 			"/>
			<polygon class="st2" points="1548.8,329.1 1583.7,317.1 1562.2,305.7 1527.7,317.1 			"/>
			<polygon class="st7" points="1511.8,341.8 1548.8,329.1 1527.7,317.1 1491.1,329.1 			"/>
			<polygon class="st5" points="1472.5,355.3 1511.8,341.8 1491.1,329.1 1452.4,341.8 			"/>
			<polygon class="st7" points="1430.6,369.7 1472.5,355.3 1452.4,341.8 1411.2,355.3 			"/>
			<polygon class="st6" points="1386,385.1 1430.6,369.7 1411.2,355.3 1367.4,369.7 			"/>
			<polygon class="st6" points="1338.3,401.5 1386,385.1 1367.4,369.7 1320.6,385.1 			"/>
			<polygon class="st7" points="1287.1,419.1 1338.3,401.5 1320.6,385.1 1270.6,401.5 			"/>
			<polygon class="st6" points="1232.2,438 1287.1,419.1 1270.6,401.5 1217,419.1 			"/>
			<polygon class="st5" points="1173,458.4 1232.2,438 1217,419.1 1159.5,438 			"/>
			<polygon class="st3" points="1109,480.4 1173,458.4 1159.5,438 1097.5,458.4 			"/>
			<polygon class="st6" points="1928,212.9 1945.5,206.6 1922.3,200.5 1904.7,206.6 			"/>
			<polygon class="st2" points="1909.7,219.5 1928,212.9 1904.7,206.6 1886.3,212.9 			"/>
			<polygon class="st5" points="1890.7,226.4 1909.7,219.5 1886.3,212.9 1867.1,219.5 			"/>
			<polygon class="st3" points="1870.7,233.6 1890.7,226.4 1867.1,219.5 1847.1,226.4 			"/>
			<polygon class="st7" points="1849.8,241.2 1870.7,233.6 1847.1,226.4 1826.1,233.6 			"/>
			<polygon class="st2" points="1827.9,249.1 1849.8,241.2 1826.1,233.6 1804.2,241.2 			"/>
			<polygon class="st7" points="1805,257.4 1827.9,249.1 1804.2,241.2 1781.3,249.1 			"/>
			<polygon class="st8" points="1780.9,266.1 1805,257.4 1781.3,249.1 1757.2,257.4 			"/>
			<polygon class="st6" points="1755.6,275.2 1780.9,266.1 1757.2,257.4 1731.9,266.1 			"/>
			<polygon class="st2" points="1728.9,284.9 1755.6,275.2 1731.9,266.1 1705.3,275.2 			"/>
			<polygon class="st4" points="1700.8,295 1728.9,284.9 1705.3,275.2 1677.3,284.9 			"/>
			<polygon class="st5" points="1671.1,305.7 1700.8,295 1677.3,284.9 1647.8,295 			"/>
			<polygon class="st3" points="1639.7,317.1 1671.1,305.7 1647.8,295 1616.6,305.7 			"/>
			<polygon class="st3" points="1606.5,329.1 1639.7,317.1 1616.6,305.7 1583.7,317.1 			"/>
			<polygon class="st7" points="1571.2,341.8 1606.5,329.1 1583.7,317.1 1548.8,329.1 			"/>
			<polygon class="st5" points="1533.8,355.3 1571.2,341.8 1548.8,329.1 1511.8,341.8 			"/>
			<polygon class="st3" points="1493.9,369.7 1533.8,355.3 1511.8,341.8 1472.5,355.3 			"/>
			<polygon class="st2" points="1451.4,385.1 1493.9,369.7 1472.5,355.3 1430.6,369.7 			"/>
			<polygon class="st5" points="1405.9,401.5 1451.4,385.1 1430.6,369.7 1386,385.1 			"/>
			<polygon class="st4" points="1357.2,419.1 1405.9,401.5 1386,385.1 1338.3,401.5 			"/>
			<polygon class="st6" points="1304.8,438 1357.2,419.1 1338.3,401.5 1287.1,419.1 			"/>
			<polygon class="st3" points="1248.4,458.4 1304.8,438 1287.1,419.1 1232.2,438 			"/>
			<polygon class="st3" points="1187.5,480.4 1248.4,458.4 1232.2,438 1173,458.4 			"/>
			<polygon class="st6" points="1934.2,226.4 1952.4,219.5 1928,212.9 1909.7,219.5 			"/>
			<polygon class="st7" points="1915.3,233.6 1934.2,226.4 1909.7,219.5 1890.7,226.4 			"/>
			<polygon class="st7" points="1895.4,241.2 1915.3,233.6 1890.7,226.4 1870.7,233.6 			"/>
			<polygon class="st3" points="1874.6,249.1 1895.4,241.2 1870.7,233.6 1849.8,241.2 			"/>
			<polygon class="st3" points="1852.8,257.4 1874.6,249.1 1849.8,241.2 1827.9,249.1 			"/>
			<polygon class="st2" points="1829.9,266.1 1852.8,257.4 1827.9,249.1 1805,257.4 			"/>
			<polygon class="st3" points="1805.8,275.2 1829.9,266.1 1805,257.4 1780.9,266.1 			"/>
			<polygon class="st2" points="1780.5,284.9 1805.8,275.2 1780.9,266.1 1755.6,275.2 			"/>
			<polygon class="st6" points="1753.8,295 1780.5,284.9 1755.6,275.2 1728.9,284.9 			"/>
			<polygon class="st2" points="1725.6,305.7 1753.8,295 1728.9,284.9 1700.8,295 			"/>
			<polygon class="st2" points="1695.7,317.1 1725.6,305.7 1700.8,295 1671.1,305.7 			"/>
			<polygon class="st6" points="1664.2,329.1 1695.7,317.1 1671.1,305.7 1639.7,317.1 			"/>
			<polygon class="st3" points="1630.7,341.8 1664.2,329.1 1639.7,317.1 1606.5,329.1 			"/>
			<polygon class="st3" points="1595.1,355.3 1630.7,341.8 1606.5,329.1 1571.2,341.8 			"/>
			<polygon class="st5" points="1557.2,369.7 1595.1,355.3 1571.2,341.8 1533.8,355.3 			"/>
			<polygon class="st2" points="1516.8,385.1 1557.2,369.7 1533.8,355.3 1493.9,369.7 			"/>
			<polygon class="st5" points="1473.5,401.5 1516.8,385.1 1493.9,369.7 1451.4,385.1 			"/>
			<polygon class="st5" points="1427.2,419.1 1473.5,401.5 1451.4,385.1 1405.9,401.5 			"/>
			<polygon class="st4" points="1377.5,438 1427.2,419.1 1405.9,401.5 1357.2,419.1 			"/>
			<polygon class="st8" points="1323.9,458.4 1377.5,438 1357.2,419.1 1304.8,438 			"/>
			<polygon class="st6" points="1266,480.4 1323.9,458.4 1304.8,438 1248.4,458.4 			"/>
			<polygon class="st2" points="1921.3,249.1 1941,241.2 1915.3,233.6 1895.4,241.2 			"/>
			<polygon class="st6" points="1900.6,257.4 1921.3,249.1 1895.4,241.2 1874.6,249.1 			"/>
			<polygon class="st6" points="1878.9,266.1 1900.6,257.4 1874.6,249.1 1852.8,257.4 			"/>
			<polygon class="st7" points="1856.1,275.2 1878.9,266.1 1852.8,257.4 1829.9,266.1 			"/>
			<polygon class="st2" points="1832.1,284.9 1856.1,275.2 1829.9,266.1 1805.8,275.2 			"/>
			<polygon class="st5" points="1806.8,295 1832.1,284.9 1805.8,275.2 1780.5,284.9 			"/>
			<polygon class="st6" points="1780,305.7 1806.8,295 1780.5,284.9 1753.8,295 			"/>
			<polygon class="st2" points="1751.8,317.1 1780,305.7 1753.8,295 1725.6,305.7 			"/>
			<polygon class="st3" points="1721.8,329.1 1751.8,317.1 1725.6,305.7 1695.7,317.1 			"/>
			<polygon class="st2" points="1690.1,341.8 1721.8,329.1 1695.7,317.1 1664.2,329.1 			"/>
			<polygon class="st3" points="1656.4,355.3 1690.1,341.8 1664.2,329.1 1630.7,341.8 			"/>
			<polygon class="st5" points="1620.5,369.7 1656.4,355.3 1630.7,341.8 1595.1,355.3 			"/>
			<polygon class="st5" points="1582.2,385.1 1620.5,369.7 1595.1,355.3 1557.2,369.7 			"/>
			<polygon class="st7" points="1541.2,401.5 1582.2,385.1 1557.2,369.7 1516.8,385.1 			"/>
			<polygon class="st3" points="1497.3,419.1 1541.2,401.5 1516.8,385.1 1473.5,401.5 			"/>
			<polygon class="st7" points="1450.2,438 1497.3,419.1 1473.5,401.5 1427.2,419.1 			"/>
			<polygon class="st5" points="1399.4,458.4 1450.2,438 1427.2,419.1 1377.5,438 			"/>
			<polygon class="st2" points="1344.5,480.4 1399.4,458.4 1377.5,438 1323.9,458.4 			"/>
			<polygon class="st6" points="1927.9,266.1 1948.4,257.4 1921.3,249.1 1900.6,257.4 			"/>
			<polygon class="st2" points="1906.4,275.2 1927.9,266.1 1900.6,257.4 1878.9,266.1 			"/>
			<polygon class="st6" points="1883.7,284.9 1906.4,275.2 1878.9,266.1 1856.1,275.2 			"/>
			<polygon class="st3" points="1859.8,295 1883.7,284.9 1856.1,275.2 1832.1,284.9 			"/>
			<polygon class="st2" points="1834.5,305.7 1859.8,295 1832.1,284.9 1806.8,295 			"/>
			<polygon class="st7" points="1807.8,317.1 1834.5,305.7 1806.8,295 1780,305.7 			"/>
			<polygon class="st6" points="1779.5,329.1 1807.8,317.1 1780,305.7 1751.8,317.1 			"/>
			<polygon class="st4" points="1749.5,341.8 1779.5,329.1 1751.8,317.1 1721.8,329.1 			"/>
			<polygon class="st5" points="1717.7,355.3 1749.5,341.8 1721.8,329.1 1690.1,341.8 			"/>
			<polygon class="st6" points="1683.7,369.7 1717.7,355.3 1690.1,341.8 1656.4,355.3 			"/>
			<polygon class="st6" points="1647.5,385.1 1683.7,369.7 1656.4,355.3 1620.5,369.7 			"/>
			<polygon class="st7" points="1608.8,401.5 1647.5,385.1 1620.5,369.7 1582.2,385.1 			"/>
			<polygon class="st7" points="1567.4,419.1 1608.8,401.5 1582.2,385.1 1541.2,401.5 			"/>
			<polygon class="st7" points="1522.8,438 1567.4,419.1 1541.2,401.5 1497.3,419.1 			"/>
			<polygon class="st2" points="1474.8,458.4 1522.8,438 1497.3,419.1 1450.2,438 			"/>
			<polygon class="st7" points="1423,480.4 1474.8,458.4 1450.2,438 1399.4,458.4 			"/>
			<polygon class="st6" points="1912.8,295 1935.3,284.9 1906.4,275.2 1883.7,284.9 			"/>
			<polygon class="st7" points="1889,305.7 1912.8,295 1883.7,284.9 1859.8,295 			"/>
			<polygon class="st3" points="1863.8,317.1 1889,305.7 1859.8,295 1834.5,305.7 			"/>
			<polygon class="st5" points="1837.2,329.1 1863.8,317.1 1834.5,305.7 1807.8,317.1 			"/>
			<polygon class="st7" points="1809,341.8 1837.2,329.1 1807.8,317.1 1779.5,329.1 			"/>
			<polygon class="st6" points="1779,355.3 1809,341.8 1779.5,329.1 1749.5,341.8 			"/>
			<polygon class="st3" points="1747,369.7 1779,355.3 1749.5,341.8 1717.7,355.3 			"/>
			<polygon class="st6" points="1712.9,385.1 1747,369.7 1717.7,355.3 1683.7,369.7 			"/>
			<polygon class="st2" points="1676.5,401.5 1712.9,385.1 1683.7,369.7 1647.5,385.1 			"/>
			<polygon class="st7" points="1637.4,419.1 1676.5,401.5 1647.5,385.1 1608.8,401.5 			"/>
			<polygon class="st7" points="1595.5,438 1637.4,419.1 1608.8,401.5 1567.4,419.1 			"/>
			<polygon class="st2" points="1550.3,458.4 1595.5,438 1567.4,419.1 1522.8,438 			"/>
			<polygon class="st2" points="1501.5,480.4 1550.3,458.4 1522.8,438 1474.8,458.4 			"/>
			<polygon class="st2" points="1919.9,317.1 1943.4,305.7 1912.8,295 1889,305.7 			"/>
			<polygon class="st3" points="1894.9,329.1 1919.9,317.1 1889,305.7 1863.8,317.1 			"/>
			<polygon class="st3" points="1868.4,341.8 1894.9,329.1 1863.8,317.1 1837.2,329.1 			"/>
			<polygon class="st2" points="1840.2,355.3 1868.4,341.8 1837.2,329.1 1809,341.8 			"/>
			<polygon class="st5" points="1810.3,369.7 1840.2,355.3 1809,341.8 1779,355.3 			"/>
			<polygon class="st6" points="1778.3,385.1 1810.3,369.7 1779,355.3 1747,369.7 			"/>
			<polygon class="st5" points="1744.1,401.5 1778.3,385.1 1747,369.7 1712.9,385.1 			"/>
			<polygon class="st8" points="1707.5,419.1 1744.1,401.5 1712.9,385.1 1676.5,401.5 			"/>
			<polygon class="st3" points="1668.2,438 1707.5,419.1 1676.5,401.5 1637.4,419.1 			"/>
			<polygon class="st3" points="1625.8,458.4 1668.2,438 1637.4,419.1 1595.5,438 			"/>
			<polygon class="st2" points="1580,480.4 1625.8,458.4 1595.5,438 1550.3,458.4 			"/>
			<polygon class="st3" points="1927.8,341.8 1952.6,329.1 1919.9,317.1 1894.9,329.1 			"/>
			<polygon class="st7" points="1901.5,355.3 1927.8,341.8 1894.9,329.1 1868.4,341.8 			"/>
			<polygon class="st5" points="1873.6,369.7 1901.5,355.3 1868.4,341.8 1840.2,355.3 			"/>
			<polygon class="st8" points="1843.7,385.1 1873.6,369.7 1840.2,355.3 1810.3,369.7 			"/>
			<polygon class="st6" points="1811.8,401.5 1843.7,385.1 1810.3,369.7 1778.3,385.1 			"/>
			<polygon class="st7" points="1777.6,419.1 1811.8,401.5 1778.3,385.1 1744.1,401.5 			"/>
			<polygon class="st5" points="1740.8,438 1777.6,419.1 1744.1,401.5 1707.5,419.1 			"/>
			<polygon class="st2" points="1701.2,458.4 1740.8,438 1707.5,419.1 1668.2,438 			"/>
			<polygon class="st6" points="1658.5,480.4 1701.2,458.4 1668.2,438 1625.8,458.4 			"/>
			<polygon class="st2" points="1909.1,385.1 1936.8,369.7 1901.5,355.3 1873.6,369.7 			"/>
			<polygon class="st5" points="1879.4,401.5 1909.1,385.1 1873.6,369.7 1843.7,385.1 			"/>
			<polygon class="st5" points="1847.6,419.1 1879.4,401.5 1843.7,385.1 1811.8,401.5 			"/>
			<polygon class="st3" points="1813.5,438 1847.6,419.1 1811.8,401.5 1777.6,419.1 			"/>
			<polygon class="st8" points="1776.7,458.4 1813.5,438 1777.6,419.1 1740.8,438 			"/>
			<polygon class="st6" points="1737,480.4 1776.7,458.4 1740.8,438 1701.2,458.4 			"/>
			<polygon class="st7" points="1917.7,419.1 1947.1,401.5 1909.1,385.1 1879.4,401.5 			"/>
			<polygon class="st6" points="1886.2,438 1917.7,419.1 1879.4,401.5 1847.6,419.1 			"/>
			<polygon class="st6" points="1852.2,458.4 1886.2,438 1847.6,419.1 1813.5,438 			"/>
			<polygon class="st2" points="1815.5,480.4 1852.2,458.4 1813.5,438 1776.7,458.4 			"/>
			<polygon class="st6" points="1927.7,458.4 1958.8,438 1917.7,419.1 1886.2,438 			"/>
			<polygon class="st2" points="1894,480.4 1927.7,458.4 1886.2,438 1852.2,458.4 			"/>
		</g>
		<g class="st9">
			<path class="st10" d="M1923.7,135.3l20.1,4.1l-15.7,4.4l-0.1,0l-20.1-4.2L1923.7,135.3z M1939.5,139.6l-15.8-3.2l-11.5,3.1
				l15.9,3.3L1939.5,139.6z"/>
			<path class="st11" d="M1910,139l20.2,4.2l-16.1,4.5l-0.1,0l-20.1-4.3L1910,139z M1926,143.3l-15.9-3.3l-12,3.2l16,3.4L1926,143.3
				z"/>
			<path class="st12" d="M1896,142.8l20.2,4.3l-16.6,4.6l-20.3-4.5L1896,142.8z M1912,147.2l-16-3.4l-12.4,3.3l16.1,3.6L1912,147.2z
				"/>
			<path class="st13" d="M1881.4,146.7l20.3,4.5l-17,4.7l-20.3-4.6L1881.4,146.7z M1897.6,151.2l-16.1-3.6l-13,3.5l16.2,3.7
				L1897.6,151.2z"/>
			<path class="st14" d="M1866.4,150.7l0.1,0l20.2,4.6l-17.5,4.9l-0.1,0l-20.2-4.8L1866.4,150.7z M1882.6,155.4l-16.2-3.7l-13.5,3.6
				l16.2,3.8L1882.6,155.4z"/>
			<path class="st15" d="M1850.9,154.8l20.3,4.8l-18.1,5l-0.1,0l-20.2-4.9L1850.9,154.8z M1867.1,159.7l-16.3-3.8l-14.1,3.8l16.3,4
				L1867.1,159.7z"/>
			<path class="st16" d="M1834.8,159.2l20.3,4.9l-18.6,5.2l-0.1,0l-20.2-5.1L1834.8,159.2z M1851.1,164.2l-16.3-4l-14.7,3.9
				l16.4,4.1L1851.1,164.2z"/>
			<path class="st17" d="M1818.1,163.6l0.1,0l20.2,5.1l-19.2,5.3l-20.3-5.3L1818.1,163.6z M1834.5,168.8l-16.4-4.1l-15.3,4.1
				l16.4,4.3L1834.5,168.8z"/>
			<path class="st18" d="M1800.8,168.3l0.1,0l20.2,5.3l-19.8,5.5l-20.3-5.5L1800.8,168.3z M1817.3,173.6l-16.5-4.3l-16,4.3l16.5,4.5
				L1817.3,173.6z"/>
			<path class="st19" d="M1782.9,173.1l20.3,5.5l-20.5,5.7l-20.3-5.7L1782.9,173.1z M1799.4,178.6l-16.5-4.5l-16.7,4.5l16.5,4.6
				L1799.4,178.6z"/>
			<path class="st20" d="M1764.3,178l20.2,5.7l-21.2,5.9l-20.2-5.9L1764.3,178z M1780.8,183.7l-16.5-4.7l-17.5,4.7l16.5,4.8
				L1780.8,183.7z"/>
			<path class="st21" d="M1745,183.2l0.1,0l20,5.9l-21.9,6.1l-20.1-6.1L1745,183.2z M1761.5,189.1l-16.5-4.8l-18.3,4.9l16.5,5
				L1761.5,189.1z"/>
			<path class="st22" d="M1724.9,188.6l20.1,6.1l-22.7,6.3l-20-6.4L1724.9,188.6z M1741.5,194.7l-16.5-5l-19.1,5.1l16.5,5.3
				L1741.5,194.7z"/>
			<path class="st16" d="M1704,194.2l0.1,0l19.9,6.3l-23.6,6.6l-0.1,0l-19.8-6.6L1704,194.2z M1720.6,200.5l-16.5-5.3l-20,5.4
				l16.5,5.5L1720.6,200.5z"/>
			<path class="st23" d="M1682.3,200l0.1,0l19.8,6.6l-24.5,6.8l-19.8-6.9L1682.3,200z M1698.8,206.6l-16.5-5.5l-20.9,5.6l16.4,5.7
				L1698.8,206.6z"/>
			<path class="st24" d="M1659.7,206.1l19.8,6.9l-25.4,7.1l-0.2-0.1l-19.5-7.1L1659.7,206.1z M1676.1,212.9l-16.5-5.8l-21.9,5.9
				l16.4,6L1676.1,212.9z"/>
			<path class="st25" d="M1636.1,212.4l19.6,7.2l-26.4,7.4l-19.4-7.5L1636.1,212.4z M1652.4,219.5l-16.4-6l-23,6.2l16.3,6.3
				L1652.4,219.5z"/>
			<path class="st15" d="M1611.5,219l19.4,7.5l-27.5,7.7l-0.2-0.1l-19-7.8L1611.5,219z M1627.7,226.3l-16.3-6.3l-24.1,6.5l16.1,6.6
				L1627.7,226.3z"/>
			<path class="st26" d="M1585.8,225.9l19.2,7.8l-28.7,8l-18.9-8.2L1585.8,225.9z M1601.8,233.5l-16.2-6.6l-25.3,6.8l16,6.9
				L1601.8,233.5z"/>
			<path class="st27" d="M1558.9,233.1l0.2,0.1l18.7,8.1l-29.9,8.3l-18.6-8.6L1558.9,233.1z M1574.8,241.1l-16-6.9l-26.6,7.1
				l15.8,7.2L1574.8,241.1z"/>
			<path class="st28" d="M1530.7,240.6l18.6,8.5l-31.3,8.7l-18.3-9L1530.7,240.6z M1546.4,249l-15.8-7.3l-28,7.5l15.5,7.6
				L1546.4,249z"/>
			<path class="st27" d="M1501.2,248.5l0.2,0.1l18.1,8.9l-32.7,9.1l-0.2-0.1l-17.7-9.3L1501.2,248.5z M1516.7,257.2l-15.5-7.6
				l-29.5,7.9l15.2,8L1516.7,257.2z"/>
			<path class="st29" d="M1470.3,256.8l17.8,9.4l-34.3,9.5l-17.4-9.9L1470.3,256.8z M1485.5,265.9l-15.2-8l-31.1,8.3l14.9,8.4
				L1485.5,265.9z"/>
			<path class="st30" d="M1437.9,265.5l17.4,9.8l-36,10l-16.8-10.4L1437.9,265.5z M1452.6,275.1l-14.9-8.5l-32.8,8.8l14.5,8.9
				L1452.6,275.1z"/>
			<path class="st31" d="M1403.7,274.7l16.8,10.3l-37.8,10.5l-16.2-10.9L1403.7,274.7z M1418.1,284.7l-14.5-8.9l-34.7,9.3l14,9.4
				L1418.1,284.7z"/>
			<path class="st32" d="M1367.8,284.3l16.2,10.9l-39.8,11.1l-15.5-11.5L1367.8,284.3z M1381.6,294.8l-14-9.4l-36.7,9.8l13.4,10
				L1381.6,294.8z"/>
			<path class="st10" d="M1329.9,294.5l15.5,11.5l-42,11.7l-14.7-12.1L1329.9,294.5z M1343.1,305.5l-13.5-10l-38.8,10.4l12.8,10.6
				L1343.1,305.5z"/>
			<path class="st12" d="M1289.9,305.2l14.7,12.1l-44.3,12.3l-13.8-12.8L1289.9,305.2z M1302.5,316.8l-12.8-10.6l-41.2,11l12,11.2
				L1302.5,316.8z"/>
			<path class="st33" d="M1247.6,316.5l13.8,12.8l-46.9,13.1l-12.7-13.6L1247.6,316.5z M1259.4,328.8l-12-11.2l-43.7,11.7l11.2,11.9
				L1259.4,328.8z"/>
			<path class="st28" d="M1202.9,328.5l12.7,13.6l-49.7,13.8l-11.5-14.4L1202.9,328.5z M1213.7,341.5l-11.2-11.9l-46.5,12.5
				l10.1,12.7L1213.7,341.5z"/>
			<path class="st14" d="M1155.4,341.2l11.5,14.4l-52.8,14.7l-10.1-15.3L1155.4,341.2z M1165.2,355l-10.1-12.7l-49.5,13.3l8.9,13.5
				L1165.2,355z"/>
			<path class="st34" d="M1105,354.7l10.1,15.3l-56.3,15.7l-8.5-16.3L1105,354.7z M1113.5,369.4l-9-13.5l-52.8,14.1l7.6,14.5
				L1113.5,369.4z"/>
			<path class="st35" d="M1051.3,369.1l8.5,16.3l-60.1,16.7l-6.7-17.4L1051.3,369.1z M1058.3,384.8l-7.6-14.5l-56.4,15.1l6,15.5
				L1058.3,384.8z"/>
			<path class="st36" d="M994,384.5l6.7,17.4l-64.3,17.9l-4.6-18.6L994,384.5z M999.4,401.2l-6-15.5L933,401.9l4.1,16.6L999.4,401.2
				z"/>
			<path class="st37" d="M932.7,400.9l4.6,18.6l-0.5,0.1l-68.5,19.1l-2.2-19.9L932.7,400.9z M936.2,418.8l-4.1-16.6l-64.8,17.4
				l2,17.9L936.2,418.8z"/>
			<path class="st38" d="M867.1,418.5l2.2,19.9l-74.3,20.7l0.6-21.4L867.1,418.5z M868.3,437.7l-2-17.9l-69.6,18.7l-0.5,19.3
				L868.3,437.7z"/>
			<path class="st22" d="M796.7,437.4l-0.6,21.4l-80.2,22.3l3.8-23.1L796.7,437.4z M795.1,458l0.5-19.3l-75,20.1l-3.4,20.9
				L795.1,458z"/>
			<path class="st39" d="M1928.1,142.8l0.1,0l20.6,4.3l-16,4.6l-20.8-4.5L1928.1,142.8z M1944.7,147.2l-16.6-3.5l-11.9,3.3l16.6,3.6
				L1944.7,147.2z"/>
			<path class="st40" d="M1914.1,146.7l0.1,0l20.7,4.4l-16.4,4.8l-0.1,0l-20.8-4.6L1914.1,146.7z M1930.8,151.3l-16.7-3.6l-12.4,3.5
				l16.7,3.7L1930.8,151.3z"/>
			<path class="st41" d="M1899.6,150.7l20.8,4.6l-16.9,4.9l-0.1,0l-20.8-4.8L1899.6,150.7z M1916.4,155.4l-16.8-3.7l-13,3.6
				l16.8,3.8L1916.4,155.4z"/>
			<path class="st42" d="M1884.6,154.8l20.9,4.8l-17.4,5l-21-4.9L1884.6,154.8z M1901.5,159.7l-16.9-3.9l-13.5,3.8l16.9,4
				L1901.5,159.7z"/>
			<path class="st11" d="M1869.1,159.2l0.1,0l20.8,4.9l-18,5.2l-0.1,0l-20.9-5.1L1869.1,159.2z M1886.1,164.2l-17-4l-14.1,3.9
				l17,4.1L1886.1,164.2z"/>
			<path class="st42" d="M1853.1,163.6l20.9,5.1l-18.5,5.4l-21-5.3L1853.1,163.6z M1870.1,168.8l-17-4.2l-14.7,4.1l17.1,4.3
				L1870.1,168.8z"/>
			<path class="st43" d="M1836.4,168.3l0.1,0l20.8,5.3l-19.1,5.5l-0.1,0l-20.9-5.5L1836.4,168.3z M1853.6,173.6l-17.1-4.3l-15.3,4.3
				l17.1,4.5L1853.6,173.6z"/>
			<path class="st39" d="M1819.2,173.1l21,5.5l-19.8,5.7l-0.1,0l-20.8-5.7L1819.2,173.1z M1836.4,178.6l-17.2-4.5l-16,4.5l17.2,4.7
				L1836.4,178.6z"/>
			<path class="st44" d="M1801.3,178l20.9,5.7l-20.4,5.9l-0.1,0l-20.8-5.9L1801.3,178z M1818.5,183.8l-17.2-4.7l-16.7,4.7l17.2,4.9
				L1818.5,183.8z"/>
			<path class="st45" d="M1782.7,183.2l20.9,5.9l-21.2,6.1l-20.9-6.1L1782.7,183.2z M1800,189.1l-17.3-4.9l-17.5,4.9l17.3,5.1
				L1800,189.1z"/>
			<path class="st24" d="M1763.3,188.6l20.9,6.1l-21.9,6.3l-0.1,0l-20.7-6.3L1763.3,188.6z M1780.7,194.7l-17.3-5.1l-18.3,5.1
				l17.3,5.3L1780.7,194.7z"/>
			<path class="st46" d="M1743.2,194.2l0.1,0l20.7,6.3l-22.7,6.6l-20.8-6.6L1743.2,194.2z M1760.6,200.5l-17.3-5.3l-19.2,5.3
				l17.3,5.5L1760.6,200.5z"/>
			<path class="st47" d="M1722.3,200l20.7,6.6l-23.6,6.8l-20.7-6.9L1722.3,200z M1739.6,206.6l-17.3-5.5l-20.1,5.6l17.3,5.8
				L1739.6,206.6z"/>
			<path class="st27" d="M1700.5,206.1l0.1,0l20.5,6.8l-24.5,7.1l-20.6-7.2L1700.5,206.1z M1717.8,212.9l-17.3-5.8l-21,5.9l17.2,6
				L1717.8,212.9z"/>
			<path class="st48" d="M1677.8,212.4l20.5,7.2l-25.5,7.4l-0.2-0.1l-20.2-7.4L1677.8,212.4z M1695,219.5l-17.3-6l-22.1,6.1
				l17.2,6.3L1695,219.5z"/>
			<path class="st49" d="M1654.1,219l0.2,0.1l20.2,7.4l-26.5,7.7l-20.2-7.8L1654.1,219z M1671.2,226.4l-17.2-6.3l-23.2,6.4l17.1,6.6
				L1671.2,226.4z"/>
			<path class="st45" d="M1629.3,225.9l0.2,0.1l20,7.7l-27.7,8l-20-8.2L1629.3,225.9z M1646.4,233.6l-17.1-6.6l-24.3,6.8l17,6.9
				L1646.4,233.6z"/>
			<path class="st13" d="M1603.4,233.1l20,8.1l-28.9,8.4l-19.7-8.5L1603.4,233.1z M1620.3,241.1l-17-6.9l-25.6,7.1l16.8,7.3
				L1620.3,241.1z"/>
			<path class="st50" d="M1576.3,240.6l19.7,8.5l-30.2,8.7l-19.4-8.9L1576.3,240.6z M1593.1,249l-16.8-7.3l-26.9,7.5l16.6,7.6
				L1593.1,249z"/>
			<path class="st51" d="M1547.9,248.5l19.4,8.9l-31.6,9.1l-19.1-9.4L1547.9,248.5z M1564.5,257.3l-16.6-7.7l-28.3,7.9l16.4,8
				L1564.5,257.3z"/>
			<path class="st49" d="M1518.1,256.8l19.1,9.4l-33.1,9.6l-18.7-9.8L1518.1,256.8z M1534.4,265.9l-16.4-8l-29.9,8.3l16.1,8.5
				L1534.4,265.9z"/>
			<path class="st52" d="M1486.9,265.5l0.2,0.1l18.5,9.7l-34.7,10l-18.2-10.3L1486.9,265.5z M1502.9,275.1l-16.1-8.5l-31.5,8.8
				l15.7,8.9L1502.9,275.1z"/>
			<path class="st35" d="M1454,274.7l18.2,10.3l-36.5,10.6l-17.7-10.9L1454,274.7z M1469.6,284.7l-15.8-8.9l-33.3,9.3l15.3,9.4
				L1469.6,284.7z"/>
			<path class="st43" d="M1419.4,284.3l17.6,10.9l-38.4,11.1l-0.2-0.1l-16.8-11.3L1419.4,284.3z M1434.6,294.8l-15.4-9.5l-35.2,9.8
				l14.8,10L1434.6,294.8z"/>
			<path class="st22" d="M1382.9,294.5l17,11.4l-40.4,11.7l-16.3-12.1L1382.9,294.5z M1397.6,305.5l-14.9-10l-37.3,10.4l14.3,10.6
				L1397.6,305.5z"/>
			<path class="st53" d="M1344.4,305.2l16.3,12.1l-42.7,12.4l-15.5-12.8L1344.4,305.2z M1358.5,316.9l-14.3-10.6l-39.6,11l13.6,11.2
				L1358.5,316.9z"/>
			<path class="st54" d="M1303.7,316.5l15.5,12.8l-45.2,13.1l-14.5-13.5L1303.7,316.5z M1317,328.8l-13.6-11.2l-42,11.7l12.8,11.9
				L1317,328.8z"/>
			<path class="st51" d="M1260.5,328.5l14.5,13.5l-47.9,13.9l-13.5-14.4L1260.5,328.5z M1273.1,341.6l-12.8-11.9l-44.7,12.4
				l11.9,12.7L1273.1,341.6z"/>
			<path class="st33" d="M1214.8,341.2l13.4,14.3l-50.9,14.7l-12.2-15.3L1214.8,341.2z M1226.4,355.1l-11.9-12.7l-47.6,13.2
				l10.8,13.6L1226.4,355.1z"/>
			<path class="st18" d="M1166.2,354.8l12.2,15.2l-54.2,15.7l-10.8-16.2L1166.2,354.8z M1176.7,369.5l-10.8-13.6l-50.8,14.1
				l9.6,14.5L1176.7,369.5z"/>
			<path class="st26" d="M1114.5,369.1l10.7,16.2l-57.8,16.7l-9.1-17.3L1114.5,369.1z M1123.7,384.8l-9.6-14.5l-54.3,15.1l8.1,15.5
				L1123.7,384.8z"/>
			<path class="st32" d="M1059.3,384.5l9.1,17.3l-61.9,17.9l-7.2-18.5L1059.3,384.5z M1066.9,401.2l-8.1-15.5l-58.1,16.2l6.4,16.7
				L1066.9,401.2z"/>
			<path class="st55" d="M1000.3,400.9l7.2,18.5l-66.4,19.2l-5-19.9l0.5-0.1L1000.3,400.9z M1006.2,418.8l-6.4-16.7l-62.4,17.4
				l4.5,17.9L1006.2,418.8z"/>
			<path class="st25" d="M937.1,418.5l5,19.9L870.7,459l-2.4-21.4L937.1,418.5z M940.9,437.7l-4.5-17.9l-67.1,18.7l2.2,19.4
				L940.9,437.7z"/>
			<path class="st27" d="M869.2,437.4l2.4,21.4l-77.1,22.3l0.6-23.1L869.2,437.4z M870.5,458l-2.2-19.4l-72.3,20.1l-0.5,20.9
				L870.5,458z"/>
			<path class="st18" d="M1932.8,150.7l21.4,4.6l-16.3,4.9l-21.5-4.8L1932.8,150.7z M1950.2,155.4l-17.4-3.7l-12.4,3.6l17.4,3.9
				L1950.2,155.4z"/>
			<path class="st56" d="M1918.4,154.8l0.1,0l21.3,4.7l-16.8,5.1l-21.6-4.9L1918.4,154.8z M1935.9,159.8l-17.5-3.9l-12.9,3.7l17.5,4
				L1935.9,159.8z"/>
			<path class="st41" d="M1903.5,159.2l0.1,0l21.4,4.9l-17.3,5.2l-0.1,0l-21.5-5.1L1903.5,159.2z M1921.1,164.2l-17.6-4l-13.5,3.9
				l17.6,4.2L1921.1,164.2z"/>
			<path class="st29" d="M1888.1,163.6l21.6,5.1l-17.9,5.4l-21.6-5.3L1888.1,163.6z M1905.8,168.8l-17.7-4.2l-14.1,4.1l17.7,4.3
				L1905.8,168.8z"/>
			<path class="st16" d="M1872.1,168.3l0.1,0l21.5,5.2l-18.4,5.6l-0.1,0l-21.5-5.4L1872.1,168.3z M1889.9,173.6l-17.8-4.3l-14.7,4.2
				l17.8,4.5L1889.9,173.6z"/>
			<path class="st20" d="M1855.5,173.1l21.6,5.5l-19,5.7l-0.1,0l-21.6-5.6L1855.5,173.1z M1873.4,178.6l-17.9-4.5l-15.4,4.4
				l17.9,4.7L1873.4,178.6z"/>
			<path class="st33" d="M1838.3,178l0.1,0l21.5,5.6l-19.7,5.9l-0.1,0l-21.6-5.8L1838.3,178z M1856.2,183.8l-17.9-4.7l-16,4.6
				l18,4.9L1856.2,183.8z"/>
			<path class="st57" d="M1820.4,183.2l0.1,0l21.5,5.8l-20.4,6.1l-0.1,0l-21.5-6.1L1820.4,183.2z M1838.4,189.1l-18-4.9l-16.8,4.9
				l18,5.1L1838.4,189.1z"/>
			<path class="st27" d="M1801.8,188.6l0.1,0l21.5,6.1l-21.1,6.4l-21.7-6.3L1801.8,188.6z M1819.9,194.7l-18.1-5.1l-17.5,5.1
				l18.1,5.3L1819.9,194.7z"/>
			<path class="st55" d="M1782.4,194.2l21.6,6.3l-21.9,6.6l-0.1,0l-21.5-6.6L1782.4,194.2z M1800.6,200.5l-18.1-5.3l-18.4,5.3
				l18.1,5.5L1800.6,200.5z"/>
			<path class="st58" d="M1762.3,200l0.1,0l21.4,6.5l-22.7,6.8l-21.6-6.9L1762.3,200z M1780.5,206.6l-18.2-5.5l-19.2,5.6l18.1,5.8
				L1780.5,206.6z"/>
			<path class="st59" d="M1741.4,206.1l21.5,6.9l-23.6,7.1l-21.5-7.2L1741.4,206.1z M1759.5,212.9l-18.2-5.8l-20.2,5.8l18.1,6
				L1759.5,212.9z"/>
			<path class="st60" d="M1719.5,212.4l21.4,7.1l-24.5,7.4l-21.4-7.5L1719.5,212.4z M1737.6,219.5l-18.2-6.1l-21.2,6.1l18.1,6.3
				L1737.6,219.5z"/>
			<path class="st61" d="M1696.7,219l21.3,7.5l-25.5,7.7l-21.2-7.8L1696.7,219z M1714.8,226.4l-18.1-6.3l-22.2,6.4l18.1,6.6
				L1714.8,226.4z"/>
			<path class="st62" d="M1672.9,225.9l0.2,0.1l21,7.7l-26.6,8l-21.1-8.1L1672.9,225.9z M1690.9,233.6l-18.1-6.6l-23.3,6.8l18,6.9
				L1690.9,233.6z"/>
			<path class="st63" d="M1648,233.1l21,8.1l-27.8,8.4l-0.2-0.1l-20.7-8.4L1648,233.1z M1665.9,241.1l-18-7l-24.5,7.1l17.9,7.3
				L1665.9,241.1z"/>
			<path class="st55" d="M1621.9,240.6l20.8,8.5l-29,8.8l-20.6-8.9L1621.9,240.6z M1639.7,249l-17.9-7.3l-25.8,7.5l17.7,7.7
				L1639.7,249z"/>
			<path class="st16" d="M1594.6,248.5l20.6,8.9l-30.4,9.2l-20.3-9.3L1594.6,248.5z M1612.3,257.3l-17.7-7.7l-27.2,7.9l17.5,8.1
				L1612.3,257.3z"/>
			<path class="st43" d="M1565.9,256.8l20.3,9.3l-31.8,9.6l-20-9.8L1565.9,256.8z M1583.4,266l-17.6-8.1l-28.7,8.3l17.3,8.5
				L1583.4,266z"/>
			<path class="st25" d="M1535.9,265.5l20,9.8l-33.4,10.1l-19.6-10.3L1535.9,265.5z M1553.1,275.1l-17.3-8.5l-30.2,8.8l17,9
				L1553.1,275.1z"/>
			<path class="st64" d="M1504.2,274.7l19.6,10.3l-35.1,10.6l-19.1-10.9L1504.2,274.7z M1521.2,284.7l-17-9l-32,9.2l16.7,9.5
				L1521.2,284.7z"/>
			<path class="st39" d="M1471,284.3l19.1,10.8l-36.9,11.1l-18.6-11.4L1471,284.3z M1487.5,294.9l-16.7-9.5l-33.8,9.8l16.3,10
				L1487.5,294.9z"/>
			<path class="st48" d="M1435.9,294.5l18.6,11.4l-38.9,11.7l-0.2-0.1l-17.7-11.9L1435.9,294.5z M1452,305.6l-16.3-10l-35.8,10.4
				l15.8,10.6L1452,305.6z"/>
			<path class="st65" d="M1398.8,305.2l17.9,12.1l-41.1,12.4l-17.2-12.8L1398.8,305.2z M1414.4,316.9l-15.8-10.6l-38,11l15.2,11.2
				L1414.4,316.9z"/>
			<path class="st54" d="M1359.7,316.5l17.2,12.7l-43.5,13.1l-16.4-13.5L1359.7,316.5z M1374.7,328.9l-15.2-11.3l-40.3,11.7l14.5,12
				L1374.7,328.9z"/>
			<path class="st62" d="M1318.2,328.5l16.4,13.5l-46.1,13.9l-15.4-14.3L1318.2,328.5z M1332.5,341.6l-14.5-12l-42.9,12.4l13.7,12.7
				L1332.5,341.6z"/>
			<path class="st30" d="M1274.2,341.2l15.4,14.3l-48.9,14.7l-14.3-15.2L1274.2,341.2z M1287.6,355.1l-13.7-12.7l-45.7,13.2
				l12.7,13.6L1287.6,355.1z"/>
			<path class="st16" d="M1227.5,354.8l14.3,15.2l-52.1,15.7l-13-16.2L1227.5,354.8z M1239.9,369.5l-12.7-13.6l-48.8,14.1l11.6,14.5
				L1239.9,369.5z"/>
			<path class="st19" d="M1177.7,369.2l13,16.2l-55.6,16.7l-11.5-17.3L1177.7,369.2z M1189,384.8l-11.6-14.5l-52.1,15.1l10.3,15.5
				L1189,384.8z"/>
			<path class="st60" d="M1124.7,384.5l11.4,17.3l-59.5,17.9l-9.7-18.5L1124.7,384.5z M1134.5,401.2l-10.3-15.6l-55.8,16.2l8.8,16.7
				L1134.5,401.2z"/>
			<path class="st64" d="M1067.9,400.9l9.7,18.5l-63.8,19.2l-7.7-19.8L1067.9,400.9z M1076.2,418.8l-8.8-16.7l-59.9,17.3l7,18
				L1076.2,418.8z"/>
			<path class="st61" d="M1007.1,418.5l7.7,19.8L946.2,459l-5.3-21.3L1007.1,418.5z M1013.5,437.7l-7-18l-64.5,18.6l4.8,19.4
				L1013.5,437.7z"/>
			<path class="st51" d="M941.8,437.4l5.3,21.3l-74,22.3l-2.6-23L941.8,437.4z M946,458.1l-4.8-19.4l-69.5,20.1l2.3,21L946,458.1z"
				/>
			<path class="st42" d="M1923.1,163.6l22.2,5.1l-17.2,5.4l-0.1,0l-22.2-5.2L1923.1,163.6z M1941.4,168.9l-18.3-4.2l-13.5,4.1
				l18.4,4.3L1941.4,168.9z"/>
			<path class="st12" d="M1907.7,168.3l0.1,0l22.1,5.2l-17.7,5.6l-22.4-5.5L1907.7,168.3z M1926.2,173.6l-18.5-4.4l-14.1,4.2
				l18.5,4.5L1926.2,173.6z"/>
			<path class="st58" d="M1891.8,173.1l22.3,5.4l-18.3,5.8l-0.1,0l-22.3-5.6L1891.8,173.1z M1910.4,178.6l-18.6-4.5l-14.7,4.4
				l18.6,4.7L1910.4,178.6z"/>
			<path class="st35" d="M1875.2,178l0.1,0l22.2,5.6l-18.9,6l-0.1,0l-22.3-5.8L1875.2,178z M1893.9,183.8l-18.7-4.7l-15.3,4.6
				l18.7,4.9L1893.9,183.8z"/>
			<path class="st66" d="M1858,183.2l0.1,0l22.3,5.8l-19.6,6.2l-22.5-6.1L1858,183.2z M1876.8,189.2l-18.8-4.9l-16,4.8l18.8,5.1
				L1876.8,189.2z"/>
			<path class="st55" d="M1840.2,188.6l22.4,6.1l-20.3,6.4l-0.1,0l-22.3-6.3L1840.2,188.6z M1859.1,194.7l-18.8-5.1l-16.8,5.1
				l18.9,5.3L1859.1,194.7z"/>
			<path class="st67" d="M1821.6,194.2l0.1,0l22.3,6.3l-21,6.6l-22.5-6.6L1821.6,194.2z M1840.6,200.6l-18.9-5.3l-17.6,5.3l18.9,5.6
				L1840.6,200.6z"/>
			<path class="st60" d="M1802.3,200l22.4,6.6l-21.8,6.9l-0.1,0l-22.3-6.8L1802.3,200z M1821.3,206.6l-19-5.6l-18.4,5.5l19,5.8
				L1821.3,206.6z"/>
			<path class="st68" d="M1782.2,206.1l0.1,0l22.3,6.8l-22.7,7.1l-22.4-7.1L1782.2,206.1z M1801.2,212.9l-19-5.8l-19.3,5.8l19,6.1
				L1801.2,212.9z"/>
			<path class="st20" d="M1761.2,212.4l22.4,7.1l-23.6,7.4l-22.3-7.4L1761.2,212.4z M1780.2,219.5l-19.1-6.1l-20.2,6.1l19,6.3
				L1780.2,219.5z"/>
			<path class="st69" d="M1739.3,219l22.3,7.4l-24.6,7.7l-22.2-7.8L1739.3,219z M1758.3,226.4l-19.1-6.4l-21.3,6.4l19,6.6
				L1758.3,226.4z"/>
			<path class="st70" d="M1716.4,225.9l22.2,7.8l-25.6,8l-22.1-8.1L1716.4,225.9z M1735.5,233.6l-19.1-6.7l-22.3,6.7l19,7
				L1735.5,233.6z"/>
			<path class="st13" d="M1692.5,233.1l22.1,8.1l-26.7,8.4l-0.2-0.1l-21.8-8.4L1692.5,233.1z M1711.5,241.1l-19-7l-23.5,7.1
				l18.9,7.3L1711.5,241.1z"/>
			<path class="st64" d="M1667.5,240.6l21.9,8.5l-27.9,8.8l-21.8-8.9L1667.5,240.6z M1686.4,249l-19-7.3l-24.7,7.4l18.8,7.7
				L1686.4,249z"/>
			<path class="st70" d="M1641.3,248.5l21.8,8.9l-29.2,9.2l-21.6-9.3L1641.3,248.5z M1660.1,257.3l-18.9-7.7l-26,7.8l18.7,8.1
				L1660.1,257.3z"/>
			<path class="st71" d="M1613.7,256.8l21.5,9.3l-30.6,9.6l-21.3-9.8L1613.7,256.8z M1632.4,266l-18.7-8.1l-27.4,8.3l18.5,8.5
				L1632.4,266z"/>
			<path class="st72" d="M1584.9,265.5l21.3,9.8l-32.1,10.1l-21-10.3L1584.9,265.5z M1603.3,275.1l-18.6-8.5l-29,8.7l18.3,9
				L1603.3,275.1z"/>
			<path class="st11" d="M1554.5,274.7l20.9,10.3l-33.7,10.6l-20.6-10.8L1554.5,274.7z M1572.7,284.8l-18.3-9l-30.6,9.2l18,9.5
				L1572.7,284.8z"/>
			<path class="st36" d="M1522.5,284.3l20.5,10.8l-35.5,11.1l-20.1-11.4L1522.5,284.3z M1540.5,294.9l-18.1-9.5l-32.4,9.8l17.7,10
				L1540.5,294.9z"/>
			<path class="st32" d="M1488.8,294.5l20.1,11.4l-37.4,11.7l-19.6-12L1488.8,294.5z M1506.4,305.6l-17.7-10l-34.3,10.3l17.3,10.6
				L1506.4,305.6z"/>
			<path class="st68" d="M1453.3,305.2l19.5,12l-39.5,12.4l-18.9-12.7L1453.3,305.2z M1470.4,316.9l-17.3-10.6l-36.4,11l16.8,11.3
				L1470.4,316.9z"/>
			<path class="st63" d="M1415.7,316.5l0.2,0.1l18.7,12.6l-41.7,13.1l-18.2-13.5L1415.7,316.5z M1432.3,328.9l-16.8-11.3l-38.7,11.6
				l16.2,12L1432.3,328.9z"/>
			<path class="st73" d="M1375.9,328.5L1394,342l-44.2,13.9l-17.3-14.3L1375.9,328.5z M1391.9,341.6l-16.2-12l-41.1,12.4l15.5,12.8
				L1391.9,341.6z"/>
			<path class="st11" d="M1333.6,341.2l17.3,14.3l-47,14.8l-16.3-15.2L1333.6,341.2z M1348.9,355.1l-15.5-12.8l-43.8,13.2l14.6,13.6
				L1348.9,355.1z"/>
			<path class="st10" d="M1288.7,354.8l16.3,15.2l-50,15.7l-15.2-16.2L1288.7,354.8z M1303.1,369.5l-14.6-13.6l-46.7,14.1l13.6,14.5
				L1303.1,369.5z"/>
			<path class="st31" d="M1241,369.2l15.2,16.2l-53.3,16.8l-13.8-17.3L1241,369.2z M1254.3,384.9l-13.6-14.6l-50,15.1l12.5,15.6
				L1254.3,384.9z"/>
			<path class="st69" d="M1190,384.5l13.8,17.3l-57,17.9l-12.2-18.5L1190,384.5z M1202.1,401.3l-12.5-15.6l-53.5,16.1l11.1,16.7
				L1202.1,401.3z"/>
			<path class="st26" d="M1135.5,400.9l12.2,18.5l-61.2,19.2l-10.4-19.8L1135.5,400.9z M1146.2,418.8l-11.1-16.7l-57.5,17.3l9.4,18
				L1146.2,418.8z"/>
			<path class="st42" d="M1077.2,418.5l10.4,19.8l-65.8,20.7l-8.2-21.3L1077.2,418.5z M1086.1,437.7l-9.4-18l-61.8,18.6l7.5,19.4
				L1086.1,437.7z"/>
			<path class="st35" d="M1014.4,437.4l8.2,21.3l-71,22.3l-5.7-23L1014.4,437.4z M1021.4,458.1l-7.5-19.4l-66.7,20.1l5.2,21
				L1021.4,458.1z"/>
			<path class="st69" d="M1928.1,173.1l0.1,0l22.9,5.4l-17.6,5.8l-0.1,0l-23-5.6L1928.1,173.1z M1947.4,178.6l-19.3-4.5l-14,4.4
				l19.3,4.7L1947.4,178.6z"/>
			<path class="st39" d="M1912.2,178l0.1,0l22.9,5.6l-18.2,6l-0.1,0l-23-5.8L1912.2,178z M1931.6,183.8l-19.4-4.7l-14.6,4.6
				l19.5,4.9L1931.6,183.8z"/>
			<path class="st43" d="M1895.7,183.2l0.1,0l23,5.8l-18.8,6.2l-23.2-6.1L1895.7,183.2z M1915.3,189.2l-19.5-4.9l-15.3,4.8l19.6,5.1
				L1915.3,189.2z"/>
			<path class="st32" d="M1878.6,188.6l0.1,0l23,6l-19.5,6.4l-23.3-6.3L1878.6,188.6z M1898.3,194.8l-19.6-5.1l-16,5l19.7,5.3
				L1898.3,194.8z"/>
			<path class="st48" d="M1860.8,194.2l23.2,6.3l-20.2,6.6l-23.3-6.6L1860.8,194.2z M1880.6,200.6l-19.7-5.3l-16.8,5.3l19.8,5.6
				L1880.6,200.6z"/>
			<path class="st54" d="M1842.3,200l0.1,0l23.1,6.5l-21,6.9l-23.3-6.8L1842.3,200z M1862.1,206.6l-19.8-5.6l-17.6,5.5l19.9,5.8
				L1862.1,206.6z"/>
			<path class="st58" d="M1823,206.1l23.3,6.8l-21.8,7.2l-0.2,0l-23.2-7.1L1823,206.1z M1842.9,213l-19.9-5.8l-18.4,5.8l19.9,6.1
				L1842.9,213z"/>
			<path class="st31" d="M1802.9,212.4l0.1,0l23.1,7.1l-22.6,7.4l-23.3-7.4L1802.9,212.4z M1822.9,219.5l-20-6.1l-19.3,6.1l20,6.4
				L1822.9,219.5z"/>
			<path class="st74" d="M1781.9,219l23.3,7.4l-23.6,7.7l-0.2-0.1l-23.1-7.7L1781.9,219z M1801.9,226.4l-20-6.4l-20.3,6.4l20,6.7
				L1801.9,226.4z"/>
			<path class="st59" d="M1760,225.9l23.2,7.7l-24.6,8.1l-0.2-0.1l-23-8L1760,225.9z M1780,233.6l-20-6.7l-21.3,6.7l20,7L1780,233.6
				z"/>
			<path class="st33" d="M1737,233.1l23.1,8.1l-25.6,8.4l-23.1-8.5L1737,233.1z M1757.1,241.2l-20-7l-22.4,7.1l20,7.3L1757.1,241.2z
				"/>
			<path class="st37" d="M1713.1,240.6l23,8.5l-26.8,8.8l-22.9-8.9L1713.1,240.6z M1733.1,249l-20-7.3l-23.6,7.4l19.9,7.7
				L1733.1,249z"/>
			<path class="st72" d="M1687.9,248.5l0.2,0.1l22.8,8.8l-28,9.2l-22.8-9.3L1687.9,248.5z M1707.9,257.3l-20-7.7l-24.9,7.8l19.9,8.1
				L1707.9,257.3z"/>
			<path class="st75" d="M1661.6,256.8l0.2,0.1l22.6,9.2l-29.3,9.6l-22.6-9.8L1661.6,256.8z M1681.4,266l-19.9-8.1l-26.2,8.2
				l19.8,8.5L1681.4,266z"/>
			<path class="st60" d="M1633.9,265.5l22.5,9.7l-30.8,10.1l-22.3-10.3L1633.9,265.5z M1653.6,275.2l-19.8-8.6l-27.7,8.7l19.6,9
				L1653.6,275.2z"/>
			<path class="st65" d="M1604.8,274.7l22.3,10.2l-32.3,10.6l-22-10.8L1604.8,274.7z M1624.3,284.8l-19.6-9l-29.3,9.2l19.4,9.5
				L1624.3,284.8z"/>
			<path class="st38" d="M1574.1,284.3l22,10.8l-34,11.2l-21.6-11.4L1574.1,284.3z M1593.5,294.9l-19.4-9.5l-31,9.7l19.1,10.1
				L1593.5,294.9z"/>
			<path class="st54" d="M1541.8,294.5l0.2,0.1l21.4,11.3l-35.8,11.8l-21.2-12L1541.8,294.5z M1560.9,305.6l-19.1-10.1l-32.8,10.3
				l18.8,10.7L1560.9,305.6z"/>
			<path class="st18" d="M1507.7,305.2l0.2,0.1l21,11.9l-37.8,12.4l-20.6-12.7L1507.7,305.2z M1526.4,316.9l-18.8-10.7l-34.8,10.9
				l18.4,11.3L1526.4,316.9z"/>
			<path class="st36" d="M1471.7,316.5l20.6,12.7l-40,13.1l-20-13.4L1471.7,316.5z M1489.9,328.9l-18.4-11.3l-37,11.6l17.9,12
				L1489.9,328.9z"/>
			<path class="st52" d="M1433.5,328.5l20,13.4l-42.4,13.9l-19.3-14.3L1433.5,328.5z M1451.2,341.6l-17.9-12L1394,342l17.3,12.8
				L1451.2,341.6z"/>
			<path class="st28" d="M1393,341.2l19.2,14.3l-45,14.8l-18.4-15.2L1393,341.2z M1410.1,355.2l-17.3-12.8l-41.9,13.2l16.5,13.6
				L1410.1,355.2z"/>
			<path class="st21" d="M1350,354.8l18.4,15.2l-47.9,15.7l-17.4-16.1L1350,354.8z M1366.4,369.5l-16.5-13.7l-44.7,14.1l15.7,14.6
				L1366.4,369.5z"/>
			<path class="st68" d="M1304.2,369.2l17.3,16.1l-51.1,16.8l-16.2-17.2L1304.2,369.2z M1319.6,384.9l-15.7-14.6l-47.8,15l14.6,15.6
				L1319.6,384.9z"/>
			<path class="st76" d="M1255.4,384.5l16.1,17.2l-54.7,18l-14.7-18.4L1255.4,384.5z M1269.7,401.3l-14.6-15.6l-51.3,16.1l13.4,16.8
				L1269.7,401.3z"/>
			<path class="st15" d="M1203.1,400.9l14.7,18.4l-58.6,19.3l-13.1-19.8L1203.1,400.9z M1216.2,418.9l-13.4-16.8l-55,17.3l11.9,18
				L1216.2,418.9z"/>
			<path class="st77" d="M1147.2,418.5l13.1,19.8l-63,20.7l-11.2-21.3L1147.2,418.5z M1158.7,437.8l-11.9-18l-59.2,18.6l10.2,19.5
				L1158.7,437.8z"/>
			<path class="st74" d="M1087.1,437.4l11.1,21.3l-68,22.3l-8.9-22.9L1087.1,437.4z M1096.8,458.1l-10.2-19.5l-63.9,20.1l8.1,21.1
				L1096.8,458.1z"/>
			<path class="st22" d="M1917,188.6l0.1,0l23.8,6l-18.7,6.4l-0.1,0l-23.9-6.3L1917,188.6z M1937.5,194.8l-20.4-5.1l-15.3,5
				l20.5,5.4L1937.5,194.8z"/>
			<path class="st28" d="M1900,194.2l0.1,0l23.9,6.2l-19.3,6.7l-24.1-6.5L1900,194.2z M1920.6,200.6l-20.5-5.4l-16,5.3l20.6,5.6
				L1920.6,200.6z"/>
			<path class="st15" d="M1882.3,200l24.1,6.5l-20.1,6.9l-0.2,0l-24-6.8L1882.3,200z M1903,206.7l-20.7-5.6l-16.8,5.5l20.7,5.8
				L1903,206.7z"/>
			<path class="st17" d="M1863.8,206.1l24.1,6.8l-20.8,7.2l-24.2-7.1L1863.8,206.1z M1884.6,213l-20.8-5.9l-17.6,5.8l20.8,6.1
				L1884.6,213z"/>
			<path class="st78" d="M1844.6,212.4l24.2,7.1l-21.7,7.5l-24.2-7.4L1844.6,212.4z M1865.5,219.6l-20.9-6.1l-18.4,6.1l20.9,6.4
				L1865.5,219.6z"/>
			<path class="st17" d="M1824.5,219l24.2,7.4l-22.6,7.8l-24.2-7.7L1824.5,219z M1845.5,226.4l-21-6.4l-19.4,6.4l21,6.7
				L1845.5,226.4z"/>
			<path class="st79" d="M1803.5,225.9l24.2,7.7l-23.5,8.1l-24.2-8.1L1803.5,225.9z M1824.6,233.6l-21-6.7l-20.3,6.7l21,7
				L1824.6,233.6z"/>
			<path class="st26" d="M1781.6,233.1l0.2,0.1l24,8l-24.5,8.4l-24.2-8.4L1781.6,233.1z M1802.7,241.2l-21.1-7l-21.4,7l21.1,7.4
				L1802.7,241.2z"/>
			<path class="st24" d="M1758.6,240.6l0.2,0.1l24,8.4l-25.6,8.8l-0.2-0.1l-23.9-8.8L1758.6,240.6z M1779.7,249.1l-21.1-7.4
				l-22.5,7.4l21.1,7.7L1779.7,249.1z"/>
			<path class="st75" d="M1734.6,248.5l24.1,8.8l-26.8,9.2l-24-9.3L1734.6,248.5z M1755.7,257.4l-21.1-7.7l-23.7,7.8l21,8.1
				L1755.7,257.4z"/>
			<path class="st80" d="M1709.4,256.8l24,9.3l-28.1,9.7l-23.9-9.7L1709.4,256.8z M1730.4,266l-21.1-8.1l-25,8.2l21,8.6L1730.4,266z
				"/>
			<path class="st56" d="M1682.9,265.5l0.2,0.1l23.7,9.7l-29.4,10.1l-23.7-10.2L1682.9,265.5z M1703.9,275.2l-21-8.6l-26.4,8.7
				l20.9,9L1703.9,275.2z"/>
			<path class="st13" d="M1655,274.7l23.6,10.2l-30.9,10.6l-23.4-10.8L1655,274.7z M1675.9,284.8l-20.9-9l-27.9,9.2l20.7,9.5
				L1675.9,284.8z"/>
			<path class="st32" d="M1625.7,284.3l23.4,10.8l-32.5,11.2l-23.1-11.4L1625.7,284.3z M1646.4,294.9l-20.8-9.6l-29.6,9.7l20.6,10.1
				L1646.4,294.9z"/>
			<path class="st24" d="M1594.8,294.5l23.1,11.3l-34.3,11.8l-22.8-12L1594.8,294.5z M1615.3,305.6l-20.6-10.1l-31.3,10.3l20.3,10.7
				L1615.3,305.6z"/>
			<path class="st15" d="M1562.2,305.2l0.2,0.1l22.6,11.9l-36.2,12.5l-22.3-12.7L1562.2,305.2z M1582.4,317l-20.3-10.7l-33.2,10.9
				l20,11.3L1582.4,317z"/>
			<path class="st77" d="M1527.7,316.5l22.3,12.7l-38.3,13.2l-21.8-13.4L1527.7,316.5z M1547.6,329l-20-11.3l-35.3,11.6l19.6,12
				L1547.6,329z"/>
			<path class="st18" d="M1491.2,328.5l21.8,13.4l-40.5,14l-21.2-14.2L1491.2,328.5z M1510.6,341.7l-19.6-12.1l-37.6,12.3l19.1,12.8
				L1510.6,341.7z"/>
			<path class="st37" d="M1452.5,341.2l21.2,14.2l-43.1,14.8l-20.4-15.1L1452.5,341.2z M1471.4,355.2l-19.1-12.8l-40,13.1l18.5,13.7
				L1471.4,355.2z"/>
			<path class="st26" d="M1411.3,354.8l20.4,15.1l-45.8,15.8l-19.5-16.1L1411.3,354.8z M1429.6,369.6l-18.5-13.7l-42.7,14l17.7,14.6
				L1429.6,369.6z"/>
			<path class="st81" d="M1367.5,369.2l19.5,16.1l-48.9,16.8l-18.5-17.2L1367.5,369.2z M1385,384.9l-17.7-14.6l-45.7,15l16.8,15.6
				L1385,384.9z"/>
			<path class="st74" d="M1320.7,384.5l18.5,17.2l-52.2,18l-17.3-18.4L1320.7,384.5z M1337.3,401.3l-16.8-15.7l-49,16.1l15.7,16.8
				L1337.3,401.3z"/>
			<path class="st76" d="M1270.8,400.9l17.2,18.4l-56,19.3l-15.8-19.7L1270.8,400.9z M1286.2,418.9l-15.7-16.8l-52.6,17.3l14.4,18.1
				L1286.2,418.9z"/>
			<path class="st82" d="M1217.2,418.5l15.8,19.7l-60.2,20.7l-14.1-21.2L1217.2,418.5z M1231.3,437.8l-14.5-18.1l-56.6,18.6
				l12.9,19.5L1231.3,437.8z"/>
			<path class="st20" d="M1159.7,437.4l14,21.2l-64.9,22.3l-12-22.9L1159.7,437.4z M1172.2,458.1l-12.9-19.5l-61.1,20.1l11.1,21.1
				L1172.2,458.1z"/>
			<path class="st63" d="M1922.3,200l24.9,6.5l-19.2,6.9l-25-6.8L1922.3,200z M1943.8,206.7l-21.5-5.6l-15.9,5.5l21.6,5.9
				L1943.8,206.7z"/>
			<path class="st81" d="M1904.7,206.1l25,6.8l-19.9,7.2l-0.2,0l-25-7L1904.7,206.1z M1926.4,213l-21.6-5.9l-16.7,5.8l21.7,6.1
				L1926.4,213z"/>
			<path class="st27" d="M1886.3,212.4l0.2,0l24.9,7l-20.7,7.5l-25.2-7.4L1886.3,212.4z M1908.1,219.6l-21.8-6.1l-17.5,6l21.9,6.4
				L1908.1,219.6z"/>
			<path class="st55" d="M1867.1,219l25.2,7.4l-21.6,7.8l-0.2,0l-25.1-7.7L1867.1,219z M1889,226.5l-21.9-6.4l-18.4,6.3l22,6.7
				L1889,226.5z"/>
			<path class="st35" d="M1847.1,225.9l0.2,0l25,7.6l-22.5,8.1l-0.2-0.1l-25.1-8L1847.1,225.9z M1869.1,233.7l-22-6.7l-19.4,6.7
				l22.1,7L1869.1,233.7z"/>
			<path class="st37" d="M1826.1,233.1l25.2,8l-23.4,8.5l-25.3-8.4L1826.1,233.1z M1848.3,241.2l-22.1-7l-20.4,7l22.1,7.4
				L1848.3,241.2z"/>
			<path class="st42" d="M1804.2,240.6l25.2,8.4l-24.5,8.8l-25.3-8.8L1804.2,240.6z M1826.4,249.1l-22.2-7.4l-21.4,7.4l22.2,7.8
				L1826.4,249.1z"/>
			<path class="st17" d="M1781.3,248.5l25.2,8.8l-25.6,9.2l-25.2-9.2L1781.3,248.5z M1803.5,257.4l-22.2-7.8l-22.6,7.8l22.2,8.2
				L1803.5,257.4z"/>
			<path class="st38" d="M1757.2,256.8l0.2,0.1l25,9.2l-26.8,9.7l-25.1-9.7L1757.2,256.8z M1779.4,266.1l-22.3-8.2l-23.8,8.2
				l22.2,8.6L1779.4,266.1z"/>
			<path class="st49" d="M1731.9,265.5l25.1,9.7l-28.1,10.2l-25-10.2L1731.9,265.5z M1754.1,275.2l-22.3-8.6l-25.2,8.7l22.2,9.1
				L1754.1,275.2z"/>
			<path class="st78" d="M1705.3,274.7l25,10.2l-29.5,10.7l-24.9-10.7L1705.3,274.7z M1727.5,284.8l-22.2-9.1l-26.6,9.2l22.1,9.6
				L1727.5,284.8z"/>
			<path class="st64" d="M1677.3,284.3l24.8,10.7l-31.1,11.2l-24.6-11.3L1677.3,284.3z M1699.4,295l-22.1-9.6l-28.1,9.7l22,10.1
				L1699.4,295z"/>
			<path class="st83" d="M1647.8,294.5l24.6,11.3l-32.7,11.8l-24.4-12L1647.8,294.5z M1669.8,305.7l-22-10.1l-29.8,10.3l21.8,10.7
				L1669.8,305.7z"/>
			<path class="st42" d="M1616.7,305.2l24.3,11.9l-34.5,12.5l-0.2-0.1l-23.8-12.5L1616.7,305.2z M1638.4,317l-21.9-10.7l-31.6,10.9
				l21.6,11.4L1638.4,317z"/>
			<path class="st20" d="M1583.7,316.5l24,12.6l-36.5,13.2l-23.6-13.4L1583.7,316.5z M1605.2,329l-21.6-11.4l-33.6,11.6l21.3,12.1
				L1605.2,329z"/>
			<path class="st11" d="M1548.9,328.5l23.6,13.4l-38.7,14l-23.1-14.2L1548.9,328.5z M1570,341.7l-21.3-12.1l-35.8,12.3l20.9,12.8
				L1570,341.7z"/>
			<path class="st56" d="M1511.9,341.2l23.1,14.2l-41.1,14.8l-0.2-0.1l-22.3-15L1511.9,341.2z M1532.6,355.2l-20.9-12.9l-38.1,13.1
				l20.4,13.7L1532.6,355.2z"/>
			<path class="st59" d="M1472.6,354.8l22.4,15.1l-43.7,15.8l-21.7-16.1L1472.6,354.8z M1492.8,369.6l-20.4-13.7l-40.7,14l19.8,14.6
				L1492.8,369.6z"/>
			<path class="st27" d="M1430.7,369.2l21.7,16.1l-46.6,16.8l-20.8-17.2L1430.7,369.2z M1450.3,384.9l-19.8-14.7l-43.6,15l19,15.7
				L1450.3,384.9z"/>
			<path class="st47" d="M1386.1,384.5l20.8,17.2l-49.8,18l-19.7-18.4L1386.1,384.5z M1404.9,401.3l-19-15.7l-46.7,16.1l18.1,16.8
				L1404.9,401.3z"/>
			<path class="st80" d="M1338.4,400.9l19.7,18.4l-53.4,19.3l-18.5-19.7L1338.4,400.9z M1356.2,418.9l-18.1-16.8l-50.1,17.3l17,18.1
				L1356.2,418.9z"/>
			<path class="st30" d="M1287.2,418.5l18.5,19.7l-57.4,20.7l-16.9-21.2L1287.2,418.5z M1303.9,437.8l-17-18.1l-54,18.6l15.6,19.5
				L1303.9,437.8z"/>
			<path class="st73" d="M1232.3,437.4l16.9,21.2l-61.9,22.4l-15.1-22.9L1232.3,437.4z M1247.6,458.2l-15.6-19.5l-58.2,20l14,21.1
				L1247.6,458.2z"/>
			<path class="st28" d="M1928,212.4l26,7l-19.7,7.5l-26.1-7.4L1928,212.4z M1950.7,219.6l-22.7-6.2l-16.7,6l22.8,6.4L1950.7,219.6z
				"/>
			<path class="st35" d="M1909.7,219l0.2,0l25.9,7.3l-20.5,7.8l-0.2,0l-26.1-7.6L1909.7,219z M1932.6,226.5l-22.9-6.4l-17.5,6.3
				l23,6.7L1932.6,226.5z"/>
			<path class="st28" d="M1890.6,225.9l26.2,7.7l-21.4,8.1l-26.3-8L1890.6,225.9z M1913.7,233.7l-23-6.7l-18.4,6.6l23.1,7.1
				L1913.7,233.7z"/>
			<path class="st82" d="M1870.7,233.1l0.2,0l26.1,8l-22.3,8.5l-26.4-8.4L1870.7,233.1z M1893.9,241.2l-23.2-7.1l-19.3,7l23.2,7.4
				L1893.9,241.2z"/>
			<path class="st71" d="M1849.8,240.6l0.2,0.1l26.2,8.3l-23.3,8.9l-26.4-8.8L1849.8,240.6z M1873.1,249.1l-23.3-7.4l-20.4,7.4
				l23.3,7.8L1873.1,249.1z"/>
			<path class="st64" d="M1827.9,248.5l26.4,8.8l-24.4,9.3l-26.4-9.2L1827.9,248.5z M1851.3,257.4l-23.4-7.8l-21.5,7.8l23.4,8.2
				L1851.3,257.4z"/>
			<path class="st46" d="M1805,256.8l26.4,9.2l-25.5,9.7l-26.4-9.7L1805,256.8z M1828.4,266.1l-23.5-8.2l-22.6,8.2l23.5,8.6
				L1828.4,266.1z"/>
			<path class="st49" d="M1780.9,265.5l26.4,9.7l-26.8,10.2l-26.4-10.2L1780.9,265.5z M1804.4,275.2l-23.5-8.6l-23.9,8.6l23.5,9.1
				L1804.4,275.2z"/>
			<path class="st37" d="M1755.6,274.7l26.3,10.2l-28.1,10.7l-26.3-10.7L1755.6,274.7z M1779.1,284.8l-23.5-9.1l-25.3,9.1l23.5,9.6
				L1779.1,284.8z"/>
			<path class="st60" d="M1728.9,284.3l26.2,10.7l-29.6,11.2l-26.1-11.3L1728.9,284.3z M1752.4,295l-23.5-9.6l-26.7,9.7l23.4,10.1
				L1752.4,295z"/>
			<path class="st62" d="M1700.8,294.5l26.1,11.3l-31.2,11.8l-26-11.9L1700.8,294.5z M1724.2,305.7l-23.5-10.2l-28.3,10.2l23.4,10.7
				L1724.2,305.7z"/>
			<path class="st43" d="M1671.1,305.2l25.9,11.9l-32.9,12.5l-25.7-12.6L1671.1,305.2z M1694.4,317l-23.4-10.8l-30.1,10.9l23.2,11.4
				L1694.4,317z"/>
			<path class="st59" d="M1639.7,316.5l25.7,12.6l-34.8,13.2l-25.4-13.4L1639.7,316.5z M1662.9,329l-23.2-11.4l-32,11.5l23,12.1
				L1662.9,329z"/>
			<path class="st31" d="M1606.5,328.5l0.2,0.1l25.2,13.2l-36.8,14l-0.2-0.1l-24.8-14.1L1606.5,328.5z M1629.5,341.7l-23-12.1
				l-34,12.3l22.7,12.9L1629.5,341.7z"/>
			<path class="st84" d="M1571.3,341.2l25,14.2l-39.1,14.9l-24.5-15.1L1571.3,341.2z M1593.9,355.2l-22.7-12.9l-36.3,13.1l22.3,13.7
				L1593.9,355.2z"/>
			<path class="st40" d="M1533.8,354.8l24.5,15.1l-41.6,15.8l-23.9-16.1L1533.8,354.8z M1556.1,369.6l-22.3-13.7l-38.7,14l21.8,14.7
				L1556.1,369.6z"/>
			<path class="st49" d="M1494,369.2l0.2,0.1l23.7,15.9l-44.4,16.9l-23.1-17.1L1494,369.2z M1515.7,385l-21.8-14.7l-41.4,15
				l21.2,15.7L1515.7,385z"/>
			<path class="st78" d="M1451.5,384.5l23.1,17.1l-47.4,18l-22.2-18.3L1451.5,384.5z M1472.5,401.4l-21.2-15.7l-44.4,16l20.4,16.9
				L1472.5,401.4z"/>
			<path class="st56" d="M1406,400.9l22.2,18.3l-50.8,19.3l-21.1-19.7L1406,400.9z M1426.3,419l-20.5-16.9l-47.7,17.2l19.5,18.1
				L1426.3,419z"/>
			<path class="st37" d="M1357.3,418.5l21.1,19.7l-54.7,20.8l-19.8-21.2L1357.3,418.5z M1376.6,437.8l-19.5-18.2l-51.4,18.5
				l18.3,19.6L1376.6,437.8z"/>
			<path class="st20" d="M1305,437.4l19.8,21.2l-58.9,22.4l-18.3-22.8L1305,437.4z M1323,458.2l-18.4-19.6l-55.4,20l16.9,21.2
				L1323,458.2z"/>
			<path class="st80" d="M1915.2,233.1l0.2,0l27.1,7.9l-21.2,8.5l-0.2-0.1l-27.3-8.3L1915.2,233.1z M1939.5,241.2l-24.2-7.1l-18.3,7
				l24.3,7.4L1939.5,241.2z"/>
			<path class="st77" d="M1895.4,240.6l27.4,8.4l-22.2,8.9l-27.5-8.8L1895.4,240.6z M1919.8,249.1l-24.4-7.4l-19.3,7.3l24.5,7.8
				L1919.8,249.1z"/>
			<path class="st77" d="M1874.6,248.5l27.5,8.8l-23.2,9.3l-27.6-9.2L1874.6,248.5z M1899.1,257.4l-24.5-7.8l-20.3,7.7l24.6,8.2
				L1899.1,257.4z"/>
			<path class="st60" d="M1852.8,256.8l27.6,9.2l-24.3,9.7l-27.7-9.7L1852.8,256.8z M1877.5,266.1l-24.7-8.2l-21.5,8.2l24.7,8.6
				L1877.5,266.1z"/>
			<path class="st76" d="M1829.9,265.5l27.6,9.7l-25.4,10.2l-0.2-0.1l-27.5-10.1L1829.9,265.5z M1854.7,275.3l-24.8-8.7l-22.7,8.6
				l24.8,9.1L1854.7,275.3z"/>
			<path class="st85" d="M1805.8,274.7l27.7,10.1l-26.7,10.7l-27.7-10.7L1805.8,274.7z M1830.7,284.9l-24.9-9.1l-24,9.1l24.9,9.6
				L1830.7,284.9z"/>
			<path class="st86" d="M1780.5,284.3l27.6,10.7l-28.1,11.3l-0.2-0.1l-27.4-11.2L1780.5,284.3z M1805.4,295l-24.9-9.6l-25.4,9.6
				l24.9,10.2L1805.4,295z"/>
			<path class="st64" d="M1753.8,294.5l0.2,0.1l27.4,11.2l-29.6,11.9l-27.5-11.9L1753.8,294.5z M1778.7,305.7l-24.9-10.2l-26.9,10.2
				l24.9,10.8L1778.7,305.7z"/>
			<path class="st43" d="M1725.6,305.2l27.5,11.9l-31.2,12.5l-27.4-12.6L1725.6,305.2z M1750.5,317l-24.9-10.8l-28.5,10.8l24.8,11.4
				L1750.5,317z"/>
			<path class="st48" d="M1695.8,316.5l27.3,12.6l-33,13.2l-27.2-13.3L1695.8,316.5z M1720.6,329l-24.9-11.4l-30.3,11.5l24.7,12.1
				L1720.6,329z"/>
			<path class="st78" d="M1664.2,328.5l27.1,13.3l-35,14l-0.2-0.1l-26.7-14L1664.2,328.5z M1688.9,341.8l-24.7-12.1l-32.3,12.3
				l24.5,12.9L1688.9,341.8z"/>
			<path class="st73" d="M1630.7,341.2l26.9,14.1l-37.1,14.9l-0.2-0.1l-26.3-14.9L1630.7,341.2z M1655.2,355.3l-24.5-12.9
				l-34.4,13.1l24.2,13.8L1655.2,355.3z"/>
			<path class="st21" d="M1595.1,354.8l0.2,0.1l26.3,14.9l-39.5,15.8l-26-16L1595.1,354.8z M1619.3,369.7l-24.3-13.8l-36.7,14
				l23.9,14.7L1619.3,369.7z"/>
			<path class="st56" d="M1557.2,369.2l26,16l-42.1,16.9l-25.4-17.1L1557.2,369.2z M1581,385l-23.9-14.7l-39.3,14.9l23.4,15.7
				L1581,385z"/>
			<path class="st17" d="M1516.8,384.5l25.4,17.1l-45,18.1l-24.7-18.3L1516.8,384.5z M1540.1,401.4l-23.4-15.8l-42.1,16l22.8,16.9
				L1540.1,401.4z"/>
			<path class="st84" d="M1473.6,401l24.7,18.3l-48.3,19.4l-23.8-19.6L1473.6,401z M1496.3,419l-22.8-16.9l-45.3,17.2l22,18.2
				L1496.3,419z"/>
			<path class="st67" d="M1427.3,418.5l23.8,19.6l-51.9,20.8l-22.7-21.1L1427.3,418.5z M1449.2,437.9l-22-18.2l-48.7,18.5l21.1,19.6
				L1449.2,437.9z"/>
			<path class="st74" d="M1377.6,437.5l22.7,21.1l-55.9,22.4l-21.4-22.8L1377.6,437.5z M1398.5,458.2l-21.1-19.6l-52.6,20l19.9,21.2
				L1398.5,458.2z"/>
			<path class="st33" d="M1921.3,248.5l0.2,0.1l28.5,8.7l-21.9,9.3l-28.8-9.2L1921.3,248.5z M1947,257.4l-25.7-7.8l-19.2,7.7
				l25.8,8.2L1947,257.4z"/>
			<path class="st86" d="M1900.6,256.8l28.8,9.2l-23,9.8l-28.9-9.6L1900.6,256.8z M1926.5,266.1l-25.9-8.2l-20.3,8.1l26,8.7
				L1926.5,266.1z"/>
			<path class="st27" d="M1878.9,265.5l28.9,9.6l-24.1,10.2l-29-10.1L1878.9,265.5z M1905,275.3l-26-8.7l-21.4,8.6l26.1,9.1
				L1905,275.3z"/>
			<path class="st74" d="M1856.1,274.7l29,10.1l-25.3,10.7l-29.1-10.7L1856.1,274.7z M1882.3,284.9l-26.2-9.1l-22.6,9.1l26.3,9.6
				L1882.3,284.9z"/>
			<path class="st70" d="M1832.1,284.3l0.2,0.1l28.9,10.6l-26.6,11.3l-29.1-11.3L1832.1,284.3z M1858.4,295l-26.3-9.7l-24,9.6
				l26.4,10.2L1858.4,295z"/>
			<path class="st38" d="M1806.8,294.5l29.1,11.2l-28,11.9l-29.1-11.9L1806.8,294.5z M1833.2,305.8l-26.4-10.2l-25.4,10.2l26.4,10.8
				L1833.2,305.8z"/>
			<path class="st21" d="M1780,305.2l0.2,0.1l28.9,11.8l-29.6,12.6l-29.1-12.6L1780,305.2z M1806.5,317.1l-26.5-10.8l-27,10.8
				l26.5,11.4L1806.5,317.1z"/>
			<path class="st87" d="M1751.8,316.5l29,12.6l-31.3,13.3l-28.9-13.3L1751.8,316.5z M1778.3,329.1l-26.5-11.5l-28.7,11.5l26.4,12.2
				L1778.3,329.1z"/>
			<path class="st74" d="M1721.9,328.5l28.9,13.3l-33.1,14.1l-28.8-14.1L1721.9,328.5z M1748.3,341.8l-26.5-12.2l-30.5,12.2
				l26.3,12.9L1748.3,341.8z"/>
			<path class="st75" d="M1690.1,341.3l28.7,14.1l-35.2,14.9l-28.5-15L1690.1,341.3z M1716.5,355.3l-26.4-12.9l-32.5,13l26.2,13.8
				L1716.5,355.3z"/>
			<path class="st69" d="M1656.4,354.8l0.2,0.1l28.3,14.9l-37.4,15.9l-28.2-16L1656.4,354.8z M1682.6,369.7l-26.2-13.8l-34.7,13.9
				l26,14.7L1682.6,369.7z"/>
			<path class="st64" d="M1620.5,369.2l0.2,0.1l28,15.9l-39.9,16.9L1581,385L1620.5,369.2z M1646.4,385l-26-14.7l-37.2,14.9
				l25.6,15.8L1646.4,385z"/>
			<path class="st51" d="M1582.2,384.5l27.7,17.1l-42.6,18.1l-27.2-18.3L1582.2,384.5z M1607.8,401.4l-25.6-15.8l-39.8,16l25.2,16.9
				L1607.8,401.4z"/>
			<path class="st86" d="M1541.3,401l27.2,18.3l-45.7,19.4l-26.5-19.6L1541.3,401z M1566.3,419l-25.2-16.9l-42.8,17.2l24.6,18.2
				L1566.3,419z"/>
			<path class="st45" d="M1497.4,418.6l26.4,19.6l-49.1,20.8l-25.6-21.1L1497.4,418.6z M1521.8,437.9l-24.6-18.2l-46.1,18.5
				l23.8,19.6L1521.8,437.9z"/>
			<path class="st87" d="M1450.2,437.5l25.6,21.1l-52.9,22.4l-24.5-22.8L1450.2,437.5z M1473.9,458.3l-23.8-19.7l-49.8,20l22.8,21.2
				L1473.9,458.3z"/>
			<path class="st79" d="M1906.4,274.7l30.3,10.1l-23.9,10.8l-30.5-10.7L1906.4,274.7z M1933.9,284.9l-27.5-9.2l-21.3,9.1l27.7,9.7
				L1933.9,284.9z"/>
			<path class="st20" d="M1883.7,284.3l0.2,0.1l30.3,10.6l-25.1,11.3l-30.6-11.2L1883.7,284.3z M1911.4,295.1l-27.7-9.7l-22.6,9.6
				l27.8,10.2L1911.4,295.1z"/>
			<path class="st40" d="M1859.7,294.5l30.6,11.2l-26.5,11.9l-30.7-11.9L1859.7,294.5z M1887.7,305.8l-27.9-10.2l-23.9,10.2l28,10.8
				L1887.7,305.8z"/>
			<path class="st80" d="M1834.5,305.2l30.6,11.8l-27.9,12.6l-30.7-12.5L1834.5,305.2z M1862.5,317.1l-28-10.8l-25.4,10.8l28.1,11.5
				L1862.5,317.1z"/>
			<path class="st42" d="M1807.8,316.5l30.7,12.5l-29.5,13.3l-30.7-13.3L1807.8,316.5z M1835.9,329.1l-28.1-11.5l-27,11.5l28.2,12.2
				L1835.9,329.1z"/>
			<path class="st69" d="M1779.5,328.5l30.7,13.3l-31.3,14.1l-30.7-14.1L1779.5,328.5z M1807.7,341.8l-28.2-12.2l-28.8,12.2l28.2,13
				L1807.7,341.8z"/>
			<path class="st55" d="M1749.5,341.2l30.6,14.1l-33.2,15l-30.5-15L1749.5,341.2z M1777.7,355.3l-28.2-13l-30.7,13l28.2,13.8
				L1777.7,355.3z"/>
			<path class="st22" d="M1717.7,354.8l30.5,15l-35.3,15.9l-30.3-16L1717.7,354.8z M1745.8,369.7l-28.2-13.8l-32.7,13.9l28,14.8
				L1745.8,369.7z"/>
			<path class="st61" d="M1683.8,369.2l30.3,16l-37.6,17l-30.1-17.1L1683.8,369.2z M1711.8,385.1l-28.1-14.8l-35,14.9l27.9,15.8
				L1711.8,385.1z"/>
			<path class="st58" d="M1647.6,384.5l30,17l-40.2,18.1l-29.7-18.3L1647.6,384.5z M1675.4,401.5l-27.9-15.8l-37.6,16l27.5,17
				L1675.4,401.5z"/>
			<path class="st88" d="M1608.9,401l29.6,18.2l-43.1,19.4l-29.1-19.6L1608.9,401z M1636.4,419.1l-27.6-17l-40.4,17.1l27.1,18.2
				L1636.4,419.1z"/>
			<path class="st29" d="M1567.4,418.6l0.2,0.2l28.9,19.4l-46.3,20.9l-0.2-0.2l-28.2-20.9L1567.4,418.6z M1594.5,437.9l-27.2-18.3
				l-43.5,18.5l26.6,19.7L1594.5,437.9z"/>
			<path class="st74" d="M1522.9,437.5l28.4,21l-49.9,22.5l-27.5-22.7L1522.9,437.5z M1549.3,458.3l-26.6-19.7l-47,19.9l25.8,21.3
				L1549.3,458.3z"/>
			<path class="st84" d="M1912.7,294.5l0.2,0.1l31.8,11.1l-24.9,11.9l-32.2-11.8L1912.7,294.5z M1942.1,305.8l-29.4-10.3l-22.5,10.1
				l29.5,10.8L1942.1,305.8z"/>
			<path class="st71" d="M1889,305.2l32.2,11.8l-26.2,12.6l-32.4-12.5L1889,305.2z M1918.6,317.1l-29.6-10.9l-23.9,10.8l29.7,11.5
				L1918.6,317.1z"/>
			<path class="st44" d="M1863.8,316.5l32.3,12.5l-27.7,13.3l-32.5-13.3L1863.8,316.5z M1893.6,329.1l-29.8-11.5l-25.4,11.4
				l29.9,12.2L1893.6,329.1z"/>
			<path class="st42" d="M1837.2,328.5l32.4,13.2l-29.4,14.1l-32.5-14.1L1837.2,328.5z M1867.2,341.8l-29.9-12.2l-27,12.2l30,13
				L1867.2,341.8z"/>
			<path class="st27" d="M1809,341.3l32.5,14l-31.2,15l-32.5-15L1809,341.3z M1839,355.3l-30.1-13l-28.8,13l30.1,13.8L1839,355.3z"
				/>
			<path class="st38" d="M1779,354.8l32.5,14.9l-33.1,15.9l-0.2-0.1l-32.3-15.8L1779,354.8z M1809.1,369.7l-30.2-13.9l-30.8,13.9
				l30.1,14.8L1809.1,369.7z"/>
			<path class="st41" d="M1747,369.2l32.4,15.9l-35.3,17l-32.3-17L1747,369.2z M1777.2,385.1l-30.2-14.8l-32.9,14.8l30.1,15.8
				L1777.2,385.1z"/>
			<path class="st46" d="M1712.9,384.5l32.3,17l-37.8,18.1l-32.1-18.2L1712.9,384.5z M1743,401.5l-30.1-15.8l-35.3,15.9l29.9,17
				L1743,401.5z"/>
			<path class="st41" d="M1676.5,401l32.1,18.2l-40.4,19.4l-31.8-19.5L1676.5,401z M1706.4,419.1l-30-17l-38,17.1l29.7,18.3
				L1706.4,419.1z"/>
			<path class="st48" d="M1637.5,418.6l31.7,19.5l-43.5,20.9l-0.2-0.2l-31-20.9L1637.5,418.6z M1667.1,438l-29.7-18.3l-40.9,18.4
				l29.3,19.7L1667.1,438z"/>
			<path class="st87" d="M1595.5,437.5l31.2,21L1580,481l-30.6-22.7L1595.5,437.5z M1624.8,458.3l-29.3-19.7l-44.1,19.9l28.8,21.3
				L1624.8,458.3z"/>
			<path class="st57" d="M1919.8,316.5l34,12.5l-26,13.4l-34.2-13.2L1919.8,316.5z M1951.3,329.1l-31.4-11.5l-23.7,11.4l31.7,12.2
				L1951.3,329.1z"/>
			<path class="st43" d="M1894.9,328.5l34.2,13.2l-27.5,14.1l-34.4-14L1894.9,328.5z M1926.6,341.9l-31.7-12.3l-25.3,12.1l31.9,13
				L1926.6,341.9z"/>
			<path class="st80" d="M1868.4,341.2l34.4,14l-29.2,15l-34.5-14.9L1868.4,341.2z M1900.3,355.4l-31.9-13l-27,13l32.1,13.9
				L1900.3,355.4z"/>
			<path class="st70" d="M1840.2,354.8l34.5,14.9l-31,16l-34.6-15.9L1840.2,354.8z M1872.4,369.8l-32.1-13.9l-28.8,13.8l32.2,14.8
				L1872.4,369.8z"/>
			<path class="st49" d="M1810.3,369.2l34.6,15.9l-33.1,17l-34.6-17L1810.3,369.2z M1842.6,385.1l-32.3-14.8l-30.8,14.8l32.3,15.9
				L1842.6,385.1z"/>
			<path class="st27" d="M1778.3,384.5l0.2,0.1l34.4,16.9l-35.3,18.2l-34.5-18.2L1778.3,384.5z M1810.7,401.5l-32.4-15.9l-33.1,15.9
				l32.3,17L1810.7,401.5z"/>
			<path class="st22" d="M1744.1,401l0.2,0.1l34.3,18.1l-37.8,19.5l-34.4-19.5L1744.1,401z M1776.5,419.1l-32.4-17l-35.5,17.1
				l32.3,18.3L1776.5,419.1z"/>
			<path class="st40" d="M1707.5,418.6l34.4,19.5l-40.7,20.9l-34.1-21L1707.5,418.6z M1739.8,438l-32.3-18.3l-38.3,18.4l32.1,19.7
				L1739.8,438z"/>
			<path class="st82" d="M1668.2,437.5l34.1,21l-43.8,22.5l-33.7-22.7L1668.2,437.5z M1700.2,458.4l-32.1-19.8l-41.3,19.9l31.7,21.3
				L1700.2,458.4z"/>
			<path class="st62" d="M1901.5,354.8l36.5,14.9l-28.9,16l-36.7-15.9L1901.5,354.8z M1935.7,369.8l-34.1-13.9l-26.8,13.8l34.3,14.8
				L1935.7,369.8z"/>
			<path class="st61" d="M1873.5,369.2l36.7,15.9l-30.8,17l-0.2-0.1l-36.7-16.9L1873.5,369.2z M1907.9,385.1l-34.4-14.9l-28.7,14.8
				l34.6,15.9L1907.9,385.1z"/>
			<path class="st69" d="M1843.7,384.5l36.8,16.9l-32.9,18.2l-37-18.2L1843.7,384.5z M1878.3,401.6l-34.6-15.9l-30.8,15.9l34.7,17.1
				L1878.3,401.6z"/>
			<path class="st61" d="M1811.8,401l36.9,18.1l-35.2,19.5l-0.2-0.1l-36.8-19.4L1811.8,401z M1846.6,419.1l-34.8-17.1l-33.1,17
				l34.8,18.3L1846.6,419.1z"/>
			<path class="st62" d="M1777.6,418.6l37,19.5l-37.8,21l-36.9-21L1777.6,418.6z M1812.4,438l-34.9-18.4l-35.7,18.4l34.8,19.8
				L1812.4,438z"/>
			<path class="st32" d="M1740.8,437.5l36.9,20.9L1737,481l-0.2-0.2l-36.5-22.5L1740.8,437.5z M1775.7,458.4l-34.9-19.8l-38.6,19.8
				l34.7,21.4L1775.7,458.4z"/>
			<path class="st27" d="M1909.1,384.5l39.1,16.9l-30.4,18.2l-39.4-18.1L1909.1,384.5z M1946,401.6l-36.9-15.9l-28.6,15.8l37.1,17.1
				L1946,401.6z"/>
			<path class="st39" d="M1879.4,401l0.2,0.1l39.1,18l-32.6,19.5l-39.6-19.5L1879.4,401z M1916.6,419.2l-37.2-17.1l-30.7,17
				l37.4,18.4L1916.6,419.2z"/>
			<path class="st35" d="M1847.6,418.6l39.6,19.4l-35,21l-39.8-20.9L1847.6,418.6z M1885.1,438.1l-37.5-18.4l-33.1,18.3l37.6,19.8
				L1885.1,438.1z"/>
			<path class="st10" d="M1813.5,437.5l0.2,0.1l39.5,20.8l-37.7,22.6l-0.3-0.1l-39.5-22.4L1813.5,437.5z M1851.2,458.4l-37.7-19.8
				l-35.8,19.8l37.7,21.4L1851.2,458.4z"/>
			<path class="st74" d="M1917.7,418.6l42.2,19.4l-32.2,21l-42.6-20.9L1917.7,418.6z M1957.8,438.1l-40.1-18.4l-30.5,18.3l40.4,19.8
				L1957.8,438.1z"/>
			<path class="st66" d="M1886.1,437.5l42.5,20.9L1894,481l-0.3-0.1l-42.6-22.4L1886.1,437.5z M1926.7,458.5l-40.5-19.9l-33,19.8
				l40.8,21.4L1926.7,458.5z"/>
		</g>
		
			<linearGradient id="SVGID_3_" gradientUnits="userSpaceOnUse" x1="2653.4402" y1="-6749.7329" x2="2783.4202" y2="-6264.6416" gradientTransform="matrix(-1 0 0 -1 4083.0234 -5963.0879)">
			<stop  offset="0" style="stop-color:#FFFFFF;stop-opacity:0"/>
			<stop  offset="0.5" style="stop-color:#FFFFFF;stop-opacity:0"/>
			<stop  offset="1" style="stop-color:#FFFFFF"/>
		</linearGradient>
		<polygon class="st89" points="1924.4,134.5 1923.7,134.3 1909.5,138.1 1896,141.8 1896,141.8 1880.5,145.9 1864.3,150.2 
			1864.3,150.2 1850.9,153.8 1850.9,153.8 1832.8,158.7 1832.8,158.7 1818.1,162.6 1817.1,162.9 1816.1,163.2 1800.8,167.3 
			1781,172.6 1781,172.6 1764.3,177 1764.3,177 1745,182.2 1724.9,187.6 1724.9,187.6 1702.3,193.7 1702.3,193.7 1680.6,199.5 
			1658,205.5 1658,205.5 1636.1,211.4 1636.1,211.4 1611.5,218 1611.5,218 1584.2,225.3 1584.2,225.3 1558.8,232.1 1529.2,240 
			1501.2,247.5 1470,255.9 1437.9,264.5 1437.7,264.6 1436.5,264.9 1402.4,274 1367.8,283.3 1367.7,283.3 1366.5,283.7 
			1329.2,293.7 1289.9,304.2 1247.6,315.5 1201.8,327.8 1154.4,340.5 1154.4,340.5 1103.9,354 1050.3,368.4 993,383.8 931.8,400.2 
			866.2,417.7 795.7,436.6 724.4,455.7 724.4,654 1924.4,654 		"/>
	</g>
</g>
<line class="st90" x1="1919" y1="631.5" x2="1" y2="631.5"/>
</svg>
