<?xml version="1.0" encoding="utf-8"?>
<!-- Generator: Adobe Illustrator 24.3.0, SVG Export Plug-In . SVG Version: 6.00 Build 0)  -->
<svg version="1.1" id="Layer_1" xmlns="http://www.w3.org/2000/svg" xmlns:xlink="http://www.w3.org/1999/xlink" x="0px" y="0px"
	 viewBox="0 0 56 46" style="enable-background:new 0 0 56 46;" xml:space="preserve">
<style type="text/css">
	.st0{fill:#FFFFFF;}
</style>
<path class="st0" d="M48.2,2.3c-4.9-2.1-10.8,0.8-14.6,3.9c-3.3,2.7-5.4,6.4-6.8,10.3C23,9.2,15.1,2.8,7.3,8.1
	c-4.2,2.8-4.4,8-3.1,12.5c1.5,4.9,5,8.4,9.5,10.7c5.1,2.6,11.8,4.6,13.3,10.9c0,0.1,0.4,0.1,1-0.1c-0.3,0.6-0.7,1.3-0.9,2
	c-0.3,0.6,1.6-0.1,1.7-0.1c0.7-0.3,1.8-0.9,2.1-1.7c4.5-10.6,16.6-15.4,20.7-26.3C53.1,11.5,53.3,4.5,48.2,2.3z M46.3,20.6
	c-2.5,4.3-6.2,7.6-9.8,11c-2.3,2.1-4.5,4.4-6.3,6.8c-1.8-4.5-6.8-6.7-11-8.6c-5.4-2.5-9.7-5.9-11.4-11.8c-0.7-2.5-1-5.6,0-8.1
	c0.3-0.8,0.5-1.3,1.3-1.6c0.7-0.3,1.6-0.1,2.3,0c1.4,0.2,2.7,0.8,3.9,1.5c4.8,2.9,8.1,8,9.4,13.4c0.2,0.7,3.6-1.3,3.8-2
	c1.2-5,2.6-10.4,6.3-14.3C38,3.7,44.5,2.5,47.4,7C50,11.1,48.6,16.7,46.3,20.6z"/>
</svg>
