<?xml version="1.0" encoding="utf-8"?>
<!-- Generator: Adobe Illustrator 24.3.0, SVG Export Plug-In . SVG Version: 6.00 Build 0)  -->
<svg version="1.1" id="Layer_1" xmlns="http://www.w3.org/2000/svg" xmlns:xlink="http://www.w3.org/1999/xlink" x="0px" y="0px"
	 viewBox="0 0 224 83" style="enable-background:new 0 0 224 83;" xml:space="preserve">
<style type="text/css">
	.st0{fill:#707372;}
	.st1{fill:#AA802D;}
	.st2{fill:#0C233F;}
</style>
<g>
	<g>
		<path class="st0" d="M187.1,68.8c-0.1,0-0.1-0.2,0-0.2l1.5-3.2c0.2-0.2,0.2-0.2,0.3-0.2c0.2,0,0.8,0.4,2,1.2
			c1.2,0.8,1.9,1.3,1.9,1.5c0,0.5-0.6,1.6-1.6,3.4c-0.2,0.2-0.2,0.3-0.4,0.2C189.5,70.5,188.3,69.7,187.1,68.8"/>
		<path class="st0" d="M181.2,15.2c-0.1,0-0.1-0.2,0-0.2l1.5-3.2c0.2-0.2,0.2-0.2,0.3-0.2c0.2,0,0.8,0.4,2,1.2
			c1.2,0.8,1.9,1.3,1.9,1.5c0,0.5-0.6,1.6-1.6,3.4c-0.2,0.2-0.2,0.3-0.4,0.2C183.7,16.8,182.4,16,181.2,15.2"/>
		<path class="st0" d="M183.8,20.5c-0.1-0.1,0-0.2,0-0.2l1.5-3.2c0.2-0.2,0.2-0.2,0.3-0.2c0.2,0,0.8,0.4,2,1.2
			c1.2,0.8,1.9,1.3,1.9,1.5c0,0.5-0.6,1.6-1.6,3.4c-0.2,0.2-0.2,0.3-0.4,0.2C186.3,22.1,185,21.3,183.8,20.5"/>
		<path class="st1" d="M214.6,46.4c-1.1-0.1-2.2,0.2-3.3,0.6c-11,4-17.3,15.9-17.2,16.1c0.1,0.1,4.6,0.9,7.5-0.4
			c6.2-2.8,9.4-8.7,9.2-8.9c-0.1-0.1-0.3,0-0.4,0.1c0,0-1.9,3.2-8.4,6.1c-1.8,0.8-3.7,0.9-5.5,0.8c3.3-4.1,6.4-7,9.8-9.1
			c2.5-1.6,4.7-2.4,6.7-2.6c0.4,0,0.7-0.1,1.1,0c0.1,0,0.3,0,0.5-0.3c0.2-0.3,0.3-1.5,0.3-2C215,46.6,214.8,46.4,214.6,46.4z"/>
		<path class="st2" d="M171.1,11.5c0,0-0.6,1.2-1.2,3.4c0.8,0.7,1.2,1.1,1.2,1.1c0,0,0,0,0,0c0,0,0,0,0,0l0,0
			C185.4,30,188,53,188.4,58.8c0.4,0.4,1,0.8,1.5,1.1C189.9,54,189.2,25.4,171.1,11.5z"/>
		<path class="st1" d="M189.2,60.7c-0.5-0.3-1.2-0.8-1.6-1.2c-3.5-3.2-15.5-17.7-16.4-41.3c-0.4-0.4-0.7-0.7-1.1-1.1l0,0
			c0,0,0,0,0,0c0,0,0,0,0,0c0,0-0.2-0.2-0.5-0.5c-0.4,2.4-0.7,5.6-0.2,9.4c2.8,20.1,15.8,33.4,17.3,34.3l-0.5-0.1
			c-8.4-0.8-16.4-4.5-22.4-10.6c-0.2-0.2-4.8-5.5-6.2-9.2c0,0,9-0.3,14.7,6c0.1,0.1,0.2,0,0.1-0.1c-0.9-1.3-2-2.5-3.1-3.5
			c-6-5.8-12.6-6.5-14.4-6.3c0,0,0.4,4.9,6.1,12.9c6.1,8.7,15.1,12,15.1,12c3.1,1.1,6.4,1.7,9.7,1.6c0.9,0,1.8-0.1,2.6-0.2l0.8-0.8
			c0.8,0.5,1.9,1,3.2,1.5c0.1,0,0.1,0,0.1-0.1c0-0.2,0.1-1.2,0.1-1.2C191.4,61.9,190.1,61.2,189.2,60.7z"/>
		<path class="st2" d="M205.9,30c0,0-0.1-1.8-0.4-1.9l-0.2-0.1l-0.2,0.1c-4.2,2.8-7.4,7.5-9.8,14.6c-1.6,4.7-2.8,9.8-3.4,15.7
			c-0.1,0.7-0.2,1.6-0.3,2.5c0.4,0.2,0.8,0.4,1.2,0.5c0.1-0.6,0.1-1.2,0.2-2c0.4-3.1,1-6.1,1.7-8.9c1.5-5.7,4.1-13.7,10.1-18.2
			c0.6-0.4,1.1-1.4,1.1-2.2L205.9,30z"/>
	</g>
	<g>
		<g>
			<path class="st2" d="M13.2,44.6c0.4,0,0.8-0.2,1.1-0.5c0.3-0.3,0.5-0.7,0.5-1.1s-0.2-0.8-0.5-1.1c-0.3-0.3-0.7-0.5-1.1-0.5
				c-0.4,0-0.8,0.2-1.1,0.5c-0.3,0.3-0.5,0.7-0.5,1.1c0,0.4,0.2,0.8,0.5,1.1C12.4,44.5,12.8,44.6,13.2,44.6z"/>
			<path class="st2" d="M17.8,44.6c0.4,0,0.8-0.2,1.1-0.5c0.3-0.3,0.5-0.7,0.5-1.1s-0.2-0.8-0.5-1.1c-0.3-0.3-0.7-0.5-1.1-0.5
				s-0.8,0.2-1.1,0.5c-0.3,0.3-0.5,0.7-0.5,1.1c0,0.4,0.2,0.8,0.5,1.1C17,44.5,17.4,44.6,17.8,44.6z"/>
			<path class="st2" d="M21.5,63.3c-0.4,0-0.8,0.2-1.1,0.5c-0.3,0.3-0.5,0.7-0.5,1.1c0,0.4,0.2,0.8,0.5,1.1c0.3,0.3,0.7,0.5,1.1,0.5
				c0.4,0,0.8-0.2,1.1-0.5c0.3-0.3,0.5-0.7,0.5-1.1c0-0.4-0.2-0.8-0.5-1.1C22.3,63.4,22,63.3,21.5,63.3z"/>
			<path class="st2" d="M26.1,63.3c-0.4,0-0.8,0.2-1.1,0.5c-0.3,0.3-0.5,0.7-0.5,1.1c0,0.4,0.2,0.8,0.5,1.1c0.3,0.3,0.7,0.5,1.1,0.5
				c0.4,0,0.8-0.2,1.1-0.5c0.3-0.3,0.5-0.7,0.5-1.1c0-0.4-0.2-0.8-0.5-1.1C26.9,63.4,26.5,63.3,26.1,63.3z"/>
			<path class="st2" d="M35,63.3c-0.4,0-0.8,0.2-1.1,0.5c-0.3,0.3-0.5,0.7-0.5,1.1c0,0.4,0.2,0.8,0.5,1.1c0.3,0.3,0.7,0.5,1.1,0.5
				c0.4,0,0.8-0.2,1.1-0.5c0.3-0.3,0.5-0.7,0.5-1.1c0-0.4-0.2-0.8-0.5-1.1C35.8,63.4,35.4,63.3,35,63.3z"/>
			<path class="st2" d="M36.7,47.3c-0.7,0.4-1,0.9-1,1.5v7.4c0,1.6-0.7,2.4-2.1,2.4h-1.4c-0.7,0-1.4-0.2-2-0.5
				c-0.6-0.3-1-0.7-1.3-1.2v-9.4h-0.1c-0.5,0-1,0.2-1.6,0.6c-0.7,0.4-1,0.9-1,1.5v5.8c0,0.5,0,0.8,0,1.1c0,0.3-0.1,0.6-0.2,1
				c-0.1,0.3-0.3,0.6-0.6,0.8c-0.3,0.2-0.6,0.3-1,0.3H22c-0.7,0-1.2-0.1-1.6-0.4c-0.3-0.3-0.5-0.7-0.5-1.4v-9.3l-0.1,0
				c-0.5-0.1-1.3-0.1-2.5-0.1c-0.8,0-1.7,0.2-2.6,0.5c-0.9,0.3-1.8,0.8-2.7,1.3c-0.8,0.6-1.6,1.3-2.1,2.2C9.3,52.2,9,53.2,9,54.2
				c0,0.5,0.1,0.9,0.2,1.4c0.1,0.4,0.3,0.9,0.6,1.4c0.3,0.5,0.8,0.9,1.4,1.2c0.6,0.3,1.4,0.4,2.3,0.4c0.6,0,1.3-0.2,2.1-0.5
				c0.7-0.3,1.2-0.5,1.5-0.8c0.1,1.1,0.4,2,1.1,2.6c0.7,0.6,1.7,1,3,1h3.5c2,0,3.3-0.8,3.8-2.5c0.5,0.6,1.1,1.2,1.8,1.7
				c0.8,0.5,1.7,0.8,2.6,0.8h1.9c1.2,0,2.1-0.4,2.7-1.2c0.6-0.8,0.9-1.9,0.9-3.2v-9.6h-0.1C37.8,46.7,37.3,46.9,36.7,47.3z
				 M17.1,48.5v7.5c-0.3,0.2-0.7,0.4-1.2,0.6c-0.6,0.2-1,0.3-1.4,0.3c-0.9,0-1.6-0.3-2.1-0.8c-0.5-0.5-0.7-1.1-0.7-1.8
				c0-1.5,0.6-2.9,1.8-4C14.7,49.1,15.9,48.5,17.1,48.5z"/>
			<path class="st2" d="M50.5,63.3c-0.4,0-0.8,0.2-1.1,0.5c-0.3,0.3-0.5,0.7-0.5,1.1c0,0.4,0.2,0.8,0.5,1.1c0.3,0.3,0.7,0.5,1.1,0.5
				s0.8-0.2,1.1-0.5c0.3-0.3,0.5-0.7,0.5-1.1c0-0.4-0.2-0.8-0.5-1.1C51.3,63.4,50.9,63.3,50.5,63.3z"/>
			<path class="st2" d="M69.8,40.3c0.4,0,0.8-0.2,1.1-0.4c0.3-0.3,0.4-0.7,0.4-1.1c0-0.4-0.1-0.8-0.4-1.1c-0.3-0.3-0.6-0.4-1.1-0.4
				c-0.4,0-0.8,0.2-1.1,0.4c-0.3,0.3-0.4,0.7-0.4,1.1c0,0.4,0.1,0.8,0.4,1.1C69,40.1,69.3,40.3,69.8,40.3z"/>
			<path class="st2" d="M67.5,44c0.4,0,0.8-0.2,1.1-0.5c0.3-0.3,0.5-0.7,0.5-1.1c0-0.4-0.2-0.8-0.5-1.1c-0.3-0.3-0.7-0.5-1.1-0.5
				s-0.8,0.2-1.1,0.5c-0.3,0.3-0.5,0.7-0.5,1.1s0.2,0.8,0.5,1.1C66.7,43.8,67.1,44,67.5,44z"/>
			<path class="st2" d="M70.5,42.4c0,0.4,0.2,0.8,0.5,1.1c0.3,0.3,0.7,0.5,1.1,0.5c0.4,0,0.8-0.2,1.1-0.5c0.3-0.3,0.5-0.7,0.5-1.1
				c0-0.4-0.2-0.8-0.5-1.1c-0.3-0.3-0.7-0.5-1.1-0.5s-0.8,0.2-1.1,0.5C70.6,41.5,70.5,41.9,70.5,42.4z"/>
			<path class="st2" d="M86.7,41.3c-0.7,0.4-1,0.9-1,1.5v13.4c0,1.6-0.7,2.4-2.1,2.4h-1.4c-0.7,0-1.4-0.2-2-0.5
				c-0.6-0.3-1-0.7-1.3-1.1c0.1-0.6,0.1-1.3,0.1-2.1v-8.2h-0.1c-0.5,0-1,0.2-1.7,0.6c-0.7,0.4-1,0.9-1,1.5v6.4
				c0,1.4-0.1,2.3-0.4,2.8c-0.3,0.4-0.8,0.7-1.7,0.7c-0.5,0-1-0.1-1.6-0.4c-0.6-0.2-1-0.6-1.4-1.1v-10h-0.1c-0.5,0-1,0.2-1.7,0.6
				c-0.7,0.4-1,0.9-1,1.5v6.3c0,0.4,0,0.7,0,0.9c0,0.2,0,0.5-0.1,0.8c-0.1,0.3-0.2,0.6-0.3,0.7c-0.1,0.2-0.3,0.3-0.5,0.4
				c-0.2,0.1-0.5,0.2-0.9,0.2c-1.5,0-2.6-0.6-3.3-1.7c0.1-0.4,0.1-1.1,0.1-2v-7.3h-0.1c-0.5,0-1,0.2-1.7,0.6c-0.7,0.4-1,0.9-1,1.5
				v5.5c0,1.4-0.1,2.3-0.4,2.8c-0.3,0.4-0.8,0.7-1.7,0.7h-1.1c-0.7,0-1.4-0.2-2-0.5c-0.6-0.3-1-0.7-1.3-1.2v-9.4h-0.1
				c-0.5,0-1,0.2-1.6,0.6c-0.7,0.4-1,0.9-1,1.5v5.8c0,0.5,0,0.8,0,1.1c0,0.3-0.1,0.6-0.2,1c-0.1,0.3-0.3,0.6-0.6,0.8
				c-0.3,0.2-0.6,0.3-1,0.3h-2.3c-1.4,0-2.1-0.8-2.1-2.4V40.7h-0.1c-0.5,0-1,0.2-1.7,0.6c-0.7,0.4-1,0.9-1,1.5v13.5
				c0,1.3,0.3,2.4,0.9,3.2c0.6,0.8,1.5,1.2,2.7,1.2h4c2,0,3.3-0.8,3.8-2.5c0.5,0.6,1.1,1.2,1.8,1.7c0.8,0.5,1.7,0.8,2.6,0.8h1.1
				c1,0,1.9-0.3,2.5-0.8c0.5-0.5,0.9-1,1.1-1.7c1.3,1.6,2.9,2.4,4.8,2.4c0.9,0,1.6-0.3,2.2-0.8c0.5-0.4,0.8-1,1-1.6
				c0.5,0.7,1.2,1.2,1.9,1.6c0.8,0.5,1.7,0.7,2.6,0.7c1.7,0,2.8-0.8,3.4-2.3c0.5,0.6,1.1,1.1,1.8,1.6c0.8,0.5,1.7,0.7,2.5,0.7h1.9
				c1.2,0,2.1-0.4,2.7-1.2c0.6-0.8,0.9-1.9,0.9-3.2V40.7h-0.1C87.9,40.7,87.3,40.9,86.7,41.3z"/>
			<path class="st2" d="M93.3,41.3c-0.7,0.4-1,0.9-1,1.5v18l0.1,0c0.8-0.1,1.5-0.5,1.9-1.2c0.5-0.7,0.7-1.6,0.7-2.8v-16H95
				C94.5,40.7,93.9,40.9,93.3,41.3z"/>
			<path class="st2" d="M108.6,43.2c0.4,0,0.8-0.2,1.1-0.5c0.3-0.3,0.5-0.7,0.5-1.1s-0.2-0.8-0.5-1.1c-0.3-0.3-0.7-0.5-1.1-0.5
				c-0.4,0-0.8,0.2-1.1,0.5c-0.3,0.3-0.5,0.7-0.5,1.1s0.2,0.8,0.5,1.1C107.7,43,108.1,43.2,108.6,43.2z"/>
			<path class="st2" d="M113.2,43.2c0.4,0,0.8-0.2,1.1-0.5c0.3-0.3,0.5-0.7,0.5-1.1s-0.2-0.8-0.5-1.1c-0.3-0.3-0.7-0.5-1.1-0.5
				c-0.4,0-0.8,0.2-1.1,0.5c-0.3,0.3-0.5,0.7-0.5,1.1c0,0.4,0.2,0.8,0.5,1.1C112.3,43,112.7,43.2,113.2,43.2z"/>
			<path class="st2" d="M123.1,63.3c-0.4,0-0.8,0.2-1.1,0.5c-0.3,0.3-0.5,0.7-0.5,1.1c0,0.4,0.2,0.8,0.5,1.1
				c0.3,0.3,0.7,0.5,1.1,0.5c0.4,0,0.8-0.2,1.1-0.5c0.3-0.3,0.5-0.7,0.5-1.1c0-0.4-0.2-0.8-0.5-1.1C124,63.4,123.6,63.3,123.1,63.3z
				"/>
			<path class="st2" d="M143.1,59.4c-0.5-0.5-1-0.7-1.6-0.7H139c-1.4,0-2.4-0.5-3.1-1.5c-0.7-1-1.1-2.2-1.1-3.5
				c0-1.2,0.3-2.3,0.9-3.1c0.6-0.8,1.4-1.2,2.5-1.2c0.4,0,0.9,0.1,1.4,0.4c0.5,0.2,0.8,0.6,1.1,1.1l0,0.1l0.1,0
				c0.1,0,0.3,0.1,0.5,0.1c0.3,0,0.6-0.1,0.9-0.2c0.3-0.1,0.5-0.3,0.5-0.5l0,0l0,0c-0.1-0.4-0.6-0.8-1.5-1.3
				c-0.9-0.4-1.8-0.7-2.7-0.7c-1.9,0-3.4,0.6-4.5,1.7c-1.1,1.1-1.6,2.6-1.6,4.4c0,0.7,0.2,1.5,0.5,2.4c0.3,0.8,0.7,1.4,1.1,1.9H130
				c-0.7,0-1.4-0.2-2-0.5c-0.6-0.3-1-0.7-1.3-1.2v-9.4h-0.1c-0.5,0-1,0.2-1.6,0.6c-0.7,0.4-1,0.9-1,1.5v5.8c0,0.5,0,0.8,0,1.1
				c0,0.3-0.1,0.6-0.2,1c-0.1,0.3-0.3,0.6-0.6,0.8c-0.3,0.2-0.6,0.3-1,0.3h-6.3c0.1-0.6,0.2-1.2,0.2-1.7v-9.5l-0.1,0
				c-0.8-0.2-1.7-0.3-2.7-0.3c-1,0-2,0.2-3,0.5c-1,0.3-2,0.8-2.8,1.4c-0.9,0.6-1.6,1.5-2.2,2.5c-0.6,1-0.8,2.2-0.8,3.5
				c0,1.6,0.5,3,1.6,4.1c1.1,1.1,2.5,1.6,4.4,1.6h2.5c-0.4,1-1.1,1.8-2.1,2.4c-1.1,0.6-2.3,0.8-3.5,0.8c-1.1,0-2.1-0.4-3-1.1
				c-0.8-0.7-1.3-1.8-1.3-3.2c0-0.3,0.1-0.5,0.1-0.6l0-0.1l0-0.1c-0.1-0.4-0.6-0.6-1.2-0.6c-0.1,0-0.3,0-0.3,0.1
				c-0.1,0.4-0.2,1-0.2,1.7c0,2,0.6,3.6,1.6,4.7c1.1,1.1,2.4,1.6,4,1.6c1.7,0,3.3-0.6,4.7-1.7c1.4-1.1,2.5-2.4,3.3-4.1h7.4
				c2,0,3.3-0.8,3.8-2.5c0.5,0.6,1.1,1.2,1.8,1.7c0.8,0.5,1.7,0.8,2.6,0.8h13.1v-0.1C143.8,60.3,143.5,59.9,143.1,59.4z M112.7,48.3
				c0.2,0,0.4,0,0.5,0v10.3h-2.6c-1.1,0-1.9-0.4-2.5-1.1c-0.6-0.7-0.9-1.8-0.9-3.2c0-0.9,0.1-1.8,0.4-2.5c0.3-0.7,0.6-1.3,1-1.8
				c0.4-0.4,0.9-0.8,1.4-1.1c0.5-0.3,1-0.5,1.4-0.6C111.9,48.3,112.3,48.3,112.7,48.3z"/>
		</g>
	</g>
</g>
</svg>
