<?xml version="1.0" encoding="utf-8"?>
<!-- Generator: Adobe Illustrator 24.3.0, SVG Export Plug-In . SVG Version: 6.00 Build 0)  -->
<svg version="1.1" id="Layer_1" xmlns="http://www.w3.org/2000/svg" xmlns:xlink="http://www.w3.org/1999/xlink" x="0px" y="0px"
	 viewBox="0 0 210.8 64.9" style="enable-background:new 0 0 210.8 64.9;" xml:space="preserve">
<style type="text/css">
	.st0{fill:#707372;}
	.st1{fill:#AA802D;}
	.st2{fill:#0C233F;}
</style>
<g>
	<g>
		<path class="st0" d="M180.5,59.7c-0.1,0-0.1-0.2,0-0.2l1.5-3.2c0.2-0.2,0.2-0.2,0.3-0.2c0.2,0,0.8,0.4,2,1.2
			c1.2,0.8,1.9,1.3,1.9,1.5c0,0.5-0.6,1.6-1.6,3.4c-0.2,0.2-0.2,0.3-0.4,0.2C182.9,61.4,181.7,60.6,180.5,59.7"/>
		<path class="st0" d="M174.6,6.1c-0.1,0-0.1-0.2,0-0.2l1.5-3.2c0.2-0.2,0.2-0.2,0.3-0.2c0.2,0,0.8,0.4,2,1.2s1.9,1.3,1.9,1.5
			c0,0.5-0.6,1.6-1.6,3.4c-0.2,0.2-0.2,0.3-0.4,0.2C177.1,7.7,175.8,6.9,174.6,6.1"/>
		<path class="st0" d="M177.2,11.4c-0.1-0.1,0-0.2,0-0.2l1.5-3.2c0.2-0.2,0.2-0.2,0.3-0.2c0.2,0,0.8,0.4,2,1.2
			c1.2,0.8,1.9,1.3,1.9,1.5c0,0.5-0.6,1.6-1.6,3.4c-0.2,0.2-0.2,0.3-0.4,0.2C179.7,13,178.4,12.2,177.2,11.4"/>
		<path class="st1" d="M208,37.3c-1.1-0.1-2.2,0.2-3.3,0.6c-11,4-17.3,15.9-17.2,16.1c0.1,0.1,4.6,0.9,7.5-0.4
			c6.2-2.8,9.4-8.7,9.2-8.9c-0.1-0.1-0.3,0-0.4,0.1c0,0-1.9,3.2-8.4,6.1c-1.8,0.8-3.7,0.9-5.5,0.8c3.3-4.1,6.4-7,9.8-9.1
			c2.5-1.6,4.7-2.4,6.7-2.6c0.4,0,0.7-0.1,1.1,0c0.1,0,0.3,0,0.5-0.3s0.3-1.5,0.3-2C208.4,37.5,208.2,37.3,208,37.3z"/>
		<path class="st2" d="M164.5,2.4c0,0-0.6,1.2-1.2,3.4c0.8,0.7,1.2,1.1,1.2,1.1l0,0l0,0l0,0c14.3,14,16.9,37,17.3,42.8
			c0.4,0.4,1,0.8,1.5,1.1C183.3,44.9,182.6,16.3,164.5,2.4z"/>
		<path class="st1" d="M182.6,51.6c-0.5-0.3-1.2-0.8-1.6-1.2c-3.5-3.2-15.5-17.7-16.4-41.3c-0.4-0.4-0.7-0.7-1.1-1.1l0,0l0,0l0,0
			c0,0-0.2-0.2-0.5-0.5c-0.4,2.4-0.7,5.6-0.2,9.4c2.8,20.1,15.8,33.4,17.3,34.3l-0.5-0.1c-8.4-0.8-16.4-4.5-22.4-10.6
			c-0.2-0.2-4.8-5.5-6.2-9.2c0,0,9-0.3,14.7,6c0.1,0.1,0.2,0,0.1-0.1c-0.9-1.3-2-2.5-3.1-3.5c-6-5.8-12.6-6.5-14.4-6.3
			c0,0,0.4,4.9,6.1,12.9c6.1,8.7,15.1,12,15.1,12c3.1,1.1,6.4,1.7,9.7,1.6c0.9,0,1.8-0.1,2.6-0.2l0.8-0.8c0.8,0.5,1.9,1,3.2,1.5
			c0.1,0,0.1,0,0.1-0.1c0-0.2,0.1-1.2,0.1-1.2C184.8,52.8,183.5,52.1,182.6,51.6z"/>
		<path class="st2" d="M199.3,20.9c0,0-0.1-1.8-0.4-1.9l-0.2-0.1l-0.2,0.1c-4.2,2.8-7.4,7.5-9.8,14.6c-1.6,4.7-2.8,9.8-3.4,15.7
			c-0.1,0.7-0.2,1.6-0.3,2.5c0.4,0.2,0.8,0.4,1.2,0.5c0.1-0.6,0.1-1.2,0.2-2c0.4-3.1,1-6.1,1.7-8.9c1.5-5.7,4.1-13.7,10.1-18.2
			C198.8,22.8,199.3,21.8,199.3,20.9L199.3,20.9z"/>
	</g>
	<g>
		<g>
			<path class="st2" d="M6.6,35.5c0.4,0,0.8-0.2,1.1-0.5s0.5-0.7,0.5-1.1S8,33.1,7.7,32.8S7,32.3,6.6,32.3c-0.4,0-0.8,0.2-1.1,0.5
				S5,33.5,5,33.9c0,0.4,0.2,0.8,0.5,1.1C5.8,35.4,6.2,35.5,6.6,35.5z"/>
			<path class="st2" d="M11.2,35.5c0.4,0,0.8-0.2,1.1-0.5c0.3-0.3,0.5-0.7,0.5-1.1s-0.2-0.8-0.5-1.1s-0.7-0.5-1.1-0.5
				s-0.8,0.2-1.1,0.5c-0.3,0.3-0.5,0.7-0.5,1.1c0,0.4,0.2,0.8,0.5,1.1C10.4,35.4,10.8,35.5,11.2,35.5z"/>
			<path class="st2" d="M14.9,54.2c-0.4,0-0.8,0.2-1.1,0.5c-0.3,0.3-0.5,0.7-0.5,1.1s0.2,0.8,0.5,1.1c0.3,0.3,0.7,0.5,1.1,0.5
				s0.8-0.2,1.1-0.5c0.3-0.3,0.5-0.7,0.5-1.1S16.3,55,16,54.7C15.7,54.3,15.4,54.2,14.9,54.2z"/>
			<path class="st2" d="M19.5,54.2c-0.4,0-0.8,0.2-1.1,0.5c-0.3,0.3-0.5,0.7-0.5,1.1s0.2,0.8,0.5,1.1c0.3,0.3,0.7,0.5,1.1,0.5
				s0.8-0.2,1.1-0.5c0.3-0.3,0.5-0.7,0.5-1.1s-0.2-0.8-0.5-1.1C20.3,54.3,19.9,54.2,19.5,54.2z"/>
			<path class="st2" d="M28.4,54.2c-0.4,0-0.8,0.2-1.1,0.5s-0.5,0.7-0.5,1.1s0.2,0.8,0.5,1.1c0.3,0.3,0.7,0.5,1.1,0.5
				c0.4,0,0.8-0.2,1.1-0.5s0.5-0.7,0.5-1.1s-0.2-0.8-0.5-1.1C29.2,54.3,28.8,54.2,28.4,54.2z"/>
			<path class="st2" d="M30.1,38.2c-0.7,0.4-1,0.9-1,1.5v7.4c0,1.6-0.7,2.4-2.1,2.4h-1.4c-0.7,0-1.4-0.2-2-0.5s-1-0.7-1.3-1.2v-9.4
				h-0.1c-0.5,0-1,0.2-1.6,0.6c-0.7,0.4-1,0.9-1,1.5v5.8c0,0.5,0,0.8,0,1.1s-0.1,0.6-0.2,1c-0.1,0.3-0.3,0.6-0.6,0.8
				c-0.3,0.2-0.6,0.3-1,0.3h-2.4c-0.7,0-1.2-0.1-1.6-0.4c-0.3-0.3-0.5-0.7-0.5-1.4v-9.3h-0.1c-0.5-0.1-1.3-0.1-2.5-0.1
				c-0.8,0-1.7,0.2-2.6,0.5c-0.9,0.3-1.8,0.8-2.7,1.3c-0.8,0.6-1.6,1.3-2.1,2.2c-0.6,0.8-0.9,1.8-0.9,2.8c0,0.5,0.1,0.9,0.2,1.4
				c0.1,0.4,0.3,0.9,0.6,1.4s0.8,0.9,1.4,1.2c0.6,0.3,1.4,0.4,2.3,0.4c0.6,0,1.3-0.2,2.1-0.5c0.7-0.3,1.2-0.5,1.5-0.8
				c0.1,1.1,0.4,2,1.1,2.6s1.7,1,3,1h3.5c2,0,3.3-0.8,3.8-2.5c0.5,0.6,1.1,1.2,1.8,1.7c0.8,0.5,1.7,0.8,2.6,0.8h1.9
				c1.2,0,2.1-0.4,2.7-1.2c0.6-0.8,0.9-1.9,0.9-3.2v-9.6h-0.1C31.2,37.6,30.7,37.8,30.1,38.2z M10.5,39.4v7.5
				c-0.3,0.2-0.7,0.4-1.2,0.6c-0.6,0.2-1,0.3-1.4,0.3c-0.9,0-1.6-0.3-2.1-0.8c-0.5-0.5-0.7-1.1-0.7-1.8c0-1.5,0.6-2.9,1.8-4
				C8.1,40,9.3,39.4,10.5,39.4z"/>
			<path class="st2" d="M43.9,54.2c-0.4,0-0.8,0.2-1.1,0.5s-0.5,0.7-0.5,1.1s0.2,0.8,0.5,1.1c0.3,0.3,0.7,0.5,1.1,0.5
				s0.8-0.2,1.1-0.5s0.5-0.7,0.5-1.1S45.3,55,45,54.7C44.7,54.3,44.3,54.2,43.9,54.2z"/>
			<path class="st2" d="M63.2,31.2c0.4,0,0.8-0.2,1.1-0.4c0.3-0.3,0.4-0.7,0.4-1.1c0-0.4-0.1-0.8-0.4-1.1s-0.6-0.4-1.1-0.4
				c-0.4,0-0.8,0.2-1.1,0.4c-0.3,0.3-0.4,0.7-0.4,1.1c0,0.4,0.1,0.8,0.4,1.1C62.4,31,62.7,31.2,63.2,31.2z"/>
			<path class="st2" d="M60.9,34.9c0.4,0,0.8-0.2,1.1-0.5c0.3-0.3,0.5-0.7,0.5-1.1c0-0.4-0.2-0.8-0.5-1.1s-0.7-0.5-1.1-0.5
				s-0.8,0.2-1.1,0.5c-0.3,0.3-0.5,0.7-0.5,1.1s0.2,0.8,0.5,1.1C60.1,34.7,60.5,34.9,60.9,34.9z"/>
			<path class="st2" d="M63.9,33.3c0,0.4,0.2,0.8,0.5,1.1s0.7,0.5,1.1,0.5s0.8-0.2,1.1-0.5c0.3-0.3,0.5-0.7,0.5-1.1
				c0-0.4-0.2-0.8-0.5-1.1s-0.7-0.5-1.1-0.5s-0.8,0.2-1.1,0.5C64,32.4,63.9,32.8,63.9,33.3z"/>
			<path class="st2" d="M80.1,32.2c-0.7,0.4-1,0.9-1,1.5v13.4c0,1.6-0.7,2.4-2.1,2.4h-1.4c-0.7,0-1.4-0.2-2-0.5s-1-0.7-1.3-1.1
				c0.1-0.6,0.1-1.3,0.1-2.1v-8.2h-0.1c-0.5,0-1,0.2-1.7,0.6c-0.7,0.4-1,0.9-1,1.5v6.4c0,1.4-0.1,2.3-0.4,2.8
				c-0.3,0.4-0.8,0.7-1.7,0.7c-0.5,0-1-0.1-1.6-0.4c-0.6-0.2-1-0.6-1.4-1.1v-10h-0.1c-0.5,0-1,0.2-1.7,0.6c-0.7,0.4-1,0.9-1,1.5v6.3
				c0,0.4,0,0.7,0,0.9s0,0.5-0.1,0.8s-0.2,0.6-0.3,0.7c-0.1,0.2-0.3,0.3-0.5,0.4c-0.2,0.1-0.5,0.2-0.9,0.2c-1.5,0-2.6-0.6-3.3-1.7
				c0.1-0.4,0.1-1.1,0.1-2v-7.3h-0.1c-0.5,0-1,0.2-1.7,0.6c-0.7,0.4-1,0.9-1,1.5v5.5c0,1.4-0.1,2.3-0.4,2.8
				c-0.3,0.4-0.8,0.7-1.7,0.7h-1.1c-0.7,0-1.4-0.2-2-0.5s-1-0.7-1.3-1.2v-9.4h-0.1c-0.5,0-1,0.2-1.6,0.6c-0.7,0.4-1,0.9-1,1.5v5.8
				c0,0.5,0,0.8,0,1.1s-0.1,0.6-0.2,1c-0.1,0.3-0.3,0.6-0.6,0.8s-0.6,0.3-1,0.3h-2.3c-1.4,0-2.1-0.8-2.1-2.4V31.6h-0.1
				c-0.5,0-1,0.2-1.7,0.6c-0.7,0.4-1,0.9-1,1.5v13.5c0,1.3,0.3,2.4,0.9,3.2c0.6,0.8,1.5,1.2,2.7,1.2h4c2,0,3.3-0.8,3.8-2.5
				c0.5,0.6,1.1,1.2,1.8,1.7c0.8,0.5,1.7,0.8,2.6,0.8h1.1c1,0,1.9-0.3,2.5-0.8c0.5-0.5,0.9-1,1.1-1.7c1.3,1.6,2.9,2.4,4.8,2.4
				c0.9,0,1.6-0.3,2.2-0.8c0.5-0.4,0.8-1,1-1.6c0.5,0.7,1.2,1.2,1.9,1.6c0.8,0.5,1.7,0.7,2.6,0.7c1.7,0,2.8-0.8,3.4-2.3
				c0.5,0.6,1.1,1.1,1.8,1.6c0.8,0.5,1.7,0.7,2.5,0.7h1.9c1.2,0,2.1-0.4,2.7-1.2s0.9-1.9,0.9-3.2V31.6h-0.1
				C81.3,31.6,80.7,31.8,80.1,32.2z"/>
			<path class="st2" d="M86.7,32.2c-0.7,0.4-1,0.9-1,1.5v18h0.1c0.8-0.1,1.5-0.5,1.9-1.2c0.5-0.7,0.7-1.6,0.7-2.8v-16l0,0
				C87.9,31.6,87.3,31.8,86.7,32.2z"/>
			<path class="st2" d="M102,34.1c0.4,0,0.8-0.2,1.1-0.5c0.3-0.3,0.5-0.7,0.5-1.1s-0.2-0.8-0.5-1.1s-0.7-0.5-1.1-0.5
				s-0.8,0.2-1.1,0.5c-0.3,0.3-0.5,0.7-0.5,1.1s0.2,0.8,0.5,1.1C101.1,33.9,101.5,34.1,102,34.1z"/>
			<path class="st2" d="M106.6,34.1c0.4,0,0.8-0.2,1.1-0.5c0.3-0.3,0.5-0.7,0.5-1.1s-0.2-0.8-0.5-1.1s-0.7-0.5-1.1-0.5
				s-0.8,0.2-1.1,0.5c-0.3,0.3-0.5,0.7-0.5,1.1c0,0.4,0.2,0.8,0.5,1.1C105.7,33.9,106.1,34.1,106.6,34.1z"/>
			<path class="st2" d="M116.5,54.2c-0.4,0-0.8,0.2-1.1,0.5c-0.3,0.3-0.5,0.7-0.5,1.1s0.2,0.8,0.5,1.1c0.3,0.3,0.7,0.5,1.1,0.5
				s0.8-0.2,1.1-0.5c0.3-0.3,0.5-0.7,0.5-1.1s-0.2-0.8-0.5-1.1C117.4,54.3,117,54.2,116.5,54.2z"/>
			<path class="st2" d="M136.5,50.3c-0.5-0.5-1-0.7-1.6-0.7h-2.5c-1.4,0-2.4-0.5-3.1-1.5c-0.7-1-1.1-2.2-1.1-3.5
				c0-1.2,0.3-2.3,0.9-3.1c0.6-0.8,1.4-1.2,2.5-1.2c0.4,0,0.9,0.1,1.4,0.4c0.5,0.2,0.8,0.6,1.1,1.1v0.1h0.1c0.1,0,0.3,0.1,0.5,0.1
				c0.3,0,0.6-0.1,0.9-0.2c0.3-0.1,0.5-0.3,0.5-0.5l0,0l0,0c-0.1-0.4-0.6-0.8-1.5-1.3c-0.9-0.4-1.8-0.7-2.7-0.7
				c-1.9,0-3.4,0.6-4.5,1.7c-1.1,1.1-1.6,2.6-1.6,4.4c0,0.7,0.2,1.5,0.5,2.4c0.3,0.8,0.7,1.4,1.1,1.9h-4c-0.7,0-1.4-0.2-2-0.5
				c-0.6-0.3-1-0.7-1.3-1.2v-9.4H120c-0.5,0-1,0.2-1.6,0.6c-0.7,0.4-1,0.9-1,1.5v5.8c0,0.5,0,0.8,0,1.1s-0.1,0.6-0.2,1
				c-0.1,0.3-0.3,0.6-0.6,0.8c-0.3,0.2-0.6,0.3-1,0.3h-6.3c0.1-0.6,0.2-1.2,0.2-1.7v-9.5h-0.1c-0.8-0.2-1.7-0.3-2.7-0.3
				s-2,0.2-3,0.5s-2,0.8-2.8,1.4c-0.9,0.6-1.6,1.5-2.2,2.5s-0.8,2.2-0.8,3.5c0,1.6,0.5,3,1.6,4.1s2.5,1.6,4.4,1.6h2.5
				c-0.4,1-1.1,1.8-2.1,2.4c-1.1,0.6-2.3,0.8-3.5,0.8c-1.1,0-2.1-0.4-3-1.1c-0.8-0.7-1.3-1.8-1.3-3.2c0-0.3,0.1-0.5,0.1-0.6V50v-0.1
				c-0.1-0.4-0.6-0.6-1.2-0.6c-0.1,0-0.3,0-0.3,0.1c-0.1,0.4-0.2,1-0.2,1.7c0,2,0.6,3.6,1.6,4.7c1.1,1.1,2.4,1.6,4,1.6
				c1.7,0,3.3-0.6,4.7-1.7c1.4-1.1,2.5-2.4,3.3-4.1h7.4c2,0,3.3-0.8,3.8-2.5c0.5,0.6,1.1,1.2,1.8,1.7c0.8,0.5,1.7,0.8,2.6,0.8h13.1
				v-0.1C137.2,51.2,136.9,50.8,136.5,50.3z M106.1,39.2c0.2,0,0.4,0,0.5,0v10.3H104c-1.1,0-1.9-0.4-2.5-1.1
				c-0.6-0.7-0.9-1.8-0.9-3.2c0-0.9,0.1-1.8,0.4-2.5s0.6-1.3,1-1.8c0.4-0.4,0.9-0.8,1.4-1.1s1-0.5,1.4-0.6
				C105.3,39.2,105.7,39.2,106.1,39.2z"/>
		</g>
	</g>
</g>
</svg>
