<?xml version="1.0" encoding="utf-8"?>
<!-- Generator: Adobe Illustrator 24.3.0, SVG Export Plug-In . SVG Version: 6.00 Build 0)  -->
<svg version="1.1" id="Layer_1" xmlns="http://www.w3.org/2000/svg" xmlns:xlink="http://www.w3.org/1999/xlink" x="0px" y="0px"
	 viewBox="0 0 792 757" style="enable-background:new 0 0 792 757;" xml:space="preserve">
<style type="text/css">
	.st0{opacity:0.5;}
	.st1{fill:#C4C4C4;}
	.st2{fill:#231F20;}
</style>
<g class="st0">
	<g>
		<g id="triangle36_1455_">
			<path class="st1" d="M-3.7,95.2l95.2-52.6l-25.7-23L-3.8,70.8l0-1l69.4-51.1c0.2-0.1,0.4-0.1,0.5,0l26.3,23.6
				c0.1,0.1,0.1,0.2,0.1,0.3c0,0.1-0.1,0.2-0.2,0.3L-3.7,96.1L-3.7,95.2z"/>
		</g>
		<g id="triangle36_1454_">
			<path class="st1" d="M-3.3,167.2L90.7,43.9L-3.7,96.1l0-0.9L92,42.3c0.2-0.1,0.4-0.1,0.5,0.1c0.1,0.1,0.1,0.4,0,0.5L-3.3,168.5
				L-3.3,167.2z"/>
		</g>
		<g id="triangle36_1451_">
			<path class="st1" d="M384.8,755.6l-128.1-57.7l-12.6,58.5l-0.8,0l12.7-59.1c0-0.1,0.1-0.2,0.2-0.3c0.1-0.1,0.2-0.1,0.3,0
				l130.1,58.7L384.8,755.6z"/>
		</g>
		<g id="triangle36_1439_">
			<polygon class="st1" points="-0.5,730.3 83.5,757.2 81,757.2 -0.5,731.2 			"/>
		</g>
		<g id="triangle36_1423_">
			<path class="st1" d="M-3.8,69.8l68.5-50.4l-68.8-2.3l0-0.8l70,2.3c0.2,0,0.3,0.1,0.4,0.3c0,0.2,0,0.3-0.1,0.4L-3.8,70.8
				L-3.8,69.8z"/>
		</g>
		<g id="triangle36_1422_">
			<path class="st1" d="M-2.4,356.8l92.7-5.5l-74.9-45.4l-18,14l0-1l17.7-13.8c0.1-0.1,0.3-0.1,0.5,0l76.3,46.2
				c0.1,0.1,0.2,0.3,0.2,0.4c0,0.2-0.2,0.3-0.4,0.3l-94.1,5.5L-2.4,356.8z"/>
		</g>
		<g id="triangle36_1420_">
			<path class="st1" d="M685.8,754.1l-15.3-26.1l-3.1,26.1l-0.8,0l3.2-27.4c0-0.2,0.1-0.3,0.3-0.3c0.2,0,0.3,0,0.4,0.2l16.1,27.5
				L685.8,754.1z"/>
		</g>
		<g id="triangle36_1419_">
			<polygon class="st1" points="-0.5,730.3 83.5,757.2 81,757.2 -0.5,731.2 			"/>
			<path class="st1" d="M-0.5,726l88.1-21.9c0.2,0,0.4,0.1,0.5,0.3l13.3,52.7l-0.8,0L87.4,705l-87.9,21.8L-0.5,726z"/>
		</g>
		<g id="triangle36_1418_">
			<path class="st1" d="M-1.4,543.5l48.1,27.6l36.3-9.7l-84.5-32.4l0-0.9l86,32.9c0.2,0.1,0.3,0.2,0.3,0.4c0,0.2-0.1,0.3-0.3,0.4
				L46.7,572c0,0-0.1,0-0.1,0c-0.1,0-0.1,0-0.2-0.1l-47.9-27.5L-1.4,543.5z"/>
		</g>
		<g id="triangle36_1417_">
			<path class="st1" d="M243.4,756.4l12.5-58.4l-48.6,17.2l21,41.2l-0.9,0l-21-41.3c-0.1-0.1-0.1-0.2,0-0.3c0-0.1,0.1-0.2,0.2-0.2
				l49.7-17.6c0.1-0.1,0.3,0,0.4,0.1c0.1,0.1,0.2,0.2,0.1,0.4l-12.7,58.9L243.4,756.4z"/>
		</g>
		<g id="triangle36_1416_">
			<path class="st1" d="M227.4,756.5l-20.7-40.7L181,756.7l-0.9,0l26.4-41.9c0.1-0.1,0.2-0.2,0.4-0.2c0.1,0,0.3,0.1,0.3,0.2
				l21.2,41.7L227.4,756.5z"/>
		</g>
		<g id="triangle36_1415_">
			<path class="st1" d="M181,756.7l-0.9,0l25.7-40.8L117.9,757l-1.9,0l90.6-42.4c0.2-0.1,0.4,0,0.5,0.1c0.1,0.1,0.1,0.3,0,0.5
				L181,756.7z"/>
		</g>
		<g id="triangle36_1414_">
			<path class="st1" d="M206.9,715.3l-89,41.7l-1.9,0l89.2-41.8L88.2,705l13.2,52.1l-0.8,0l-13.3-52.5c0-0.1,0-0.3,0.1-0.4
				c0.1-0.1,0.2-0.1,0.3-0.1l119.1,10.5c0.2,0,0.3,0.2,0.4,0.3C207.2,715.1,207.1,715.3,206.9,715.3z"/>
		</g>
		<g id="triangle36_1412_">
			<path class="st1" d="M666.6,754.2l3.1-26.6l-41.4,26.8l-1.5,0l43.2-27.9c0.1-0.1,0.3-0.1,0.4,0c0.1,0.1,0.2,0.2,0.2,0.4
				l-3.2,27.3L666.6,754.2z"/>
		</g>
		<g id="triangle36_1411_">
			<path class="st1" d="M402.2,485.6c0.1,0,0.1,0,0.2-0.1c0.1-0.1,0.2-0.2,0.2-0.3l4.1-19.8c0-0.1,0-0.2-0.1-0.3
				c-0.1-0.1-0.2-0.1-0.3-0.2l-101.2-11.7c-0.2,0-0.4,0.1-0.4,0.3c0,0.2,0.1,0.4,0.3,0.5l97.1,31.5
				C402.1,485.6,402.1,485.6,402.2,485.6z M405.8,465.8l-3.9,18.9L309,454.5L405.8,465.8z"/>
		</g>
		<g id="triangle36_1409_">
			<path class="st1" d="M723.2,753.9l-5.2-57.1L670.8,727l15.9,27.1l-0.9,0L669.9,727c-0.1-0.2-0.1-0.4,0.1-0.5l48.1-30.7
				c0.1-0.1,0.3-0.1,0.4,0c0.1,0.1,0.2,0.2,0.2,0.3l5.3,57.8L723.2,753.9z"/>
		</g>
		<g id="triangle36_1408_">
			<path class="st1" d="M670.2,727.2c0.1,0,0.1,0,0.2-0.1l48.1-30.7c0.1-0.1,0.2-0.2,0.2-0.3c0-0.1-0.1-0.3-0.2-0.3l-82.1-57.7
				c-0.1-0.1-0.3-0.1-0.5,0c-0.1,0.1-0.2,0.3-0.1,0.5l34,88.3c0,0.1,0.1,0.2,0.2,0.2C670.2,727.2,670.2,727.2,670.2,727.2z
				 M717.6,696.2l-47.2,30.1l-33.4-86.7L717.6,696.2z"/>
		</g>
		<g id="triangle36_1407_">
			<path class="st1" d="M524.5,729.6C524.5,729.6,524.5,729.6,524.5,729.6l145.7-2.3c0.1,0,0.3-0.1,0.3-0.2c0.1-0.1,0.1-0.2,0-0.4
				l-34-88.3c0-0.1-0.1-0.2-0.3-0.2c-0.1,0-0.3,0-0.4,0.1l-111.7,90.7c-0.1,0.1-0.2,0.3-0.1,0.4
				C524.2,729.5,524.3,729.6,524.5,729.6z M669.7,726.4l-144,2.3l110.4-89.6L669.7,726.4z"/>
		</g>
		<g id="triangle36_1406_">
			<path class="st1" d="M628.3,754.4l-1.5,0l42-27.2L526,729.5l45.7,25.2l-1.6,0l-45.7-25.2c-0.2-0.1-0.2-0.3-0.2-0.4
				c0-0.2,0.2-0.3,0.4-0.3l145.7-2.3h0c0.2,0,0.3,0.1,0.4,0.3c0.1,0.2,0,0.4-0.2,0.5L628.3,754.4z"/>
		</g>
		<g id="triangle36_1405_">
			<path class="st1" d="M570.1,754.7l-44.4-24.5l15.1,24.6l-0.9,0l-15.7-25.5c-0.1-0.2-0.1-0.4,0.1-0.5c0.1-0.1,0.3-0.2,0.5-0.1
				l47,25.9L570.1,754.7z"/>
		</g>
		<g id="triangle36_1404_">
			<path class="st1" d="M539.8,754.9l-15.5-25.2l-88.3,25.8l-2.9,0l91.2-26.6c0.2-0.1,0.4,0,0.5,0.2l15.9,25.9L539.8,754.9z"/>
		</g>
		<g id="triangle36_1382_">
			<path class="st1" d="M136.6,521.7c0,0,0.1,0,0.1,0l168.5-67.6c0.1-0.1,0.2-0.2,0.2-0.3c0-0.1,0-0.3-0.1-0.4L220,383.1
				c-0.1-0.1-0.2-0.1-0.3-0.1c-0.1,0-0.2,0.1-0.3,0.2l-83.2,137.9c-0.1,0.1-0.1,0.3,0,0.5C136.3,521.7,136.4,521.7,136.6,521.7z
				 M304.2,453.6l-166.7,66.9L219.8,384L304.2,453.6z"/>
		</g>
		<g id="triangle36_1381_">
			<path class="st1" d="M136.6,521.7c0.1,0,0.3-0.1,0.3-0.2l83.2-137.9c0.1-0.1,0.1-0.2,0-0.3c0-0.1-0.1-0.2-0.2-0.2L150,351.8
				c-0.1-0.1-0.3,0-0.4,0c-0.1,0.1-0.2,0.2-0.2,0.3l-13.3,169.2c0,0.2,0.1,0.4,0.3,0.4C136.5,521.7,136.5,521.7,136.6,521.7z
				 M219.2,383.6l-82.1,136.1l13.1-166.9L219.2,383.6z"/>
		</g>
		<g id="triangle36_1380_">
			<path class="st1" d="M136.6,521.7C136.6,521.7,136.6,521.7,136.6,521.7c0.2,0,0.4-0.2,0.4-0.4l13.3-169.2c0-0.1,0-0.2-0.1-0.3
				c-0.1-0.1-0.2-0.1-0.3-0.1l-58.2-0.5c-0.1,0-0.2,0.1-0.3,0.2c-0.1,0.1-0.1,0.2-0.1,0.3l44.9,169.7
				C136.2,521.6,136.4,521.7,136.6,521.7z M149.4,352.5L136.3,519L92.2,352.1L149.4,352.5z"/>
		</g>
		<g id="triangle36_1379_">
			<path class="st1" d="M-1.5,528.2l85.8,32.8l51.3-39.4L-1.6,506.9l0-0.8l138.2,14.8c0.2,0,0.3,0.1,0.3,0.3c0,0.2,0,0.3-0.1,0.4
				l-52.2,40.2c-0.1,0.1-0.2,0.1-0.2,0.1c0,0-0.1,0-0.1,0l-85.7-32.8L-1.5,528.2z"/>
		</g>
		<g id="triangle36_1378_">
			<path class="st1" d="M149.9,352.5c0.2,0,0.3-0.1,0.4-0.2c0.1-0.2,0-0.3-0.1-0.4l-57.9-55.4c-0.1-0.1-0.3-0.1-0.4-0.1
				c-0.1,0.1-0.2,0.2-0.2,0.4l-0.2,54.9c0,0.2,0.2,0.4,0.4,0.4L149.9,352.5C149.8,352.5,149.8,352.5,149.9,352.5z M92.3,297.7
				l56.6,54.1l-56.8-0.5L92.3,297.7z"/>
		</g>
		<g id="triangle36_1377_">
			<path class="st1" d="M-2.9,250.4l94.4,45.7l0.3-252.3L-3.3,168.5l0-1.3L91.9,42.4c0.1-0.1,0.3-0.2,0.4-0.1
				c0.2,0.1,0.3,0.2,0.3,0.4l-0.3,254.1c0,0.1-0.1,0.3-0.2,0.3c-0.1,0-0.1,0.1-0.2,0.1c-0.1,0-0.1,0-0.2,0l-94.6-45.8L-2.9,250.4z"
				/>
		</g>
		<g id="triangle36_1376_">
			<path class="st1" d="M91.7,352.1c0.1,0,0.1,0,0.2-0.1c0.1-0.1,0.2-0.2,0.2-0.3l0.2-54.9c0-0.1,0-0.2-0.1-0.3
				c-0.1-0.1-0.2-0.1-0.3-0.1L15.4,305c-0.2,0-0.3,0.1-0.3,0.3c0,0.2,0,0.3,0.2,0.4L91.4,352C91.5,352,91.6,352.1,91.7,352.1z
				 M91.5,297.2l-0.2,53.8l-74.7-45.3L91.5,297.2z"/>
		</g>
		<g id="triangle36_1375_">
			<path class="st1" d="M-2.8,283.2L15.6,305l74.9-8.5l-93.4-45.2l0-0.9l95,46c0.2,0.1,0.2,0.3,0.2,0.4c0,0.2-0.2,0.3-0.3,0.3
				l-76.5,8.7c0,0,0,0,0,0c-0.1,0-0.2-0.1-0.3-0.1l-17.8-21.2L-2.8,283.2z"/>
		</g>
		<g id="triangle36_1374_">
			<path class="st1" d="M-2.6,313.9l17.4-8.6l-17.5-20.8l0-1.2l18.5,21.9c0.1,0.1,0.1,0.2,0.1,0.3c0,0.1-0.1,0.2-0.2,0.3l-18.2,9
				L-2.6,313.9z"/>
		</g>
		<g id="triangle36_1373_">
			<path class="st1" d="M-2.6,318.9L12,307.5l-14.6,7.3l0-0.9l17.8-8.9c0.2-0.1,0.4,0,0.5,0.1c0.1,0.2,0.1,0.4-0.1,0.5l-18.2,14.2
				L-2.6,318.9z"/>
		</g>
		<g id="triangle36_1366_">
			<path class="st1" d="M524.6,729.5l-88.5,25.8l-2.9,0l90.3-26.3l-160.1-82.4L402,755.6l-0.8,0L362.2,646c-0.1-0.2,0-0.3,0.1-0.4
				c0.1-0.1,0.3-0.1,0.4-0.1l161.9,83.3c0.1,0.1,0.2,0.2,0.2,0.4C524.9,729.4,524.8,729.5,524.6,729.5z"/>
		</g>
		<g id="triangle36_1365_">
			<path class="st1" d="M401.2,755.6l-38.8-109.2l-105,50.9l129.3,58.3l-1.9,0l-128.5-57.9c-0.1-0.1-0.2-0.2-0.2-0.4
				c0-0.2,0.1-0.3,0.2-0.4l106.2-51.5c0.1,0,0.2-0.1,0.3,0c0.1,0,0.2,0.1,0.2,0.2l39,109.9L401.2,755.6z"/>
		</g>
		<g id="triangle36_1363_">
			<path class="st1" d="M355.7,520.6c0.1,0,0.2,0,0.2-0.1l46.5-35c0.2-0.1,0.2-0.3,0.1-0.5c-0.1-0.2-0.3-0.3-0.5-0.2l-73.8,26.8
				c-0.2,0.1-0.3,0.2-0.3,0.4c0,0.2,0.1,0.3,0.3,0.4l27.3,8.2C355.6,520.6,355.6,520.6,355.7,520.6z M399.8,486.5l-44.2,33.3
				l-26-7.8L399.8,486.5z"/>
		</g>
		<g id="triangle36_1362_">
			<path class="st1" d="M328.4,512.5c0,0,0.1,0,0.1,0l73.8-26.8c0.2-0.1,0.3-0.2,0.3-0.4c0-0.2-0.1-0.3-0.3-0.4l-97.1-31.5
				c-0.1-0.1-0.3,0-0.4,0.1c-0.1,0.1-0.1,0.3-0.1,0.4l23.4,58.4C328.1,512.4,328.2,512.5,328.4,512.5z M400.9,485.2l-72.3,26.3
				l-22.9-57.2L400.9,485.2z"/>
		</g>
		<g id="triangle36_1361_">
			<path class="st1" d="M362.6,646.2C362.6,646.2,362.7,646.2,362.6,646.2c0.3,0,0.4-0.2,0.4-0.4l-6.9-125.6c0-0.2-0.1-0.3-0.3-0.4
				l-27.3-8.2c-0.1,0-0.3,0-0.4,0.1c-0.1,0.1-0.1,0.2-0.1,0.4l34.2,133.8C362.3,646.1,362.4,646.2,362.6,646.2z M355.3,520.5
				l6.7,121.3l-33.1-129.2L355.3,520.5z"/>
		</g>
		<g id="triangle36_1360_">
			<path class="st1" d="M136.6,521.7C136.6,521.7,136.6,521.7,136.6,521.7l191.8-9.3c0.1,0,0.2-0.1,0.3-0.2c0.1-0.1,0.1-0.2,0-0.4
				l-23.4-58.4c0-0.1-0.1-0.2-0.2-0.2c-0.1,0-0.2,0-0.3,0L136.4,521c-0.2,0.1-0.3,0.3-0.2,0.5C136.2,521.6,136.4,521.7,136.6,521.7z
				 M327.8,511.7l-188.9,9.1l165.9-66.6L327.8,511.7z"/>
		</g>
		<g id="triangle36_1359_">
			<path class="st1" d="M305,454.1c0,0,0.1,0,0.1,0c0.1-0.1,0.2-0.2,0.2-0.3l19.7-152.2c0-0.2-0.1-0.3-0.2-0.4
				c-0.1-0.1-0.3-0.1-0.4,0l-105,81.9c-0.1,0.1-0.2,0.2-0.2,0.3c0,0.1,0.1,0.2,0.1,0.3l85.3,70.3C304.8,454.1,304.9,454.1,305,454.1
				z M324.2,302.4l-19.5,150.5l-84.3-69.5L324.2,302.4z"/>
		</g>
		<g id="triangle36_1358_">
			<path class="st1" d="M219.7,383.8c0.1,0,0.2,0,0.2-0.1l105-81.9c0.1-0.1,0.2-0.2,0.2-0.4c0-0.1-0.1-0.3-0.2-0.3l-91.4-41
				c-0.1-0.1-0.3,0-0.4,0c-0.1,0.1-0.2,0.2-0.2,0.3l-13.5,123c0,0.2,0.1,0.3,0.2,0.4C219.6,383.8,219.7,383.8,219.7,383.8z
				 M323.9,301.6l-103.7,80.9L233.6,261L323.9,301.6z"/>
		</g>
		<g id="triangle36_1357_">
			<path class="st1" d="M233.3,260.8C233.3,260.8,233.3,260.8,233.3,260.8c0.2,0,0.3-0.2,0.4-0.3l43.6-181.2c0-0.1,0-0.2-0.1-0.3
				c-0.1-0.1-0.2-0.2-0.3-0.2L92.3,42.3c-0.2,0-0.3,0-0.4,0.2c-0.1,0.1-0.1,0.3,0,0.4l141.1,217.8
				C233,260.8,233.1,260.8,233.3,260.8z M276.4,79.6l-43.3,179.9L93,43.2L276.4,79.6z"/>
		</g>
		<g id="triangle36_1356_">
			<path class="st1" d="M219.7,383.8c0.1,0,0.1,0,0.2-0.1c0.1-0.1,0.2-0.2,0.2-0.3l13.5-123c0-0.2-0.1-0.3-0.2-0.4
				c-0.2-0.1-0.3,0-0.5,0.1l-83.4,91.7c-0.1,0.1-0.1,0.2-0.1,0.3c0,0.1,0.1,0.2,0.2,0.3l69.9,31.3
				C219.6,383.8,219.7,383.8,219.7,383.8z M232.7,261.6l-13.3,121.2L150.5,352L232.7,261.6z"/>
		</g>
		<g id="triangle36_1355_">
			<path class="st1" d="M149.9,352.5C149.9,352.5,149.9,352.5,149.9,352.5c0.1,0,0.2-0.1,0.3-0.1l83.4-91.7c0.1-0.1,0.1-0.3,0-0.5
				c-0.1-0.1-0.3-0.2-0.4-0.2L91.8,296.3c-0.1,0-0.3,0.1-0.3,0.3c0,0.1,0,0.3,0.1,0.4l57.9,55.4
				C149.6,352.5,149.7,352.5,149.9,352.5z M232.1,261.2l-82.2,90.4l-57.1-54.6L232.1,261.2z"/>
		</g>
		<g id="triangle36_1353_">
			<path class="st1" d="M91.9,297.1C91.9,297.1,92,297.1,91.9,297.1l141.5-36.3c0.1,0,0.2-0.1,0.3-0.2c0-0.1,0-0.3,0-0.4L92.5,42.4
				c-0.1-0.1-0.3-0.2-0.4-0.2c-0.2,0-0.3,0.2-0.3,0.4l-0.3,254.1c0,0.1,0.1,0.2,0.2,0.3C91.7,297.1,91.8,297.1,91.9,297.1z
				 M232.6,260.2l-140.3,36L92.6,44L232.6,260.2z"/>
		</g>
		<g id="triangle36_1343_">
			<path class="st1" d="M362.6,646.2c0.1,0,0.2,0,0.3-0.1c0.1-0.1,0.1-0.2,0.1-0.4L328.8,512c0-0.1-0.1-0.2-0.2-0.3
				c-0.1,0-0.3,0-0.4,0L182.9,612c-0.1,0.1-0.2,0.3-0.2,0.4c0,0.2,0.2,0.3,0.3,0.3L362.6,646.2C362.6,646.2,362.6,646.2,362.6,646.2
				z M328.1,512.7l33.9,132.6l-177.9-33.2L328.1,512.7z"/>
		</g>
		<g id="triangle36_1342_">
			<path class="st1" d="M256.5,697.7c0.1,0,0.1,0,0.2,0l106.2-51.5c0.2-0.1,0.2-0.2,0.2-0.4c0-0.2-0.2-0.3-0.3-0.3L183.2,612
				c-0.2,0-0.3,0-0.4,0.2c-0.1,0.1-0.1,0.3,0,0.5l73.3,85C256.2,697.7,256.3,697.7,256.5,697.7z M361.4,646l-104.8,50.9L184.2,613
				L361.4,646z"/>
		</g>
		<g id="triangle36_1341_">
			<path class="st1" d="M183.2,612.8c0.1,0,0.2,0,0.2-0.1l145.2-100.3c0.1-0.1,0.2-0.3,0.2-0.5c-0.1-0.2-0.2-0.3-0.4-0.3l-191.8,9.3
				c-0.1,0-0.3,0.1-0.3,0.2c-0.1,0.1-0.1,0.3,0,0.4l46.6,91C182.9,612.6,182.9,612.7,183.2,612.8
				C183.1,612.8,183.1,612.8,183.2,612.8z M327,512.5l-143.7,99.3l-46.1-90.1L327,512.5z"/>
		</g>
		<g id="triangle36_1340_">
			<path class="st1" d="M206.7,715.4c0,0,0.1,0,0.1,0l49.7-17.6c0.1,0,0.2-0.1,0.3-0.3s0-0.3-0.1-0.4l-73.3-85
				c-0.1-0.1-0.3-0.2-0.5-0.1c-0.2,0.1-0.2,0.3-0.2,0.4l23.6,102.6c0,0.1,0.1,0.2,0.2,0.3C206.6,715.4,206.7,715.4,206.7,715.4z
				 M255.8,697.2L207,714.5l-23.1-100.6L255.8,697.2z"/>
		</g>
		<g id="triangle36_1339_">
			<path class="st1" d="M206.7,715.4c0.1,0,0.2-0.1,0.3-0.1c0.1-0.1,0.1-0.2,0.1-0.4l-23.6-102.6c0-0.1-0.1-0.3-0.3-0.3
				c-0.1,0-0.3,0-0.4,0.1l-95.5,92.2c-0.1,0.1-0.2,0.3-0.1,0.4c0.1,0.1,0.2,0.3,0.3,0.3L206.7,715.4
				C206.7,715.4,206.7,715.4,206.7,715.4z M182.9,613.1l23.3,101.4L88.6,704.2L182.9,613.1z"/>
		</g>
		<g id="triangle36_1338_">
			<path class="st1" d="M183.2,612.8c0.1,0,0.2,0,0.3-0.1c0.1-0.1,0.2-0.3,0.1-0.5l-46.6-91c-0.1-0.1-0.2-0.2-0.3-0.2
				c-0.1,0-0.2,0-0.3,0.1l-52.2,40.2c-0.1,0.1-0.2,0.2-0.2,0.4c0,0.1,0.1,0.3,0.2,0.3l98.8,50.9C183,612.7,183.1,612.8,183.2,612.8z
				 M136.4,521.9l45.8,89.5l-97.2-50L136.4,521.9z"/>
		</g>
		<g id="triangle36_1337_">
			<path class="st1" d="M87.7,704.9c0.1,0,0.2,0,0.3-0.1l95.5-92.2c0.1-0.1,0.1-0.2,0.1-0.4c0-0.1-0.1-0.2-0.3-0.3L46.8,571.2
				c-0.1,0-0.3,0-0.4,0.1c-0.1,0.1-0.1,0.3-0.1,0.4l41,132.9c0,0.1,0.1,0.2,0.3,0.3C87.6,704.9,87.7,704.9,87.7,704.9z M182.4,612.6
				l-94.5,91.2L47.2,572.2L182.4,612.6z"/>
		</g>
		<g id="triangle36_1336_">
			<path class="st1" d="M183.2,612.8c0.2,0,0.3-0.1,0.4-0.2c0.1-0.2,0-0.4-0.2-0.5l-98.8-50.9c-0.1,0-0.2-0.1-0.3,0l-37.7,10.1
				c-0.2,0-0.3,0.2-0.3,0.4c0,0.2,0.1,0.3,0.3,0.4L183,612.7C183.1,612.8,183.1,612.8,183.2,612.8z M84.3,561.9l94.9,48.8l-131-39.2
				L84.3,561.9z"/>
		</g>
		<g id="triangle36_1324_">
			<path class="st1" d="M772.7,663.5c0.2,0,0.3-0.1,0.4-0.3c0.1-0.2,0-0.4-0.2-0.5l-113-66.2c-0.1-0.1-0.2-0.1-0.3,0
				c-0.1,0-0.2,0.1-0.2,0.2l-23.4,41.6c-0.1,0.1-0.1,0.2,0,0.4c0.1,0.1,0.2,0.2,0.3,0.2L772.7,663.5
				C772.6,663.5,772.6,663.5,772.7,663.5z M659.8,597.4l110.8,64.9l-133.7-24.1L659.8,597.4z"/>
		</g>
		<g id="triangle36_1322_">
			<path class="st1" d="M636.2,638.9C636.2,638.9,636.3,638.9,636.2,638.9c0.2,0,0.3-0.1,0.3-0.2l23.4-41.6c0.1-0.1,0.1-0.2,0-0.4
				c-0.1-0.1-0.2-0.2-0.3-0.2l-69.8-13.9c-0.2,0-0.3,0-0.4,0.2c-0.1,0.1-0.1,0.3,0,0.5l46.4,55.5C636,638.8,636.1,638.9,636.2,638.9
				z M659,597.2l-22.8,40.6l-45.3-54.2L659,597.2z"/>
		</g>
		<g id="triangle36_1462_">
			<path class="st1" d="M438.7,358.6C438.8,358.6,438.8,358.6,438.7,358.6c0.3-0.1,0.4-0.3,0.4-0.5l-21.9-84.4
				c-0.1-0.2-0.3-0.3-0.5-0.3c-0.2,0.1-0.3,0.3-0.3,0.5l21.9,84.4C438.4,358.5,438.6,358.6,438.7,358.6z"/>
		</g>
		<g id="triangle36_1316_">
			<path class="st1" d="M438.7,358.6c0.1,0,0.2,0,0.2-0.1c0.1-0.1,0.2-0.3,0.1-0.4l-21.9-84.4c0-0.1-0.1-0.2-0.2-0.2
				c-0.1-0.1-0.2-0.1-0.3,0l-92.1,27.7c-0.2,0-0.3,0.2-0.3,0.3c0,0.2,0.1,0.3,0.2,0.4l114,56.7C438.6,358.6,438.7,358.6,438.7,358.6
				z M416.5,274.2l21.6,83.2l-112.4-55.9L416.5,274.2z"/>
		</g>
		<g id="triangle36_1315_">
			<path class="st1" d="M406.3,465.8c0.2,0,0.3-0.1,0.4-0.3l32.5-107.2c0-0.2,0-0.3-0.1-0.4c-0.1-0.1-0.3-0.1-0.5,0l-133.7,95.5
				c-0.1,0.1-0.2,0.3-0.2,0.4c0,0.2,0.2,0.3,0.3,0.3L406.3,465.8C406.2,465.8,406.2,465.8,406.3,465.8z M438,359.2L406,465
				l-99.9-11.6L438,359.2z"/>
		</g>
		<g id="triangle36_1314_">
			<path class="st1" d="M305,454.1c0.1,0,0.2,0,0.2-0.1L439,358.5c0.1-0.1,0.2-0.2,0.2-0.4c0-0.1-0.1-0.3-0.2-0.3l-114-56.7
				c-0.1-0.1-0.3-0.1-0.4,0c-0.1,0.1-0.2,0.2-0.2,0.3l-19.7,152.2c0,0.2,0.1,0.3,0.2,0.4C304.9,454.1,304.9,454.1,305,454.1z
				 M438,358.2l-132.4,94.6L325,302.1L438,358.2z"/>
		</g>
		<g id="triangle36_1165_">
			<path class="st1" d="M475.8,540.9c0.1,0,0.2,0,0.3-0.1c0.1-0.2,0.1-0.4,0-0.5l-69.6-75.1c-0.1-0.1-0.3-0.2-0.4-0.1
				c-0.1,0-0.3,0.2-0.3,0.3l-4.1,19.8c0,0.2,0,0.3,0.2,0.4l73.7,55.3C475.7,540.9,475.8,540.9,475.8,540.9z M406.5,466.3l66,71.3
				L402.6,485L406.5,466.3z"/>
		</g>
		<g id="triangle36_1164_">
			<path class="st1" d="M475.8,540.9c0.2,0,0.3-0.1,0.4-0.2c0.1-0.2,0-0.4-0.1-0.5l-73.7-55.3c-0.1-0.1-0.3-0.1-0.5,0l-46.5,35
				c-0.1,0.1-0.2,0.3-0.1,0.4c0,0.2,0.2,0.3,0.3,0.3L475.8,540.9C475.8,540.9,475.8,540.9,475.8,540.9z M402.2,485.7l72.1,54.2
				L356.7,520L402.2,485.7z"/>
		</g>
		<g id="triangle36_1160_">
			<path class="st1" d="M362.6,646.2c0.1,0,0.2,0,0.3-0.1l113.2-105.3c0.1-0.1,0.2-0.3,0.1-0.4c0-0.1-0.2-0.3-0.3-0.3l-120.2-20.3
				c-0.1,0-0.2,0-0.3,0.1c-0.1,0.1-0.1,0.2-0.1,0.3l6.9,125.6c0,0.2,0.1,0.3,0.2,0.3C362.5,646.2,362.6,646.2,362.6,646.2z
				 M475,540.8L363,645l-6.9-124.3L475,540.8z"/>
		</g>
		<g id="triangle36_1159_">
			<path class="st1" d="M-2,433.7l137.9,86.8L91.4,352.2l-93.6,39.5l0-0.9l93.7-39.6c0.1,0,0.2,0,0.3,0c0.1,0.1,0.2,0.1,0.2,0.3
				l44.9,169.7c0,0.2,0,0.3-0.1,0.4c-0.1,0.1-0.2,0.1-0.2,0.1c-0.1,0-0.1,0-0.2-0.1L-2,434.6L-2,433.7z"/>
		</g>
		<g id="triangle36_1158_">
			<path class="st1" d="M-1.6,506.1l136.5,14.6L-2,434.6l0-0.9L136.8,521c0.2,0.1,0.2,0.3,0.2,0.5c-0.1,0.2-0.2,0.3-0.4,0.3
				c0,0,0,0,0,0L-1.6,506.9L-1.6,506.1z"/>
		</g>
		<g id="triangle36_1153_">
			<path class="st1" d="M-2.2,390.9l91.6-38.7l-91.7,5.4l0-0.8l94-5.5c0.2,0,0.4,0.1,0.4,0.3c0,0.2-0.1,0.4-0.2,0.5l-94,39.7
				L-2.2,390.9z"/>
		</g>
		<g id="triangle36_1145_">
			<path class="st1" d="M636.2,638.9c0.1,0,0.2-0.1,0.3-0.2c0.1-0.1,0.1-0.4,0-0.5l-46.4-55.5c-0.1-0.1-0.2-0.1-0.3-0.1l-91.7-0.3
				c0,0,0,0,0,0c-0.2,0-0.4,0.1-0.4,0.3c0,0.2,0.1,0.4,0.2,0.4l138.2,55.8C636.1,638.9,636.2,638.9,636.2,638.9z M589.6,583.4
				l45.3,54.1l-134.8-54.4L589.6,583.4z"/>
		</g>
		<g id="triangle36_1144_">
			<path class="st1" d="M524.5,729.6c0.1,0,0.2,0,0.2-0.1l111.7-90.7c0.1-0.1,0.2-0.2,0.1-0.4c0-0.1-0.1-0.3-0.2-0.3l-138.2-55.8
				c-0.1-0.1-0.3,0-0.4,0.1c-0.1,0.1-0.2,0.2-0.1,0.4l26.4,146.5c0,0.1,0.1,0.3,0.3,0.3C524.4,729.6,524.5,729.6,524.5,729.6z
				 M635.5,638.6l-110.7,89.8l-26.2-145.1L635.5,638.6z"/>
		</g>
		<g id="triangle36_1142_">
			<path class="st1" d="M589.8,583.4c0.2,0,0.4-0.1,0.4-0.3c0-0.2-0.1-0.4-0.3-0.4l-114-42.5c-0.2-0.1-0.3,0-0.4,0.1
				c-0.1,0.1-0.1,0.3-0.1,0.4l22.2,42.2c0.1,0.1,0.2,0.2,0.4,0.2L589.8,583.4C589.8,583.4,589.8,583.4,589.8,583.4z M476.7,541.3
				l110.9,41.3l-89.3-0.3L476.7,541.3z"/>
		</g>
		<g id="triangle36_1141_">
			<path class="st1" d="M524.5,729.6c0.1,0,0.2,0,0.2-0.1c0.1-0.1,0.2-0.2,0.2-0.4l-26.4-146.5c0-0.1-0.1-0.2-0.2-0.3
				c-0.1-0.1-0.2-0.1-0.4,0l-135.5,63.1c-0.1,0.1-0.2,0.2-0.2,0.4c0,0.2,0.1,0.3,0.2,0.4l161.9,83.3
				C524.4,729.5,524.4,729.6,524.5,729.6z M497.8,583.3L524,728.4l-160.4-82.6L497.8,583.3z"/>
		</g>
		<g id="triangle36_1140_">
			<path class="st1" d="M362.6,646.2c0.1,0,0.1,0,0.2,0l135.5-63.1c0.1,0,0.2-0.1,0.2-0.2c0-0.1,0-0.2,0-0.3l-22.2-42.2
				c-0.1-0.1-0.2-0.2-0.3-0.2c-0.1,0-0.2,0-0.3,0.1L362.3,645.5c-0.1,0.1-0.2,0.4-0.1,0.5C362.4,646.2,362.5,646.2,362.6,646.2z
				 M497.5,582.5l-132.8,61.9l111-103.2L497.5,582.5z"/>
		</g>
		<g id="triangle36_1139_">
			<path class="st1" d="M-1.2,589l46.9-17.5l-47.1-27l0-0.9l48.3,27.7c0.1,0.1,0.2,0.2,0.2,0.4c0,0.2-0.1,0.3-0.3,0.3l-48,17.9
				L-1.2,589z"/>
		</g>
		<g id="triangle36_1460_">
			<path class="st1" d="M416.8,274.1c0.1,0,0.3-0.1,0.3-0.2c0.1-0.2,0.1-0.4-0.1-0.6L325,211.8c-0.2-0.1-0.4-0.1-0.6,0.1
				c-0.1,0.2-0.1,0.4,0.1,0.6l92.1,61.6C416.7,274.1,416.7,274.1,416.8,274.1z"/>
		</g>
		<g id="triangle36_1126_">
			<path class="st1" d="M324.7,301.9c0,0,0.1,0,0.1,0l92.1-27.7c0.1,0,0.3-0.2,0.3-0.3c0-0.2,0-0.3-0.2-0.4L325,211.8
				c-0.1-0.1-0.3-0.1-0.4,0c-0.1,0.1-0.2,0.2-0.2,0.4l-0.1,89.3c0,0.1,0.1,0.2,0.2,0.3C324.5,301.8,324.6,301.9,324.7,301.9z
				 M415.9,273.6l-90.8,27.3l0.1-88L415.9,273.6z"/>
		</g>
		<g id="triangle36_1121_">
			<path class="st1" d="M324.7,301.9c0.1,0,0.1,0,0.2-0.1c0.1-0.1,0.2-0.2,0.2-0.3l0.1-89.3c0-0.1-0.1-0.3-0.2-0.3
				c-0.1-0.1-0.3-0.1-0.4,0l-91.5,48.3c-0.1,0.1-0.2,0.2-0.2,0.4c0,0.2,0.1,0.3,0.2,0.4l91.4,41
				C324.6,301.9,324.6,301.9,324.7,301.9z M324.4,212.8l-0.1,88l-90.1-40.4L324.4,212.8z"/>
		</g>
		<g id="triangle36_1117_">
			<path class="st1" d="M233.3,260.8c0.1,0,0.1,0,0.2,0l91.5-48.3c0.2-0.1,0.3-0.3,0.2-0.5L277.3,79.1c-0.1-0.2-0.2-0.3-0.4-0.3
				c-0.2,0-0.3,0.1-0.4,0.3l-43.6,181.2c0,0.2,0,0.3,0.1,0.4C233.1,260.8,233.2,260.8,233.3,260.8z M324.3,212l-90.4,47.7l43.1-179
				L324.3,212z"/>
		</g>
		<g id="triangle36_1116_">
			<path class="st1" d="M-0.9,644.2L87,703.6L46.5,572.4L-1,633.5l0-1.3l47.3-60.9c0.1-0.1,0.2-0.2,0.4-0.1c0.1,0,0.3,0.1,0.3,0.3
				l41,132.9c0,0.2,0,0.3-0.1,0.4c-0.1,0.1-0.2,0.1-0.2,0.1c-0.1,0-0.2,0-0.2-0.1l-88.4-59.7L-0.9,644.2z"/>
		</g>
		<g id="triangle36_1115_">
			<path class="st1" d="M-0.5,726l87.2-21.7l-87.6-59.2l0-1l88.8,60c0.1,0.1,0.2,0.2,0.2,0.4c0,0.2-0.1,0.3-0.3,0.3l-88.3,21.9
				L-0.5,726z"/>
		</g>
		<g id="triangle36_1114_">
			<path class="st1" d="M-1,632.2l46.4-59.8l-46.7,17.4l0-0.8l47.7-17.8c0.2-0.1,0.4,0,0.5,0.1c0.1,0.1,0.1,0.3,0,0.5L-1,633.5
				L-1,632.2z"/>
		</g>
	</g>
	<g>
		<g>
			<path class="st1" d="M65.8,14.9c2.3,0,4.2,1.8,4.2,4.1c0,2.3-1.8,4.2-4.1,4.2c-2.3,0-4.2-1.8-4.2-4.1
				C61.7,16.8,63.5,14.9,65.8,14.9z"/>
			<path class="st2" d="M65.8,14.9c-2.3,0-4.1,1.9-4.1,4.2c0,2.3,1.9,4.1,4.2,4.1c2.3,0,4.1-1.9,4.1-4.2
				C70,16.8,68.1,14.9,65.8,14.9 M65.8,13.3c3.2,0,5.8,2.6,5.8,5.7s-2.6,5.8-5.7,5.8c-3.2,0-5.8-2.6-5.8-5.7
				C60.1,15.9,62.6,13.4,65.8,13.3L65.8,13.3z"/>
		</g>
		<g>
			<path class="st1" d="M718.3,693.6c1.4,0,2.6,1.1,2.6,2.6c0,1.4-1.1,2.6-2.6,2.6c-1.4,0-2.6-1.1-2.6-2.6
				C715.7,694.8,716.9,693.6,718.3,693.6z"/>
			<path class="st2" d="M718.3,693.6c-1.4,0-2.6,1.2-2.6,2.6c0,1.4,1.2,2.6,2.6,2.6c1.4,0,2.6-1.2,2.6-2.6
				C720.9,694.7,719.7,693.6,718.3,693.6 M718.3,692c2.3,0,4.2,1.8,4.2,4.1c0,2.3-1.8,4.2-4.1,4.2c-2.3,0-4.2-1.8-4.2-4.1
				C714.1,693.9,716,692,718.3,692L718.3,692z"/>
		</g>
		<g>
			<path class="st1" d="M670.2,723.3c2,0,3.6,1.6,3.6,3.5c0,2-1.6,3.6-3.5,3.6c-2,0-3.6-1.6-3.6-3.5
				C666.7,724.9,668.3,723.3,670.2,723.3z"/>
			<path class="st2" d="M670.2,723.3c-2,0-3.5,1.6-3.5,3.6c0,2,1.6,3.5,3.6,3.5c2,0,3.5-1.6,3.5-3.6
				C673.8,724.9,672.2,723.3,670.2,723.3 M670.2,721.7c2.8,0,5.2,2.3,5.2,5.1c0,2.8-2.3,5.2-5.1,5.2c-2.8,0-5.2-2.3-5.2-5.1
				C665.1,724,667.4,721.7,670.2,721.7L670.2,721.7z"/>
		</g>
		<g>
			<path class="st1" d="M15.4,302.3c1.7,0,3.1,1.4,3.1,3.1s-1.4,3.1-3.1,3.1c-1.7,0-3.1-1.4-3.1-3.1
				C12.3,303.7,13.7,302.3,15.4,302.3z"/>
			<path class="st2" d="M15.4,302.3c-1.7,0-3.1,1.4-3.1,3.1c0,1.7,1.4,3.1,3.1,3.1c1.7,0,3.1-1.4,3.1-3.1S17.1,302.3,15.4,302.3
				 M15.4,300.7c2.6,0,4.7,2.1,4.7,4.7c0,2.6-2.1,4.7-4.7,4.7c-2.6,0-4.7-2.1-4.7-4.7C10.7,302.9,12.8,300.8,15.4,300.7L15.4,300.7z
				"/>
		</g>
		<g>
			
				<ellipse transform="matrix(0.6864 -0.7273 0.7273 0.6864 -209.9137 280.0482)" class="st1" cx="219.7" cy="383.4" rx="5.3" ry="5.3"/>
			<path class="st2" d="M219.7,378.1c-2.9,0-5.3,2.4-5.3,5.3c0,2.9,2.4,5.3,5.3,5.3c2.9,0,5.3-2.4,5.3-5.3
				C225,380.5,222.6,378.1,219.7,378.1 M219.7,376.5c3.8,0,6.9,3,6.9,6.8c0,3.8-3,6.9-6.8,6.9c-3.8,0-6.9-3-6.9-6.8
				C212.8,379.6,215.9,376.5,219.7,376.5L219.7,376.5z"/>
		</g>
		<g>
			<path class="st1" d="M147.6,352.2c0-1.2,1-2.3,2.2-2.3c1.2,0,2.3,1,2.3,2.2c0,1.2-1,2.3-2.2,2.3
				C148.6,354.4,147.6,353.4,147.6,352.2z"/>
			<path class="st2" d="M149.8,349.9c-1.2,0-2.3,1-2.2,2.3c0,1.2,1,2.3,2.3,2.2c1.2,0,2.3-1,2.2-2.3
				C152.1,350.9,151.1,349.9,149.8,349.9 M149.8,348.3c2.1,0,3.9,1.7,3.9,3.8c0,2.1-1.7,3.9-3.8,3.9c-2.1,0-3.9-1.7-3.9-3.8
				C146,350,147.7,348.3,149.8,348.3L149.8,348.3z"/>
		</g>
		<g>
			<path class="st1" d="M91.9,301.9c-2.9,0-5.2-2.3-5.2-5.2c0-2.9,2.3-5.2,5.2-5.2c2.9,0,5.2,2.3,5.2,5.2
				C97.1,299.6,94.8,301.9,91.9,301.9z"/>
			<path class="st2" d="M91.9,291.5c-2.9,0-5.2,2.4-5.2,5.2c0,2.9,2.4,5.2,5.2,5.2c2.9,0,5.2-2.4,5.2-5.2
				C97.1,293.8,94.7,291.5,91.9,291.5 M91.9,289.9c3.7,0,6.8,3,6.8,6.8c0,3.7-3,6.8-6.8,6.8s-6.8-3-6.8-6.8
				C85.1,293,88.1,290,91.9,289.9L91.9,289.9z"/>
		</g>
		<g>
			<path class="st1" d="M88.9,42.7c0-1.8,1.4-3.3,3.2-3.3c1.8,0,3.3,1.4,3.3,3.2c0,1.8-1.4,3.3-3.2,3.3
				C90.4,45.9,88.9,44.5,88.9,42.7z"/>
			<path class="st2" d="M92.2,39.4c-1.8,0-3.2,1.5-3.2,3.3s1.5,3.2,3.3,3.2c1.8,0,3.2-1.5,3.2-3.3C95.4,40.8,94,39.4,92.2,39.4
				 M92.2,37.8c2.7,0,4.9,2.1,4.9,4.8c0,2.7-2.1,4.9-4.8,4.9c-2.7,0-4.9-2.1-4.9-4.8C87.3,40,89.5,37.8,92.2,37.8L92.2,37.8z"/>
		</g>
		<g>
			<path class="st1" d="M328.4,507.4c2.6,0,4.7,2.1,4.7,4.7c0,2.6-2.1,4.7-4.7,4.7c-2.6,0-4.7-2.1-4.7-4.7
				C323.7,509.5,325.8,507.4,328.4,507.4z"/>
			<path class="st2" d="M328.4,507.4c-2.6,0-4.7,2.1-4.7,4.7c0,2.6,2.1,4.7,4.7,4.7s4.7-2.1,4.7-4.7
				C333.1,509.4,331,507.3,328.4,507.4 M328.4,505.8c3.5,0,6.3,2.8,6.3,6.3c0,3.5-2.8,6.3-6.3,6.3s-6.3-2.8-6.3-6.3
				C322.1,508.6,324.9,505.8,328.4,505.8L328.4,505.8z"/>
		</g>
		<g>
			<path class="st1" d="M256.4,693.3c2.2,0,4,1.8,4.1,4c0,2.2-1.8,4-4,4.1s-4-1.8-4.1-4C252.4,695.1,254.2,693.3,256.4,693.3z"/>
			<path class="st2" d="M256.4,693.3c-2.2,0-4,1.8-4,4.1c0,2.2,1.8,4,4.1,4c2.2,0,4-1.8,4-4.1C260.5,695.1,258.7,693.3,256.4,693.3
				 M256.4,691.7c3.1,0,5.6,2.5,5.7,5.6c0,3.1-2.5,5.6-5.6,5.7c-3.1,0-5.6-2.5-5.7-5.6C250.8,694.3,253.3,691.7,256.4,691.7
				L256.4,691.7z"/>
		</g>
		<g>
			<path class="st1" d="M206.7,709.7c2.9,0,5.2,2.3,5.3,5.2c0,2.9-2.3,5.2-5.2,5.3c-2.9,0-5.2-2.3-5.3-5.2
				C201.5,712.1,203.8,709.8,206.7,709.7z"/>
			<path class="st2" d="M206.7,709.7c-2.9,0-5.2,2.4-5.2,5.3c0,2.9,2.4,5.2,5.3,5.2s5.2-2.4,5.2-5.3
				C212,712.1,209.6,709.7,206.7,709.7 M206.7,708.1c3.8,0,6.8,3,6.9,6.8c0,3.8-3,6.8-6.8,6.9c-3.8,0-6.8-3-6.9-6.8
				C199.9,711.2,202.9,708.2,206.7,708.1L206.7,708.1z"/>
		</g>
		<g>
			<path class="st1" d="M183.1,609.4c1.6,0,2.9,1.3,2.9,2.9c0,1.6-1.3,2.9-2.9,2.9c-1.6,0-2.9-1.3-2.9-2.9
				C180.2,610.8,181.5,609.4,183.1,609.4z"/>
			<path class="st2" d="M183.1,609.4c-1.6,0-2.9,1.3-2.9,2.9c0,1.6,1.3,2.9,2.9,2.9c1.6,0,2.9-1.3,2.9-2.9
				C186.1,610.7,184.8,609.4,183.1,609.4 M183.1,607.8c2.5,0,4.5,2,4.5,4.5c0,2.5-2,4.5-4.5,4.5c-2.5,0-4.5-2-4.5-4.5
				C178.6,609.9,180.6,607.9,183.1,607.8L183.1,607.8z"/>
		</g>
		<g>
			<path class="st1" d="M84.3,555.8c3.1,0,5.7,2.5,5.7,5.6c0,3.1-2.5,5.7-5.6,5.7c-3.1,0-5.7-2.5-5.7-5.6
				C78.6,558.4,81.2,555.8,84.3,555.8z"/>
			<path class="st2" d="M84.3,555.8c-3.1,0-5.7,2.6-5.6,5.7c0,3.1,2.6,5.7,5.7,5.6c3.1,0,5.7-2.6,5.6-5.7
				C90,558.3,87.4,555.8,84.3,555.8 M84.3,554.2c4,0,7.3,3.2,7.3,7.2c0,4-3.2,7.3-7.2,7.3c-4,0-7.3-3.2-7.3-7.2
				C77.1,557.5,80.3,554.3,84.3,554.2L84.3,554.2z"/>
		</g>
		<g>
			<path class="st1" d="M772.6,660.8c1.3,0,2.3,1,2.3,2.3c0,1.3-1,2.3-2.3,2.3c-1.3,0-2.3-1-2.3-2.3
				C770.3,661.8,771.4,660.8,772.6,660.8z"/>
			<path class="st2" d="M772.6,660.8c-1.3,0-2.3,1.1-2.3,2.3c0,1.3,1.1,2.3,2.3,2.3c1.3,0,2.3-1.1,2.3-2.3
				C775,661.8,773.9,660.8,772.6,660.8 M772.6,659.2c2.2,0,3.9,1.7,3.9,3.9c0,2.2-1.7,3.9-3.9,3.9c-2.2,0-3.9-1.7-3.9-3.9
				C768.7,660.9,770.5,659.2,772.6,659.2L772.6,659.2z"/>
		</g>
		<g>
			<path class="st1" d="M659.6,593.1c2.1,0,3.8,1.7,3.8,3.8c0,2.1-1.7,3.8-3.8,3.8c-2.1,0-3.8-1.7-3.8-3.8
				C655.8,594.8,657.5,593.1,659.6,593.1z"/>
			<path class="st2" d="M659.6,593.1c-2.1,0-3.8,1.7-3.8,3.8c0,2.1,1.7,3.8,3.8,3.8c2.1,0,3.8-1.7,3.8-3.8
				C663.4,594.8,661.7,593.1,659.6,593.1 M659.6,591.5c3,0,5.4,2.4,5.4,5.3c0,3-2.4,5.4-5.3,5.4c-3,0-5.4-2.4-5.4-5.3
				C654.2,594,656.6,591.5,659.6,591.5L659.6,591.5z"/>
		</g>
		<g>
			<path class="st1" d="M438.7,355.9c1.3,0,2.3,1,2.3,2.3c0,1.3-1,2.3-2.3,2.3c-1.3,0-2.3-1-2.3-2.3
				C436.5,356.9,437.5,355.9,438.7,355.9z"/>
			<path class="st2" d="M438.7,355.9c-1.3,0-2.3,1-2.3,2.3c0,1.3,1,2.3,2.3,2.3c1.3,0,2.3-1,2.3-2.3
				C441,356.9,440,355.9,438.7,355.9 M438.7,354.3c2.1,0,3.9,1.7,3.9,3.9c0,2.1-1.7,3.9-3.9,3.9c-2.1,0-3.9-1.7-3.9-3.9
				C434.9,356.1,436.6,354.3,438.7,354.3L438.7,354.3z"/>
		</g>
		<g>
			<path class="st1" d="M305,448.5c2.9,0,5.2,2.3,5.2,5.2c0,2.9-2.3,5.2-5.2,5.2c-2.9,0-5.2-2.3-5.2-5.2
				C299.8,450.8,302.1,448.5,305,448.5z"/>
			<path class="st2" d="M305,448.5c-2.9,0-5.2,2.4-5.2,5.2c0,2.9,2.4,5.2,5.2,5.2c2.9,0,5.2-2.4,5.2-5.2
				C310.2,450.8,307.9,448.5,305,448.5 M305,446.9c3.7,0,6.8,3,6.8,6.8c0,3.7-3,6.8-6.8,6.8c-3.7,0-6.8-3-6.8-6.8
				C298.2,450,301.2,446.9,305,446.9L305,446.9z"/>
		</g>
		<g>
			<path class="st1" d="M406.3,468c-1.4,0-2.6-1.1-2.6-2.6c0-1.4,1.1-2.6,2.6-2.6c1.4,0,2.6,1.1,2.6,2.6
				C408.9,466.8,407.7,468,406.3,468z"/>
			<path class="st2" d="M406.2,462.8c-1.4,0-2.6,1.2-2.6,2.6c0,1.4,1.2,2.6,2.6,2.6s2.6-1.2,2.6-2.6
				C408.8,464,407.7,462.8,406.2,462.8 M406.2,461.2c2.3,0,4.2,1.9,4.2,4.2c0,2.3-1.9,4.2-4.2,4.2c-2.3,0-4.2-1.9-4.2-4.2
				C402.1,463.1,403.9,461.3,406.2,461.2L406.2,461.2z"/>
		</g>
		<g>
			<path class="st1" d="M402.1,482.3c1.6,0,2.9,1.3,2.9,2.9c0,1.6-1.3,2.9-2.9,2.9c-1.6,0-2.9-1.3-2.9-2.9
				C399.2,483.6,400.5,482.3,402.1,482.3z"/>
			<path class="st2" d="M402.1,482.3c-1.6,0-2.9,1.3-2.9,2.9c0,1.6,1.3,2.9,2.9,2.9c1.6,0,2.9-1.3,2.9-2.9
				C405.1,483.6,403.8,482.3,402.1,482.3 M402.1,480.7c2.5,0,4.5,2,4.5,4.5c0,2.5-2,4.5-4.5,4.5c-2.5,0-4.5-2-4.5-4.5
				C397.6,482.7,399.6,480.7,402.1,480.7L402.1,480.7z"/>
		</g>
		<g>
			<path class="st1" d="M355.7,517.9c1.3,0,2.3,1,2.3,2.3c0,1.3-1,2.3-2.3,2.3c-1.3,0-2.3-1-2.3-2.3
				C353.4,519,354.4,517.9,355.7,517.9z"/>
			<path class="st2" d="M355.7,517.9c-1.3,0-2.3,1-2.3,2.3c0,1.3,1,2.3,2.3,2.3c1.3,0,2.3-1,2.3-2.3
				C358,518.9,356.9,517.9,355.7,517.9 M355.7,516.3c2.1,0,3.9,1.7,3.9,3.9c0,2.1-1.7,3.9-3.9,3.9c-2.1,0-3.9-1.7-3.9-3.9
				C351.8,518.1,353.5,516.3,355.7,516.3L355.7,516.3z"/>
		</g>
		<g>
			<path class="st1" d="M136.5,517.3c2.2,0,4,1.8,4,4c0,2.2-1.8,4-4,4c-2.2,0-4-1.8-4-4C132.6,519.1,134.3,517.4,136.5,517.3z"/>
			<path class="st2" d="M136.5,517.3c-2.2,0-4,1.8-4,4c0,2.2,1.8,4,4,4c2.2,0,4-1.8,4-4C140.5,519.1,138.7,517.3,136.5,517.3
				 M136.5,515.7c3.1,0,5.6,2.5,5.6,5.6c0,3.1-2.5,5.6-5.6,5.6c-3.1,0-5.6-2.5-5.6-5.6C131,518.3,133.5,515.8,136.5,515.7
				L136.5,515.7z"/>
		</g>
		<g>
			<path class="st1" d="M91.6,347.1c2.5,0,4.6,2,4.6,4.6c0,2.5-2,4.6-4.6,4.6c-2.5,0-4.6-2-4.6-4.6
				C87.1,349.1,89.1,347.1,91.6,347.1z"/>
			<path class="st2" d="M91.6,347.1c-2.5,0-4.6,2.1-4.6,4.6c0,2.5,2.1,4.6,4.6,4.6c2.5,0,4.6-2.1,4.6-4.6
				C96.2,349.1,94.2,347.1,91.6,347.1 M91.6,345.5c3.4,0,6.2,2.7,6.2,6.1c0,3.4-2.7,6.2-6.1,6.2c-3.4,0-6.2-2.7-6.2-6.1
				C85.5,348.3,88.2,345.5,91.6,345.5L91.6,345.5z"/>
		</g>
		<g>
			<path class="st1" d="M636.2,633.5c2.7,0,5,2.2,5,4.9c0,2.7-2.2,5-4.9,5c-2.7,0-5-2.2-5-4.9C631.2,635.8,633.5,633.5,636.2,633.5z
				"/>
			<path class="st2" d="M636.2,633.5c-2.7,0-5,2.2-4.9,5c0,2.7,2.2,5,5,4.9c2.7,0,5-2.2,4.9-5C641.2,635.7,639,633.5,636.2,633.5
				 M636.2,631.9c3.6,0,6.6,2.9,6.6,6.5c0,3.6-2.9,6.6-6.5,6.6c-3.6,0-6.6-2.9-6.6-6.5C629.7,634.9,632.6,632,636.2,631.9
				L636.2,631.9z"/>
		</g>
		<g>
			<path class="st1" d="M587,583c0-1.6,1.3-2.9,2.8-2.9c1.6,0,2.9,1.3,2.9,2.8c0,1.6-1.3,2.9-2.8,2.9C588.3,585.9,587,584.6,587,583
				z"/>
			<path class="st2" d="M589.8,580.2c-1.6,0-2.9,1.3-2.8,2.9c0,1.6,1.3,2.9,2.9,2.8c1.6,0,2.9-1.3,2.8-2.9
				C592.7,581.4,591.4,580.2,589.8,580.2 M589.8,578.6c2.5,0,4.5,2,4.5,4.4c0,2.5-2,4.5-4.4,4.5c-2.5,0-4.5-2-4.5-4.4
				C585.3,580.6,587.3,578.6,589.8,578.6L589.8,578.6z"/>
		</g>
		<g>
			<path class="st1" d="M524.5,724.7c2.5,0,4.5,2,4.5,4.5c0,2.5-2,4.5-4.5,4.5c-2.5,0-4.5-2-4.5-4.5
				C520,726.7,522,724.7,524.5,724.7z"/>
			<path class="st2" d="M524.5,724.7c-2.5,0-4.5,2-4.5,4.5c0,2.5,2,4.5,4.5,4.5c2.5,0,4.5-2,4.5-4.5
				C529,726.7,527,724.7,524.5,724.7 M524.5,723.1c3.4,0,6.1,2.7,6.1,6.1c0,3.4-2.7,6.1-6.1,6.1s-6.1-2.7-6.1-6.1
				C518.4,725.8,521.1,723.1,524.5,723.1L524.5,723.1z"/>
		</g>
		<g>
			<path class="st1" d="M498,578c2.6,0,4.7,2.1,4.7,4.7c0,2.6-2.1,4.7-4.7,4.7c-2.6,0-4.7-2.1-4.7-4.7
				C493.4,580.1,495.5,578,498,578z"/>
			<path class="st2" d="M498,578c-2.6,0-4.7,2.1-4.7,4.7c0,2.6,2.1,4.7,4.7,4.7c2.6,0,4.7-2.1,4.7-4.7
				C502.8,580.1,500.6,578,498,578 M498,576.4c3.5,0,6.3,2.8,6.3,6.3c0,3.5-2.8,6.3-6.3,6.3c-3.5,0-6.3-2.8-6.3-6.3
				C491.8,579.3,494.6,576.4,498,576.4L498,576.4z"/>
		</g>
		<g>
			<path class="st1" d="M362.6,641.7c2.3,0,4.1,1.8,4.1,4.1c0,2.3-1.8,4.1-4.1,4.1c-2.3,0-4.1-1.8-4.1-4.1
				C358.5,643.6,360.3,641.7,362.6,641.7z"/>
			<path class="st2" d="M362.6,641.7c-2.3,0-4.1,1.9-4.1,4.1c0,2.3,1.9,4.1,4.1,4.1c2.3,0,4.1-1.9,4.1-4.1
				C366.7,643.5,364.9,641.7,362.6,641.7 M362.6,640.1c3.1,0,5.7,2.5,5.7,5.7c0,3.1-2.5,5.7-5.7,5.7c-3.1,0-5.7-2.5-5.7-5.7
				C356.9,642.7,359.4,640.1,362.6,640.1L362.6,640.1z"/>
		</g>
		<g>
			<path class="st1" d="M475.8,537.5c1.7,0,3,1.3,3,3c0,1.7-1.3,3-3,3s-3-1.3-3-3C472.8,538.9,474.2,537.5,475.8,537.5z"/>
			<path class="st2" d="M475.8,537.5c-1.7,0-3,1.4-3,3c0,1.7,1.4,3,3,3s3-1.4,3-3C478.8,538.9,477.5,537.5,475.8,537.5 M475.8,535.9
				c2.5,0,4.6,2,4.6,4.6c0,2.5-2,4.6-4.6,4.6c-2.5,0-4.6-2-4.6-4.6C471.2,538,473.3,535.9,475.8,535.9L475.8,535.9z"/>
		</g>
		<g>
			<path class="st1" d="M416.8,270.1c2,0,3.6,1.6,3.6,3.6c0,2-1.6,3.6-3.6,3.6c-2,0-3.6-1.6-3.6-3.6
				C413.2,271.8,414.8,270.1,416.8,270.1z"/>
			<path class="st2" d="M416.8,270.1c-2,0-3.6,1.6-3.6,3.6c0,2,1.6,3.6,3.6,3.6c2,0,3.6-1.6,3.6-3.6
				C420.4,271.7,418.8,270.1,416.8,270.1 M416.8,268.5c2.9,0,5.2,2.3,5.2,5.2c0,2.9-2.3,5.2-5.2,5.2c-2.9,0-5.2-2.3-5.2-5.2
				S413.9,268.6,416.8,268.5L416.8,268.5z"/>
		</g>
		<g>
			<path class="st1" d="M324.7,298.8c1.5,0,2.7,1.2,2.7,2.7c0,1.5-1.2,2.7-2.7,2.7c-1.5,0-2.7-1.2-2.7-2.7
				C322,300,323.2,298.8,324.7,298.8z"/>
			<path class="st2" d="M324.7,298.8c-1.5,0-2.7,1.2-2.7,2.7c0,1.5,1.2,2.7,2.7,2.7c1.5,0,2.7-1.2,2.7-2.7
				C327.4,300,326.2,298.8,324.7,298.8 M324.7,297.2c2.4,0,4.3,1.9,4.3,4.2c0,2.4-1.9,4.3-4.2,4.3c-2.4,0-4.3-1.9-4.3-4.2
				C320.4,299.1,322.3,297.2,324.7,297.2L324.7,297.2z"/>
		</g>
		<g>
			<path class="st1" d="M315.1,63c2.3,0,4.3,1.9,4.3,4.2c0,2.3-1.9,4.3-4.2,4.3c-2.3,0-4.3-1.9-4.3-4.2
				C310.8,64.9,312.7,63,315.1,63z"/>
			<path class="st2" d="M315.1,63c-2.3,0-4.2,1.9-4.2,4.3c0,2.3,1.9,4.2,4.3,4.2c2.3,0,4.2-1.9,4.2-4.3
				C319.3,64.8,317.4,62.9,315.1,63 M315.1,61.4c3.2,0,5.9,2.6,5.9,5.8c0,3.2-2.6,5.9-5.8,5.9c-3.2,0-5.9-2.6-5.9-5.8
				C309.2,64,311.9,61.4,315.1,61.4L315.1,61.4z"/>
		</g>
		<g>
			<path class="st1" d="M324.8,217.9c-3.2,0-5.8-2.5-5.8-5.7c0-3.2,2.5-5.8,5.7-5.8c3.2,0,5.8,2.5,5.8,5.7
				C330.5,215.3,328,217.9,324.8,217.9z"/>
			<path class="st2" d="M324.7,206.4c-3.2,0-5.7,2.6-5.7,5.8c0,3.2,2.6,5.7,5.8,5.7c3.2,0,5.7-2.6,5.7-5.8
				C330.5,209,327.9,206.4,324.7,206.4 M324.7,204.8c4.1,0,7.4,3.3,7.4,7.3c0,4.1-3.3,7.4-7.3,7.4c-4.1,0-7.4-3.3-7.4-7.3
				C317.4,208.2,320.7,204.8,324.7,204.8L324.7,204.8z"/>
		</g>
		<g>
			<path class="st1" d="M233.2,257.5c1.6,0,2.9,1.3,3,2.9c0,1.6-1.3,2.9-2.9,3c-1.6,0-2.9-1.3-3-2.9
				C230.3,258.8,231.6,257.5,233.2,257.5z"/>
			<path class="st2" d="M233.2,257.5c-1.6,0-2.9,1.3-2.9,3c0,1.6,1.3,2.9,3,2.9c1.6,0,2.9-1.3,2.9-3
				C236.2,258.8,234.9,257.5,233.2,257.5 M233.2,255.9c2.5,0,4.5,2,4.6,4.5c0,2.5-2,4.5-4.5,4.6c-2.5,0-4.5-2-4.6-4.5
				C228.7,258,230.7,255.9,233.2,255.9L233.2,255.9z"/>
		</g>
		<g>
			<path class="st1" d="M276.9,76c1.8,0,3.3,1.4,3.3,3.2c0,1.8-1.4,3.3-3.2,3.3c-1.8,0-3.3-1.4-3.3-3.2
				C273.6,77.5,275.1,76,276.9,76z"/>
			<path class="st2" d="M276.9,76c-1.8,0-3.3,1.5-3.2,3.3c0,1.8,1.5,3.3,3.3,3.2c1.8,0,3.3-1.5,3.2-3.3
				C280.2,77.4,278.7,76,276.9,76 M276.9,74.4c2.7,0,4.9,2.2,4.9,4.8c0,2.7-2.2,4.9-4.8,4.9c-2.7,0-4.9-2.2-4.9-4.8
				C272,76.6,274.2,74.4,276.9,74.4L276.9,74.4z"/>
		</g>
		<g>
			<path class="st1" d="M87.7,701.5c1.7,0,3.1,1.4,3.1,3c0,1.7-1.4,3.1-3,3.1c-1.7,0-3.1-1.4-3.1-3C84.6,702.9,86,701.5,87.7,701.5z
				"/>
			<path class="st2" d="M87.7,701.5c-1.7,0-3,1.4-3,3.1c0,1.7,1.4,3,3.1,3c1.7,0,3-1.4,3-3.1C90.7,702.8,89.4,701.5,87.7,701.5
				 M87.7,699.9c2.6,0,4.7,2.1,4.7,4.6c0,2.6-2.1,4.7-4.6,4.7c-2.6,0-4.7-2.1-4.7-4.6C83,702,85.1,699.9,87.7,699.9L87.7,699.9z"/>
		</g>
		<g>
			
				<ellipse transform="matrix(0.7146 -0.6996 0.6996 0.7146 -386.5368 195.7747)" class="st1" cx="46.6" cy="571.6" rx="3.8" ry="3.8"/>
			<path class="st2" d="M46.6,567.8c-2.1,0-3.8,1.7-3.8,3.8c0,2.1,1.7,3.8,3.8,3.8c2.1,0,3.8-1.7,3.8-3.8
				C50.4,569.5,48.7,567.8,46.6,567.8 M46.6,566.2c3,0,5.4,2.4,5.4,5.4c0,3-2.4,5.4-5.4,5.4c-3,0-5.4-2.4-5.4-5.4
				C41.2,568.6,43.6,566.2,46.6,566.2L46.6,566.2z"/>
		</g>
	</g>
</g>
</svg>
