<?xml version="1.0" encoding="utf-8"?>
<!-- Generator: Adobe Illustrator 24.3.0, SVG Export Plug-In . SVG Version: 6.00 Build 0)  -->
<svg version="1.1" id="Layer_1" xmlns="http://www.w3.org/2000/svg" xmlns:xlink="http://www.w3.org/1999/xlink" x="0px" y="0px"
	 viewBox="0 0 131 86" style="enable-background:new 0 0 131 86;" xml:space="preserve">
<style type="text/css">
	.st0{fill:#A5A5A7;}
	.st1{fill:#273777;}
	.st2{fill:#A9AAAC;}
	.st3{fill:#CCD533;}
	.st4{fill:#71B545;}
	.st5{fill:#24B3BA;}
	.st6{fill:#58B15A;}
	.st7{fill:#2684C6;}
	.st8{fill:#1E3A6D;}
	.st9{fill:#6F787F;}
</style>
<g>
	<g>
		<rect x="75.4" y="7" class="st0" width="1.3" height="1.3"/>
		<rect x="101.5" y="22.6" class="st0" width="1.3" height="1.3"/>
		<path class="st0" d="M116.8,21.3c0.3-0.1,0.6-0.4,0.7-0.6c0.2-0.3,0.3-0.6,0.4-1c0.1-0.4,0.1-0.8,0.1-1.3V9.6h-1.3v8.8
			c0,0.4,0,0.7-0.1,0.9c0,0.2-0.1,0.4-0.2,0.6c-0.1,0.2-0.2,0.3-0.4,0.3c-0.2,0.1-0.3,0.1-0.6,0.1c-0.1,0-0.2,0-0.3,0
			c-0.1,0-0.2,0-0.3-0.1l-0.3,1.2c0.3,0.1,0.7,0.1,1,0.1C116.1,21.5,116.5,21.4,116.8,21.3z"/>
		<path class="st0" d="M112.4,7.3h-1.7V7c0-0.2,0-0.3,0.1-0.4c0.1-0.1,0.2-0.1,0.4-0.1h0.9V5.7h-0.9c-0.5,0-0.9,0.1-1.1,0.4
			c-0.3,0.2-0.4,0.7-0.4,1.2v1h2.7V7.3z"/>
		<rect x="99" y="22.6" class="st0" width="1.3" height="1.3"/>
		<rect x="77.9" y="7" class="st0" width="1.3" height="1.3"/>
		<path class="st0" d="M106.8,17.1c0.5,0.3,1,0.6,1.7,0.8c0.6,0.2,1.3,0.2,2,0.2h0.3l0.4-0.9v1.2c0,0.7-0.2,1.1-0.6,1.4
			c-0.4,0.3-0.9,0.4-1.6,0.4c-0.4,0-0.7,0-1-0.1c-0.3-0.1-0.7-0.2-1.1-0.4l-0.4,1.2c0.5,0.2,0.9,0.3,1.3,0.4
			c0.4,0.1,0.7,0.1,1.1,0.1c1.2,0,2.1-0.3,2.7-0.9c0.6-0.6,0.8-1.4,0.8-2.3V9.6h-2c-0.8,0-1.5,0.1-2.1,0.3c-0.6,0.2-1.2,0.5-1.6,0.9
			c-0.5,0.4-0.8,0.8-1.1,1.4c-0.3,0.5-0.4,1.1-0.4,1.7c0,0.7,0.1,1.4,0.4,1.9C105.9,16.3,106.3,16.7,106.8,17.1z M106.8,12.6
			c0.2-0.4,0.4-0.7,0.8-1c0.3-0.3,0.7-0.5,1.1-0.6c0.4-0.1,0.8-0.2,1.2-0.2v0h2l-0.7,0.4v5.6h-1.3c-0.5,0-0.9-0.1-1.3-0.2
			c-0.4-0.1-0.8-0.3-1.1-0.6c-0.3-0.3-0.6-0.6-0.7-0.9c-0.2-0.4-0.3-0.8-0.3-1.3C106.5,13.4,106.6,13,106.8,12.6z"/>
		<path class="st0" d="M75.8,21.3h2.6v-0.9c0,0,0.1,0.1,0.1,0.1c0.2,0.3,0.4,0.5,0.7,0.6c0.3,0.1,0.7,0.2,1.1,0.2h22.9V9.6H102v10.6
			h-1.3H80.4c-0.2,0-0.4,0-0.6-0.1c-0.2-0.1-0.3-0.2-0.4-0.3c-0.1-0.2-0.2-0.4-0.2-0.6c0-0.2-0.1-0.5-0.1-0.9V9.6h-3.4
			c-3.5,0-5.8,2.7-5.8,5.9v0C70,18.6,72.3,21.3,75.8,21.3z M71.3,15.4c0-2.6,1.9-4.7,4.5-4.7h2.9l-0.8,0.4v7.1c0,0.5,0,0.9,0.1,1.3
			c0,0.2,0.1,0.4,0.2,0.6l-2.4,0C73.2,20.1,71.3,18,71.3,15.4L71.3,15.4z"/>
		<polygon class="st0" points="63.7,18.2 64.3,19.6 56.3,9.5 55,9.5 55,21.3 56.3,21.3 56.3,12.4 55.6,10.7 63.9,21.3 65,21.3 
			65,9.5 63.7,9.5 		"/>
		<path class="st0" d="M81.6,40.1l7.2-6.9v-4.7H69.5v5.4h9.9l3.7-2.4l-9.2,9.2l1,4h2.6c3.5,0,5.6,1.3,5.6,3.6v0.1
			c0,2.1-1.7,3.5-4,3.5c-2.9,0-4.9-1.2-6.9-3.4l-4.3,4.1c2.5,2.9,6,4.9,11.2,4.9c6.4,0,10.3-4,10.3-9.3v-0.1
			C89.2,42.8,85.5,40.7,81.6,40.1z"/>
		<path class="st0" d="M46.9,9.3c-3.6,0-6,2.8-6,6.1v0c0,3.2,2.4,6,6,6s6-2.8,6-6.1v0C52.9,12.1,50.5,9.3,46.9,9.3z M51.5,15.4
			c0,2.7-1.9,4.8-4.6,4.8s-4.6-2.2-4.6-4.9v0c0-2.7,1.9-4.8,4.6-4.8C49.5,10.6,51.5,12.7,51.5,15.4L51.5,15.4z"/>
		<path class="st0" d="M106.1,28c-8.8,0-15.2,6.6-15.2,14.8v0.1c0,8.1,6.3,14.7,15.2,14.7c8.8,0,15.2-6.6,15.2-14.8v-0.1
			C121.3,34.5,114.9,28,106.1,28z M114.7,42.8c0,4.9-3.5,8.9-8.6,8.9c-5.1,0-8.7-4.1-8.7-9v-0.1c0-4.9,3.5-8.9,8.6-8.9
			C111.1,33.7,114.7,37.8,114.7,42.8L114.7,42.8z"/>
		<rect x="37.2" y="9.5" class="st0" width="1.3" height="11.8"/>
		<path class="st0" d="M15.9,53.7l1.2-0.9l6.2-4.8c5.1-3.9,7.5-6.3,7.5-11v-0.1c0-5.3-3.9-8.8-9.8-8.8c-5.1,0-7.8,2.1-10.7,5.9
			l4.4,3.5c2.1-2.6,3.6-3.8,5.8-3.8c2.2,0,3.8,1.3,3.8,3.7c0,2.4-1.4,3.9-4.9,6.8L10,52v5h21.2v-5.4H20.3L15.9,53.7z"/>
		<polygon class="st0" points="16,21.4 21,9.5 19.6,9.5 15.6,19.2 15.7,20.5 15.4,19.7 11.9,11.3 11.2,9.5 9.7,9.5 14.8,21.4 		"/>
		<rect x="22.8" y="9.5" class="st0" width="1.3" height="11.8"/>
		<path class="st0" d="M31.2,14.8c-2.6-0.6-3.2-1.2-3.2-2.3v0c0-1.1,1-1.9,2.5-1.9c1.2,0,2.3,0.4,3.4,1.3l0.8-1
			c-1.2-1-2.4-1.4-4.1-1.4c-2.2,0-3.9,1.4-3.9,3.2v0c0,1.9,1.2,2.8,4,3.4c2.5,0.5,3.1,1.1,3.1,2.2v0c0,1.2-1,2-2.6,2
			c-1.6,0-2.8-0.6-4-1.7l-0.8,1c1.4,1.3,2.9,1.9,4.8,1.9c2.3,0,4-1.3,4-3.3v0C35,16.3,33.8,15.3,31.2,14.8z"/>
	</g>
	<polygon class="st1" points="48.2,26.1 49.7,27.5 48.3,28.9 46.9,27.5 	"/>
	<polygon class="st2" points="51.6,27.5 53,28.9 54.4,27.5 53,26.1 	"/>
	<polygon class="st3" points="49.5,29.3 50.7,30.4 51.7,29.3 50.6,28.2 	"/>
	<polygon class="st4" points="53.7,30 54.8,31 55.9,29.9 54.7,28.8 	"/>
	<polygon class="st3" points="47.7,31.1 48.8,32.1 49.9,31 48.8,29.9 	"/>
	<polygon class="st5" points="51.5,31.2 52.6,32.3 53.7,31.2 52.5,30.1 	"/>
	<polygon class="st4" points="50,32.5 50.8,33.3 51.5,32.5 50.7,31.7 	"/>
	<polygon class="st6" points="53,33.1 53.8,33.9 54.5,33.1 53.7,32.3 	"/>
	<rect x="59.7" y="26.8" transform="matrix(0.9836 -0.1803 0.1803 0.9836 -4.0624 11.4513)" class="st7" width="2.5" height="2.5"/>
	<rect x="56.5" y="27.9" transform="matrix(0.9836 -0.1801 0.1801 0.9836 -4.2661 10.8234)" class="st8" width="2" height="2"/>
	<rect x="60.3" y="30.6" transform="matrix(0.9836 -0.1804 0.1804 0.9836 -4.7039 11.5733)" class="st5" width="2" height="2"/>
	<rect x="57.5" y="31" transform="matrix(0.9836 -0.1802 0.1802 0.9836 -4.7688 11.0268)" class="st3" width="1.6" height="1.6"/>
	<rect x="60.5" y="33.9" transform="matrix(0.9836 -0.1802 0.1802 0.9836 -5.2452 11.6134)" class="st2" width="1.6" height="1.6"/>
	<rect x="55.2" y="31.6" transform="matrix(0.9836 -0.1802 0.1802 0.9836 -4.9191 10.622)" class="st5" width="1.6" height="1.6"/>
	<rect x="58" y="33.6" transform="matrix(0.9836 -0.1802 0.1802 0.9836 -5.2355 11.1578)" class="st4" width="1.6" height="1.6"/>
	<rect x="56" y="33.8" transform="matrix(0.9836 -0.1803 0.1803 0.9836 -5.2744 10.7628)" class="st2" width="1.1" height="1.1"/>
	<rect x="58.1" y="36.1" transform="matrix(0.9837 -0.1798 0.1798 0.9837 -5.6298 11.1412)" class="st6" width="1.1" height="1.1"/>
	<polygon class="st1" points="66.8,35.1 65.8,37.4 68,38.4 69.1,36.2 	"/>
	<polygon class="st5" points="63.6,34.1 62.8,35.9 64.6,36.7 65.4,34.9 	"/>
	<polygon class="st4" points="65.1,38.5 64.2,40.3 66.1,41.2 66.9,39.4 	"/>
	<polygon class="st3" points="62.7,37.2 62.1,38.6 63.5,39.3 64.1,37.8 	"/>
	<polygon class="st3" points="63.4,41.3 62.8,42.7 64.2,43.4 64.9,42 	"/>
	<polygon class="st7" points="60.5,36.3 59.8,37.7 61.2,38.4 61.9,37 	"/>
	<polygon class="st2" points="61.6,39.6 60.9,41 62.3,41.7 63,40.3 	"/>
	<polygon class="st4" points="59.9,38.6 59.4,39.6 60.4,40.1 60.9,39.1 	"/>
	<rect x="60" y="41.8" transform="matrix(0.4297 -0.903 0.903 0.4297 -3.7299 78.7977)" class="st5" width="1.1" height="1.1"/>
	<polygon class="st7" points="68,45.9 65.8,47.1 67.1,49.3 69.2,48.1 	"/>
	<polygon class="st5" points="66.1,43.2 64.3,44.2 65.3,45.9 67,44.9 	"/>
	<polygon class="st5" points="64.6,47.7 62.9,48.6 63.9,50.4 65.6,49.4 	"/>
	<polygon class="st1" points="63.5,45.2 62.1,45.9 62.9,47.3 64.3,46.6 	"/>
	<polygon class="st6" points="61.7,48.9 60.3,49.7 61.1,51.1 62.4,50.3 	"/>
	<polygon class="st8" points="62.2,43.2 60.8,44 61.6,45.3 62.9,44.6 	"/>
	<polygon class="st3" points="61.2,46.5 59.8,47.2 60.5,48.6 61.9,47.8 	"/>
	<polygon class="st2" points="60.4,44.7 59.4,45.2 59.9,46.2 60.9,45.6 	"/>
	<polygon class="st5" points="58.9,47.4 57.9,47.9 58.5,48.8 59.4,48.3 	"/>
	
		<rect x="60.1" y="55.2" transform="matrix(0.1226 -0.9925 0.9925 0.1226 -2.2491 110.3806)" class="st4" width="2.5" height="2.5"/>
	<rect x="60.6" y="51.9" transform="matrix(0.123 -0.9924 0.9924 0.123 1.5112 107.474)" class="st8" width="2" height="2"/>
	<rect x="56.8" y="54.7" transform="matrix(0.123 -0.9924 0.9924 0.123 -4.5824 106.1983)" class="st5" width="2" height="2"/>
	<rect x="57.8" y="52" transform="matrix(0.1227 -0.9924 0.9924 0.1227 -1.0267 104.483)" class="st4" width="1.6" height="1.6"/>
	<rect x="54.1" y="54" transform="matrix(0.1227 -0.9924 0.9924 0.1227 -6.2161 102.5611)" class="st2" width="1.6" height="1.6"/>
	<rect x="57.9" y="49.7" transform="matrix(0.123 -0.9924 0.9924 0.123 1.4003 102.4691)" class="st2" width="1.6" height="1.6"/>
	<rect x="55.1" y="51.7" transform="matrix(0.123 -0.9924 0.9924 0.123 -3.056 101.5359)" class="st4" width="1.6" height="1.6"/>
	<rect x="56" y="49.8" transform="matrix(0.1228 -0.9924 0.9924 0.1228 -0.3555 100.3489)" class="st2" width="1.1" height="1.1"/>
	<rect x="53.3" y="51.1" transform="matrix(0.1227 -0.9924 0.9924 0.1227 -4.0678 98.7671)" class="st2" width="1.1" height="1.1"/>
	<polygon class="st3" points="52.8,59.9 51,58.2 49.3,60.1 51.1,61.8 	"/>
	<polygon class="st4" points="52.5,25 50.6,23.3 48.9,25.1 50.8,26.8 	"/>
	<polygon class="st5" points="54.8,57.2 53.3,55.8 51.9,57.3 53.4,58.7 	"/>
	<polygon class="st4" points="50.1,57.3 48.6,55.9 47.2,57.4 48.7,58.7 	"/>
	<polygon class="st7" points="52.1,55.4 50.9,54.4 49.9,55.5 51,56.6 	"/>
	<polygon class="st3" points="47.9,54.9 46.8,53.8 45.7,54.9 46.9,56 	"/>
	<polygon class="st3" points="53.6,53.5 52.4,52.5 51.3,53.6 52.5,54.7 	"/>
	<polygon class="st2" points="50.1,53.6 49,52.5 47.9,53.7 49,54.7 	"/>
	<polygon class="st8" points="51.6,52.3 50.8,51.5 50,52.3 50.8,53.1 	"/>
	<polygon class="st2" points="48.6,51.7 47.8,51 47,51.8 47.8,52.5 	"/>
	<rect x="39.4" y="55.6" transform="matrix(0.9805 -0.1965 0.1965 0.9805 -10.3845 9.0996)" class="st7" width="2.5" height="2.5"/>
	<rect x="43.1" y="55" transform="matrix(0.9805 -0.1964 0.1964 0.9805 -10.1368 9.7606)" class="st5" width="2" height="2"/>
	<rect x="39.3" y="52.3" transform="matrix(0.9805 -0.1967 0.1967 0.9805 -9.697 8.9639)" class="st4" width="2" height="2"/>
	<rect x="42.5" y="52.4" transform="matrix(0.9805 -0.1964 0.1964 0.9805 -9.5964 9.5325)" class="st3" width="1.6" height="1.6"/>
	<rect x="44.8" y="51.7" transform="matrix(0.9805 -0.1964 0.1964 0.9805 -9.4217 9.9698)" class="st1" width="1.6" height="1.6"/>
	<rect x="42" y="49.7" transform="matrix(0.9805 -0.1964 0.1964 0.9805 -9.0912 9.3771)" class="st7" width="1.6" height="1.6"/>
	<rect x="44.4" y="49.9" transform="matrix(0.9806 -0.1962 0.1962 0.9806 -9.0336 9.8046)" class="st4" width="1.1" height="1.1"/>
	<rect x="42.3" y="47.7" transform="matrix(0.9805 -0.1967 0.1967 0.9805 -8.6628 9.3725)" class="st2" width="1.1" height="1.1"/>
	<polygon class="st5" points="34.7,49.9 35.7,47.7 33.4,46.6 32.4,48.9 	"/>
	<polygon class="st3" points="37.9,50.9 38.7,49.1 36.9,48.3 36.1,50.1 	"/>
	<polygon class="st7" points="36.4,46.5 37.2,44.7 35.4,43.8 34.5,45.7 	"/>
	<rect x="37.6" y="46" transform="matrix(0.4149 -0.9098 0.9098 0.4149 -20.1182 62.2728)" class="st5" width="1.6" height="1.6"/>
	<polygon class="st2" points="40.7,51.4 41.3,49.9 39.9,49.3 39.2,50.7 	"/>
	
		<rect x="36.8" y="41.9" transform="matrix(0.4151 -0.9098 0.9098 0.4151 -16.8515 59.1542)" class="st1" width="1.6" height="1.6"/>
	
		<rect x="39.8" y="46.8" transform="matrix(0.4151 -0.9098 0.9098 0.4151 -19.5354 64.7776)" class="st6" width="1.6" height="1.6"/>
	
		<rect x="38.7" y="43.6" transform="matrix(0.4154 -0.9096 0.9096 0.4154 -17.2592 61.8273)" class="st3" width="1.6" height="1.6"/>
	<polygon class="st8" points="41.6,46.3 42,45.3 41,44.9 40.6,45.9 	"/>
	<polygon class="st4" points="41.1,43.3 41.6,42.3 40.6,41.9 40.1,42.9 	"/>
	<polygon class="st5" points="33.3,39.2 35.5,37.9 34.2,35.8 32.1,37 	"/>
	<polygon class="st4" points="35.3,41.8 37.1,40.9 36.1,39.1 34.3,40.1 	"/>
	<polygon class="st8" points="36.7,37.3 38.4,36.4 37.4,34.6 35.7,35.6 	"/>
	<polygon class="st7" points="37.8,39.8 39.2,39 38.4,37.7 37.1,38.5 	"/>
	<polygon class="st4" points="39.6,36 41,35.3 40.2,33.9 38.8,34.7 	"/>
	<polygon class="st5" points="39.2,41.8 40.5,41 39.8,39.6 38.4,40.4 	"/>
	<polygon class="st3" points="40.2,38.5 41.5,37.7 40.7,36.4 39.4,37.1 	"/>
	<polygon class="st2" points="41,40.3 41.9,39.7 41.4,38.8 40.4,39.3 	"/>
	<polygon class="st4" points="42.4,37.6 43.4,37 42.8,36.1 41.9,36.6 	"/>
	<rect x="38.6" y="27.3" transform="matrix(0.1063 -0.9943 0.9943 0.1063 7.2748 65.0968)" class="st4" width="2.5" height="2.5"/>
	<rect x="38.7" y="31.1" transform="matrix(0.1064 -0.9943 0.9943 0.1064 3.532 68.1003)" class="st2" width="2" height="2"/>
	<rect x="42.4" y="28.2" transform="matrix(0.1064 -0.9943 0.9943 0.1064 9.7128 69.2348)" class="st5" width="2" height="2"/>
	<rect x="41.9" y="31.3" transform="matrix(0.1065 -0.9943 0.9943 0.1065 6.1829 71.0722)" class="st3" width="1.6" height="1.6"/>
	<rect x="45.5" y="29.3" transform="matrix(0.1061 -0.9944 0.9944 0.1061 11.4799 72.8929)" class="st7" width="1.6" height="1.6"/>
	<rect x="41.8" y="33.7" transform="matrix(0.1065 -0.9943 0.9943 0.1065 3.7656 73.1448)" class="st5" width="1.6" height="1.6"/>
	<rect x="44.5" y="31.6" transform="matrix(0.1065 -0.9943 0.9943 0.1065 8.2861 73.9745)" class="st4" width="1.6" height="1.6"/>
	<rect x="44.1" y="34" transform="matrix(0.1064 -0.9943 0.9943 0.1064 5.605 75.2551)" class="st8" width="1.1" height="1.1"/>
	<rect x="46.9" y="32.6" transform="matrix(0.1058 -0.9944 0.9944 0.1058 9.4207 76.7857)" class="st2" width="1.1" height="1.1"/>
	<path class="st9" d="M58.6,44c-0.2-0.1-0.5-0.3-1-0.4c-0.7-0.2-1.6-0.4-2.7-0.2c-0.4,0.1-0.8,0.2-1.2,0.3c0,0-0.1,0-0.1,0
		c-0.2,0.1-0.4,0.2-0.6,0.3c-0.2,0.1-0.4,0.2-0.5,0.3c-0.4,0.2-0.8,0.5-1.2,0.8c-0.4-2.7-0.2-5.1-0.1-6.3c0,0,0,0,0,0
		c0.9,0.6,0.7,2.2,0.5,2.7c0,0,0,0,0,0c1.2-1.4,0.6-2.9,0.4-3.3c0,0,0,0,0,0c0.2,0.1,0.3,0.3,0.4,0.4c0.4,0.5,0.5,1,0.5,1.4
		c0,0.2,0,0.5,0,0.6c0,0,0,0.1,0,0.1c0,0,0,0,0,0c0,0,0,0,0,0c0.3-0.6,0.5-1.6,0-2.5c-0.1-0.2-0.3-0.5-0.5-0.7
		c-0.1-0.1-0.1-0.1-0.2-0.2c0,0,0,0,0,0c0.1,0,0.1,0,0.2,0.1c0.2,0.1,0.4,0.2,0.5,0.3c0.4,0.3,0.6,0.6,0.7,1
		c0.1,0.3,0.2,0.6,0.2,0.9c0,0,0,0,0,0c0.2-0.8,0.1-1.4-0.2-1.9c-0.2-0.3-0.5-0.6-0.7-0.7c-0.2-0.1-0.4-0.2-0.5-0.2
		c-0.1,0-0.2,0-0.3-0.1c0,0,0,0,0,0c0.1,0,0.2,0,0.3,0c0.2,0,0.4,0,0.5,0c0.3,0.1,0.6,0.2,0.7,0.3c0.3,0.2,0.4,0.4,0.5,0.5
		c0,0,0,0,0,0c0-0.4-0.2-0.8-0.5-1c-0.2-0.2-0.5-0.3-0.7-0.4c-0.2,0-0.4-0.1-0.5-0.1c-0.2,0-0.5,0-0.7,0.1c0,0,0,0,0,0
		c0.2-0.2,0.4-0.4,0.7-0.5c0.2-0.1,0.4-0.1,0.5-0.1c0.2,0,0.3,0,0.4,0.1c0,0,0,0,0,0c-0.1-0.2-0.3-0.3-0.4-0.4
		c-0.2-0.1-0.4-0.2-0.5-0.2c-0.5-0.1-1,0.1-1.3,0.6c0,0,0,0,0,0c-0.1-0.1-0.1-0.2-0.2-0.4c-0.1-0.3-0.2-0.6-0.3-1c0,0,0,0,0,0
		c-0.1,0.3-0.2,0.7-0.3,1c-0.1,0.1-0.1,0.2-0.2,0.4c0,0,0,0,0,0c-0.6-0.9-1.6-0.8-2.3-0.1c0,0,0,0,0,0c0.4-0.2,1.2-0.1,1.6,0.4
		c0,0,0,0,0,0c-0.6-0.3-1.6-0.1-2.1,0.5c-0.2,0.2-0.3,0.5-0.3,0.8c0,0,0,0,0,0c0-0.1,0.1-0.2,0.3-0.4c0.3-0.3,0.8-0.5,1.7-0.5
		c0,0,0,0,0,0c-0.4,0.1-1.4,0.5-1.7,1.4c-0.2,0.4-0.2,0.9,0,1.5c0,0,0,0,0,0c0,0,0,0,0,0c0-0.8,0.5-1.9,1.7-2.2c0,0,0,0,0,0
		c-1.3,1.2-1.2,2.6-0.8,3.4c0,0,0,0,0,0c-0.1-0.6-0.1-1.8,0.9-2.6c0,0,0,0,0,0c-0.2,0.4-0.8,1.9,0.4,3.3c0,0,0,0,0,0
		c-0.2-0.5-0.5-2.1,0.5-2.7c0,0,0,0,0,0c0.1,1.2,0.3,3.7-0.1,6.3c-0.8-0.6-1.6-1.1-2.3-1.4c-0.1,0-0.2-0.1-0.3-0.1
		c-0.8-0.3-1.6-0.3-2.2-0.3c-1,0-1.8,0.4-2.3,0.6c-0.1,0-0.2,0.1-0.2,0.1c0,0,0,0,0,0c0.1,0,0.1,0,0.2-0.1c0.8-0.2,1.6-0.3,2.3-0.2
		c0.8,0.1,1.5,0.3,2.2,0.6c1,0.4,1.8,1.1,2.6,1.7c-1.1,1-2.1,1.9-2.6,2.3c0,0-0.1,0-0.1,0c-0.1-0.2-0.4-0.3-0.6-0.2
		c-0.2,0.1-0.4,0.2-0.5,0.5c0,0.2,0,0.4,0.1,0.5c0.3,0.3,0.7,0.3,1.1,0.2c0.8-0.3,1.7-1.4,2.9-2.4c0.1-0.1,0.2-0.2,0.3-0.3
		c0.1,0.1,0.2,0.2,0.3,0.3c0.5,0.5,1,1,1.5,1.4c0.2,0.2,0.4,0.3,0.5,0.5c0.3,0.2,0.5,0.4,0.7,0.5c0.5,0.2,0.8,0.3,1.2,0
		c0,0,0,0,0.1,0c0.1-0.1,0.2-0.3,0.1-0.5c0-0.1-0.1-0.2-0.2-0.3c-0.1-0.1-0.2-0.1-0.3-0.2c-0.3-0.1-0.5,0.1-0.6,0.2
		c-0.1,0-0.2-0.1-0.3-0.2c-0.2-0.1-0.5-0.4-0.7-0.6c-0.2-0.1-0.3-0.3-0.5-0.5c-0.4-0.3-0.8-0.7-1.2-1.1c0.4-0.3,0.8-0.6,1.2-0.9
		c0.2-0.1,0.4-0.2,0.5-0.3c0.2-0.1,0.5-0.3,0.7-0.4c0.4-0.2,0.8-0.3,1.2-0.5c0.8-0.2,1.8-0.3,2.7-0.2C57.9,43.9,58.3,44,58.6,44
		C58.6,44.1,58.6,44.1,58.6,44"/>
	<g>
		<rect x="15.5" y="71.2" class="st0" width="0.7" height="0.7"/>
		<path class="st0" d="M65.1,70.4v-4.9h-0.7v4.1h-2.7v-4.1H61v4.1h-2.9v-4.1H57c-0.4,0-0.9,0.1-1.2,0.2c-0.4,0.1-0.7,0.3-0.9,0.5
			c-0.3,0.2-0.5,0.5-0.6,0.8c-0.1,0.3-0.2,0.6-0.2,1c0,0.4,0.1,0.8,0.2,1.1c0.2,0.3,0.4,0.6,0.6,0.8c0.3,0.2,0.6,0.3,0.9,0.4
			c0.4,0.1,0.7,0.1,1.1,0.1H65.1z M56,69.6c-0.2-0.1-0.4-0.2-0.6-0.3c-0.2-0.1-0.3-0.3-0.4-0.5c-0.1-0.2-0.2-0.5-0.2-0.7
			c0-0.3,0.1-0.5,0.2-0.7c0.1-0.2,0.3-0.4,0.4-0.5c0.2-0.2,0.4-0.3,0.6-0.3c0.2-0.1,0.5-0.1,0.7-0.1h0.7v3.4h-0.7
			C56.5,69.7,56.2,69.6,56,69.6z"/>
		<rect x="49.8" y="64" class="st0" width="0.7" height="6.4"/>
		<rect x="57.4" y="64" class="st0" width="0.7" height="0.7"/>
		<rect x="64.4" y="71.2" class="st0" width="0.7" height="0.7"/>
		<rect x="16.8" y="71.2" class="st0" width="0.7" height="0.7"/>
		<path class="st0" d="M47,69.7h-1.2c-0.4,0-0.7-0.1-1-0.2c-0.2-0.1-0.4-0.3-0.6-0.5c0-0.2,0.1-0.4,0.1-0.7V66h-0.7v2.4
			c0,0.4-0.1,0.7-0.3,1c-0.2,0.2-0.6,0.4-1,0.4c-0.2,0-0.4,0-0.6-0.1c-0.2-0.1-0.3-0.2-0.4-0.3c-0.1-0.1-0.2-0.2-0.3-0.4
			c-0.1-0.2-0.1-0.3-0.1-0.5V66h-0.7v2.5c0,0.2,0,0.4-0.1,0.6c-0.1,0.2-0.2,0.3-0.3,0.4c-0.1,0.1-0.2,0.2-0.4,0.2
			c-0.1,0-0.3,0.1-0.5,0.1h-1.4V66h-0.7v3.7H33l1.3-3c-0.2-0.2-0.4-0.3-0.6-0.5c-0.2-0.1-0.4-0.3-0.7-0.4c-0.2-0.1-0.5-0.2-0.7-0.3
			c-0.2-0.1-0.5-0.1-0.7-0.1c-0.2,0-0.5,0-0.7,0.1c-0.2,0.1-0.5,0.1-0.7,0.3c-0.2,0.1-0.5,0.2-0.7,0.4c-0.2,0.1-0.4,0.3-0.6,0.5
			l1.3,3h-2.5v-4.1h-1.1c-0.4,0-0.8,0.1-1.2,0.2c-0.4,0.1-0.7,0.3-0.9,0.5c-0.3,0.2-0.5,0.5-0.6,0.8c-0.1,0.3-0.2,0.6-0.2,1
			c0,0.4,0.1,0.8,0.2,1.1c0.2,0.3,0.4,0.5,0.6,0.7c0.3,0.2,0.6,0.3,0.9,0.4c0.4,0.1,0.7,0.1,1.1,0.1H27v0.2c0,0.4-0.1,0.6-0.3,0.8
			c-0.2,0.2-0.5,0.2-0.9,0.2c-0.2,0-0.4,0-0.6-0.1c-0.2,0-0.4-0.1-0.6-0.2l-0.2,0.7c0.3,0.1,0.5,0.2,0.7,0.2
			c0.2,0.1,0.4,0.1,0.6,0.1c0.7,0,1.2-0.2,1.5-0.5c0.3-0.3,0.5-0.8,0.5-1.3v-0.1h11.2c0.3,0,0.7-0.1,0.9-0.2
			c0.3-0.1,0.5-0.3,0.7-0.6c0.2,0.3,0.4,0.5,0.7,0.7c0.3,0.2,0.7,0.2,1.1,0.2c0.4,0,0.8-0.1,1.1-0.2c0.3-0.1,0.5-0.4,0.7-0.7
			c0.1,0.1,0.1,0.2,0.2,0.3c0.1,0.1,0.2,0.2,0.3,0.3c0.1,0.1,0.3,0.1,0.5,0.2c0.1,0,0.3,0.1,0.5,0.1v0h2.1V64H47V69.7z M27,69.7
			h-0.7c-0.3,0-0.5,0-0.8-0.1c-0.2-0.1-0.4-0.2-0.6-0.3c-0.2-0.1-0.3-0.3-0.4-0.5c-0.1-0.2-0.2-0.4-0.2-0.7c0-0.3,0.1-0.5,0.2-0.7
			c0.1-0.2,0.3-0.4,0.4-0.6c0.2-0.2,0.4-0.3,0.6-0.4c0.2-0.1,0.5-0.1,0.7-0.1H27V69.7z M31,69.7l-1.1-2.7c0.3-0.2,0.6-0.4,0.8-0.5
			c0.3-0.1,0.6-0.2,0.9-0.2c0.3,0,0.6,0.1,1,0.2c0.3,0.1,0.6,0.3,0.8,0.5l-1.1,2.7H31z"/>
		<rect x="13.1" y="64" class="st0" width="0.7" height="0.7"/>
		<rect x="85.7" y="64" class="st0" width="0.7" height="0.7"/>
		<rect x="79.3" y="64" class="st0" width="0.7" height="6.4"/>
		<rect x="56.1" y="64" class="st0" width="0.7" height="0.7"/>
		<path class="st0" d="M22.5,67.6c0-0.3,0-0.5-0.1-0.8c-0.1-0.2-0.2-0.5-0.3-0.6c-0.2-0.2-0.4-0.4-0.6-0.5c-0.2-0.1-0.5-0.2-0.9-0.2
			H20v0.7h0.6c0.2,0,0.3,0,0.5,0.1c0.2,0.1,0.3,0.2,0.4,0.3c0.1,0.1,0.2,0.3,0.2,0.4c0,0.1,0.1,0.3,0.1,0.5v2.1h-3.4v0.7h4.1V67.6z"
			/>
		<rect x="117.3" y="64" class="st0" width="0.7" height="6.4"/>
		<rect x="86.9" y="64" class="st0" width="0.7" height="0.7"/>
		<path class="st0" d="M115.2,64h-0.7v5.7H112c0.1-0.3,0.2-0.7,0.2-1.1c0-0.4-0.1-0.7-0.2-1c-0.1-0.3-0.3-0.6-0.6-0.8
			c-0.2-0.2-0.5-0.4-0.8-0.6c-0.3-0.1-0.7-0.2-1-0.2c-0.4,0-0.7,0.1-1,0.2c-0.3,0.1-0.6,0.3-0.8,0.6c-0.2,0.2-0.4,0.5-0.5,0.8
			c-0.1,0.3-0.2,0.7-0.2,1c0,0.2,0,0.4,0.1,0.6c0,0.2,0.1,0.3,0.2,0.5h-2.2c0.1-0.3,0.2-0.7,0.2-1.1c0-0.4-0.1-0.7-0.2-1
			c-0.1-0.3-0.3-0.6-0.6-0.8c-0.2-0.2-0.5-0.4-0.8-0.6c-0.3-0.1-0.7-0.2-1-0.2c-0.4,0-0.7,0.1-1,0.2c-0.3,0.1-0.6,0.3-0.8,0.6
			c-0.2,0.2-0.4,0.5-0.5,0.8c-0.1,0.3-0.2,0.7-0.2,1c0,0.2,0,0.4,0.1,0.6c0,0.2,0.1,0.3,0.2,0.5H98V64h-0.7v5.7H95v-1.1
			c0-0.3,0-0.5-0.1-0.8c-0.1-0.2-0.2-0.5-0.3-0.6c-0.2-0.2-0.4-0.4-0.6-0.5c-0.2-0.1-0.5-0.2-0.9-0.2h-3.2l1.4-2.6h-0.8l-1.4,2.6
			c0,0.2,0.1,0.3,0.1,0.4s0.1,0.2,0.2,0.3h3.7c0.2,0,0.4,0,0.6,0.1c0.2,0.1,0.3,0.2,0.4,0.3c0.1,0.1,0.2,0.3,0.2,0.4
			c0,0.2,0.1,0.3,0.1,0.5v1.1h-6.6v-4.1h-1.1c-0.4,0-0.9,0.1-1.2,0.2c-0.4,0.1-0.7,0.3-0.9,0.5c-0.3,0.2-0.5,0.5-0.6,0.8
			c-0.1,0.3-0.2,0.6-0.2,1c0,0.4,0.1,0.8,0.2,1.1c0.2,0.3,0.4,0.6,0.6,0.8c0.3,0.2,0.6,0.3,0.9,0.4c0.4,0.1,0.7,0.1,1.1,0.1h14.2
			c0.2,0.3,0.5,0.4,0.8,0.6c0.3,0.1,0.7,0.2,1,0.2c0.4,0,0.7-0.1,1.1-0.2c0.3-0.1,0.6-0.3,0.9-0.6h3.2c0.2,0.3,0.5,0.4,0.8,0.6
			c0.3,0.1,0.7,0.2,1,0.2c0.4,0,0.7-0.1,1.1-0.2c0.3-0.1,0.6-0.3,0.9-0.6h3.7V64z M87,69.7h-0.7c-0.3,0-0.5,0-0.8-0.1
			c-0.2-0.1-0.4-0.2-0.6-0.3c-0.2-0.1-0.3-0.3-0.4-0.5c-0.1-0.2-0.2-0.5-0.2-0.7c0-0.3,0.1-0.5,0.2-0.7c0.1-0.2,0.3-0.4,0.4-0.5
			c0.2-0.2,0.4-0.3,0.6-0.3c0.2-0.1,0.5-0.1,0.7-0.1H87V69.7z M104.4,69.4c-0.1,0.2-0.2,0.4-0.4,0.6c-0.2,0.2-0.4,0.3-0.6,0.4
			c-0.2,0.1-0.5,0.1-0.7,0.1c-0.3,0-0.5,0-0.7-0.1c-0.2-0.1-0.4-0.2-0.6-0.4c-0.2-0.2-0.3-0.4-0.4-0.6c-0.1-0.2-0.1-0.5-0.1-0.7
			c0-0.3,0-0.5,0.1-0.7c0.1-0.2,0.2-0.4,0.4-0.6c0.2-0.2,0.4-0.3,0.6-0.4c0.2-0.1,0.5-0.2,0.7-0.2c0.3,0,0.5,0,0.8,0.1
			c0.2,0.1,0.4,0.2,0.6,0.4c0.2,0.2,0.3,0.4,0.4,0.6c0.1,0.2,0.1,0.5,0.1,0.8C104.6,68.9,104.5,69.1,104.4,69.4z M111.4,69.4
			c-0.1,0.2-0.2,0.4-0.4,0.6c-0.2,0.2-0.4,0.3-0.6,0.4c-0.2,0.1-0.5,0.1-0.7,0.1c-0.3,0-0.5,0-0.7-0.1c-0.2-0.1-0.4-0.2-0.6-0.4
			c-0.2-0.2-0.3-0.4-0.4-0.6c-0.1-0.2-0.1-0.5-0.1-0.7c0-0.3,0-0.5,0.1-0.7c0.1-0.2,0.2-0.4,0.4-0.6c0.2-0.2,0.4-0.3,0.6-0.4
			c0.2-0.1,0.5-0.2,0.7-0.2c0.3,0,0.5,0,0.8,0.1c0.2,0.1,0.4,0.2,0.6,0.4c0.2,0.2,0.3,0.4,0.4,0.6c0.1,0.2,0.1,0.5,0.1,0.8
			C111.5,68.9,111.5,69.1,111.4,69.4z"/>
		<path class="st0" d="M11.6,70.2c0.4,0.1,0.7,0.1,1.1,0.1h4.7v-4.9h-0.7v4.1h-2.9v-4.1h-1.1c-0.4,0-0.9,0.1-1.2,0.2
			c-0.4,0.1-0.7,0.3-0.9,0.5c-0.3,0.2-0.5,0.5-0.6,0.8c-0.1,0.3-0.2,0.6-0.2,1c0,0.4,0.1,0.8,0.2,1.1c0.2,0.3,0.4,0.6,0.6,0.8
			C10.9,70,11.2,70.2,11.6,70.2z M10.5,68c0-0.3,0.1-0.5,0.2-0.7c0.1-0.2,0.3-0.4,0.4-0.5c0.2-0.2,0.4-0.3,0.6-0.3
			c0.2-0.1,0.5-0.1,0.7-0.1h0.7v3.4h-0.7c-0.3,0-0.5,0-0.8-0.1c-0.2-0.1-0.4-0.2-0.6-0.3c-0.2-0.1-0.3-0.3-0.4-0.5
			C10.5,68.5,10.5,68.2,10.5,68z"/>
		<rect x="61.8" y="71.2" class="st0" width="0.7" height="0.7"/>
		<rect x="60.5" y="71.2" class="st0" width="0.7" height="0.7"/>
		<path class="st0" d="M67.9,71.3c0-0.2,0.1-0.5,0.1-0.8v-0.2h9.2V64h-0.7v5.7h-3.1l1.3-3c-0.2-0.2-0.4-0.3-0.6-0.5
			c-0.2-0.1-0.4-0.3-0.7-0.4c-0.2-0.1-0.5-0.2-0.7-0.3c-0.2-0.1-0.5-0.1-0.7-0.1c-0.2,0-0.5,0-0.7,0.1c-0.2,0.1-0.5,0.1-0.7,0.3
			c-0.2,0.1-0.5,0.2-0.7,0.4c-0.2,0.1-0.4,0.3-0.6,0.5l1.3,3H68v-4.1h-0.7v5c0,0.2,0,0.4,0,0.5c0,0.1-0.1,0.3-0.1,0.3
			s-0.1,0.1-0.2,0.2c-0.1,0-0.2,0.1-0.3,0.1c-0.1,0-0.1,0-0.2,0c0,0-0.1,0-0.2,0l-0.2,0.7c0.2,0.1,0.4,0.1,0.6,0.1
			c0.3,0,0.5,0,0.7-0.1c0.2-0.1,0.3-0.2,0.4-0.4C67.8,71.7,67.9,71.5,67.9,71.3z M70.3,66.9c0.3-0.2,0.6-0.4,0.8-0.5
			c0.3-0.1,0.6-0.2,0.9-0.2c0.3,0,0.6,0.1,1,0.2c0.3,0.1,0.6,0.3,0.8,0.5l-1.1,2.7h-1.3L70.3,66.9z"/>
		<rect x="11.8" y="64" class="st0" width="0.7" height="0.7"/>
		<polygon class="st0" points="14.9,75.1 13.8,75.1 11.3,77.7 11.3,75.1 10.4,75.1 10.4,80.2 11.3,80.2 11.3,78.7 12.1,77.9 
			13.9,80.2 15,80.2 12.8,77.3 		"/>
		<rect x="15.8" y="75.1" class="st0" width="0.9" height="5.1"/>
		<polygon class="st0" points="21.7,78.6 18.9,75.1 18.1,75.1 18.1,80.2 19,80.2 19,76.6 21.8,80.2 22.6,80.2 22.6,75.1 21.7,75.1 
					"/>
		<path class="st0" d="M26.3,78.1h1.3v1c-0.3,0.2-0.8,0.4-1.2,0.4c-1,0-1.7-0.8-1.7-1.8v0c0-1,0.7-1.8,1.7-1.8c0.7,0,1,0.2,1.4,0.5
			l0.6-0.7c-0.5-0.4-1.1-0.7-2-0.7c-1.5,0-2.6,1.2-2.6,2.6v0c0,1.5,1.1,2.6,2.7,2.6c0.9,0,1.6-0.4,2.1-0.8v-2.1h-2.2V78.1z"/>
		<path class="st0" d="M31.6,75.1h-1.9v5.1h1.9c1.6,0,2.7-1.1,2.7-2.6v0C34.4,76.2,33.2,75.1,31.6,75.1z M33.4,77.7
			c0,1-0.7,1.7-1.8,1.7h-1v-3.5h1C32.7,75.9,33.4,76.7,33.4,77.7L33.4,77.7z"/>
		<path class="st0" d="M37.9,75c-1.6,0-2.7,1.2-2.7,2.6v0c0,1.4,1.1,2.6,2.7,2.6c1.6,0,2.7-1.2,2.7-2.6v0C40.6,76.2,39.5,75,37.9,75
			z M39.6,77.7c0,1-0.7,1.8-1.7,1.8c-1,0-1.7-0.8-1.7-1.8v0c0-1,0.7-1.8,1.7-1.8C38.9,75.8,39.6,76.7,39.6,77.7L39.6,77.7z"/>
		<polygon class="st0" points="44.2,77.5 42.6,75.1 41.7,75.1 41.7,80.2 42.6,80.2 42.6,76.6 44.2,79 44.2,79 45.8,76.5 45.8,80.2 
			46.7,80.2 46.7,75.1 45.8,75.1 		"/>
		<path class="st0" d="M52.7,75c-1.6,0-2.7,1.2-2.7,2.6v0c0,1.4,1.1,2.6,2.7,2.6c1.6,0,2.7-1.2,2.7-2.6v0C55.4,76.2,54.3,75,52.7,75
			z M54.4,77.7c0,1-0.7,1.8-1.7,1.8c-1,0-1.7-0.8-1.7-1.8v0c0-1,0.7-1.8,1.7-1.8C53.7,75.8,54.4,76.7,54.4,77.7L54.4,77.7z"/>
		<polygon class="st0" points="56.5,80.2 57.4,80.2 57.4,78.1 60,78.1 60,77.3 57.4,77.3 57.4,75.9 60.3,75.9 60.3,75.1 56.5,75.1 
					"/>
		<path class="st0" d="M65.5,77.2c-1-0.2-1.2-0.4-1.2-0.8v0c0-0.3,0.3-0.6,0.8-0.6c0.5,0,0.9,0.2,1.4,0.5l0.5-0.7
			c-0.5-0.4-1.1-0.6-1.9-0.6c-1,0-1.8,0.6-1.8,1.5v0c0,0.9,0.6,1.3,1.7,1.5c1,0.2,1.2,0.4,1.2,0.8v0c0,0.4-0.4,0.6-0.9,0.6
			c-0.6,0-1.1-0.2-1.6-0.7l-0.5,0.6c0.6,0.5,1.4,0.8,2.1,0.8c1.1,0,1.8-0.6,1.8-1.5v0C67.1,77.9,66.6,77.5,65.5,77.2z"/>
		<path class="st0" d="M69.9,75.1l-2.3,5.2h0.9l0.5-1.2h2.4l0.5,1.2h1l-2.3-5.2H69.9z M69.4,78.2l0.9-2l0.9,2H69.4z"/>
		<path class="st0" d="M77,78c0,0.9-0.5,1.4-1.3,1.4c-0.8,0-1.3-0.5-1.3-1.5v-2.9h-0.9V78c0,1.5,0.8,2.3,2.2,2.3
			c1.3,0,2.2-0.8,2.2-2.3v-2.9H77V78z"/>
		<path class="st0" d="M81.1,75.1h-1.9v5.1h1.9c1.6,0,2.7-1.1,2.7-2.6v0C83.8,76.2,82.7,75.1,81.1,75.1z M82.9,77.7
			c0,1-0.7,1.7-1.8,1.7h-1v-3.5h1C82.2,75.9,82.9,76.7,82.9,77.7L82.9,77.7z"/>
		<rect x="85" y="75.1" class="st0" width="0.9" height="5.1"/>
		<path class="st0" d="M91.3,75.1L89,80.2h0.9l0.5-1.2h2.4l0.5,1.2h1l-2.3-5.2H91.3z M90.8,78.2l0.9-2l0.9,2H90.8z"/>
		<path class="st0" d="M99.4,76.7L99.4,76.7c0-0.5-0.2-0.8-0.4-1.1c-0.3-0.3-0.8-0.5-1.5-0.5h-2.3v5.1h0.9v-1.8h1.1h0l1.3,1.8h1.1
			l-1.4-1.9C98.9,78.1,99.4,77.6,99.4,76.7z M96.1,77.6v-1.7h1.3c0.7,0,1.1,0.3,1.1,0.8v0c0,0.5-0.4,0.9-1.1,0.9H96.1z"/>
		<path class="st0" d="M102.5,75.1l-2.3,5.2h0.9l0.5-1.2h2.4l0.5,1.2h1l-2.3-5.2H102.5z M102,78.2l0.9-2l0.9,2H102z"/>
		<path class="st0" d="M109.7,77.6c0.4-0.2,0.7-0.5,0.7-1.1v0c0-0.3-0.1-0.6-0.3-0.8c-0.3-0.3-0.8-0.5-1.3-0.5h-2.3v5.1h2.4
			c1.1,0,1.9-0.5,1.9-1.4v0C110.7,78.1,110.3,77.8,109.7,77.6z M107.3,75.9h1.3c0.6,0,0.9,0.2,0.9,0.7v0c0,0.5-0.4,0.7-1,0.7h-1.2
			V75.9z M109.8,78.7c0,0.5-0.4,0.7-1,0.7h-1.5V78h1.4C109.4,78,109.8,78.3,109.8,78.7L109.8,78.7z"/>
		<rect x="111.8" y="75.1" class="st0" width="0.9" height="5.1"/>
		<path class="st0" d="M116.7,75.1h-0.8l-2.3,5.2h0.9L115,79h2.4l0.5,1.2h1L116.7,75.1z M115.3,78.2l0.9-2l0.9,2H115.3z"/>
	</g>
</g>
</svg>
